%TF.GenerationSoftware,KiCad,Pcbnew,(6.0.10)*%
%TF.CreationDate,2023-02-07T20:48:55+01:00*%
%TF.ProjectId,JoystickAdapter,4a6f7973-7469-4636-9b41-646170746572,1.0*%
%TF.SameCoordinates,Original*%
%TF.FileFunction,Copper,L3,Inr*%
%TF.FilePolarity,Positive*%
%FSLAX46Y46*%
G04 Gerber Fmt 4.6, Leading zero omitted, Abs format (unit mm)*
G04 Created by KiCad (PCBNEW (6.0.10)) date 2023-02-07 20:48:55*
%MOMM*%
%LPD*%
G01*
G04 APERTURE LIST*
%TA.AperFunction,NonConductor*%
%ADD10C,0.200000*%
%TD*%
%ADD11C,0.150000*%
%TA.AperFunction,NonConductor*%
%ADD12C,0.150000*%
%TD*%
%TA.AperFunction,ComponentPad*%
%ADD13R,1.700000X1.700000*%
%TD*%
%TA.AperFunction,ComponentPad*%
%ADD14O,1.700000X1.700000*%
%TD*%
%TA.AperFunction,ViaPad*%
%ADD15C,0.800000*%
%TD*%
G04 APERTURE END LIST*
D10*
X102870000Y-107950000D02*
X105410000Y-107950000D01*
X104140000Y-106680000D02*
X104140000Y-109220000D01*
D11*
D12*
X126795785Y-105862380D02*
X126319595Y-105862380D01*
X126319595Y-104862380D01*
X127033880Y-104862380D02*
X127652928Y-104862380D01*
X127319595Y-105243333D01*
X127462452Y-105243333D01*
X127557690Y-105290952D01*
X127605309Y-105338571D01*
X127652928Y-105433809D01*
X127652928Y-105671904D01*
X127605309Y-105767142D01*
X127557690Y-105814761D01*
X127462452Y-105862380D01*
X127176738Y-105862380D01*
X127081500Y-105814761D01*
X127033880Y-105767142D01*
D13*
%TO.N,/JOY_SANWA_GND*%
%TO.C,J2*%
X111760000Y-106680000D03*
D14*
%TO.N,/JOY_SANWA_X_LEFT*%
X114300000Y-106680000D03*
%TO.N,/JOY_SANWA_X_RIGHT*%
X116840000Y-106680000D03*
%TO.N,/JOY_SANWA_Y_DOWN*%
X119380000Y-106680000D03*
%TO.N,/JOY_SANWA_Y_UP*%
X121920000Y-106680000D03*
%TD*%
D13*
%TO.N,GND*%
%TO.C,J3*%
X115570000Y-93980000D03*
D14*
%TO.N,Net-(J3-Pad2)*%
X118110000Y-93980000D03*
%TD*%
D13*
%TO.N,/JOY_KY023_GND*%
%TO.C,J1*%
X111760000Y-116840000D03*
D14*
%TO.N,/JOY_KY023_+5V*%
X114300000Y-116840000D03*
%TO.N,JOY_KY023_X*%
X116840000Y-116840000D03*
%TO.N,JOY_KY023_Y*%
X119380000Y-116840000D03*
%TO.N,JOY_KY023_SW*%
X121920000Y-116840000D03*
%TD*%
D15*
%TO.N,+5V*%
X114076000Y-90965000D03*
%TO.N,/JOY_SANWA_X_RIGHT*%
X115712000Y-102210000D03*
%TO.N,Net-(R26-Pad2)*%
X114966000Y-103564000D03*
%TO.N,Net-(R25-Pad2)*%
X123875000Y-102967000D03*
%TO.N,/JOY_SANWA_X_LEFT*%
X114397400Y-102066000D03*
%TO.N,Net-(D5-Pad1)*%
X128903000Y-99967200D03*
%TO.N,Net-(D4-Pad1)*%
X123644000Y-101791000D03*
%TO.N,Net-(D3-Pad1)*%
X116840000Y-99185900D03*
%TO.N,Net-(D2-Pad1)*%
X111760000Y-101952000D03*
%TO.N,+5V*%
X129794000Y-92964000D03*
X115062000Y-110744000D03*
X110998000Y-98806000D03*
X116840000Y-96266000D03*
X115316000Y-113284000D03*
X121920000Y-96266000D03*
X119114000Y-97405000D03*
X127254000Y-99060000D03*
X115062000Y-108966000D03*
X115316000Y-112268000D03*
X103824000Y-96012000D03*
%TO.N,GND*%
X129794000Y-94742000D03*
X122428000Y-84836000D03*
X129794000Y-96520000D03*
X106680000Y-105801000D03*
X110998000Y-108966000D03*
X124460000Y-97028000D03*
X110998000Y-110744000D03*
X110744000Y-112268000D03*
X111252000Y-84836000D03*
X119079000Y-100024000D03*
X108204000Y-96106800D03*
X112776000Y-113030000D03*
X113365000Y-95082800D03*
X104604000Y-99888800D03*
%TD*%
%TA.AperFunction,Conductor*%
%TO.N,+5V*%
G36*
X130752121Y-82570002D02*
G01*
X130798614Y-82623658D01*
X130810000Y-82676000D01*
X130810000Y-83694000D01*
X130789998Y-83762121D01*
X130736342Y-83808614D01*
X130684000Y-83820000D01*
X123190000Y-83820000D01*
X123190000Y-84019369D01*
X123169998Y-84087490D01*
X123116342Y-84133983D01*
X123046068Y-84144087D01*
X122989939Y-84121305D01*
X122890094Y-84048763D01*
X122890093Y-84048762D01*
X122884752Y-84044882D01*
X122878724Y-84042198D01*
X122878722Y-84042197D01*
X122716319Y-83969891D01*
X122716318Y-83969891D01*
X122710288Y-83967206D01*
X122616888Y-83947353D01*
X122529944Y-83928872D01*
X122529939Y-83928872D01*
X122523487Y-83927500D01*
X122332513Y-83927500D01*
X122326061Y-83928872D01*
X122326056Y-83928872D01*
X122239112Y-83947353D01*
X122145712Y-83967206D01*
X122139682Y-83969891D01*
X122139681Y-83969891D01*
X121977278Y-84042197D01*
X121977276Y-84042198D01*
X121971248Y-84044882D01*
X121816747Y-84157134D01*
X121688960Y-84299056D01*
X121593473Y-84464444D01*
X121534458Y-84646072D01*
X121514496Y-84836000D01*
X121534458Y-85025928D01*
X121593473Y-85207556D01*
X121688960Y-85372944D01*
X121816747Y-85514866D01*
X121971248Y-85627118D01*
X121977276Y-85629802D01*
X121977278Y-85629803D01*
X122028551Y-85652631D01*
X122145712Y-85704794D01*
X122239113Y-85724647D01*
X122326056Y-85743128D01*
X122326061Y-85743128D01*
X122332513Y-85744500D01*
X122523487Y-85744500D01*
X122529939Y-85743128D01*
X122529944Y-85743128D01*
X122616887Y-85724647D01*
X122710288Y-85704794D01*
X122827449Y-85652631D01*
X122878722Y-85629803D01*
X122878724Y-85629802D01*
X122884752Y-85627118D01*
X122930568Y-85593831D01*
X122989939Y-85550695D01*
X123056807Y-85526837D01*
X123125958Y-85542917D01*
X123175438Y-85593831D01*
X123190000Y-85652631D01*
X123190000Y-91440000D01*
X130684000Y-91440000D01*
X130752121Y-91460002D01*
X130798614Y-91513658D01*
X130810000Y-91566000D01*
X130810000Y-94214527D01*
X130789998Y-94282648D01*
X130736342Y-94329141D01*
X130666068Y-94339245D01*
X130601488Y-94309751D01*
X130574881Y-94277527D01*
X130572281Y-94273023D01*
X130533040Y-94205056D01*
X130405253Y-94063134D01*
X130250752Y-93950882D01*
X130244724Y-93948198D01*
X130244722Y-93948197D01*
X130082319Y-93875891D01*
X130082318Y-93875891D01*
X130076288Y-93873206D01*
X129982888Y-93853353D01*
X129895944Y-93834872D01*
X129895939Y-93834872D01*
X129889487Y-93833500D01*
X129698513Y-93833500D01*
X129692061Y-93834872D01*
X129692056Y-93834872D01*
X129605112Y-93853353D01*
X129511712Y-93873206D01*
X129505682Y-93875891D01*
X129505681Y-93875891D01*
X129343278Y-93948197D01*
X129343276Y-93948198D01*
X129337248Y-93950882D01*
X129182747Y-94063134D01*
X129054960Y-94205056D01*
X128959473Y-94370444D01*
X128900458Y-94552072D01*
X128880496Y-94742000D01*
X128881186Y-94748565D01*
X128899322Y-94921115D01*
X128900458Y-94931928D01*
X128959473Y-95113556D01*
X129054960Y-95278944D01*
X129059378Y-95283851D01*
X129059379Y-95283852D01*
X129103270Y-95332598D01*
X129182747Y-95420866D01*
X129228842Y-95454356D01*
X129331668Y-95529064D01*
X129375022Y-95585287D01*
X129381097Y-95656023D01*
X129347965Y-95718814D01*
X129331668Y-95732936D01*
X129182747Y-95841134D01*
X129178326Y-95846044D01*
X129178325Y-95846045D01*
X129150811Y-95876603D01*
X129054960Y-95983056D01*
X129049492Y-95992527D01*
X128987307Y-96100235D01*
X128959473Y-96148444D01*
X128900458Y-96330072D01*
X128899768Y-96336633D01*
X128899768Y-96336635D01*
X128897938Y-96354045D01*
X128880496Y-96520000D01*
X128900458Y-96709928D01*
X128959473Y-96891556D01*
X129054960Y-97056944D01*
X129182747Y-97198866D01*
X129337248Y-97311118D01*
X129343276Y-97313802D01*
X129343278Y-97313803D01*
X129505681Y-97386109D01*
X129511712Y-97388794D01*
X129605112Y-97408647D01*
X129692056Y-97427128D01*
X129692061Y-97427128D01*
X129698513Y-97428500D01*
X129889487Y-97428500D01*
X129895939Y-97427128D01*
X129895944Y-97427128D01*
X129982888Y-97408647D01*
X130076288Y-97388794D01*
X130082319Y-97386109D01*
X130244722Y-97313803D01*
X130244724Y-97313802D01*
X130250752Y-97311118D01*
X130405253Y-97198866D01*
X130533040Y-97056944D01*
X130574882Y-96984472D01*
X130626263Y-96935480D01*
X130695977Y-96922044D01*
X130761888Y-96948430D01*
X130803070Y-97006262D01*
X130810000Y-97047473D01*
X130810000Y-110364000D01*
X130789998Y-110432121D01*
X130736342Y-110478614D01*
X130684000Y-110490000D01*
X124460000Y-110490000D01*
X124460000Y-117984000D01*
X124439998Y-118052121D01*
X124386342Y-118098614D01*
X124334000Y-118110000D01*
X122872680Y-118110000D01*
X122804559Y-118089998D01*
X122758066Y-118036342D01*
X122747962Y-117966068D01*
X122777456Y-117901488D01*
X122792189Y-117888089D01*
X122791702Y-117887513D01*
X122795657Y-117884171D01*
X122799860Y-117881173D01*
X122958096Y-117723489D01*
X123088453Y-117542077D01*
X123109320Y-117499857D01*
X123185136Y-117346453D01*
X123185137Y-117346451D01*
X123187430Y-117341811D01*
X123252370Y-117128069D01*
X123281529Y-116906590D01*
X123283156Y-116840000D01*
X123264852Y-116617361D01*
X123210431Y-116400702D01*
X123121354Y-116195840D01*
X123000014Y-116008277D01*
X122849670Y-115843051D01*
X122845619Y-115839852D01*
X122845615Y-115839848D01*
X122678414Y-115707800D01*
X122678410Y-115707798D01*
X122674359Y-115704598D01*
X122478789Y-115596638D01*
X122473920Y-115594914D01*
X122473916Y-115594912D01*
X122273087Y-115523795D01*
X122273083Y-115523794D01*
X122268212Y-115522069D01*
X122263119Y-115521162D01*
X122263116Y-115521161D01*
X122053373Y-115483800D01*
X122053367Y-115483799D01*
X122048284Y-115482894D01*
X121974452Y-115481992D01*
X121830081Y-115480228D01*
X121830079Y-115480228D01*
X121824911Y-115480165D01*
X121604091Y-115513955D01*
X121391756Y-115583357D01*
X121193607Y-115686507D01*
X121189474Y-115689610D01*
X121189471Y-115689612D01*
X121019100Y-115817530D01*
X121014965Y-115820635D01*
X121011393Y-115824373D01*
X120903729Y-115937037D01*
X120860629Y-115982138D01*
X120753201Y-116139621D01*
X120698293Y-116184621D01*
X120627768Y-116192792D01*
X120564021Y-116161538D01*
X120543324Y-116137054D01*
X120462822Y-116012617D01*
X120462820Y-116012614D01*
X120460014Y-116008277D01*
X120309670Y-115843051D01*
X120305619Y-115839852D01*
X120305615Y-115839848D01*
X120138414Y-115707800D01*
X120138410Y-115707798D01*
X120134359Y-115704598D01*
X119938789Y-115596638D01*
X119933920Y-115594914D01*
X119933916Y-115594912D01*
X119733087Y-115523795D01*
X119733083Y-115523794D01*
X119728212Y-115522069D01*
X119723119Y-115521162D01*
X119723116Y-115521161D01*
X119513373Y-115483800D01*
X119513367Y-115483799D01*
X119508284Y-115482894D01*
X119434452Y-115481992D01*
X119290081Y-115480228D01*
X119290079Y-115480228D01*
X119284911Y-115480165D01*
X119064091Y-115513955D01*
X118851756Y-115583357D01*
X118653607Y-115686507D01*
X118649474Y-115689610D01*
X118649471Y-115689612D01*
X118479100Y-115817530D01*
X118474965Y-115820635D01*
X118471393Y-115824373D01*
X118363729Y-115937037D01*
X118320629Y-115982138D01*
X118213201Y-116139621D01*
X118158293Y-116184621D01*
X118087768Y-116192792D01*
X118024021Y-116161538D01*
X118003324Y-116137054D01*
X117922822Y-116012617D01*
X117922820Y-116012614D01*
X117920014Y-116008277D01*
X117769670Y-115843051D01*
X117765619Y-115839852D01*
X117765615Y-115839848D01*
X117598414Y-115707800D01*
X117598410Y-115707798D01*
X117594359Y-115704598D01*
X117398789Y-115596638D01*
X117393920Y-115594914D01*
X117393916Y-115594912D01*
X117193087Y-115523795D01*
X117193083Y-115523794D01*
X117188212Y-115522069D01*
X117183119Y-115521162D01*
X117183116Y-115521161D01*
X116973373Y-115483800D01*
X116973367Y-115483799D01*
X116968284Y-115482894D01*
X116894452Y-115481992D01*
X116750081Y-115480228D01*
X116750079Y-115480228D01*
X116744911Y-115480165D01*
X116524091Y-115513955D01*
X116311756Y-115583357D01*
X116113607Y-115686507D01*
X116109474Y-115689610D01*
X116109471Y-115689612D01*
X115939100Y-115817530D01*
X115934965Y-115820635D01*
X115931393Y-115824373D01*
X115823729Y-115937037D01*
X115780629Y-115982138D01*
X115673201Y-116139621D01*
X115618293Y-116184621D01*
X115547768Y-116192792D01*
X115484021Y-116161538D01*
X115463324Y-116137054D01*
X115382822Y-116012617D01*
X115382820Y-116012614D01*
X115380014Y-116008277D01*
X115229670Y-115843051D01*
X115225619Y-115839852D01*
X115225615Y-115839848D01*
X115058414Y-115707800D01*
X115058410Y-115707798D01*
X115054359Y-115704598D01*
X114858789Y-115596638D01*
X114853920Y-115594914D01*
X114853916Y-115594912D01*
X114653087Y-115523795D01*
X114653083Y-115523794D01*
X114648212Y-115522069D01*
X114643119Y-115521162D01*
X114643116Y-115521161D01*
X114433373Y-115483800D01*
X114433367Y-115483799D01*
X114428284Y-115482894D01*
X114354452Y-115481992D01*
X114210081Y-115480228D01*
X114210079Y-115480228D01*
X114204911Y-115480165D01*
X113984091Y-115513955D01*
X113771756Y-115583357D01*
X113573607Y-115686507D01*
X113569474Y-115689610D01*
X113569471Y-115689612D01*
X113399100Y-115817530D01*
X113394965Y-115820635D01*
X113338537Y-115879684D01*
X113314283Y-115905064D01*
X113252759Y-115940494D01*
X113181846Y-115937037D01*
X113124060Y-115895791D01*
X113105207Y-115862243D01*
X113063767Y-115751703D01*
X113060615Y-115743295D01*
X112973261Y-115626739D01*
X112856705Y-115539385D01*
X112720316Y-115488255D01*
X112658134Y-115481500D01*
X110861866Y-115481500D01*
X110799684Y-115488255D01*
X110663295Y-115539385D01*
X110546739Y-115626739D01*
X110459385Y-115743295D01*
X110408255Y-115879684D01*
X110401500Y-115941866D01*
X110401500Y-117738134D01*
X110408255Y-117800316D01*
X110413362Y-117813938D01*
X110459385Y-117936705D01*
X110456711Y-117937708D01*
X110468770Y-117992850D01*
X110444032Y-118059398D01*
X110387243Y-118102007D01*
X110343081Y-118110000D01*
X109346000Y-118110000D01*
X109277879Y-118089998D01*
X109231386Y-118036342D01*
X109220000Y-117984000D01*
X109220000Y-112268000D01*
X109830496Y-112268000D01*
X109831186Y-112274565D01*
X109838826Y-112347251D01*
X109850458Y-112457928D01*
X109909473Y-112639556D01*
X110004960Y-112804944D01*
X110009378Y-112809851D01*
X110009379Y-112809852D01*
X110036589Y-112840072D01*
X110132747Y-112946866D01*
X110231843Y-113018864D01*
X110256207Y-113036565D01*
X110287248Y-113059118D01*
X110293276Y-113061802D01*
X110293278Y-113061803D01*
X110455681Y-113134109D01*
X110461712Y-113136794D01*
X110555112Y-113156647D01*
X110642056Y-113175128D01*
X110642061Y-113175128D01*
X110648513Y-113176500D01*
X110839487Y-113176500D01*
X110845939Y-113175128D01*
X110845944Y-113175128D01*
X110932888Y-113156647D01*
X111026288Y-113136794D01*
X111032319Y-113134109D01*
X111194722Y-113061803D01*
X111194724Y-113061802D01*
X111200752Y-113059118D01*
X111231794Y-113036565D01*
X111240830Y-113030000D01*
X111862496Y-113030000D01*
X111863186Y-113036565D01*
X111877894Y-113176500D01*
X111882458Y-113219928D01*
X111941473Y-113401556D01*
X112036960Y-113566944D01*
X112164747Y-113708866D01*
X112319248Y-113821118D01*
X112325276Y-113823802D01*
X112325278Y-113823803D01*
X112487681Y-113896109D01*
X112493712Y-113898794D01*
X112587112Y-113918647D01*
X112674056Y-113937128D01*
X112674061Y-113937128D01*
X112680513Y-113938500D01*
X112871487Y-113938500D01*
X112877939Y-113937128D01*
X112877944Y-113937128D01*
X112964887Y-113918647D01*
X113058288Y-113898794D01*
X113064319Y-113896109D01*
X113226722Y-113823803D01*
X113226724Y-113823802D01*
X113232752Y-113821118D01*
X113387253Y-113708866D01*
X113515040Y-113566944D01*
X113610527Y-113401556D01*
X113669542Y-113219928D01*
X113674107Y-113176500D01*
X113688814Y-113036565D01*
X113689504Y-113030000D01*
X113688814Y-113023435D01*
X113670232Y-112846635D01*
X113670232Y-112846633D01*
X113669542Y-112840072D01*
X113610527Y-112658444D01*
X113515040Y-112493056D01*
X113489064Y-112464206D01*
X113391675Y-112356045D01*
X113391674Y-112356044D01*
X113387253Y-112351134D01*
X113272829Y-112268000D01*
X113238094Y-112242763D01*
X113238093Y-112242762D01*
X113232752Y-112238882D01*
X113226724Y-112236198D01*
X113226722Y-112236197D01*
X113064319Y-112163891D01*
X113064318Y-112163891D01*
X113058288Y-112161206D01*
X112964888Y-112141353D01*
X112877944Y-112122872D01*
X112877939Y-112122872D01*
X112871487Y-112121500D01*
X112680513Y-112121500D01*
X112674061Y-112122872D01*
X112674056Y-112122872D01*
X112587112Y-112141353D01*
X112493712Y-112161206D01*
X112487682Y-112163891D01*
X112487681Y-112163891D01*
X112325278Y-112236197D01*
X112325276Y-112236198D01*
X112319248Y-112238882D01*
X112313907Y-112242762D01*
X112313906Y-112242763D01*
X112279171Y-112268000D01*
X112164747Y-112351134D01*
X112160326Y-112356044D01*
X112160325Y-112356045D01*
X112062937Y-112464206D01*
X112036960Y-112493056D01*
X111941473Y-112658444D01*
X111882458Y-112840072D01*
X111881768Y-112846633D01*
X111881768Y-112846635D01*
X111863186Y-113023435D01*
X111862496Y-113030000D01*
X111240830Y-113030000D01*
X111256157Y-113018864D01*
X111355253Y-112946866D01*
X111451411Y-112840072D01*
X111478621Y-112809852D01*
X111478622Y-112809851D01*
X111483040Y-112804944D01*
X111578527Y-112639556D01*
X111637542Y-112457928D01*
X111649175Y-112347251D01*
X111656814Y-112274565D01*
X111657504Y-112268000D01*
X111646280Y-112161206D01*
X111638232Y-112084635D01*
X111638232Y-112084633D01*
X111637542Y-112078072D01*
X111578527Y-111896444D01*
X111483040Y-111731056D01*
X111458835Y-111704173D01*
X111428119Y-111640169D01*
X111436882Y-111569715D01*
X111478411Y-111517929D01*
X111600960Y-111428891D01*
X111609253Y-111422866D01*
X111737040Y-111280944D01*
X111832527Y-111115556D01*
X111891542Y-110933928D01*
X111911504Y-110744000D01*
X111891542Y-110554072D01*
X111832527Y-110372444D01*
X111737040Y-110207056D01*
X111609253Y-110065134D01*
X111460332Y-109956936D01*
X111416978Y-109900713D01*
X111410903Y-109829977D01*
X111444035Y-109767186D01*
X111460332Y-109753064D01*
X111596699Y-109653987D01*
X111609253Y-109644866D01*
X111709592Y-109533428D01*
X111732621Y-109507852D01*
X111732622Y-109507851D01*
X111737040Y-109502944D01*
X111832527Y-109337556D01*
X111891542Y-109155928D01*
X111911504Y-108966000D01*
X111891542Y-108776072D01*
X111832527Y-108594444D01*
X111818349Y-108569886D01*
X111740341Y-108434774D01*
X111737040Y-108429056D01*
X111609253Y-108287134D01*
X111580763Y-108266435D01*
X111537411Y-108210213D01*
X111531336Y-108139477D01*
X111564468Y-108076685D01*
X111626288Y-108041774D01*
X111654826Y-108038500D01*
X112658134Y-108038500D01*
X112720316Y-108031745D01*
X112856705Y-107980615D01*
X112973261Y-107893261D01*
X113060615Y-107776705D01*
X113082799Y-107717529D01*
X113104598Y-107659382D01*
X113147240Y-107602618D01*
X113213802Y-107577918D01*
X113283150Y-107593126D01*
X113317817Y-107621114D01*
X113346250Y-107653938D01*
X113518126Y-107796632D01*
X113711000Y-107909338D01*
X113919692Y-107989030D01*
X113924760Y-107990061D01*
X113924763Y-107990062D01*
X114032017Y-108011883D01*
X114138597Y-108033567D01*
X114143772Y-108033757D01*
X114143774Y-108033757D01*
X114356673Y-108041564D01*
X114356677Y-108041564D01*
X114361837Y-108041753D01*
X114366957Y-108041097D01*
X114366959Y-108041097D01*
X114578288Y-108014025D01*
X114578289Y-108014025D01*
X114583416Y-108013368D01*
X114639350Y-107996587D01*
X114792429Y-107950661D01*
X114792434Y-107950659D01*
X114797384Y-107949174D01*
X114997994Y-107850896D01*
X115179860Y-107721173D01*
X115338096Y-107563489D01*
X115444569Y-107415316D01*
X115468453Y-107382077D01*
X115469776Y-107383028D01*
X115516645Y-107339857D01*
X115586580Y-107327625D01*
X115652026Y-107355144D01*
X115679875Y-107386994D01*
X115739987Y-107485088D01*
X115886250Y-107653938D01*
X116058126Y-107796632D01*
X116251000Y-107909338D01*
X116459692Y-107989030D01*
X116464760Y-107990061D01*
X116464763Y-107990062D01*
X116572017Y-108011883D01*
X116678597Y-108033567D01*
X116683772Y-108033757D01*
X116683774Y-108033757D01*
X116896673Y-108041564D01*
X116896677Y-108041564D01*
X116901837Y-108041753D01*
X116906957Y-108041097D01*
X116906959Y-108041097D01*
X117118288Y-108014025D01*
X117118289Y-108014025D01*
X117123416Y-108013368D01*
X117179350Y-107996587D01*
X117332429Y-107950661D01*
X117332434Y-107950659D01*
X117337384Y-107949174D01*
X117537994Y-107850896D01*
X117719860Y-107721173D01*
X117878096Y-107563489D01*
X117984569Y-107415316D01*
X118008453Y-107382077D01*
X118009776Y-107383028D01*
X118056645Y-107339857D01*
X118126580Y-107327625D01*
X118192026Y-107355144D01*
X118219875Y-107386994D01*
X118279987Y-107485088D01*
X118426250Y-107653938D01*
X118598126Y-107796632D01*
X118791000Y-107909338D01*
X118999692Y-107989030D01*
X119004760Y-107990061D01*
X119004763Y-107990062D01*
X119112017Y-108011883D01*
X119218597Y-108033567D01*
X119223772Y-108033757D01*
X119223774Y-108033757D01*
X119436673Y-108041564D01*
X119436677Y-108041564D01*
X119441837Y-108041753D01*
X119446957Y-108041097D01*
X119446959Y-108041097D01*
X119658288Y-108014025D01*
X119658289Y-108014025D01*
X119663416Y-108013368D01*
X119719350Y-107996587D01*
X119872429Y-107950661D01*
X119872434Y-107950659D01*
X119877384Y-107949174D01*
X120077994Y-107850896D01*
X120259860Y-107721173D01*
X120418096Y-107563489D01*
X120524569Y-107415316D01*
X120548453Y-107382077D01*
X120549776Y-107383028D01*
X120596645Y-107339857D01*
X120666580Y-107327625D01*
X120732026Y-107355144D01*
X120759875Y-107386994D01*
X120819987Y-107485088D01*
X120966250Y-107653938D01*
X121138126Y-107796632D01*
X121331000Y-107909338D01*
X121539692Y-107989030D01*
X121544760Y-107990061D01*
X121544763Y-107990062D01*
X121652017Y-108011883D01*
X121758597Y-108033567D01*
X121763772Y-108033757D01*
X121763774Y-108033757D01*
X121976673Y-108041564D01*
X121976677Y-108041564D01*
X121981837Y-108041753D01*
X121986957Y-108041097D01*
X121986959Y-108041097D01*
X122198288Y-108014025D01*
X122198289Y-108014025D01*
X122203416Y-108013368D01*
X122259350Y-107996587D01*
X122412429Y-107950661D01*
X122412434Y-107950659D01*
X122417384Y-107949174D01*
X122617994Y-107850896D01*
X122799860Y-107721173D01*
X122958096Y-107563489D01*
X123064569Y-107415316D01*
X123085435Y-107386277D01*
X123088453Y-107382077D01*
X123101300Y-107356084D01*
X123185136Y-107186453D01*
X123185137Y-107186451D01*
X123187430Y-107181811D01*
X123252370Y-106968069D01*
X123269758Y-106836000D01*
X125475500Y-106836000D01*
X128404405Y-106836000D01*
X128404405Y-103984000D01*
X125475500Y-103984000D01*
X125475500Y-106836000D01*
X123269758Y-106836000D01*
X123281529Y-106746590D01*
X123283156Y-106680000D01*
X123264852Y-106457361D01*
X123210431Y-106240702D01*
X123121354Y-106035840D01*
X123000014Y-105848277D01*
X122849670Y-105683051D01*
X122845619Y-105679852D01*
X122845615Y-105679848D01*
X122678414Y-105547800D01*
X122678410Y-105547798D01*
X122674359Y-105544598D01*
X122478789Y-105436638D01*
X122473920Y-105434914D01*
X122473916Y-105434912D01*
X122273087Y-105363795D01*
X122273083Y-105363794D01*
X122268212Y-105362069D01*
X122263119Y-105361162D01*
X122263116Y-105361161D01*
X122053373Y-105323800D01*
X122053367Y-105323799D01*
X122048284Y-105322894D01*
X121974452Y-105321992D01*
X121830081Y-105320228D01*
X121830079Y-105320228D01*
X121824911Y-105320165D01*
X121604091Y-105353955D01*
X121391756Y-105423357D01*
X121193607Y-105526507D01*
X121189474Y-105529610D01*
X121189471Y-105529612D01*
X121019100Y-105657530D01*
X121014965Y-105660635D01*
X121011393Y-105664373D01*
X120903729Y-105777037D01*
X120860629Y-105822138D01*
X120753201Y-105979621D01*
X120698293Y-106024621D01*
X120627768Y-106032792D01*
X120564021Y-106001538D01*
X120543324Y-105977054D01*
X120462822Y-105852617D01*
X120462820Y-105852614D01*
X120460014Y-105848277D01*
X120309670Y-105683051D01*
X120305619Y-105679852D01*
X120305615Y-105679848D01*
X120138414Y-105547800D01*
X120138410Y-105547798D01*
X120134359Y-105544598D01*
X119938789Y-105436638D01*
X119933920Y-105434914D01*
X119933916Y-105434912D01*
X119733087Y-105363795D01*
X119733083Y-105363794D01*
X119728212Y-105362069D01*
X119723119Y-105361162D01*
X119723116Y-105361161D01*
X119513373Y-105323800D01*
X119513367Y-105323799D01*
X119508284Y-105322894D01*
X119434452Y-105321992D01*
X119290081Y-105320228D01*
X119290079Y-105320228D01*
X119284911Y-105320165D01*
X119064091Y-105353955D01*
X118851756Y-105423357D01*
X118653607Y-105526507D01*
X118649474Y-105529610D01*
X118649471Y-105529612D01*
X118479100Y-105657530D01*
X118474965Y-105660635D01*
X118471393Y-105664373D01*
X118363729Y-105777037D01*
X118320629Y-105822138D01*
X118213201Y-105979621D01*
X118158293Y-106024621D01*
X118087768Y-106032792D01*
X118024021Y-106001538D01*
X118003324Y-105977054D01*
X117922822Y-105852617D01*
X117922820Y-105852614D01*
X117920014Y-105848277D01*
X117769670Y-105683051D01*
X117765619Y-105679852D01*
X117765615Y-105679848D01*
X117598414Y-105547800D01*
X117598410Y-105547798D01*
X117594359Y-105544598D01*
X117398789Y-105436638D01*
X117393920Y-105434914D01*
X117393916Y-105434912D01*
X117193087Y-105363795D01*
X117193083Y-105363794D01*
X117188212Y-105362069D01*
X117183119Y-105361162D01*
X117183116Y-105361161D01*
X116973373Y-105323800D01*
X116973367Y-105323799D01*
X116968284Y-105322894D01*
X116894452Y-105321992D01*
X116750081Y-105320228D01*
X116750079Y-105320228D01*
X116744911Y-105320165D01*
X116524091Y-105353955D01*
X116311756Y-105423357D01*
X116113607Y-105526507D01*
X116109474Y-105529610D01*
X116109471Y-105529612D01*
X115939100Y-105657530D01*
X115934965Y-105660635D01*
X115931393Y-105664373D01*
X115823729Y-105777037D01*
X115780629Y-105822138D01*
X115673201Y-105979621D01*
X115618293Y-106024621D01*
X115547768Y-106032792D01*
X115484021Y-106001538D01*
X115463324Y-105977054D01*
X115382822Y-105852617D01*
X115382820Y-105852614D01*
X115380014Y-105848277D01*
X115229670Y-105683051D01*
X115225619Y-105679852D01*
X115225615Y-105679848D01*
X115058414Y-105547800D01*
X115058410Y-105547798D01*
X115054359Y-105544598D01*
X114858789Y-105436638D01*
X114853920Y-105434914D01*
X114853916Y-105434912D01*
X114653087Y-105363795D01*
X114653083Y-105363794D01*
X114648212Y-105362069D01*
X114643119Y-105361162D01*
X114643116Y-105361161D01*
X114433373Y-105323800D01*
X114433367Y-105323799D01*
X114428284Y-105322894D01*
X114354452Y-105321992D01*
X114210081Y-105320228D01*
X114210079Y-105320228D01*
X114204911Y-105320165D01*
X113984091Y-105353955D01*
X113771756Y-105423357D01*
X113573607Y-105526507D01*
X113569474Y-105529610D01*
X113569471Y-105529612D01*
X113399100Y-105657530D01*
X113394965Y-105660635D01*
X113338537Y-105719684D01*
X113314283Y-105745064D01*
X113252759Y-105780494D01*
X113181846Y-105777037D01*
X113124060Y-105735791D01*
X113105207Y-105702243D01*
X113063767Y-105591703D01*
X113060615Y-105583295D01*
X112973261Y-105466739D01*
X112856705Y-105379385D01*
X112720316Y-105328255D01*
X112658134Y-105321500D01*
X110861866Y-105321500D01*
X110799684Y-105328255D01*
X110663295Y-105379385D01*
X110546739Y-105466739D01*
X110459385Y-105583295D01*
X110408255Y-105719684D01*
X110401500Y-105781866D01*
X110401500Y-107578134D01*
X110408255Y-107640316D01*
X110459385Y-107776705D01*
X110546739Y-107893261D01*
X110553919Y-107898642D01*
X110553920Y-107898643D01*
X110608738Y-107939727D01*
X110651253Y-107996587D01*
X110656279Y-108067405D01*
X110622219Y-108129698D01*
X110584421Y-108155660D01*
X110547281Y-108172195D01*
X110547274Y-108172199D01*
X110541248Y-108174882D01*
X110386747Y-108287134D01*
X110258960Y-108429056D01*
X110255659Y-108434774D01*
X110177652Y-108569886D01*
X110163473Y-108594444D01*
X110104458Y-108776072D01*
X110084496Y-108966000D01*
X110104458Y-109155928D01*
X110163473Y-109337556D01*
X110258960Y-109502944D01*
X110263378Y-109507851D01*
X110263379Y-109507852D01*
X110286408Y-109533428D01*
X110386747Y-109644866D01*
X110399301Y-109653987D01*
X110535668Y-109753064D01*
X110579022Y-109809287D01*
X110585097Y-109880023D01*
X110551965Y-109942814D01*
X110535668Y-109956936D01*
X110386747Y-110065134D01*
X110258960Y-110207056D01*
X110163473Y-110372444D01*
X110104458Y-110554072D01*
X110084496Y-110744000D01*
X110104458Y-110933928D01*
X110163473Y-111115556D01*
X110258960Y-111280944D01*
X110283165Y-111307827D01*
X110313881Y-111371831D01*
X110305118Y-111442285D01*
X110263589Y-111494071D01*
X110132747Y-111589134D01*
X110004960Y-111731056D01*
X109909473Y-111896444D01*
X109850458Y-112078072D01*
X109849768Y-112084633D01*
X109849768Y-112084635D01*
X109841720Y-112161206D01*
X109830496Y-112268000D01*
X109220000Y-112268000D01*
X109220000Y-110490000D01*
X102996000Y-110490000D01*
X102927879Y-110469998D01*
X102881386Y-110416342D01*
X102870000Y-110364000D01*
X102870000Y-108684500D01*
X102890002Y-108616379D01*
X102943658Y-108569886D01*
X102996000Y-108558500D01*
X103405500Y-108558500D01*
X103473621Y-108578502D01*
X103520114Y-108632158D01*
X103531500Y-108684500D01*
X103531500Y-109259885D01*
X103547162Y-109378850D01*
X103608476Y-109526875D01*
X103657244Y-109590431D01*
X103700984Y-109647434D01*
X103700987Y-109647437D01*
X103706013Y-109653987D01*
X103833124Y-109751524D01*
X103840750Y-109754683D01*
X103840752Y-109754684D01*
X103973520Y-109809678D01*
X103973523Y-109809679D01*
X103981150Y-109812838D01*
X104140000Y-109833751D01*
X104148188Y-109832673D01*
X104290662Y-109813916D01*
X104298850Y-109812838D01*
X104446875Y-109751524D01*
X104573987Y-109653987D01*
X104671524Y-109526875D01*
X104732838Y-109378850D01*
X104748500Y-109259885D01*
X104748500Y-108684500D01*
X104768502Y-108616379D01*
X104822158Y-108569886D01*
X104874500Y-108558500D01*
X105449885Y-108558500D01*
X105568850Y-108542838D01*
X105716875Y-108481524D01*
X105785252Y-108429056D01*
X105837434Y-108389016D01*
X105837437Y-108389013D01*
X105843987Y-108383987D01*
X105921286Y-108283251D01*
X105936498Y-108263426D01*
X105941524Y-108256876D01*
X105944684Y-108249248D01*
X105999678Y-108116480D01*
X105999679Y-108116477D01*
X106002838Y-108108850D01*
X106023751Y-107950000D01*
X106002838Y-107791150D01*
X105941524Y-107643125D01*
X105843987Y-107516013D01*
X105716875Y-107418476D01*
X105568850Y-107357162D01*
X105449885Y-107341500D01*
X104874500Y-107341500D01*
X104806379Y-107321498D01*
X104759886Y-107267842D01*
X104748500Y-107215500D01*
X104748500Y-106640115D01*
X104732838Y-106521150D01*
X104671524Y-106373125D01*
X104622756Y-106309569D01*
X104579016Y-106252566D01*
X104579013Y-106252563D01*
X104573987Y-106246013D01*
X104446876Y-106148476D01*
X104439250Y-106145317D01*
X104439248Y-106145316D01*
X104306480Y-106090322D01*
X104306477Y-106090321D01*
X104298850Y-106087162D01*
X104140000Y-106066249D01*
X103981150Y-106087162D01*
X103833125Y-106148476D01*
X103706013Y-106246013D01*
X103608476Y-106373125D01*
X103547162Y-106521150D01*
X103531500Y-106640115D01*
X103531500Y-107215500D01*
X103511498Y-107283621D01*
X103457842Y-107330114D01*
X103405500Y-107341500D01*
X102996000Y-107341500D01*
X102927879Y-107321498D01*
X102881386Y-107267842D01*
X102870000Y-107215500D01*
X102870000Y-105801000D01*
X105766496Y-105801000D01*
X105786458Y-105990928D01*
X105845473Y-106172556D01*
X105940960Y-106337944D01*
X106068747Y-106479866D01*
X106223248Y-106592118D01*
X106229276Y-106594802D01*
X106229278Y-106594803D01*
X106391681Y-106667109D01*
X106397712Y-106669794D01*
X106491112Y-106689647D01*
X106578056Y-106708128D01*
X106578061Y-106708128D01*
X106584513Y-106709500D01*
X106775487Y-106709500D01*
X106781939Y-106708128D01*
X106781944Y-106708128D01*
X106868887Y-106689647D01*
X106962288Y-106669794D01*
X106968319Y-106667109D01*
X107130722Y-106594803D01*
X107130724Y-106594802D01*
X107136752Y-106592118D01*
X107291253Y-106479866D01*
X107419040Y-106337944D01*
X107514527Y-106172556D01*
X107573542Y-105990928D01*
X107593504Y-105801000D01*
X107585783Y-105727540D01*
X107574232Y-105617635D01*
X107574232Y-105617633D01*
X107573542Y-105611072D01*
X107514527Y-105429444D01*
X107419040Y-105264056D01*
X107291253Y-105122134D01*
X107136752Y-105009882D01*
X107130724Y-105007198D01*
X107130722Y-105007197D01*
X106968319Y-104934891D01*
X106968318Y-104934891D01*
X106962288Y-104932206D01*
X106868887Y-104912353D01*
X106781944Y-104893872D01*
X106781939Y-104893872D01*
X106775487Y-104892500D01*
X106584513Y-104892500D01*
X106578061Y-104893872D01*
X106578056Y-104893872D01*
X106491113Y-104912353D01*
X106397712Y-104932206D01*
X106391682Y-104934891D01*
X106391681Y-104934891D01*
X106229278Y-105007197D01*
X106229276Y-105007198D01*
X106223248Y-105009882D01*
X106068747Y-105122134D01*
X105940960Y-105264056D01*
X105845473Y-105429444D01*
X105786458Y-105611072D01*
X105785768Y-105617633D01*
X105785768Y-105617635D01*
X105774217Y-105727540D01*
X105766496Y-105801000D01*
X102870000Y-105801000D01*
X102870000Y-101952000D01*
X110846496Y-101952000D01*
X110847186Y-101958565D01*
X110853651Y-102020072D01*
X110866458Y-102141928D01*
X110925473Y-102323556D01*
X111020960Y-102488944D01*
X111148747Y-102630866D01*
X111303248Y-102743118D01*
X111309276Y-102745802D01*
X111309278Y-102745803D01*
X111379510Y-102777072D01*
X111477712Y-102820794D01*
X111571112Y-102840647D01*
X111658056Y-102859128D01*
X111658061Y-102859128D01*
X111664513Y-102860500D01*
X111855487Y-102860500D01*
X111861939Y-102859128D01*
X111861944Y-102859128D01*
X111948888Y-102840647D01*
X112042288Y-102820794D01*
X112140490Y-102777072D01*
X112210722Y-102745803D01*
X112210724Y-102745802D01*
X112216752Y-102743118D01*
X112371253Y-102630866D01*
X112499040Y-102488944D01*
X112594527Y-102323556D01*
X112653542Y-102141928D01*
X112661523Y-102066000D01*
X113483896Y-102066000D01*
X113484586Y-102072565D01*
X113493385Y-102156279D01*
X113503858Y-102255928D01*
X113562873Y-102437556D01*
X113566176Y-102443278D01*
X113566177Y-102443279D01*
X113581527Y-102469866D01*
X113658360Y-102602944D01*
X113786147Y-102744866D01*
X113821834Y-102770794D01*
X113890653Y-102820794D01*
X113940648Y-102857118D01*
X113946676Y-102859802D01*
X113946678Y-102859803D01*
X114115112Y-102934794D01*
X114114307Y-102936602D01*
X114165122Y-102971348D01*
X114192760Y-103036745D01*
X114180654Y-103106701D01*
X114176702Y-103114105D01*
X114131473Y-103192444D01*
X114072458Y-103374072D01*
X114052496Y-103564000D01*
X114072458Y-103753928D01*
X114131473Y-103935556D01*
X114226960Y-104100944D01*
X114354747Y-104242866D01*
X114509248Y-104355118D01*
X114515276Y-104357802D01*
X114515278Y-104357803D01*
X114677681Y-104430109D01*
X114683712Y-104432794D01*
X114777113Y-104452647D01*
X114864056Y-104471128D01*
X114864061Y-104471128D01*
X114870513Y-104472500D01*
X115061487Y-104472500D01*
X115067939Y-104471128D01*
X115067944Y-104471128D01*
X115154887Y-104452647D01*
X115248288Y-104432794D01*
X115254319Y-104430109D01*
X115416722Y-104357803D01*
X115416724Y-104357802D01*
X115422752Y-104355118D01*
X115577253Y-104242866D01*
X115705040Y-104100944D01*
X115800527Y-103935556D01*
X115859542Y-103753928D01*
X115879504Y-103564000D01*
X115859542Y-103374072D01*
X115821746Y-103257749D01*
X115819718Y-103186782D01*
X115856381Y-103125984D01*
X115915382Y-103095566D01*
X115994288Y-103078794D01*
X116000319Y-103076109D01*
X116162722Y-103003803D01*
X116162724Y-103003802D01*
X116168752Y-103001118D01*
X116323253Y-102888866D01*
X116348794Y-102860500D01*
X116446621Y-102751852D01*
X116446622Y-102751851D01*
X116451040Y-102746944D01*
X116546527Y-102581556D01*
X116605542Y-102399928D01*
X116612968Y-102329279D01*
X116624814Y-102216565D01*
X116625504Y-102210000D01*
X116620830Y-102165532D01*
X116606232Y-102026635D01*
X116606232Y-102026633D01*
X116605542Y-102020072D01*
X116546527Y-101838444D01*
X116522926Y-101797565D01*
X116519136Y-101791000D01*
X122730496Y-101791000D01*
X122731186Y-101797565D01*
X122748108Y-101958565D01*
X122750458Y-101980928D01*
X122809473Y-102162556D01*
X122812776Y-102168278D01*
X122812777Y-102168279D01*
X122836865Y-102210000D01*
X122904960Y-102327944D01*
X122909378Y-102332851D01*
X122909379Y-102332852D01*
X123021082Y-102456911D01*
X123051800Y-102520918D01*
X123042657Y-102591661D01*
X123040473Y-102595444D01*
X122981458Y-102777072D01*
X122961496Y-102967000D01*
X122962186Y-102973565D01*
X122976958Y-103114109D01*
X122981458Y-103156928D01*
X123040473Y-103338556D01*
X123043776Y-103344278D01*
X123043777Y-103344279D01*
X123060978Y-103374072D01*
X123135960Y-103503944D01*
X123140378Y-103508851D01*
X123140379Y-103508852D01*
X123195946Y-103570565D01*
X123263747Y-103645866D01*
X123418248Y-103758118D01*
X123424276Y-103760802D01*
X123424278Y-103760803D01*
X123586681Y-103833109D01*
X123592712Y-103835794D01*
X123686112Y-103855647D01*
X123773056Y-103874128D01*
X123773061Y-103874128D01*
X123779513Y-103875500D01*
X123970487Y-103875500D01*
X123976939Y-103874128D01*
X123976944Y-103874128D01*
X124063888Y-103855647D01*
X124157288Y-103835794D01*
X124163319Y-103833109D01*
X124325722Y-103760803D01*
X124325724Y-103760802D01*
X124331752Y-103758118D01*
X124486253Y-103645866D01*
X124554054Y-103570565D01*
X124609621Y-103508852D01*
X124609622Y-103508851D01*
X124614040Y-103503944D01*
X124689022Y-103374072D01*
X124706223Y-103344279D01*
X124706224Y-103344278D01*
X124709527Y-103338556D01*
X124768542Y-103156928D01*
X124773043Y-103114109D01*
X124787814Y-102973565D01*
X124788504Y-102967000D01*
X124768542Y-102777072D01*
X124709527Y-102595444D01*
X124614040Y-102430056D01*
X124609621Y-102425148D01*
X124497918Y-102301089D01*
X124467200Y-102237082D01*
X124476343Y-102166339D01*
X124478527Y-102162556D01*
X124537542Y-101980928D01*
X124539893Y-101958565D01*
X124556814Y-101797565D01*
X124557504Y-101791000D01*
X124537542Y-101601072D01*
X124478527Y-101419444D01*
X124383040Y-101254056D01*
X124255253Y-101112134D01*
X124100752Y-100999882D01*
X124094724Y-100997198D01*
X124094722Y-100997197D01*
X123932319Y-100924891D01*
X123932318Y-100924891D01*
X123926288Y-100922206D01*
X123832888Y-100902353D01*
X123745944Y-100883872D01*
X123745939Y-100883872D01*
X123739487Y-100882500D01*
X123548513Y-100882500D01*
X123542061Y-100883872D01*
X123542056Y-100883872D01*
X123455112Y-100902353D01*
X123361712Y-100922206D01*
X123355682Y-100924891D01*
X123355681Y-100924891D01*
X123193278Y-100997197D01*
X123193276Y-100997198D01*
X123187248Y-100999882D01*
X123032747Y-101112134D01*
X122904960Y-101254056D01*
X122809473Y-101419444D01*
X122750458Y-101601072D01*
X122730496Y-101791000D01*
X116519136Y-101791000D01*
X116506223Y-101768635D01*
X116451040Y-101673056D01*
X116386226Y-101601072D01*
X116327675Y-101536045D01*
X116327674Y-101536044D01*
X116323253Y-101531134D01*
X116168752Y-101418882D01*
X116162724Y-101416198D01*
X116162722Y-101416197D01*
X116000319Y-101343891D01*
X116000318Y-101343891D01*
X115994288Y-101341206D01*
X115900887Y-101321353D01*
X115813944Y-101302872D01*
X115813939Y-101302872D01*
X115807487Y-101301500D01*
X115616513Y-101301500D01*
X115610061Y-101302872D01*
X115610056Y-101302872D01*
X115523113Y-101321353D01*
X115429712Y-101341206D01*
X115423682Y-101343891D01*
X115423681Y-101343891D01*
X115261278Y-101416197D01*
X115261276Y-101416198D01*
X115255248Y-101418882D01*
X115215238Y-101447951D01*
X115148373Y-101471808D01*
X115079222Y-101455728D01*
X115047543Y-101430325D01*
X115029375Y-101410148D01*
X115008653Y-101387134D01*
X114892677Y-101302872D01*
X114859494Y-101278763D01*
X114859493Y-101278762D01*
X114854152Y-101274882D01*
X114848124Y-101272198D01*
X114848122Y-101272197D01*
X114685719Y-101199891D01*
X114685718Y-101199891D01*
X114679688Y-101197206D01*
X114586287Y-101177353D01*
X114499344Y-101158872D01*
X114499339Y-101158872D01*
X114492887Y-101157500D01*
X114301913Y-101157500D01*
X114295461Y-101158872D01*
X114295456Y-101158872D01*
X114208513Y-101177353D01*
X114115112Y-101197206D01*
X114109082Y-101199891D01*
X114109081Y-101199891D01*
X113946678Y-101272197D01*
X113946676Y-101272198D01*
X113940648Y-101274882D01*
X113786147Y-101387134D01*
X113781726Y-101392044D01*
X113781725Y-101392045D01*
X113754067Y-101422763D01*
X113658360Y-101529056D01*
X113562873Y-101694444D01*
X113503858Y-101876072D01*
X113483896Y-102066000D01*
X112661523Y-102066000D01*
X112666350Y-102020072D01*
X112672814Y-101958565D01*
X112673504Y-101952000D01*
X112664864Y-101869794D01*
X112654232Y-101768635D01*
X112654232Y-101768633D01*
X112653542Y-101762072D01*
X112594527Y-101580444D01*
X112499040Y-101415056D01*
X112371253Y-101273134D01*
X112270443Y-101199891D01*
X112222094Y-101164763D01*
X112222093Y-101164762D01*
X112216752Y-101160882D01*
X112210724Y-101158198D01*
X112210722Y-101158197D01*
X112048319Y-101085891D01*
X112048318Y-101085891D01*
X112042288Y-101083206D01*
X111948887Y-101063353D01*
X111861944Y-101044872D01*
X111861939Y-101044872D01*
X111855487Y-101043500D01*
X111664513Y-101043500D01*
X111658061Y-101044872D01*
X111658056Y-101044872D01*
X111571113Y-101063353D01*
X111477712Y-101083206D01*
X111471682Y-101085891D01*
X111471681Y-101085891D01*
X111309278Y-101158197D01*
X111309276Y-101158198D01*
X111303248Y-101160882D01*
X111297907Y-101164762D01*
X111297906Y-101164763D01*
X111249557Y-101199891D01*
X111148747Y-101273134D01*
X111020960Y-101415056D01*
X110925473Y-101580444D01*
X110866458Y-101762072D01*
X110865768Y-101768633D01*
X110865768Y-101768635D01*
X110855136Y-101869794D01*
X110846496Y-101952000D01*
X102870000Y-101952000D01*
X102870000Y-99888800D01*
X103690496Y-99888800D01*
X103710458Y-100078728D01*
X103769473Y-100260356D01*
X103864960Y-100425744D01*
X103869378Y-100430651D01*
X103869379Y-100430652D01*
X103939971Y-100509052D01*
X103992747Y-100567666D01*
X104147248Y-100679918D01*
X104153276Y-100682602D01*
X104153278Y-100682603D01*
X104314621Y-100754437D01*
X104321712Y-100757594D01*
X104415112Y-100777447D01*
X104502056Y-100795928D01*
X104502061Y-100795928D01*
X104508513Y-100797300D01*
X104699487Y-100797300D01*
X104705939Y-100795928D01*
X104705944Y-100795928D01*
X104792888Y-100777447D01*
X104886288Y-100757594D01*
X104893379Y-100754437D01*
X105054722Y-100682603D01*
X105054724Y-100682602D01*
X105060752Y-100679918D01*
X105215253Y-100567666D01*
X105268029Y-100509052D01*
X105338621Y-100430652D01*
X105338622Y-100430651D01*
X105343040Y-100425744D01*
X105438527Y-100260356D01*
X105497542Y-100078728D01*
X105517504Y-99888800D01*
X105505122Y-99770994D01*
X105498232Y-99705435D01*
X105498232Y-99705433D01*
X105497542Y-99698872D01*
X105438527Y-99517244D01*
X105343040Y-99351856D01*
X105336988Y-99345134D01*
X105219675Y-99214845D01*
X105219674Y-99214844D01*
X105215253Y-99209934D01*
X105182173Y-99185900D01*
X115926496Y-99185900D01*
X115927186Y-99192465D01*
X115943423Y-99346948D01*
X115946458Y-99375828D01*
X116005473Y-99557456D01*
X116008776Y-99563178D01*
X116008777Y-99563179D01*
X116042686Y-99621910D01*
X116100960Y-99722844D01*
X116228747Y-99864766D01*
X116252791Y-99882235D01*
X116369735Y-99967200D01*
X116383248Y-99977018D01*
X116389276Y-99979702D01*
X116389278Y-99979703D01*
X116503517Y-100030565D01*
X116557712Y-100054694D01*
X116639906Y-100072165D01*
X116738056Y-100093028D01*
X116738061Y-100093028D01*
X116744513Y-100094400D01*
X116935487Y-100094400D01*
X116941939Y-100093028D01*
X116941944Y-100093028D01*
X117040094Y-100072165D01*
X117122288Y-100054694D01*
X117176483Y-100030565D01*
X117191228Y-100024000D01*
X118165496Y-100024000D01*
X118185458Y-100213928D01*
X118244473Y-100395556D01*
X118339960Y-100560944D01*
X118344378Y-100565851D01*
X118344379Y-100565852D01*
X118449502Y-100682603D01*
X118467747Y-100702866D01*
X118622248Y-100815118D01*
X118628276Y-100817802D01*
X118628278Y-100817803D01*
X118790681Y-100890109D01*
X118796712Y-100892794D01*
X118890113Y-100912647D01*
X118977056Y-100931128D01*
X118977061Y-100931128D01*
X118983513Y-100932500D01*
X119174487Y-100932500D01*
X119180939Y-100931128D01*
X119180944Y-100931128D01*
X119267887Y-100912647D01*
X119361288Y-100892794D01*
X119367319Y-100890109D01*
X119529722Y-100817803D01*
X119529724Y-100817802D01*
X119535752Y-100815118D01*
X119690253Y-100702866D01*
X119708498Y-100682603D01*
X119813621Y-100565852D01*
X119813622Y-100565851D01*
X119818040Y-100560944D01*
X119913527Y-100395556D01*
X119972542Y-100213928D01*
X119992504Y-100024000D01*
X119986534Y-99967200D01*
X127989496Y-99967200D01*
X128009458Y-100157128D01*
X128068473Y-100338756D01*
X128163960Y-100504144D01*
X128168378Y-100509051D01*
X128168379Y-100509052D01*
X128219522Y-100565852D01*
X128291747Y-100646066D01*
X128446248Y-100758318D01*
X128452276Y-100761002D01*
X128452278Y-100761003D01*
X128579854Y-100817803D01*
X128620712Y-100835994D01*
X128714112Y-100855847D01*
X128801056Y-100874328D01*
X128801061Y-100874328D01*
X128807513Y-100875700D01*
X128998487Y-100875700D01*
X129004939Y-100874328D01*
X129004944Y-100874328D01*
X129091888Y-100855847D01*
X129185288Y-100835994D01*
X129226146Y-100817803D01*
X129353722Y-100761003D01*
X129353724Y-100761002D01*
X129359752Y-100758318D01*
X129514253Y-100646066D01*
X129586478Y-100565852D01*
X129637621Y-100509052D01*
X129637622Y-100509051D01*
X129642040Y-100504144D01*
X129737527Y-100338756D01*
X129796542Y-100157128D01*
X129816504Y-99967200D01*
X129796542Y-99777272D01*
X129737527Y-99595644D01*
X129711851Y-99551171D01*
X129678135Y-99492774D01*
X129642040Y-99430256D01*
X129571449Y-99351856D01*
X129518675Y-99293245D01*
X129518674Y-99293244D01*
X129514253Y-99288334D01*
X129382301Y-99192465D01*
X129365094Y-99179963D01*
X129365093Y-99179962D01*
X129359752Y-99176082D01*
X129353724Y-99173398D01*
X129353722Y-99173397D01*
X129191319Y-99101091D01*
X129191318Y-99101091D01*
X129185288Y-99098406D01*
X129091887Y-99078553D01*
X129004944Y-99060072D01*
X129004939Y-99060072D01*
X128998487Y-99058700D01*
X128807513Y-99058700D01*
X128801061Y-99060072D01*
X128801056Y-99060072D01*
X128714113Y-99078553D01*
X128620712Y-99098406D01*
X128614682Y-99101091D01*
X128614681Y-99101091D01*
X128452278Y-99173397D01*
X128452276Y-99173398D01*
X128446248Y-99176082D01*
X128440907Y-99179962D01*
X128440906Y-99179963D01*
X128423699Y-99192465D01*
X128291747Y-99288334D01*
X128287326Y-99293244D01*
X128287325Y-99293245D01*
X128234552Y-99351856D01*
X128163960Y-99430256D01*
X128127865Y-99492774D01*
X128094150Y-99551171D01*
X128068473Y-99595644D01*
X128009458Y-99777272D01*
X127989496Y-99967200D01*
X119986534Y-99967200D01*
X119972542Y-99834072D01*
X119913527Y-99652444D01*
X119818040Y-99487056D01*
X119690253Y-99345134D01*
X119535752Y-99232882D01*
X119529724Y-99230198D01*
X119529722Y-99230197D01*
X119367319Y-99157891D01*
X119367318Y-99157891D01*
X119361288Y-99155206D01*
X119267887Y-99135353D01*
X119180944Y-99116872D01*
X119180939Y-99116872D01*
X119174487Y-99115500D01*
X118983513Y-99115500D01*
X118977061Y-99116872D01*
X118977056Y-99116872D01*
X118890113Y-99135353D01*
X118796712Y-99155206D01*
X118790682Y-99157891D01*
X118790681Y-99157891D01*
X118628278Y-99230197D01*
X118628276Y-99230198D01*
X118622248Y-99232882D01*
X118467747Y-99345134D01*
X118339960Y-99487056D01*
X118244473Y-99652444D01*
X118185458Y-99834072D01*
X118165496Y-100024000D01*
X117191228Y-100024000D01*
X117290722Y-99979703D01*
X117290724Y-99979702D01*
X117296752Y-99977018D01*
X117310266Y-99967200D01*
X117427209Y-99882235D01*
X117451253Y-99864766D01*
X117579040Y-99722844D01*
X117637314Y-99621910D01*
X117671223Y-99563179D01*
X117671224Y-99563178D01*
X117674527Y-99557456D01*
X117733542Y-99375828D01*
X117736578Y-99346948D01*
X117752814Y-99192465D01*
X117753504Y-99185900D01*
X117733542Y-98995972D01*
X117674527Y-98814344D01*
X117579040Y-98648956D01*
X117451253Y-98507034D01*
X117296752Y-98394782D01*
X117290724Y-98392098D01*
X117290722Y-98392097D01*
X117128319Y-98319791D01*
X117128318Y-98319791D01*
X117122288Y-98317106D01*
X117028888Y-98297253D01*
X116941944Y-98278772D01*
X116941939Y-98278772D01*
X116935487Y-98277400D01*
X116744513Y-98277400D01*
X116738061Y-98278772D01*
X116738056Y-98278772D01*
X116651112Y-98297253D01*
X116557712Y-98317106D01*
X116551682Y-98319791D01*
X116551681Y-98319791D01*
X116389278Y-98392097D01*
X116389276Y-98392098D01*
X116383248Y-98394782D01*
X116228747Y-98507034D01*
X116100960Y-98648956D01*
X116005473Y-98814344D01*
X115946458Y-98995972D01*
X115926496Y-99185900D01*
X105182173Y-99185900D01*
X105060752Y-99097682D01*
X105054724Y-99094998D01*
X105054722Y-99094997D01*
X104892319Y-99022691D01*
X104892318Y-99022691D01*
X104886288Y-99020006D01*
X104773218Y-98995972D01*
X104705944Y-98981672D01*
X104705939Y-98981672D01*
X104699487Y-98980300D01*
X104508513Y-98980300D01*
X104502061Y-98981672D01*
X104502056Y-98981672D01*
X104434782Y-98995972D01*
X104321712Y-99020006D01*
X104315682Y-99022691D01*
X104315681Y-99022691D01*
X104153278Y-99094997D01*
X104153276Y-99094998D01*
X104147248Y-99097682D01*
X103992747Y-99209934D01*
X103988326Y-99214844D01*
X103988325Y-99214845D01*
X103871013Y-99345134D01*
X103864960Y-99351856D01*
X103769473Y-99517244D01*
X103710458Y-99698872D01*
X103709768Y-99705433D01*
X103709768Y-99705435D01*
X103702878Y-99770994D01*
X103690496Y-99888800D01*
X102870000Y-99888800D01*
X102870000Y-97028000D01*
X123546496Y-97028000D01*
X123547186Y-97034565D01*
X123564863Y-97202749D01*
X123566458Y-97217928D01*
X123625473Y-97399556D01*
X123720960Y-97564944D01*
X123848747Y-97706866D01*
X124003248Y-97819118D01*
X124009276Y-97821802D01*
X124009278Y-97821803D01*
X124171681Y-97894109D01*
X124177712Y-97896794D01*
X124271112Y-97916647D01*
X124358056Y-97935128D01*
X124358061Y-97935128D01*
X124364513Y-97936500D01*
X124555487Y-97936500D01*
X124561939Y-97935128D01*
X124561944Y-97935128D01*
X124648888Y-97916647D01*
X124742288Y-97896794D01*
X124748319Y-97894109D01*
X124910722Y-97821803D01*
X124910724Y-97821802D01*
X124916752Y-97819118D01*
X125071253Y-97706866D01*
X125199040Y-97564944D01*
X125294527Y-97399556D01*
X125353542Y-97217928D01*
X125355138Y-97202749D01*
X125372814Y-97034565D01*
X125373504Y-97028000D01*
X125353542Y-96838072D01*
X125294527Y-96656444D01*
X125199040Y-96491056D01*
X125071253Y-96349134D01*
X124916752Y-96236882D01*
X124910724Y-96234198D01*
X124910722Y-96234197D01*
X124748319Y-96161891D01*
X124748318Y-96161891D01*
X124742288Y-96159206D01*
X124648888Y-96139353D01*
X124561944Y-96120872D01*
X124561939Y-96120872D01*
X124555487Y-96119500D01*
X124364513Y-96119500D01*
X124358061Y-96120872D01*
X124358056Y-96120872D01*
X124271112Y-96139353D01*
X124177712Y-96159206D01*
X124171682Y-96161891D01*
X124171681Y-96161891D01*
X124009278Y-96234197D01*
X124009276Y-96234198D01*
X124003248Y-96236882D01*
X123848747Y-96349134D01*
X123720960Y-96491056D01*
X123625473Y-96656444D01*
X123566458Y-96838072D01*
X123546496Y-97028000D01*
X102870000Y-97028000D01*
X102870000Y-96106800D01*
X107290496Y-96106800D01*
X107310458Y-96296728D01*
X107369473Y-96478356D01*
X107372776Y-96484078D01*
X107372777Y-96484079D01*
X107406686Y-96542810D01*
X107464960Y-96643744D01*
X107592747Y-96785666D01*
X107747248Y-96897918D01*
X107753276Y-96900602D01*
X107753278Y-96900603D01*
X107801436Y-96922044D01*
X107921712Y-96975594D01*
X108015113Y-96995447D01*
X108102056Y-97013928D01*
X108102061Y-97013928D01*
X108108513Y-97015300D01*
X108299487Y-97015300D01*
X108305939Y-97013928D01*
X108305944Y-97013928D01*
X108392888Y-96995447D01*
X108486288Y-96975594D01*
X108606564Y-96922044D01*
X108654722Y-96900603D01*
X108654724Y-96900602D01*
X108660752Y-96897918D01*
X108815253Y-96785666D01*
X108943040Y-96643744D01*
X109001314Y-96542810D01*
X109035223Y-96484079D01*
X109035224Y-96484078D01*
X109038527Y-96478356D01*
X109097542Y-96296728D01*
X109117504Y-96106800D01*
X109105365Y-95991300D01*
X109098232Y-95923435D01*
X109098232Y-95923433D01*
X109097542Y-95916872D01*
X109038527Y-95735244D01*
X108943040Y-95569856D01*
X108844197Y-95460079D01*
X108819675Y-95432845D01*
X108819674Y-95432844D01*
X108815253Y-95427934D01*
X108685630Y-95333757D01*
X108666094Y-95319563D01*
X108666093Y-95319562D01*
X108660752Y-95315682D01*
X108654724Y-95312998D01*
X108654722Y-95312997D01*
X108492319Y-95240691D01*
X108492318Y-95240691D01*
X108486288Y-95238006D01*
X108392887Y-95218153D01*
X108305944Y-95199672D01*
X108305939Y-95199672D01*
X108299487Y-95198300D01*
X108108513Y-95198300D01*
X108102061Y-95199672D01*
X108102056Y-95199672D01*
X108015113Y-95218153D01*
X107921712Y-95238006D01*
X107915682Y-95240691D01*
X107915681Y-95240691D01*
X107753278Y-95312997D01*
X107753276Y-95312998D01*
X107747248Y-95315682D01*
X107741907Y-95319562D01*
X107741906Y-95319563D01*
X107722370Y-95333757D01*
X107592747Y-95427934D01*
X107588326Y-95432844D01*
X107588325Y-95432845D01*
X107563804Y-95460079D01*
X107464960Y-95569856D01*
X107369473Y-95735244D01*
X107310458Y-95916872D01*
X107309768Y-95923433D01*
X107309768Y-95923435D01*
X107302635Y-95991300D01*
X107290496Y-96106800D01*
X102870000Y-96106800D01*
X102870000Y-95082800D01*
X112451496Y-95082800D01*
X112452186Y-95089365D01*
X112469625Y-95255285D01*
X112471458Y-95272728D01*
X112530473Y-95454356D01*
X112625960Y-95619744D01*
X112630378Y-95624651D01*
X112630379Y-95624652D01*
X112749325Y-95756755D01*
X112753747Y-95761666D01*
X112908248Y-95873918D01*
X112914276Y-95876602D01*
X112914278Y-95876603D01*
X113076681Y-95948909D01*
X113082712Y-95951594D01*
X113176113Y-95971447D01*
X113263056Y-95989928D01*
X113263061Y-95989928D01*
X113269513Y-95991300D01*
X113460487Y-95991300D01*
X113466939Y-95989928D01*
X113466944Y-95989928D01*
X113553887Y-95971447D01*
X113647288Y-95951594D01*
X113653319Y-95948909D01*
X113815722Y-95876603D01*
X113815724Y-95876602D01*
X113821752Y-95873918D01*
X113976253Y-95761666D01*
X113980675Y-95756755D01*
X114099621Y-95624652D01*
X114099622Y-95624651D01*
X114104040Y-95619744D01*
X114199527Y-95454356D01*
X114244100Y-95317175D01*
X114284174Y-95258570D01*
X114349571Y-95230933D01*
X114419527Y-95243040D01*
X114439497Y-95255285D01*
X114473295Y-95280615D01*
X114609684Y-95331745D01*
X114671866Y-95338500D01*
X116468134Y-95338500D01*
X116530316Y-95331745D01*
X116666705Y-95280615D01*
X116783261Y-95193261D01*
X116870615Y-95076705D01*
X116892799Y-95017529D01*
X116914598Y-94959382D01*
X116957240Y-94902618D01*
X117023802Y-94877918D01*
X117093150Y-94893126D01*
X117127817Y-94921114D01*
X117156250Y-94953938D01*
X117328126Y-95096632D01*
X117521000Y-95209338D01*
X117525825Y-95211180D01*
X117525826Y-95211181D01*
X117592481Y-95236634D01*
X117729692Y-95289030D01*
X117734760Y-95290061D01*
X117734763Y-95290062D01*
X117842017Y-95311883D01*
X117948597Y-95333567D01*
X117953772Y-95333757D01*
X117953774Y-95333757D01*
X118166673Y-95341564D01*
X118166677Y-95341564D01*
X118171837Y-95341753D01*
X118176957Y-95341097D01*
X118176959Y-95341097D01*
X118388288Y-95314025D01*
X118388289Y-95314025D01*
X118393416Y-95313368D01*
X118398366Y-95311883D01*
X118602429Y-95250661D01*
X118602434Y-95250659D01*
X118607384Y-95249174D01*
X118807994Y-95150896D01*
X118989860Y-95021173D01*
X119148096Y-94863489D01*
X119278453Y-94682077D01*
X119339462Y-94558635D01*
X119375136Y-94486453D01*
X119375137Y-94486451D01*
X119377430Y-94481811D01*
X119437941Y-94282648D01*
X119440865Y-94273023D01*
X119440865Y-94273021D01*
X119442370Y-94268069D01*
X119471529Y-94046590D01*
X119473156Y-93980000D01*
X119454852Y-93757361D01*
X119400431Y-93540702D01*
X119311354Y-93335840D01*
X119190014Y-93148277D01*
X119039670Y-92983051D01*
X119035619Y-92979852D01*
X119035615Y-92979848D01*
X118868414Y-92847800D01*
X118868410Y-92847798D01*
X118864359Y-92844598D01*
X118668789Y-92736638D01*
X118663920Y-92734914D01*
X118663916Y-92734912D01*
X118463087Y-92663795D01*
X118463083Y-92663794D01*
X118458212Y-92662069D01*
X118453119Y-92661162D01*
X118453116Y-92661161D01*
X118243373Y-92623800D01*
X118243367Y-92623799D01*
X118238284Y-92622894D01*
X118164452Y-92621992D01*
X118020081Y-92620228D01*
X118020079Y-92620228D01*
X118014911Y-92620165D01*
X117794091Y-92653955D01*
X117581756Y-92723357D01*
X117383607Y-92826507D01*
X117379474Y-92829610D01*
X117379471Y-92829612D01*
X117209100Y-92957530D01*
X117204965Y-92960635D01*
X117148537Y-93019684D01*
X117124283Y-93045064D01*
X117062759Y-93080494D01*
X116991846Y-93077037D01*
X116934060Y-93035791D01*
X116915207Y-93002243D01*
X116873767Y-92891703D01*
X116870615Y-92883295D01*
X116783261Y-92766739D01*
X116666705Y-92679385D01*
X116530316Y-92628255D01*
X116468134Y-92621500D01*
X114671866Y-92621500D01*
X114609684Y-92628255D01*
X114473295Y-92679385D01*
X114356739Y-92766739D01*
X114269385Y-92883295D01*
X114218255Y-93019684D01*
X114211500Y-93081866D01*
X114211500Y-94336962D01*
X114191498Y-94405083D01*
X114137842Y-94451576D01*
X114067568Y-94461680D01*
X114002988Y-94432186D01*
X113991873Y-94421282D01*
X113976253Y-94403934D01*
X113821752Y-94291682D01*
X113815724Y-94288998D01*
X113815722Y-94288997D01*
X113653319Y-94216691D01*
X113653318Y-94216691D01*
X113647288Y-94214006D01*
X113553888Y-94194153D01*
X113466944Y-94175672D01*
X113466939Y-94175672D01*
X113460487Y-94174300D01*
X113269513Y-94174300D01*
X113263061Y-94175672D01*
X113263056Y-94175672D01*
X113176112Y-94194153D01*
X113082712Y-94214006D01*
X113076682Y-94216691D01*
X113076681Y-94216691D01*
X112914278Y-94288997D01*
X112914276Y-94288998D01*
X112908248Y-94291682D01*
X112753747Y-94403934D01*
X112749326Y-94408844D01*
X112749325Y-94408845D01*
X112679447Y-94486453D01*
X112625960Y-94545856D01*
X112622659Y-94551574D01*
X112547313Y-94682077D01*
X112530473Y-94711244D01*
X112471458Y-94892872D01*
X112470768Y-94899433D01*
X112470768Y-94899435D01*
X112458356Y-95017529D01*
X112451496Y-95082800D01*
X102870000Y-95082800D01*
X102870000Y-91566000D01*
X102890002Y-91497879D01*
X102943658Y-91451386D01*
X102996000Y-91440000D01*
X110490000Y-91440000D01*
X110490000Y-85652631D01*
X110510002Y-85584510D01*
X110563658Y-85538017D01*
X110633932Y-85527913D01*
X110690061Y-85550695D01*
X110749433Y-85593831D01*
X110795248Y-85627118D01*
X110801276Y-85629802D01*
X110801278Y-85629803D01*
X110852551Y-85652631D01*
X110969712Y-85704794D01*
X111063113Y-85724647D01*
X111150056Y-85743128D01*
X111150061Y-85743128D01*
X111156513Y-85744500D01*
X111347487Y-85744500D01*
X111353939Y-85743128D01*
X111353944Y-85743128D01*
X111440887Y-85724647D01*
X111534288Y-85704794D01*
X111651449Y-85652631D01*
X111702722Y-85629803D01*
X111702724Y-85629802D01*
X111708752Y-85627118D01*
X111863253Y-85514866D01*
X111991040Y-85372944D01*
X112086527Y-85207556D01*
X112145542Y-85025928D01*
X112165504Y-84836000D01*
X112145542Y-84646072D01*
X112086527Y-84464444D01*
X111991040Y-84299056D01*
X111863253Y-84157134D01*
X111708752Y-84044882D01*
X111702724Y-84042198D01*
X111702722Y-84042197D01*
X111540319Y-83969891D01*
X111540318Y-83969891D01*
X111534288Y-83967206D01*
X111440888Y-83947353D01*
X111353944Y-83928872D01*
X111353939Y-83928872D01*
X111347487Y-83927500D01*
X111156513Y-83927500D01*
X111150061Y-83928872D01*
X111150056Y-83928872D01*
X111063112Y-83947353D01*
X110969712Y-83967206D01*
X110963682Y-83969891D01*
X110963681Y-83969891D01*
X110801278Y-84042197D01*
X110801276Y-84042198D01*
X110795248Y-84044882D01*
X110789907Y-84048762D01*
X110789906Y-84048763D01*
X110690061Y-84121305D01*
X110623193Y-84145163D01*
X110554042Y-84129083D01*
X110504562Y-84078169D01*
X110490000Y-84019369D01*
X110490000Y-83820000D01*
X102996000Y-83820000D01*
X102927879Y-83799998D01*
X102881386Y-83746342D01*
X102870000Y-83694000D01*
X102870000Y-82676000D01*
X102890002Y-82607879D01*
X102943658Y-82561386D01*
X102996000Y-82550000D01*
X130684000Y-82550000D01*
X130752121Y-82570002D01*
G37*
%TD.AperFunction*%
%TD*%
M02*
