%TF.GenerationSoftware,KiCad,Pcbnew,(6.0.10)*%
%TF.CreationDate,2023-02-07T20:48:55+01:00*%
%TF.ProjectId,JoystickAdapter,4a6f7973-7469-4636-9b41-646170746572,1.0*%
%TF.SameCoordinates,Original*%
%TF.FileFunction,Copper,L2,Inr*%
%TF.FilePolarity,Positive*%
%FSLAX46Y46*%
G04 Gerber Fmt 4.6, Leading zero omitted, Abs format (unit mm)*
G04 Created by KiCad (PCBNEW (6.0.10)) date 2023-02-07 20:48:55*
%MOMM*%
%LPD*%
G01*
G04 APERTURE LIST*
%TA.AperFunction,NonConductor*%
%ADD10C,0.200000*%
%TD*%
%ADD11C,0.150000*%
%TA.AperFunction,NonConductor*%
%ADD12C,0.150000*%
%TD*%
%TA.AperFunction,ComponentPad*%
%ADD13R,1.700000X1.700000*%
%TD*%
%TA.AperFunction,ComponentPad*%
%ADD14O,1.700000X1.700000*%
%TD*%
%TA.AperFunction,ViaPad*%
%ADD15C,0.800000*%
%TD*%
G04 APERTURE END LIST*
D10*
X104140000Y-106680000D02*
X104140000Y-109220000D01*
X102870000Y-107950000D02*
X105410000Y-107950000D01*
D11*
D12*
X128573785Y-104338380D02*
X128097595Y-104338380D01*
X128097595Y-103338380D01*
X128859500Y-103433619D02*
X128907119Y-103386000D01*
X129002357Y-103338380D01*
X129240452Y-103338380D01*
X129335690Y-103386000D01*
X129383309Y-103433619D01*
X129430928Y-103528857D01*
X129430928Y-103624095D01*
X129383309Y-103766952D01*
X128811880Y-104338380D01*
X129430928Y-104338380D01*
D13*
%TO.N,/JOY_SANWA_GND*%
%TO.C,J2*%
X111760000Y-106680000D03*
D14*
%TO.N,/JOY_SANWA_X_LEFT*%
X114300000Y-106680000D03*
%TO.N,/JOY_SANWA_X_RIGHT*%
X116840000Y-106680000D03*
%TO.N,/JOY_SANWA_Y_DOWN*%
X119380000Y-106680000D03*
%TO.N,/JOY_SANWA_Y_UP*%
X121920000Y-106680000D03*
%TD*%
D13*
%TO.N,GND*%
%TO.C,J3*%
X115570000Y-93980000D03*
D14*
%TO.N,Net-(J3-Pad2)*%
X118110000Y-93980000D03*
%TD*%
D13*
%TO.N,/JOY_KY023_GND*%
%TO.C,J1*%
X111760000Y-116840000D03*
D14*
%TO.N,/JOY_KY023_+5V*%
X114300000Y-116840000D03*
%TO.N,JOY_KY023_X*%
X116840000Y-116840000D03*
%TO.N,JOY_KY023_Y*%
X119380000Y-116840000D03*
%TO.N,JOY_KY023_SW*%
X121920000Y-116840000D03*
%TD*%
D15*
%TO.N,+5V*%
X114076000Y-90965000D03*
%TO.N,/JOY_SANWA_X_RIGHT*%
X115712000Y-102210000D03*
%TO.N,Net-(R26-Pad2)*%
X114966000Y-103564000D03*
%TO.N,Net-(R25-Pad2)*%
X123875000Y-102967000D03*
%TO.N,/JOY_SANWA_X_LEFT*%
X114397400Y-102066000D03*
%TO.N,Net-(D5-Pad1)*%
X128903000Y-99967200D03*
%TO.N,Net-(D4-Pad1)*%
X123644000Y-101791000D03*
%TO.N,Net-(D3-Pad1)*%
X116840000Y-99185900D03*
%TO.N,Net-(D2-Pad1)*%
X111760000Y-101952000D03*
%TO.N,+5V*%
X129794000Y-92964000D03*
X115062000Y-110744000D03*
X110998000Y-98806000D03*
X116840000Y-96266000D03*
X115316000Y-113284000D03*
X121920000Y-96266000D03*
X119114000Y-97405000D03*
X127254000Y-99060000D03*
X115062000Y-108966000D03*
X115316000Y-112268000D03*
X103824000Y-96012000D03*
%TO.N,GND*%
X129794000Y-94742000D03*
X122428000Y-84836000D03*
X129794000Y-96520000D03*
X106680000Y-105801000D03*
X110998000Y-108966000D03*
X124460000Y-97028000D03*
X110998000Y-110744000D03*
X110744000Y-112268000D03*
X111252000Y-84836000D03*
X119079000Y-100024000D03*
X108204000Y-96106800D03*
X112776000Y-113030000D03*
X113365000Y-95082800D03*
X104604000Y-99888800D03*
%TD*%
%TA.AperFunction,Conductor*%
%TO.N,GND*%
G36*
X130752121Y-82570002D02*
G01*
X130798614Y-82623658D01*
X130810000Y-82676000D01*
X130810000Y-83694000D01*
X130789998Y-83762121D01*
X130736342Y-83808614D01*
X130684000Y-83820000D01*
X123190000Y-83820000D01*
X123190000Y-91440000D01*
X130684000Y-91440000D01*
X130752121Y-91460002D01*
X130798614Y-91513658D01*
X130810000Y-91566000D01*
X130810000Y-92436527D01*
X130789998Y-92504648D01*
X130736342Y-92551141D01*
X130666068Y-92561245D01*
X130601488Y-92531751D01*
X130574881Y-92499527D01*
X130536341Y-92432774D01*
X130533040Y-92427056D01*
X130405253Y-92285134D01*
X130250752Y-92172882D01*
X130244724Y-92170198D01*
X130244722Y-92170197D01*
X130082319Y-92097891D01*
X130082318Y-92097891D01*
X130076288Y-92095206D01*
X129982887Y-92075353D01*
X129895944Y-92056872D01*
X129895939Y-92056872D01*
X129889487Y-92055500D01*
X129698513Y-92055500D01*
X129692061Y-92056872D01*
X129692056Y-92056872D01*
X129605112Y-92075353D01*
X129511712Y-92095206D01*
X129505682Y-92097891D01*
X129505681Y-92097891D01*
X129343278Y-92170197D01*
X129343276Y-92170198D01*
X129337248Y-92172882D01*
X129182747Y-92285134D01*
X129054960Y-92427056D01*
X128959473Y-92592444D01*
X128900458Y-92774072D01*
X128899768Y-92780633D01*
X128899768Y-92780635D01*
X128892709Y-92847800D01*
X128880496Y-92964000D01*
X128881186Y-92970565D01*
X128899463Y-93144457D01*
X128900458Y-93153928D01*
X128959473Y-93335556D01*
X129054960Y-93500944D01*
X129182747Y-93642866D01*
X129337248Y-93755118D01*
X129343276Y-93757802D01*
X129343278Y-93757803D01*
X129505681Y-93830109D01*
X129511712Y-93832794D01*
X129605113Y-93852647D01*
X129692056Y-93871128D01*
X129692061Y-93871128D01*
X129698513Y-93872500D01*
X129889487Y-93872500D01*
X129895939Y-93871128D01*
X129895944Y-93871128D01*
X129982887Y-93852647D01*
X130076288Y-93832794D01*
X130082319Y-93830109D01*
X130244722Y-93757803D01*
X130244724Y-93757802D01*
X130250752Y-93755118D01*
X130405253Y-93642866D01*
X130533040Y-93500944D01*
X130574882Y-93428472D01*
X130626263Y-93379480D01*
X130695977Y-93366044D01*
X130761888Y-93392430D01*
X130803070Y-93450262D01*
X130810000Y-93491473D01*
X130810000Y-110364000D01*
X130789998Y-110432121D01*
X130736342Y-110478614D01*
X130684000Y-110490000D01*
X124460000Y-110490000D01*
X124460000Y-117984000D01*
X124439998Y-118052121D01*
X124386342Y-118098614D01*
X124334000Y-118110000D01*
X122872680Y-118110000D01*
X122804559Y-118089998D01*
X122758066Y-118036342D01*
X122747962Y-117966068D01*
X122777456Y-117901488D01*
X122792189Y-117888089D01*
X122791702Y-117887513D01*
X122795657Y-117884171D01*
X122799860Y-117881173D01*
X122958096Y-117723489D01*
X123088453Y-117542077D01*
X123109320Y-117499857D01*
X123185136Y-117346453D01*
X123185137Y-117346451D01*
X123187430Y-117341811D01*
X123252370Y-117128069D01*
X123281529Y-116906590D01*
X123283156Y-116840000D01*
X123264852Y-116617361D01*
X123210431Y-116400702D01*
X123121354Y-116195840D01*
X123000014Y-116008277D01*
X122849670Y-115843051D01*
X122845619Y-115839852D01*
X122845615Y-115839848D01*
X122678414Y-115707800D01*
X122678410Y-115707798D01*
X122674359Y-115704598D01*
X122478789Y-115596638D01*
X122473920Y-115594914D01*
X122473916Y-115594912D01*
X122273087Y-115523795D01*
X122273083Y-115523794D01*
X122268212Y-115522069D01*
X122263119Y-115521162D01*
X122263116Y-115521161D01*
X122053373Y-115483800D01*
X122053367Y-115483799D01*
X122048284Y-115482894D01*
X121974452Y-115481992D01*
X121830081Y-115480228D01*
X121830079Y-115480228D01*
X121824911Y-115480165D01*
X121604091Y-115513955D01*
X121391756Y-115583357D01*
X121193607Y-115686507D01*
X121189474Y-115689610D01*
X121189471Y-115689612D01*
X121019100Y-115817530D01*
X121014965Y-115820635D01*
X121011393Y-115824373D01*
X120903729Y-115937037D01*
X120860629Y-115982138D01*
X120753201Y-116139621D01*
X120698293Y-116184621D01*
X120627768Y-116192792D01*
X120564021Y-116161538D01*
X120543324Y-116137054D01*
X120462822Y-116012617D01*
X120462820Y-116012614D01*
X120460014Y-116008277D01*
X120309670Y-115843051D01*
X120305619Y-115839852D01*
X120305615Y-115839848D01*
X120138414Y-115707800D01*
X120138410Y-115707798D01*
X120134359Y-115704598D01*
X119938789Y-115596638D01*
X119933920Y-115594914D01*
X119933916Y-115594912D01*
X119733087Y-115523795D01*
X119733083Y-115523794D01*
X119728212Y-115522069D01*
X119723119Y-115521162D01*
X119723116Y-115521161D01*
X119513373Y-115483800D01*
X119513367Y-115483799D01*
X119508284Y-115482894D01*
X119434452Y-115481992D01*
X119290081Y-115480228D01*
X119290079Y-115480228D01*
X119284911Y-115480165D01*
X119064091Y-115513955D01*
X118851756Y-115583357D01*
X118653607Y-115686507D01*
X118649474Y-115689610D01*
X118649471Y-115689612D01*
X118479100Y-115817530D01*
X118474965Y-115820635D01*
X118471393Y-115824373D01*
X118363729Y-115937037D01*
X118320629Y-115982138D01*
X118213201Y-116139621D01*
X118158293Y-116184621D01*
X118087768Y-116192792D01*
X118024021Y-116161538D01*
X118003324Y-116137054D01*
X117922822Y-116012617D01*
X117922820Y-116012614D01*
X117920014Y-116008277D01*
X117769670Y-115843051D01*
X117765619Y-115839852D01*
X117765615Y-115839848D01*
X117598414Y-115707800D01*
X117598410Y-115707798D01*
X117594359Y-115704598D01*
X117398789Y-115596638D01*
X117393920Y-115594914D01*
X117393916Y-115594912D01*
X117193087Y-115523795D01*
X117193083Y-115523794D01*
X117188212Y-115522069D01*
X117183119Y-115521162D01*
X117183116Y-115521161D01*
X116973373Y-115483800D01*
X116973367Y-115483799D01*
X116968284Y-115482894D01*
X116894452Y-115481992D01*
X116750081Y-115480228D01*
X116750079Y-115480228D01*
X116744911Y-115480165D01*
X116524091Y-115513955D01*
X116311756Y-115583357D01*
X116113607Y-115686507D01*
X116109474Y-115689610D01*
X116109471Y-115689612D01*
X115939100Y-115817530D01*
X115934965Y-115820635D01*
X115931393Y-115824373D01*
X115823729Y-115937037D01*
X115780629Y-115982138D01*
X115673201Y-116139621D01*
X115618293Y-116184621D01*
X115547768Y-116192792D01*
X115484021Y-116161538D01*
X115463324Y-116137054D01*
X115382822Y-116012617D01*
X115382820Y-116012614D01*
X115380014Y-116008277D01*
X115229670Y-115843051D01*
X115225619Y-115839852D01*
X115225615Y-115839848D01*
X115058414Y-115707800D01*
X115058410Y-115707798D01*
X115054359Y-115704598D01*
X114858789Y-115596638D01*
X114853920Y-115594914D01*
X114853916Y-115594912D01*
X114653087Y-115523795D01*
X114653083Y-115523794D01*
X114648212Y-115522069D01*
X114643119Y-115521162D01*
X114643116Y-115521161D01*
X114433373Y-115483800D01*
X114433367Y-115483799D01*
X114428284Y-115482894D01*
X114354452Y-115481992D01*
X114210081Y-115480228D01*
X114210079Y-115480228D01*
X114204911Y-115480165D01*
X113984091Y-115513955D01*
X113771756Y-115583357D01*
X113573607Y-115686507D01*
X113569474Y-115689610D01*
X113569471Y-115689612D01*
X113399100Y-115817530D01*
X113394965Y-115820635D01*
X113338537Y-115879684D01*
X113314283Y-115905064D01*
X113252759Y-115940494D01*
X113181846Y-115937037D01*
X113124060Y-115895791D01*
X113105207Y-115862243D01*
X113063767Y-115751703D01*
X113060615Y-115743295D01*
X112973261Y-115626739D01*
X112856705Y-115539385D01*
X112720316Y-115488255D01*
X112658134Y-115481500D01*
X110861866Y-115481500D01*
X110799684Y-115488255D01*
X110663295Y-115539385D01*
X110546739Y-115626739D01*
X110459385Y-115743295D01*
X110408255Y-115879684D01*
X110401500Y-115941866D01*
X110401500Y-117738134D01*
X110408255Y-117800316D01*
X110413362Y-117813938D01*
X110459385Y-117936705D01*
X110456711Y-117937708D01*
X110468770Y-117992850D01*
X110444032Y-118059398D01*
X110387243Y-118102007D01*
X110343081Y-118110000D01*
X109346000Y-118110000D01*
X109277879Y-118089998D01*
X109231386Y-118036342D01*
X109220000Y-117984000D01*
X109220000Y-110490000D01*
X102996000Y-110490000D01*
X102927879Y-110469998D01*
X102881386Y-110416342D01*
X102870000Y-110364000D01*
X102870000Y-108684500D01*
X102890002Y-108616379D01*
X102943658Y-108569886D01*
X102996000Y-108558500D01*
X103405500Y-108558500D01*
X103473621Y-108578502D01*
X103520114Y-108632158D01*
X103531500Y-108684500D01*
X103531500Y-109259885D01*
X103547162Y-109378850D01*
X103608476Y-109526875D01*
X103657244Y-109590431D01*
X103700984Y-109647434D01*
X103700987Y-109647437D01*
X103706013Y-109653987D01*
X103833124Y-109751524D01*
X103840750Y-109754683D01*
X103840752Y-109754684D01*
X103973520Y-109809678D01*
X103973523Y-109809679D01*
X103981150Y-109812838D01*
X104140000Y-109833751D01*
X104148188Y-109832673D01*
X104290662Y-109813916D01*
X104298850Y-109812838D01*
X104446875Y-109751524D01*
X104573987Y-109653987D01*
X104671524Y-109526875D01*
X104732838Y-109378850D01*
X104748500Y-109259885D01*
X104748500Y-108684500D01*
X104768502Y-108616379D01*
X104822158Y-108569886D01*
X104874500Y-108558500D01*
X105449885Y-108558500D01*
X105568850Y-108542838D01*
X105716875Y-108481524D01*
X105785252Y-108429056D01*
X105837434Y-108389016D01*
X105837437Y-108389013D01*
X105843987Y-108383987D01*
X105921286Y-108283251D01*
X105936498Y-108263426D01*
X105941524Y-108256876D01*
X105951536Y-108232705D01*
X105999678Y-108116480D01*
X105999679Y-108116477D01*
X106002838Y-108108850D01*
X106004018Y-108099891D01*
X106018613Y-107989030D01*
X106023751Y-107950000D01*
X106002838Y-107791150D01*
X105941524Y-107643125D01*
X105891654Y-107578134D01*
X110401500Y-107578134D01*
X110408255Y-107640316D01*
X110459385Y-107776705D01*
X110546739Y-107893261D01*
X110663295Y-107980615D01*
X110799684Y-108031745D01*
X110861866Y-108038500D01*
X112658134Y-108038500D01*
X112720316Y-108031745D01*
X112856705Y-107980615D01*
X112973261Y-107893261D01*
X113060615Y-107776705D01*
X113082799Y-107717529D01*
X113104598Y-107659382D01*
X113147240Y-107602618D01*
X113213802Y-107577918D01*
X113283150Y-107593126D01*
X113317817Y-107621114D01*
X113346250Y-107653938D01*
X113518126Y-107796632D01*
X113711000Y-107909338D01*
X113919692Y-107989030D01*
X113924760Y-107990061D01*
X113924763Y-107990062D01*
X114032017Y-108011883D01*
X114138597Y-108033567D01*
X114143772Y-108033757D01*
X114143774Y-108033757D01*
X114356673Y-108041564D01*
X114356677Y-108041564D01*
X114361837Y-108041753D01*
X114366956Y-108041097D01*
X114366961Y-108041097D01*
X114391285Y-108037981D01*
X114461395Y-108049166D01*
X114514328Y-108096480D01*
X114533279Y-108164900D01*
X114512230Y-108232705D01*
X114481355Y-108264896D01*
X114450747Y-108287134D01*
X114322960Y-108429056D01*
X114319659Y-108434774D01*
X114241652Y-108569886D01*
X114227473Y-108594444D01*
X114168458Y-108776072D01*
X114148496Y-108966000D01*
X114168458Y-109155928D01*
X114227473Y-109337556D01*
X114322960Y-109502944D01*
X114327378Y-109507851D01*
X114327379Y-109507852D01*
X114350408Y-109533428D01*
X114450747Y-109644866D01*
X114463301Y-109653987D01*
X114599668Y-109753064D01*
X114643022Y-109809287D01*
X114649097Y-109880023D01*
X114615965Y-109942814D01*
X114599668Y-109956936D01*
X114450747Y-110065134D01*
X114322960Y-110207056D01*
X114227473Y-110372444D01*
X114168458Y-110554072D01*
X114148496Y-110744000D01*
X114168458Y-110933928D01*
X114227473Y-111115556D01*
X114322960Y-111280944D01*
X114450747Y-111422866D01*
X114459040Y-111428891D01*
X114581589Y-111517929D01*
X114624943Y-111574152D01*
X114631018Y-111644888D01*
X114601165Y-111704173D01*
X114576960Y-111731056D01*
X114481473Y-111896444D01*
X114422458Y-112078072D01*
X114402496Y-112268000D01*
X114422458Y-112457928D01*
X114481473Y-112639556D01*
X114484776Y-112645278D01*
X114484777Y-112645279D01*
X114523876Y-112713000D01*
X114540614Y-112781995D01*
X114523876Y-112839000D01*
X114481473Y-112912444D01*
X114422458Y-113094072D01*
X114402496Y-113284000D01*
X114422458Y-113473928D01*
X114481473Y-113655556D01*
X114576960Y-113820944D01*
X114704747Y-113962866D01*
X114859248Y-114075118D01*
X114865276Y-114077802D01*
X114865278Y-114077803D01*
X115027681Y-114150109D01*
X115033712Y-114152794D01*
X115127112Y-114172647D01*
X115214056Y-114191128D01*
X115214061Y-114191128D01*
X115220513Y-114192500D01*
X115411487Y-114192500D01*
X115417939Y-114191128D01*
X115417944Y-114191128D01*
X115504888Y-114172647D01*
X115598288Y-114152794D01*
X115604319Y-114150109D01*
X115766722Y-114077803D01*
X115766724Y-114077802D01*
X115772752Y-114075118D01*
X115927253Y-113962866D01*
X116055040Y-113820944D01*
X116150527Y-113655556D01*
X116209542Y-113473928D01*
X116229504Y-113284000D01*
X116209542Y-113094072D01*
X116150527Y-112912444D01*
X116108124Y-112839000D01*
X116091386Y-112770005D01*
X116108124Y-112713000D01*
X116147223Y-112645279D01*
X116147224Y-112645278D01*
X116150527Y-112639556D01*
X116209542Y-112457928D01*
X116229504Y-112268000D01*
X116209542Y-112078072D01*
X116150527Y-111896444D01*
X116055040Y-111731056D01*
X115927253Y-111589134D01*
X115796411Y-111494071D01*
X115753057Y-111437848D01*
X115746982Y-111367112D01*
X115776835Y-111307827D01*
X115801040Y-111280944D01*
X115896527Y-111115556D01*
X115955542Y-110933928D01*
X115975504Y-110744000D01*
X115955542Y-110554072D01*
X115896527Y-110372444D01*
X115801040Y-110207056D01*
X115673253Y-110065134D01*
X115524332Y-109956936D01*
X115480978Y-109900713D01*
X115474903Y-109829977D01*
X115508035Y-109767186D01*
X115524332Y-109753064D01*
X115660699Y-109653987D01*
X115673253Y-109644866D01*
X115773592Y-109533428D01*
X115796621Y-109507852D01*
X115796622Y-109507851D01*
X115801040Y-109502944D01*
X115896527Y-109337556D01*
X115955542Y-109155928D01*
X115975504Y-108966000D01*
X115955542Y-108776072D01*
X115896527Y-108594444D01*
X115882349Y-108569886D01*
X115804341Y-108434774D01*
X115801040Y-108429056D01*
X115673253Y-108287134D01*
X115518752Y-108174882D01*
X115512724Y-108172198D01*
X115512722Y-108172197D01*
X115350319Y-108099891D01*
X115350318Y-108099891D01*
X115344288Y-108097206D01*
X115250887Y-108077353D01*
X115163944Y-108058872D01*
X115163939Y-108058872D01*
X115157487Y-108057500D01*
X115101970Y-108057500D01*
X115033849Y-108037498D01*
X114987356Y-107983842D01*
X114977252Y-107913568D01*
X115006746Y-107848988D01*
X115028802Y-107828921D01*
X115070276Y-107799338D01*
X115179860Y-107721173D01*
X115338096Y-107563489D01*
X115444569Y-107415316D01*
X115468453Y-107382077D01*
X115469776Y-107383028D01*
X115516645Y-107339857D01*
X115586580Y-107327625D01*
X115652026Y-107355144D01*
X115679875Y-107386994D01*
X115739987Y-107485088D01*
X115886250Y-107653938D01*
X116058126Y-107796632D01*
X116251000Y-107909338D01*
X116459692Y-107989030D01*
X116464760Y-107990061D01*
X116464763Y-107990062D01*
X116572017Y-108011883D01*
X116678597Y-108033567D01*
X116683772Y-108033757D01*
X116683774Y-108033757D01*
X116896673Y-108041564D01*
X116896677Y-108041564D01*
X116901837Y-108041753D01*
X116906957Y-108041097D01*
X116906959Y-108041097D01*
X117118288Y-108014025D01*
X117118289Y-108014025D01*
X117123416Y-108013368D01*
X117128366Y-108011883D01*
X117332429Y-107950661D01*
X117332434Y-107950659D01*
X117337384Y-107949174D01*
X117537994Y-107850896D01*
X117719860Y-107721173D01*
X117878096Y-107563489D01*
X117984569Y-107415316D01*
X118008453Y-107382077D01*
X118009776Y-107383028D01*
X118056645Y-107339857D01*
X118126580Y-107327625D01*
X118192026Y-107355144D01*
X118219875Y-107386994D01*
X118279987Y-107485088D01*
X118426250Y-107653938D01*
X118598126Y-107796632D01*
X118791000Y-107909338D01*
X118999692Y-107989030D01*
X119004760Y-107990061D01*
X119004763Y-107990062D01*
X119112017Y-108011883D01*
X119218597Y-108033567D01*
X119223772Y-108033757D01*
X119223774Y-108033757D01*
X119436673Y-108041564D01*
X119436677Y-108041564D01*
X119441837Y-108041753D01*
X119446957Y-108041097D01*
X119446959Y-108041097D01*
X119658288Y-108014025D01*
X119658289Y-108014025D01*
X119663416Y-108013368D01*
X119668366Y-108011883D01*
X119872429Y-107950661D01*
X119872434Y-107950659D01*
X119877384Y-107949174D01*
X120077994Y-107850896D01*
X120259860Y-107721173D01*
X120418096Y-107563489D01*
X120524569Y-107415316D01*
X120548453Y-107382077D01*
X120549776Y-107383028D01*
X120596645Y-107339857D01*
X120666580Y-107327625D01*
X120732026Y-107355144D01*
X120759875Y-107386994D01*
X120819987Y-107485088D01*
X120966250Y-107653938D01*
X121138126Y-107796632D01*
X121331000Y-107909338D01*
X121539692Y-107989030D01*
X121544760Y-107990061D01*
X121544763Y-107990062D01*
X121652017Y-108011883D01*
X121758597Y-108033567D01*
X121763772Y-108033757D01*
X121763774Y-108033757D01*
X121976673Y-108041564D01*
X121976677Y-108041564D01*
X121981837Y-108041753D01*
X121986957Y-108041097D01*
X121986959Y-108041097D01*
X122198288Y-108014025D01*
X122198289Y-108014025D01*
X122203416Y-108013368D01*
X122208366Y-108011883D01*
X122412429Y-107950661D01*
X122412434Y-107950659D01*
X122417384Y-107949174D01*
X122617994Y-107850896D01*
X122799860Y-107721173D01*
X122958096Y-107563489D01*
X123064569Y-107415316D01*
X123085435Y-107386277D01*
X123088453Y-107382077D01*
X123101300Y-107356084D01*
X123185136Y-107186453D01*
X123185137Y-107186451D01*
X123187430Y-107181811D01*
X123252370Y-106968069D01*
X123281529Y-106746590D01*
X123283156Y-106680000D01*
X123264852Y-106457361D01*
X123210431Y-106240702D01*
X123121354Y-106035840D01*
X123000014Y-105848277D01*
X122849670Y-105683051D01*
X122845619Y-105679852D01*
X122845615Y-105679848D01*
X122678414Y-105547800D01*
X122678410Y-105547798D01*
X122674359Y-105544598D01*
X122478789Y-105436638D01*
X122473920Y-105434914D01*
X122473916Y-105434912D01*
X122273087Y-105363795D01*
X122273083Y-105363794D01*
X122268212Y-105362069D01*
X122263119Y-105361162D01*
X122263116Y-105361161D01*
X122053373Y-105323800D01*
X122053367Y-105323799D01*
X122048284Y-105322894D01*
X121974452Y-105321992D01*
X121830081Y-105320228D01*
X121830079Y-105320228D01*
X121824911Y-105320165D01*
X121604091Y-105353955D01*
X121391756Y-105423357D01*
X121193607Y-105526507D01*
X121189474Y-105529610D01*
X121189471Y-105529612D01*
X121019100Y-105657530D01*
X121014965Y-105660635D01*
X121011393Y-105664373D01*
X120903729Y-105777037D01*
X120860629Y-105822138D01*
X120753201Y-105979621D01*
X120698293Y-106024621D01*
X120627768Y-106032792D01*
X120564021Y-106001538D01*
X120543324Y-105977054D01*
X120462822Y-105852617D01*
X120462820Y-105852614D01*
X120460014Y-105848277D01*
X120309670Y-105683051D01*
X120305619Y-105679852D01*
X120305615Y-105679848D01*
X120138414Y-105547800D01*
X120138410Y-105547798D01*
X120134359Y-105544598D01*
X119938789Y-105436638D01*
X119933920Y-105434914D01*
X119933916Y-105434912D01*
X119733087Y-105363795D01*
X119733083Y-105363794D01*
X119728212Y-105362069D01*
X119723119Y-105361162D01*
X119723116Y-105361161D01*
X119513373Y-105323800D01*
X119513367Y-105323799D01*
X119508284Y-105322894D01*
X119434452Y-105321992D01*
X119290081Y-105320228D01*
X119290079Y-105320228D01*
X119284911Y-105320165D01*
X119064091Y-105353955D01*
X118851756Y-105423357D01*
X118653607Y-105526507D01*
X118649474Y-105529610D01*
X118649471Y-105529612D01*
X118479100Y-105657530D01*
X118474965Y-105660635D01*
X118471393Y-105664373D01*
X118363729Y-105777037D01*
X118320629Y-105822138D01*
X118213201Y-105979621D01*
X118158293Y-106024621D01*
X118087768Y-106032792D01*
X118024021Y-106001538D01*
X118003324Y-105977054D01*
X117922822Y-105852617D01*
X117922820Y-105852614D01*
X117920014Y-105848277D01*
X117769670Y-105683051D01*
X117765619Y-105679852D01*
X117765615Y-105679848D01*
X117598414Y-105547800D01*
X117598410Y-105547798D01*
X117594359Y-105544598D01*
X117398789Y-105436638D01*
X117393920Y-105434914D01*
X117393916Y-105434912D01*
X117193087Y-105363795D01*
X117193083Y-105363794D01*
X117188212Y-105362069D01*
X117183119Y-105361162D01*
X117183116Y-105361161D01*
X116973373Y-105323800D01*
X116973367Y-105323799D01*
X116968284Y-105322894D01*
X116894452Y-105321992D01*
X116750081Y-105320228D01*
X116750079Y-105320228D01*
X116744911Y-105320165D01*
X116524091Y-105353955D01*
X116311756Y-105423357D01*
X116113607Y-105526507D01*
X116109474Y-105529610D01*
X116109471Y-105529612D01*
X115939100Y-105657530D01*
X115934965Y-105660635D01*
X115931393Y-105664373D01*
X115823729Y-105777037D01*
X115780629Y-105822138D01*
X115673201Y-105979621D01*
X115618293Y-106024621D01*
X115547768Y-106032792D01*
X115484021Y-106001538D01*
X115463324Y-105977054D01*
X115382822Y-105852617D01*
X115382820Y-105852614D01*
X115380014Y-105848277D01*
X115229670Y-105683051D01*
X115225619Y-105679852D01*
X115225615Y-105679848D01*
X115058414Y-105547800D01*
X115058410Y-105547798D01*
X115054359Y-105544598D01*
X114858789Y-105436638D01*
X114853920Y-105434914D01*
X114853916Y-105434912D01*
X114653087Y-105363795D01*
X114653083Y-105363794D01*
X114648212Y-105362069D01*
X114643119Y-105361162D01*
X114643116Y-105361161D01*
X114433373Y-105323800D01*
X114433367Y-105323799D01*
X114428284Y-105322894D01*
X114354452Y-105321992D01*
X114210081Y-105320228D01*
X114210079Y-105320228D01*
X114204911Y-105320165D01*
X113984091Y-105353955D01*
X113771756Y-105423357D01*
X113573607Y-105526507D01*
X113569474Y-105529610D01*
X113569471Y-105529612D01*
X113399100Y-105657530D01*
X113394965Y-105660635D01*
X113338537Y-105719684D01*
X113314283Y-105745064D01*
X113252759Y-105780494D01*
X113181846Y-105777037D01*
X113124060Y-105735791D01*
X113105207Y-105702243D01*
X113063767Y-105591703D01*
X113060615Y-105583295D01*
X112973261Y-105466739D01*
X112856705Y-105379385D01*
X112720316Y-105328255D01*
X112658134Y-105321500D01*
X110861866Y-105321500D01*
X110799684Y-105328255D01*
X110663295Y-105379385D01*
X110546739Y-105466739D01*
X110459385Y-105583295D01*
X110408255Y-105719684D01*
X110401500Y-105781866D01*
X110401500Y-107578134D01*
X105891654Y-107578134D01*
X105843987Y-107516013D01*
X105716875Y-107418476D01*
X105568850Y-107357162D01*
X105449885Y-107341500D01*
X104874500Y-107341500D01*
X104806379Y-107321498D01*
X104759886Y-107267842D01*
X104748500Y-107215500D01*
X104748500Y-106640115D01*
X104732838Y-106521150D01*
X104671524Y-106373125D01*
X104622756Y-106309569D01*
X104579016Y-106252566D01*
X104579013Y-106252563D01*
X104573987Y-106246013D01*
X104446876Y-106148476D01*
X104439250Y-106145317D01*
X104439248Y-106145316D01*
X104306480Y-106090322D01*
X104306477Y-106090321D01*
X104298850Y-106087162D01*
X104140000Y-106066249D01*
X103981150Y-106087162D01*
X103833125Y-106148476D01*
X103706013Y-106246013D01*
X103608476Y-106373125D01*
X103547162Y-106521150D01*
X103531500Y-106640115D01*
X103531500Y-107215500D01*
X103511498Y-107283621D01*
X103457842Y-107330114D01*
X103405500Y-107341500D01*
X102996000Y-107341500D01*
X102927879Y-107321498D01*
X102881386Y-107267842D01*
X102870000Y-107215500D01*
X102870000Y-105312000D01*
X127253500Y-105312000D01*
X130182405Y-105312000D01*
X130182405Y-102460000D01*
X127253500Y-102460000D01*
X127253500Y-105312000D01*
X102870000Y-105312000D01*
X102870000Y-101952000D01*
X110846496Y-101952000D01*
X110847186Y-101958565D01*
X110853651Y-102020072D01*
X110866458Y-102141928D01*
X110925473Y-102323556D01*
X111020960Y-102488944D01*
X111148747Y-102630866D01*
X111303248Y-102743118D01*
X111309276Y-102745802D01*
X111309278Y-102745803D01*
X111379510Y-102777072D01*
X111477712Y-102820794D01*
X111571112Y-102840647D01*
X111658056Y-102859128D01*
X111658061Y-102859128D01*
X111664513Y-102860500D01*
X111855487Y-102860500D01*
X111861939Y-102859128D01*
X111861944Y-102859128D01*
X111948888Y-102840647D01*
X112042288Y-102820794D01*
X112140490Y-102777072D01*
X112210722Y-102745803D01*
X112210724Y-102745802D01*
X112216752Y-102743118D01*
X112371253Y-102630866D01*
X112499040Y-102488944D01*
X112594527Y-102323556D01*
X112653542Y-102141928D01*
X112661523Y-102066000D01*
X113483896Y-102066000D01*
X113484586Y-102072565D01*
X113493385Y-102156279D01*
X113503858Y-102255928D01*
X113562873Y-102437556D01*
X113566176Y-102443278D01*
X113566177Y-102443279D01*
X113578415Y-102464475D01*
X113658360Y-102602944D01*
X113786147Y-102744866D01*
X113821834Y-102770794D01*
X113890653Y-102820794D01*
X113940648Y-102857118D01*
X113946676Y-102859802D01*
X113946678Y-102859803D01*
X114115112Y-102934794D01*
X114114307Y-102936602D01*
X114165122Y-102971348D01*
X114192760Y-103036745D01*
X114180654Y-103106701D01*
X114176702Y-103114105D01*
X114131473Y-103192444D01*
X114072458Y-103374072D01*
X114052496Y-103564000D01*
X114072458Y-103753928D01*
X114131473Y-103935556D01*
X114226960Y-104100944D01*
X114354747Y-104242866D01*
X114509248Y-104355118D01*
X114515276Y-104357802D01*
X114515278Y-104357803D01*
X114677681Y-104430109D01*
X114683712Y-104432794D01*
X114777113Y-104452647D01*
X114864056Y-104471128D01*
X114864061Y-104471128D01*
X114870513Y-104472500D01*
X115061487Y-104472500D01*
X115067939Y-104471128D01*
X115067944Y-104471128D01*
X115154887Y-104452647D01*
X115248288Y-104432794D01*
X115254319Y-104430109D01*
X115416722Y-104357803D01*
X115416724Y-104357802D01*
X115422752Y-104355118D01*
X115577253Y-104242866D01*
X115705040Y-104100944D01*
X115800527Y-103935556D01*
X115859542Y-103753928D01*
X115879504Y-103564000D01*
X115859542Y-103374072D01*
X115821746Y-103257749D01*
X115819718Y-103186782D01*
X115856381Y-103125984D01*
X115915382Y-103095566D01*
X115994288Y-103078794D01*
X116000319Y-103076109D01*
X116162722Y-103003803D01*
X116162724Y-103003802D01*
X116168752Y-103001118D01*
X116323253Y-102888866D01*
X116348794Y-102860500D01*
X116446621Y-102751852D01*
X116446622Y-102751851D01*
X116451040Y-102746944D01*
X116546527Y-102581556D01*
X116605542Y-102399928D01*
X116612968Y-102329279D01*
X116624814Y-102216565D01*
X116625504Y-102210000D01*
X116620830Y-102165532D01*
X116606232Y-102026635D01*
X116606232Y-102026633D01*
X116605542Y-102020072D01*
X116546527Y-101838444D01*
X116522926Y-101797565D01*
X116519136Y-101791000D01*
X122730496Y-101791000D01*
X122731186Y-101797565D01*
X122748108Y-101958565D01*
X122750458Y-101980928D01*
X122809473Y-102162556D01*
X122812776Y-102168278D01*
X122812777Y-102168279D01*
X122836865Y-102210000D01*
X122904960Y-102327944D01*
X122909378Y-102332851D01*
X122909379Y-102332852D01*
X123021082Y-102456911D01*
X123051800Y-102520918D01*
X123042657Y-102591661D01*
X123040473Y-102595444D01*
X122981458Y-102777072D01*
X122961496Y-102967000D01*
X122962186Y-102973565D01*
X122976958Y-103114109D01*
X122981458Y-103156928D01*
X123040473Y-103338556D01*
X123043776Y-103344278D01*
X123043777Y-103344279D01*
X123060978Y-103374072D01*
X123135960Y-103503944D01*
X123140378Y-103508851D01*
X123140379Y-103508852D01*
X123195946Y-103570565D01*
X123263747Y-103645866D01*
X123418248Y-103758118D01*
X123424276Y-103760802D01*
X123424278Y-103760803D01*
X123586681Y-103833109D01*
X123592712Y-103835794D01*
X123686112Y-103855647D01*
X123773056Y-103874128D01*
X123773061Y-103874128D01*
X123779513Y-103875500D01*
X123970487Y-103875500D01*
X123976939Y-103874128D01*
X123976944Y-103874128D01*
X124063888Y-103855647D01*
X124157288Y-103835794D01*
X124163319Y-103833109D01*
X124325722Y-103760803D01*
X124325724Y-103760802D01*
X124331752Y-103758118D01*
X124486253Y-103645866D01*
X124554054Y-103570565D01*
X124609621Y-103508852D01*
X124609622Y-103508851D01*
X124614040Y-103503944D01*
X124689022Y-103374072D01*
X124706223Y-103344279D01*
X124706224Y-103344278D01*
X124709527Y-103338556D01*
X124768542Y-103156928D01*
X124773043Y-103114109D01*
X124787814Y-102973565D01*
X124788504Y-102967000D01*
X124768542Y-102777072D01*
X124709527Y-102595444D01*
X124614040Y-102430056D01*
X124609621Y-102425148D01*
X124497918Y-102301089D01*
X124467200Y-102237082D01*
X124476343Y-102166339D01*
X124478527Y-102162556D01*
X124537542Y-101980928D01*
X124539893Y-101958565D01*
X124556814Y-101797565D01*
X124557504Y-101791000D01*
X124537542Y-101601072D01*
X124478527Y-101419444D01*
X124383040Y-101254056D01*
X124255253Y-101112134D01*
X124100752Y-100999882D01*
X124094724Y-100997198D01*
X124094722Y-100997197D01*
X123932319Y-100924891D01*
X123932318Y-100924891D01*
X123926288Y-100922206D01*
X123832888Y-100902353D01*
X123745944Y-100883872D01*
X123745939Y-100883872D01*
X123739487Y-100882500D01*
X123548513Y-100882500D01*
X123542061Y-100883872D01*
X123542056Y-100883872D01*
X123455112Y-100902353D01*
X123361712Y-100922206D01*
X123355682Y-100924891D01*
X123355681Y-100924891D01*
X123193278Y-100997197D01*
X123193276Y-100997198D01*
X123187248Y-100999882D01*
X123032747Y-101112134D01*
X122904960Y-101254056D01*
X122809473Y-101419444D01*
X122750458Y-101601072D01*
X122730496Y-101791000D01*
X116519136Y-101791000D01*
X116506223Y-101768635D01*
X116451040Y-101673056D01*
X116386226Y-101601072D01*
X116327675Y-101536045D01*
X116327674Y-101536044D01*
X116323253Y-101531134D01*
X116168752Y-101418882D01*
X116162724Y-101416198D01*
X116162722Y-101416197D01*
X116000319Y-101343891D01*
X116000318Y-101343891D01*
X115994288Y-101341206D01*
X115900887Y-101321353D01*
X115813944Y-101302872D01*
X115813939Y-101302872D01*
X115807487Y-101301500D01*
X115616513Y-101301500D01*
X115610061Y-101302872D01*
X115610056Y-101302872D01*
X115523113Y-101321353D01*
X115429712Y-101341206D01*
X115423682Y-101343891D01*
X115423681Y-101343891D01*
X115261278Y-101416197D01*
X115261276Y-101416198D01*
X115255248Y-101418882D01*
X115215238Y-101447951D01*
X115148373Y-101471808D01*
X115079222Y-101455728D01*
X115047543Y-101430325D01*
X115029375Y-101410148D01*
X115008653Y-101387134D01*
X114892677Y-101302872D01*
X114859494Y-101278763D01*
X114859493Y-101278762D01*
X114854152Y-101274882D01*
X114848124Y-101272198D01*
X114848122Y-101272197D01*
X114685719Y-101199891D01*
X114685718Y-101199891D01*
X114679688Y-101197206D01*
X114586287Y-101177353D01*
X114499344Y-101158872D01*
X114499339Y-101158872D01*
X114492887Y-101157500D01*
X114301913Y-101157500D01*
X114295461Y-101158872D01*
X114295456Y-101158872D01*
X114208513Y-101177353D01*
X114115112Y-101197206D01*
X114109082Y-101199891D01*
X114109081Y-101199891D01*
X113946678Y-101272197D01*
X113946676Y-101272198D01*
X113940648Y-101274882D01*
X113786147Y-101387134D01*
X113781726Y-101392044D01*
X113781725Y-101392045D01*
X113754067Y-101422763D01*
X113658360Y-101529056D01*
X113562873Y-101694444D01*
X113503858Y-101876072D01*
X113483896Y-102066000D01*
X112661523Y-102066000D01*
X112666350Y-102020072D01*
X112672814Y-101958565D01*
X112673504Y-101952000D01*
X112664864Y-101869794D01*
X112654232Y-101768635D01*
X112654232Y-101768633D01*
X112653542Y-101762072D01*
X112594527Y-101580444D01*
X112499040Y-101415056D01*
X112371253Y-101273134D01*
X112270443Y-101199891D01*
X112222094Y-101164763D01*
X112222093Y-101164762D01*
X112216752Y-101160882D01*
X112210724Y-101158198D01*
X112210722Y-101158197D01*
X112048319Y-101085891D01*
X112048318Y-101085891D01*
X112042288Y-101083206D01*
X111948887Y-101063353D01*
X111861944Y-101044872D01*
X111861939Y-101044872D01*
X111855487Y-101043500D01*
X111664513Y-101043500D01*
X111658061Y-101044872D01*
X111658056Y-101044872D01*
X111571113Y-101063353D01*
X111477712Y-101083206D01*
X111471682Y-101085891D01*
X111471681Y-101085891D01*
X111309278Y-101158197D01*
X111309276Y-101158198D01*
X111303248Y-101160882D01*
X111297907Y-101164762D01*
X111297906Y-101164763D01*
X111249557Y-101199891D01*
X111148747Y-101273134D01*
X111020960Y-101415056D01*
X110925473Y-101580444D01*
X110866458Y-101762072D01*
X110865768Y-101768633D01*
X110865768Y-101768635D01*
X110855136Y-101869794D01*
X110846496Y-101952000D01*
X102870000Y-101952000D01*
X102870000Y-98806000D01*
X110084496Y-98806000D01*
X110104458Y-98995928D01*
X110163473Y-99177556D01*
X110258960Y-99342944D01*
X110263378Y-99347851D01*
X110263379Y-99347852D01*
X110382325Y-99479955D01*
X110386747Y-99484866D01*
X110541248Y-99597118D01*
X110547276Y-99599802D01*
X110547278Y-99599803D01*
X110709681Y-99672109D01*
X110715712Y-99674794D01*
X110809113Y-99694647D01*
X110896056Y-99713128D01*
X110896061Y-99713128D01*
X110902513Y-99714500D01*
X111093487Y-99714500D01*
X111099939Y-99713128D01*
X111099944Y-99713128D01*
X111186887Y-99694647D01*
X111280288Y-99674794D01*
X111286319Y-99672109D01*
X111448722Y-99599803D01*
X111448724Y-99599802D01*
X111454752Y-99597118D01*
X111609253Y-99484866D01*
X111613675Y-99479955D01*
X111732621Y-99347852D01*
X111732622Y-99347851D01*
X111737040Y-99342944D01*
X111827710Y-99185900D01*
X115926496Y-99185900D01*
X115927186Y-99192465D01*
X115943518Y-99347852D01*
X115946458Y-99375828D01*
X116005473Y-99557456D01*
X116008776Y-99563178D01*
X116008777Y-99563179D01*
X116042686Y-99621910D01*
X116100960Y-99722844D01*
X116105378Y-99727751D01*
X116105379Y-99727752D01*
X116216458Y-99851118D01*
X116228747Y-99864766D01*
X116313178Y-99926109D01*
X116369735Y-99967200D01*
X116383248Y-99977018D01*
X116389276Y-99979702D01*
X116389278Y-99979703D01*
X116551681Y-100052009D01*
X116557712Y-100054694D01*
X116651112Y-100074547D01*
X116738056Y-100093028D01*
X116738061Y-100093028D01*
X116744513Y-100094400D01*
X116935487Y-100094400D01*
X116941939Y-100093028D01*
X116941944Y-100093028D01*
X117028888Y-100074547D01*
X117122288Y-100054694D01*
X117128319Y-100052009D01*
X117290722Y-99979703D01*
X117290724Y-99979702D01*
X117296752Y-99977018D01*
X117310266Y-99967200D01*
X117366822Y-99926109D01*
X117451253Y-99864766D01*
X117463542Y-99851118D01*
X117574621Y-99727752D01*
X117574622Y-99727751D01*
X117579040Y-99722844D01*
X117637314Y-99621910D01*
X117671223Y-99563179D01*
X117671224Y-99563178D01*
X117674527Y-99557456D01*
X117733542Y-99375828D01*
X117736483Y-99347852D01*
X117752814Y-99192465D01*
X117753504Y-99185900D01*
X117740272Y-99060000D01*
X126340496Y-99060000D01*
X126341186Y-99066565D01*
X126352697Y-99176082D01*
X126360458Y-99249928D01*
X126419473Y-99431556D01*
X126514960Y-99596944D01*
X126519378Y-99601851D01*
X126519379Y-99601852D01*
X126582639Y-99672109D01*
X126642747Y-99738866D01*
X126797248Y-99851118D01*
X126803276Y-99853802D01*
X126803278Y-99853803D01*
X126836623Y-99868649D01*
X126971712Y-99928794D01*
X127065112Y-99948647D01*
X127152056Y-99967128D01*
X127152061Y-99967128D01*
X127158513Y-99968500D01*
X127349487Y-99968500D01*
X127355939Y-99967128D01*
X127355944Y-99967128D01*
X127442888Y-99948647D01*
X127536288Y-99928794D01*
X127671377Y-99868649D01*
X127704722Y-99853803D01*
X127704724Y-99853802D01*
X127710752Y-99851118D01*
X127796801Y-99788600D01*
X127863665Y-99764743D01*
X127932817Y-99780823D01*
X127982297Y-99831736D01*
X127996169Y-99903707D01*
X127993388Y-99930166D01*
X127989496Y-99967200D01*
X128009458Y-100157128D01*
X128068473Y-100338756D01*
X128163960Y-100504144D01*
X128291747Y-100646066D01*
X128446248Y-100758318D01*
X128452276Y-100761002D01*
X128452278Y-100761003D01*
X128614681Y-100833309D01*
X128620712Y-100835994D01*
X128714112Y-100855847D01*
X128801056Y-100874328D01*
X128801061Y-100874328D01*
X128807513Y-100875700D01*
X128998487Y-100875700D01*
X129004939Y-100874328D01*
X129004944Y-100874328D01*
X129091888Y-100855847D01*
X129185288Y-100835994D01*
X129191319Y-100833309D01*
X129353722Y-100761003D01*
X129353724Y-100761002D01*
X129359752Y-100758318D01*
X129514253Y-100646066D01*
X129642040Y-100504144D01*
X129737527Y-100338756D01*
X129796542Y-100157128D01*
X129816504Y-99967200D01*
X129804586Y-99853803D01*
X129797232Y-99783835D01*
X129797232Y-99783833D01*
X129796542Y-99777272D01*
X129737527Y-99595644D01*
X129711851Y-99551171D01*
X129670734Y-99479955D01*
X129642040Y-99430256D01*
X129637552Y-99425271D01*
X129518675Y-99293245D01*
X129518674Y-99293244D01*
X129514253Y-99288334D01*
X129382301Y-99192465D01*
X129365094Y-99179963D01*
X129365093Y-99179962D01*
X129359752Y-99176082D01*
X129353724Y-99173398D01*
X129353722Y-99173397D01*
X129191319Y-99101091D01*
X129191318Y-99101091D01*
X129185288Y-99098406D01*
X129091887Y-99078553D01*
X129004944Y-99060072D01*
X129004939Y-99060072D01*
X128998487Y-99058700D01*
X128807513Y-99058700D01*
X128801061Y-99060072D01*
X128801056Y-99060072D01*
X128714113Y-99078553D01*
X128620712Y-99098406D01*
X128614682Y-99101091D01*
X128614681Y-99101091D01*
X128452278Y-99173397D01*
X128452276Y-99173398D01*
X128446248Y-99176082D01*
X128360199Y-99238600D01*
X128293335Y-99262457D01*
X128224183Y-99246377D01*
X128174703Y-99195464D01*
X128160831Y-99123493D01*
X128166814Y-99066565D01*
X128167504Y-99060000D01*
X128161430Y-99002206D01*
X128148232Y-98876635D01*
X128148232Y-98876633D01*
X128147542Y-98870072D01*
X128088527Y-98688444D01*
X127993040Y-98523056D01*
X127975118Y-98503151D01*
X127869675Y-98386045D01*
X127869674Y-98386044D01*
X127865253Y-98381134D01*
X127766157Y-98309136D01*
X127716094Y-98272763D01*
X127716093Y-98272762D01*
X127710752Y-98268882D01*
X127704724Y-98266198D01*
X127704722Y-98266197D01*
X127542319Y-98193891D01*
X127542318Y-98193891D01*
X127536288Y-98191206D01*
X127442888Y-98171353D01*
X127355944Y-98152872D01*
X127355939Y-98152872D01*
X127349487Y-98151500D01*
X127158513Y-98151500D01*
X127152061Y-98152872D01*
X127152056Y-98152872D01*
X127065112Y-98171353D01*
X126971712Y-98191206D01*
X126965682Y-98193891D01*
X126965681Y-98193891D01*
X126803278Y-98266197D01*
X126803276Y-98266198D01*
X126797248Y-98268882D01*
X126791907Y-98272762D01*
X126791906Y-98272763D01*
X126741843Y-98309136D01*
X126642747Y-98381134D01*
X126638326Y-98386044D01*
X126638325Y-98386045D01*
X126532883Y-98503151D01*
X126514960Y-98523056D01*
X126419473Y-98688444D01*
X126360458Y-98870072D01*
X126359768Y-98876633D01*
X126359768Y-98876635D01*
X126346570Y-99002206D01*
X126340496Y-99060000D01*
X117740272Y-99060000D01*
X117733542Y-98995972D01*
X117674527Y-98814344D01*
X117579040Y-98648956D01*
X117555341Y-98622635D01*
X117455675Y-98511945D01*
X117455674Y-98511944D01*
X117451253Y-98507034D01*
X117296752Y-98394782D01*
X117290724Y-98392098D01*
X117290722Y-98392097D01*
X117128319Y-98319791D01*
X117128318Y-98319791D01*
X117122288Y-98317106D01*
X117028888Y-98297253D01*
X116941944Y-98278772D01*
X116941939Y-98278772D01*
X116935487Y-98277400D01*
X116744513Y-98277400D01*
X116738061Y-98278772D01*
X116738056Y-98278772D01*
X116651112Y-98297253D01*
X116557712Y-98317106D01*
X116551682Y-98319791D01*
X116551681Y-98319791D01*
X116389278Y-98392097D01*
X116389276Y-98392098D01*
X116383248Y-98394782D01*
X116228747Y-98507034D01*
X116224326Y-98511944D01*
X116224325Y-98511945D01*
X116124660Y-98622635D01*
X116100960Y-98648956D01*
X116005473Y-98814344D01*
X115946458Y-98995972D01*
X115926496Y-99185900D01*
X111827710Y-99185900D01*
X111832527Y-99177556D01*
X111891542Y-98995928D01*
X111911504Y-98806000D01*
X111894998Y-98648956D01*
X111892232Y-98622635D01*
X111892232Y-98622633D01*
X111891542Y-98616072D01*
X111832527Y-98434444D01*
X111737040Y-98269056D01*
X111671367Y-98196118D01*
X111613675Y-98132045D01*
X111613674Y-98132044D01*
X111609253Y-98127134D01*
X111454752Y-98014882D01*
X111448724Y-98012198D01*
X111448722Y-98012197D01*
X111286319Y-97939891D01*
X111286318Y-97939891D01*
X111280288Y-97937206D01*
X111186887Y-97917353D01*
X111099944Y-97898872D01*
X111099939Y-97898872D01*
X111093487Y-97897500D01*
X110902513Y-97897500D01*
X110896061Y-97898872D01*
X110896056Y-97898872D01*
X110809112Y-97917353D01*
X110715712Y-97937206D01*
X110709682Y-97939891D01*
X110709681Y-97939891D01*
X110547278Y-98012197D01*
X110547276Y-98012198D01*
X110541248Y-98014882D01*
X110386747Y-98127134D01*
X110382326Y-98132044D01*
X110382325Y-98132045D01*
X110324634Y-98196118D01*
X110258960Y-98269056D01*
X110163473Y-98434444D01*
X110104458Y-98616072D01*
X110103768Y-98622633D01*
X110103768Y-98622635D01*
X110101002Y-98648956D01*
X110084496Y-98806000D01*
X102870000Y-98806000D01*
X102870000Y-97405000D01*
X118200496Y-97405000D01*
X118220458Y-97594928D01*
X118279473Y-97776556D01*
X118374960Y-97941944D01*
X118379378Y-97946851D01*
X118379379Y-97946852D01*
X118444128Y-98018763D01*
X118502747Y-98083866D01*
X118657248Y-98196118D01*
X118663276Y-98198802D01*
X118663278Y-98198803D01*
X118820679Y-98268882D01*
X118831712Y-98273794D01*
X118925113Y-98293647D01*
X119012056Y-98312128D01*
X119012061Y-98312128D01*
X119018513Y-98313500D01*
X119209487Y-98313500D01*
X119215939Y-98312128D01*
X119215944Y-98312128D01*
X119302888Y-98293647D01*
X119396288Y-98273794D01*
X119407321Y-98268882D01*
X119564722Y-98198803D01*
X119564724Y-98198802D01*
X119570752Y-98196118D01*
X119725253Y-98083866D01*
X119783872Y-98018763D01*
X119848621Y-97946852D01*
X119848622Y-97946851D01*
X119853040Y-97941944D01*
X119948527Y-97776556D01*
X120007542Y-97594928D01*
X120027504Y-97405000D01*
X120007542Y-97215072D01*
X119948527Y-97033444D01*
X119853040Y-96868056D01*
X119789265Y-96797226D01*
X119729675Y-96731045D01*
X119729674Y-96731044D01*
X119725253Y-96726134D01*
X119570752Y-96613882D01*
X119564724Y-96611198D01*
X119564722Y-96611197D01*
X119402319Y-96538891D01*
X119402318Y-96538891D01*
X119396288Y-96536206D01*
X119290543Y-96513729D01*
X119215944Y-96497872D01*
X119215939Y-96497872D01*
X119209487Y-96496500D01*
X119018513Y-96496500D01*
X119012061Y-96497872D01*
X119012056Y-96497872D01*
X118937457Y-96513729D01*
X118831712Y-96536206D01*
X118825682Y-96538891D01*
X118825681Y-96538891D01*
X118663278Y-96611197D01*
X118663276Y-96611198D01*
X118657248Y-96613882D01*
X118502747Y-96726134D01*
X118498326Y-96731044D01*
X118498325Y-96731045D01*
X118438736Y-96797226D01*
X118374960Y-96868056D01*
X118279473Y-97033444D01*
X118220458Y-97215072D01*
X118200496Y-97405000D01*
X102870000Y-97405000D01*
X102870000Y-96638447D01*
X102890002Y-96570326D01*
X102943658Y-96523833D01*
X103013932Y-96513729D01*
X103078512Y-96543223D01*
X103089634Y-96554135D01*
X103212747Y-96690866D01*
X103367248Y-96803118D01*
X103373276Y-96805802D01*
X103373278Y-96805803D01*
X103535681Y-96878109D01*
X103541712Y-96880794D01*
X103635112Y-96900647D01*
X103722056Y-96919128D01*
X103722061Y-96919128D01*
X103728513Y-96920500D01*
X103919487Y-96920500D01*
X103925939Y-96919128D01*
X103925944Y-96919128D01*
X104012888Y-96900647D01*
X104106288Y-96880794D01*
X104112319Y-96878109D01*
X104274722Y-96805803D01*
X104274724Y-96805802D01*
X104280752Y-96803118D01*
X104435253Y-96690866D01*
X104439675Y-96685955D01*
X104558621Y-96553852D01*
X104558622Y-96553851D01*
X104563040Y-96548944D01*
X104583371Y-96513729D01*
X104655223Y-96389279D01*
X104655224Y-96389278D01*
X104658527Y-96383556D01*
X104717542Y-96201928D01*
X104737504Y-96012000D01*
X104717542Y-95822072D01*
X104658527Y-95640444D01*
X104563040Y-95475056D01*
X104505956Y-95411657D01*
X104439675Y-95338045D01*
X104439674Y-95338044D01*
X104435253Y-95333134D01*
X104321739Y-95250661D01*
X104286094Y-95224763D01*
X104286093Y-95224762D01*
X104280752Y-95220882D01*
X104274724Y-95218198D01*
X104274722Y-95218197D01*
X104112319Y-95145891D01*
X104112318Y-95145891D01*
X104106288Y-95143206D01*
X104012888Y-95123353D01*
X103925944Y-95104872D01*
X103925939Y-95104872D01*
X103919487Y-95103500D01*
X103728513Y-95103500D01*
X103722061Y-95104872D01*
X103722056Y-95104872D01*
X103635113Y-95123353D01*
X103541712Y-95143206D01*
X103535682Y-95145891D01*
X103535681Y-95145891D01*
X103373278Y-95218197D01*
X103373276Y-95218198D01*
X103367248Y-95220882D01*
X103361907Y-95224762D01*
X103361906Y-95224763D01*
X103326261Y-95250661D01*
X103212747Y-95333134D01*
X103208326Y-95338044D01*
X103208325Y-95338045D01*
X103089636Y-95469863D01*
X103029190Y-95507103D01*
X102958207Y-95505751D01*
X102899222Y-95466238D01*
X102870964Y-95401107D01*
X102870000Y-95385553D01*
X102870000Y-94874669D01*
X114212001Y-94874669D01*
X114212371Y-94881490D01*
X114217895Y-94932352D01*
X114221521Y-94947604D01*
X114266676Y-95068054D01*
X114275214Y-95083649D01*
X114351715Y-95185724D01*
X114364276Y-95198285D01*
X114466351Y-95274786D01*
X114481946Y-95283324D01*
X114602394Y-95328478D01*
X114617649Y-95332105D01*
X114668514Y-95337631D01*
X114675328Y-95338000D01*
X115297885Y-95338000D01*
X115313124Y-95333525D01*
X115314329Y-95332135D01*
X115316000Y-95324452D01*
X115316000Y-95319884D01*
X115824000Y-95319884D01*
X115828475Y-95335123D01*
X115829865Y-95336328D01*
X115837548Y-95337999D01*
X116183864Y-95337999D01*
X116251985Y-95358001D01*
X116298478Y-95411657D01*
X116308582Y-95481931D01*
X116279088Y-95546511D01*
X116257926Y-95565934D01*
X116228747Y-95587134D01*
X116224326Y-95592044D01*
X116224325Y-95592045D01*
X116180747Y-95640444D01*
X116100960Y-95729056D01*
X116005473Y-95894444D01*
X115946458Y-96076072D01*
X115926496Y-96266000D01*
X115946458Y-96455928D01*
X116005473Y-96637556D01*
X116100960Y-96802944D01*
X116105378Y-96807851D01*
X116105379Y-96807852D01*
X116168639Y-96878109D01*
X116228747Y-96944866D01*
X116383248Y-97057118D01*
X116389276Y-97059802D01*
X116389278Y-97059803D01*
X116551681Y-97132109D01*
X116557712Y-97134794D01*
X116651113Y-97154647D01*
X116738056Y-97173128D01*
X116738061Y-97173128D01*
X116744513Y-97174500D01*
X116935487Y-97174500D01*
X116941939Y-97173128D01*
X116941944Y-97173128D01*
X117028887Y-97154647D01*
X117122288Y-97134794D01*
X117128319Y-97132109D01*
X117290722Y-97059803D01*
X117290724Y-97059802D01*
X117296752Y-97057118D01*
X117451253Y-96944866D01*
X117511361Y-96878109D01*
X117574621Y-96807852D01*
X117574622Y-96807851D01*
X117579040Y-96802944D01*
X117674527Y-96637556D01*
X117733542Y-96455928D01*
X117753504Y-96266000D01*
X121006496Y-96266000D01*
X121026458Y-96455928D01*
X121085473Y-96637556D01*
X121180960Y-96802944D01*
X121185378Y-96807851D01*
X121185379Y-96807852D01*
X121248639Y-96878109D01*
X121308747Y-96944866D01*
X121463248Y-97057118D01*
X121469276Y-97059802D01*
X121469278Y-97059803D01*
X121631681Y-97132109D01*
X121637712Y-97134794D01*
X121731113Y-97154647D01*
X121818056Y-97173128D01*
X121818061Y-97173128D01*
X121824513Y-97174500D01*
X122015487Y-97174500D01*
X122021939Y-97173128D01*
X122021944Y-97173128D01*
X122108887Y-97154647D01*
X122202288Y-97134794D01*
X122208319Y-97132109D01*
X122370722Y-97059803D01*
X122370724Y-97059802D01*
X122376752Y-97057118D01*
X122531253Y-96944866D01*
X122591361Y-96878109D01*
X122654621Y-96807852D01*
X122654622Y-96807851D01*
X122659040Y-96802944D01*
X122754527Y-96637556D01*
X122813542Y-96455928D01*
X122833504Y-96266000D01*
X122813542Y-96076072D01*
X122754527Y-95894444D01*
X122659040Y-95729056D01*
X122579254Y-95640444D01*
X122535675Y-95592045D01*
X122535674Y-95592044D01*
X122531253Y-95587134D01*
X122376752Y-95474882D01*
X122370724Y-95472198D01*
X122370722Y-95472197D01*
X122208319Y-95399891D01*
X122208318Y-95399891D01*
X122202288Y-95397206D01*
X122108888Y-95377353D01*
X122021944Y-95358872D01*
X122021939Y-95358872D01*
X122015487Y-95357500D01*
X121824513Y-95357500D01*
X121818061Y-95358872D01*
X121818056Y-95358872D01*
X121731113Y-95377353D01*
X121637712Y-95397206D01*
X121631682Y-95399891D01*
X121631681Y-95399891D01*
X121469278Y-95472197D01*
X121469276Y-95472198D01*
X121463248Y-95474882D01*
X121308747Y-95587134D01*
X121304326Y-95592044D01*
X121304325Y-95592045D01*
X121260747Y-95640444D01*
X121180960Y-95729056D01*
X121085473Y-95894444D01*
X121026458Y-96076072D01*
X121006496Y-96266000D01*
X117753504Y-96266000D01*
X117733542Y-96076072D01*
X117674527Y-95894444D01*
X117579040Y-95729056D01*
X117499254Y-95640444D01*
X117455675Y-95592045D01*
X117455674Y-95592044D01*
X117451253Y-95587134D01*
X117296752Y-95474882D01*
X117290724Y-95472198D01*
X117290722Y-95472197D01*
X117128319Y-95399891D01*
X117128318Y-95399891D01*
X117122288Y-95397206D01*
X117028888Y-95377353D01*
X116941944Y-95358872D01*
X116941939Y-95358872D01*
X116935487Y-95357500D01*
X116911437Y-95357500D01*
X116843316Y-95337498D01*
X116796823Y-95283842D01*
X116786719Y-95213568D01*
X116810610Y-95155936D01*
X116864787Y-95083648D01*
X116873324Y-95068054D01*
X116914225Y-94958952D01*
X116956867Y-94902188D01*
X117023428Y-94877488D01*
X117092777Y-94892696D01*
X117127444Y-94920684D01*
X117152865Y-94950031D01*
X117152869Y-94950035D01*
X117156250Y-94953938D01*
X117328126Y-95096632D01*
X117521000Y-95209338D01*
X117525825Y-95211180D01*
X117525826Y-95211181D01*
X117561394Y-95224763D01*
X117729692Y-95289030D01*
X117734760Y-95290061D01*
X117734763Y-95290062D01*
X117842017Y-95311883D01*
X117948597Y-95333567D01*
X117953772Y-95333757D01*
X117953774Y-95333757D01*
X118166673Y-95341564D01*
X118166677Y-95341564D01*
X118171837Y-95341753D01*
X118176957Y-95341097D01*
X118176959Y-95341097D01*
X118388288Y-95314025D01*
X118388289Y-95314025D01*
X118393416Y-95313368D01*
X118398366Y-95311883D01*
X118602429Y-95250661D01*
X118602434Y-95250659D01*
X118607384Y-95249174D01*
X118807994Y-95150896D01*
X118989860Y-95021173D01*
X119148096Y-94863489D01*
X119278453Y-94682077D01*
X119377430Y-94481811D01*
X119442370Y-94268069D01*
X119471529Y-94046590D01*
X119473156Y-93980000D01*
X119454852Y-93757361D01*
X119400431Y-93540702D01*
X119311354Y-93335840D01*
X119271906Y-93274862D01*
X119192822Y-93152617D01*
X119192820Y-93152614D01*
X119190014Y-93148277D01*
X119039670Y-92983051D01*
X119035619Y-92979852D01*
X119035615Y-92979848D01*
X118868414Y-92847800D01*
X118868410Y-92847798D01*
X118864359Y-92844598D01*
X118668789Y-92736638D01*
X118663920Y-92734914D01*
X118663916Y-92734912D01*
X118463087Y-92663795D01*
X118463083Y-92663794D01*
X118458212Y-92662069D01*
X118453119Y-92661162D01*
X118453116Y-92661161D01*
X118243373Y-92623800D01*
X118243367Y-92623799D01*
X118238284Y-92622894D01*
X118164452Y-92621992D01*
X118020081Y-92620228D01*
X118020079Y-92620228D01*
X118014911Y-92620165D01*
X117794091Y-92653955D01*
X117581756Y-92723357D01*
X117383607Y-92826507D01*
X117379474Y-92829610D01*
X117379471Y-92829612D01*
X117296450Y-92891946D01*
X117204965Y-92960635D01*
X117201393Y-92964373D01*
X117123898Y-93045466D01*
X117062374Y-93080895D01*
X116991462Y-93077438D01*
X116933676Y-93036192D01*
X116914823Y-93002644D01*
X116873324Y-92891946D01*
X116864786Y-92876351D01*
X116788285Y-92774276D01*
X116775724Y-92761715D01*
X116673649Y-92685214D01*
X116658054Y-92676676D01*
X116537606Y-92631522D01*
X116522351Y-92627895D01*
X116471486Y-92622369D01*
X116464672Y-92622000D01*
X115842115Y-92622000D01*
X115826876Y-92626475D01*
X115825671Y-92627865D01*
X115824000Y-92635548D01*
X115824000Y-95319884D01*
X115316000Y-95319884D01*
X115316000Y-94252115D01*
X115311525Y-94236876D01*
X115310135Y-94235671D01*
X115302452Y-94234000D01*
X114230116Y-94234000D01*
X114214877Y-94238475D01*
X114213672Y-94239865D01*
X114212001Y-94247548D01*
X114212001Y-94874669D01*
X102870000Y-94874669D01*
X102870000Y-93707885D01*
X114212000Y-93707885D01*
X114216475Y-93723124D01*
X114217865Y-93724329D01*
X114225548Y-93726000D01*
X115297885Y-93726000D01*
X115313124Y-93721525D01*
X115314329Y-93720135D01*
X115316000Y-93712452D01*
X115316000Y-92640116D01*
X115311525Y-92624877D01*
X115310135Y-92623672D01*
X115302452Y-92622001D01*
X114675331Y-92622001D01*
X114668510Y-92622371D01*
X114617648Y-92627895D01*
X114602396Y-92631521D01*
X114481946Y-92676676D01*
X114466351Y-92685214D01*
X114364276Y-92761715D01*
X114351715Y-92774276D01*
X114275214Y-92876351D01*
X114266676Y-92891946D01*
X114221522Y-93012394D01*
X114217895Y-93027649D01*
X114212369Y-93078514D01*
X114212000Y-93085328D01*
X114212000Y-93707885D01*
X102870000Y-93707885D01*
X102870000Y-91566000D01*
X102890002Y-91497879D01*
X102943658Y-91451386D01*
X102996000Y-91440000D01*
X110490000Y-91440000D01*
X110490000Y-90965000D01*
X113162496Y-90965000D01*
X113182458Y-91154928D01*
X113241473Y-91336556D01*
X113336960Y-91501944D01*
X113464747Y-91643866D01*
X113619248Y-91756118D01*
X113625276Y-91758802D01*
X113625278Y-91758803D01*
X113787681Y-91831109D01*
X113793712Y-91833794D01*
X113887112Y-91853647D01*
X113974056Y-91872128D01*
X113974061Y-91872128D01*
X113980513Y-91873500D01*
X114171487Y-91873500D01*
X114177939Y-91872128D01*
X114177944Y-91872128D01*
X114264888Y-91853647D01*
X114358288Y-91833794D01*
X114364319Y-91831109D01*
X114526722Y-91758803D01*
X114526724Y-91758802D01*
X114532752Y-91756118D01*
X114687253Y-91643866D01*
X114815040Y-91501944D01*
X114910527Y-91336556D01*
X114969542Y-91154928D01*
X114989504Y-90965000D01*
X114969542Y-90775072D01*
X114910527Y-90593444D01*
X114815040Y-90428056D01*
X114687253Y-90286134D01*
X114532752Y-90173882D01*
X114526724Y-90171198D01*
X114526722Y-90171197D01*
X114364319Y-90098891D01*
X114364318Y-90098891D01*
X114358288Y-90096206D01*
X114264887Y-90076353D01*
X114177944Y-90057872D01*
X114177939Y-90057872D01*
X114171487Y-90056500D01*
X113980513Y-90056500D01*
X113974061Y-90057872D01*
X113974056Y-90057872D01*
X113887113Y-90076353D01*
X113793712Y-90096206D01*
X113787682Y-90098891D01*
X113787681Y-90098891D01*
X113625278Y-90171197D01*
X113625276Y-90171198D01*
X113619248Y-90173882D01*
X113464747Y-90286134D01*
X113336960Y-90428056D01*
X113241473Y-90593444D01*
X113182458Y-90775072D01*
X113162496Y-90965000D01*
X110490000Y-90965000D01*
X110490000Y-83820000D01*
X102996000Y-83820000D01*
X102927879Y-83799998D01*
X102881386Y-83746342D01*
X102870000Y-83694000D01*
X102870000Y-82676000D01*
X102890002Y-82607879D01*
X102943658Y-82561386D01*
X102996000Y-82550000D01*
X130684000Y-82550000D01*
X130752121Y-82570002D01*
G37*
%TD.AperFunction*%
%TD*%
M02*
