%TF.GenerationSoftware,KiCad,Pcbnew,(6.0.10)*%
%TF.CreationDate,2023-02-07T20:48:56+01:00*%
%TF.ProjectId,JoystickAdapter,4a6f7973-7469-4636-9b41-646170746572,1.0*%
%TF.SameCoordinates,Original*%
%TF.FileFunction,Legend,Top*%
%TF.FilePolarity,Positive*%
%FSLAX46Y46*%
G04 Gerber Fmt 4.6, Leading zero omitted, Abs format (unit mm)*
G04 Created by KiCad (PCBNEW (6.0.10)) date 2023-02-07 20:48:56*
%MOMM*%
%LPD*%
G01*
G04 APERTURE LIST*
%ADD10C,0.150000*%
%ADD11C,0.120000*%
G04 APERTURE END LIST*
D10*
X124714000Y-109474000D02*
X124714000Y-108458000D01*
X109951344Y-112958816D02*
G75*
G03*
X109981999Y-115570000I-3016344J-1341184D01*
G01*
X113030000Y-109474000D02*
X120650000Y-109474000D01*
X110235000Y-88300000D02*
G75*
G03*
X110235000Y-88300000I-3300000J0D01*
G01*
X122428000Y-109474000D02*
X124714000Y-109474000D01*
X108966000Y-107188000D02*
X108966000Y-102870000D01*
X108966000Y-109474000D02*
X111252000Y-109474000D01*
X110490000Y-108458000D02*
X109982000Y-107950000D01*
X124714000Y-107188000D02*
X124714000Y-102870000D01*
X109982000Y-108458000D02*
X109982000Y-107950000D01*
X108966000Y-109474000D02*
X108966000Y-108458000D01*
X110490000Y-108458000D02*
X109982000Y-108458000D01*
X123680194Y-115526405D02*
G75*
G03*
X123698001Y-113030000I3064806J1226405D01*
G01*
X124714000Y-102870000D02*
X108966000Y-102870000D01*
X130045000Y-88300000D02*
G75*
G03*
X130045000Y-88300000I-3300000J0D01*
G01*
X103062738Y-92627380D02*
X103396071Y-93627380D01*
X103729404Y-92627380D01*
X104443690Y-93579761D02*
X104348452Y-93627380D01*
X104157976Y-93627380D01*
X104062738Y-93579761D01*
X104015119Y-93484523D01*
X104015119Y-93103571D01*
X104062738Y-93008333D01*
X104157976Y-92960714D01*
X104348452Y-92960714D01*
X104443690Y-93008333D01*
X104491309Y-93103571D01*
X104491309Y-93198809D01*
X104015119Y-93294047D01*
X104919880Y-93627380D02*
X104919880Y-92960714D01*
X104919880Y-93151190D02*
X104967500Y-93055952D01*
X105015119Y-93008333D01*
X105110357Y-92960714D01*
X105205595Y-92960714D01*
X105491309Y-93579761D02*
X105586547Y-93627380D01*
X105777023Y-93627380D01*
X105872261Y-93579761D01*
X105919880Y-93484523D01*
X105919880Y-93436904D01*
X105872261Y-93341666D01*
X105777023Y-93294047D01*
X105634166Y-93294047D01*
X105538928Y-93246428D01*
X105491309Y-93151190D01*
X105491309Y-93103571D01*
X105538928Y-93008333D01*
X105634166Y-92960714D01*
X105777023Y-92960714D01*
X105872261Y-93008333D01*
X106348452Y-93627380D02*
X106348452Y-92960714D01*
X106348452Y-92627380D02*
X106300833Y-92675000D01*
X106348452Y-92722619D01*
X106396071Y-92675000D01*
X106348452Y-92627380D01*
X106348452Y-92722619D01*
X106967500Y-93627380D02*
X106872261Y-93579761D01*
X106824642Y-93532142D01*
X106777023Y-93436904D01*
X106777023Y-93151190D01*
X106824642Y-93055952D01*
X106872261Y-93008333D01*
X106967500Y-92960714D01*
X107110357Y-92960714D01*
X107205595Y-93008333D01*
X107253214Y-93055952D01*
X107300833Y-93151190D01*
X107300833Y-93436904D01*
X107253214Y-93532142D01*
X107205595Y-93579761D01*
X107110357Y-93627380D01*
X106967500Y-93627380D01*
X107729404Y-92960714D02*
X107729404Y-93627380D01*
X107729404Y-93055952D02*
X107777023Y-93008333D01*
X107872261Y-92960714D01*
X108015119Y-92960714D01*
X108110357Y-93008333D01*
X108157976Y-93103571D01*
X108157976Y-93627380D01*
X109919880Y-93627380D02*
X109348452Y-93627380D01*
X109634166Y-93627380D02*
X109634166Y-92627380D01*
X109538928Y-92770238D01*
X109443690Y-92865476D01*
X109348452Y-92913095D01*
X110348452Y-93532142D02*
X110396071Y-93579761D01*
X110348452Y-93627380D01*
X110300833Y-93579761D01*
X110348452Y-93532142D01*
X110348452Y-93627380D01*
X111015119Y-92627380D02*
X111110357Y-92627380D01*
X111205595Y-92675000D01*
X111253214Y-92722619D01*
X111300833Y-92817857D01*
X111348452Y-93008333D01*
X111348452Y-93246428D01*
X111300833Y-93436904D01*
X111253214Y-93532142D01*
X111205595Y-93579761D01*
X111110357Y-93627380D01*
X111015119Y-93627380D01*
X110919880Y-93579761D01*
X110872261Y-93532142D01*
X110824642Y-93436904D01*
X110777023Y-93246428D01*
X110777023Y-93008333D01*
X110824642Y-92817857D01*
X110872261Y-92722619D01*
X110919880Y-92675000D01*
X111015119Y-92627380D01*
X103396071Y-94237380D02*
X103491309Y-94237380D01*
X103586547Y-94285000D01*
X103634166Y-94332619D01*
X103681785Y-94427857D01*
X103729404Y-94618333D01*
X103729404Y-94856428D01*
X103681785Y-95046904D01*
X103634166Y-95142142D01*
X103586547Y-95189761D01*
X103491309Y-95237380D01*
X103396071Y-95237380D01*
X103300833Y-95189761D01*
X103253214Y-95142142D01*
X103205595Y-95046904D01*
X103157976Y-94856428D01*
X103157976Y-94618333D01*
X103205595Y-94427857D01*
X103253214Y-94332619D01*
X103300833Y-94285000D01*
X103396071Y-94237380D01*
X104062738Y-94237380D02*
X104729404Y-94237380D01*
X104300833Y-95237380D01*
X106205595Y-94713571D02*
X105872261Y-94713571D01*
X105872261Y-95237380D02*
X105872261Y-94237380D01*
X106348452Y-94237380D01*
X107110357Y-95189761D02*
X107015119Y-95237380D01*
X106824642Y-95237380D01*
X106729404Y-95189761D01*
X106681785Y-95094523D01*
X106681785Y-94713571D01*
X106729404Y-94618333D01*
X106824642Y-94570714D01*
X107015119Y-94570714D01*
X107110357Y-94618333D01*
X107157976Y-94713571D01*
X107157976Y-94808809D01*
X106681785Y-94904047D01*
X107586547Y-95237380D02*
X107586547Y-94237380D01*
X107586547Y-94618333D02*
X107681785Y-94570714D01*
X107872261Y-94570714D01*
X107967500Y-94618333D01*
X108015119Y-94665952D01*
X108062738Y-94761190D01*
X108062738Y-95046904D01*
X108015119Y-95142142D01*
X107967500Y-95189761D01*
X107872261Y-95237380D01*
X107681785Y-95237380D01*
X107586547Y-95189761D01*
X109205595Y-94332619D02*
X109253214Y-94285000D01*
X109348452Y-94237380D01*
X109586547Y-94237380D01*
X109681785Y-94285000D01*
X109729404Y-94332619D01*
X109777023Y-94427857D01*
X109777023Y-94523095D01*
X109729404Y-94665952D01*
X109157976Y-95237380D01*
X109777023Y-95237380D01*
X110396071Y-94237380D02*
X110491309Y-94237380D01*
X110586547Y-94285000D01*
X110634166Y-94332619D01*
X110681785Y-94427857D01*
X110729404Y-94618333D01*
X110729404Y-94856428D01*
X110681785Y-95046904D01*
X110634166Y-95142142D01*
X110586547Y-95189761D01*
X110491309Y-95237380D01*
X110396071Y-95237380D01*
X110300833Y-95189761D01*
X110253214Y-95142142D01*
X110205595Y-95046904D01*
X110157976Y-94856428D01*
X110157976Y-94618333D01*
X110205595Y-94427857D01*
X110253214Y-94332619D01*
X110300833Y-94285000D01*
X110396071Y-94237380D01*
X111110357Y-94332619D02*
X111157976Y-94285000D01*
X111253214Y-94237380D01*
X111491309Y-94237380D01*
X111586547Y-94285000D01*
X111634166Y-94332619D01*
X111681785Y-94427857D01*
X111681785Y-94523095D01*
X111634166Y-94665952D01*
X111062738Y-95237380D01*
X111681785Y-95237380D01*
X112015119Y-94237380D02*
X112634166Y-94237380D01*
X112300833Y-94618333D01*
X112443690Y-94618333D01*
X112538928Y-94665952D01*
X112586547Y-94713571D01*
X112634166Y-94808809D01*
X112634166Y-95046904D01*
X112586547Y-95142142D01*
X112538928Y-95189761D01*
X112443690Y-95237380D01*
X112157976Y-95237380D01*
X112062738Y-95189761D01*
X112015119Y-95142142D01*
X105863809Y-83002380D02*
X105863809Y-82002380D01*
X106197142Y-82716666D01*
X106530476Y-82002380D01*
X106530476Y-83002380D01*
X106959047Y-82716666D02*
X107435238Y-82716666D01*
X106863809Y-83002380D02*
X107197142Y-82002380D01*
X107530476Y-83002380D01*
X108387619Y-82050000D02*
X108292380Y-82002380D01*
X108149523Y-82002380D01*
X108006666Y-82050000D01*
X107911428Y-82145238D01*
X107863809Y-82240476D01*
X107816190Y-82430952D01*
X107816190Y-82573809D01*
X107863809Y-82764285D01*
X107911428Y-82859523D01*
X108006666Y-82954761D01*
X108149523Y-83002380D01*
X108244761Y-83002380D01*
X108387619Y-82954761D01*
X108435238Y-82907142D01*
X108435238Y-82573809D01*
X108244761Y-82573809D01*
X108863809Y-83002380D02*
X108863809Y-82002380D01*
X109911428Y-82907142D02*
X109863809Y-82954761D01*
X109720952Y-83002380D01*
X109625714Y-83002380D01*
X109482857Y-82954761D01*
X109387619Y-82859523D01*
X109340000Y-82764285D01*
X109292380Y-82573809D01*
X109292380Y-82430952D01*
X109340000Y-82240476D01*
X109387619Y-82145238D01*
X109482857Y-82050000D01*
X109625714Y-82002380D01*
X109720952Y-82002380D01*
X109863809Y-82050000D01*
X109911428Y-82097619D01*
X111625714Y-82050000D02*
X111530476Y-82002380D01*
X111387619Y-82002380D01*
X111244761Y-82050000D01*
X111149523Y-82145238D01*
X111101904Y-82240476D01*
X111054285Y-82430952D01*
X111054285Y-82573809D01*
X111101904Y-82764285D01*
X111149523Y-82859523D01*
X111244761Y-82954761D01*
X111387619Y-83002380D01*
X111482857Y-83002380D01*
X111625714Y-82954761D01*
X111673333Y-82907142D01*
X111673333Y-82573809D01*
X111482857Y-82573809D01*
X112530476Y-83002380D02*
X112530476Y-82478571D01*
X112482857Y-82383333D01*
X112387619Y-82335714D01*
X112197142Y-82335714D01*
X112101904Y-82383333D01*
X112530476Y-82954761D02*
X112435238Y-83002380D01*
X112197142Y-83002380D01*
X112101904Y-82954761D01*
X112054285Y-82859523D01*
X112054285Y-82764285D01*
X112101904Y-82669047D01*
X112197142Y-82621428D01*
X112435238Y-82621428D01*
X112530476Y-82573809D01*
X113006666Y-83002380D02*
X113006666Y-82335714D01*
X113006666Y-82430952D02*
X113054285Y-82383333D01*
X113149523Y-82335714D01*
X113292380Y-82335714D01*
X113387619Y-82383333D01*
X113435238Y-82478571D01*
X113435238Y-83002380D01*
X113435238Y-82478571D02*
X113482857Y-82383333D01*
X113578095Y-82335714D01*
X113720952Y-82335714D01*
X113816190Y-82383333D01*
X113863809Y-82478571D01*
X113863809Y-83002380D01*
X114720952Y-82954761D02*
X114625714Y-83002380D01*
X114435238Y-83002380D01*
X114340000Y-82954761D01*
X114292380Y-82859523D01*
X114292380Y-82478571D01*
X114340000Y-82383333D01*
X114435238Y-82335714D01*
X114625714Y-82335714D01*
X114720952Y-82383333D01*
X114768571Y-82478571D01*
X114768571Y-82573809D01*
X114292380Y-82669047D01*
X116244761Y-82002380D02*
X116244761Y-82716666D01*
X116197142Y-82859523D01*
X116101904Y-82954761D01*
X115959047Y-83002380D01*
X115863809Y-83002380D01*
X116863809Y-83002380D02*
X116768571Y-82954761D01*
X116720952Y-82907142D01*
X116673333Y-82811904D01*
X116673333Y-82526190D01*
X116720952Y-82430952D01*
X116768571Y-82383333D01*
X116863809Y-82335714D01*
X117006666Y-82335714D01*
X117101904Y-82383333D01*
X117149523Y-82430952D01*
X117197142Y-82526190D01*
X117197142Y-82811904D01*
X117149523Y-82907142D01*
X117101904Y-82954761D01*
X117006666Y-83002380D01*
X116863809Y-83002380D01*
X117530476Y-82335714D02*
X117768571Y-83002380D01*
X118006666Y-82335714D02*
X117768571Y-83002380D01*
X117673333Y-83240476D01*
X117625714Y-83288095D01*
X117530476Y-83335714D01*
X118340000Y-82954761D02*
X118435238Y-83002380D01*
X118625714Y-83002380D01*
X118720952Y-82954761D01*
X118768571Y-82859523D01*
X118768571Y-82811904D01*
X118720952Y-82716666D01*
X118625714Y-82669047D01*
X118482857Y-82669047D01*
X118387619Y-82621428D01*
X118340000Y-82526190D01*
X118340000Y-82478571D01*
X118387619Y-82383333D01*
X118482857Y-82335714D01*
X118625714Y-82335714D01*
X118720952Y-82383333D01*
X119054285Y-82335714D02*
X119435238Y-82335714D01*
X119197142Y-82002380D02*
X119197142Y-82859523D01*
X119244761Y-82954761D01*
X119340000Y-83002380D01*
X119435238Y-83002380D01*
X119768571Y-83002380D02*
X119768571Y-82335714D01*
X119768571Y-82002380D02*
X119720952Y-82050000D01*
X119768571Y-82097619D01*
X119816190Y-82050000D01*
X119768571Y-82002380D01*
X119768571Y-82097619D01*
X120673333Y-82954761D02*
X120578095Y-83002380D01*
X120387619Y-83002380D01*
X120292380Y-82954761D01*
X120244761Y-82907142D01*
X120197142Y-82811904D01*
X120197142Y-82526190D01*
X120244761Y-82430952D01*
X120292380Y-82383333D01*
X120387619Y-82335714D01*
X120578095Y-82335714D01*
X120673333Y-82383333D01*
X121101904Y-83002380D02*
X121101904Y-82002380D01*
X121197142Y-82621428D02*
X121482857Y-83002380D01*
X121482857Y-82335714D02*
X121101904Y-82716666D01*
X122625714Y-82716666D02*
X123101904Y-82716666D01*
X122530476Y-83002380D02*
X122863809Y-82002380D01*
X123197142Y-83002380D01*
X123959047Y-83002380D02*
X123959047Y-82002380D01*
X123959047Y-82954761D02*
X123863809Y-83002380D01*
X123673333Y-83002380D01*
X123578095Y-82954761D01*
X123530476Y-82907142D01*
X123482857Y-82811904D01*
X123482857Y-82526190D01*
X123530476Y-82430952D01*
X123578095Y-82383333D01*
X123673333Y-82335714D01*
X123863809Y-82335714D01*
X123959047Y-82383333D01*
X124863809Y-83002380D02*
X124863809Y-82478571D01*
X124816190Y-82383333D01*
X124720952Y-82335714D01*
X124530476Y-82335714D01*
X124435238Y-82383333D01*
X124863809Y-82954761D02*
X124768571Y-83002380D01*
X124530476Y-83002380D01*
X124435238Y-82954761D01*
X124387619Y-82859523D01*
X124387619Y-82764285D01*
X124435238Y-82669047D01*
X124530476Y-82621428D01*
X124768571Y-82621428D01*
X124863809Y-82573809D01*
X125340000Y-82335714D02*
X125340000Y-83335714D01*
X125340000Y-82383333D02*
X125435238Y-82335714D01*
X125625714Y-82335714D01*
X125720952Y-82383333D01*
X125768571Y-82430952D01*
X125816190Y-82526190D01*
X125816190Y-82811904D01*
X125768571Y-82907142D01*
X125720952Y-82954761D01*
X125625714Y-83002380D01*
X125435238Y-83002380D01*
X125340000Y-82954761D01*
X126101904Y-82335714D02*
X126482857Y-82335714D01*
X126244761Y-82002380D02*
X126244761Y-82859523D01*
X126292380Y-82954761D01*
X126387619Y-83002380D01*
X126482857Y-83002380D01*
X127197142Y-82954761D02*
X127101904Y-83002380D01*
X126911428Y-83002380D01*
X126816190Y-82954761D01*
X126768571Y-82859523D01*
X126768571Y-82478571D01*
X126816190Y-82383333D01*
X126911428Y-82335714D01*
X127101904Y-82335714D01*
X127197142Y-82383333D01*
X127244761Y-82478571D01*
X127244761Y-82573809D01*
X126768571Y-82669047D01*
X127673333Y-83002380D02*
X127673333Y-82335714D01*
X127673333Y-82526190D02*
X127720952Y-82430952D01*
X127768571Y-82383333D01*
X127863809Y-82335714D01*
X127959047Y-82335714D01*
X120477595Y-93627380D02*
X120477595Y-92627380D01*
X120810928Y-93341666D01*
X121144261Y-92627380D01*
X121144261Y-93627380D01*
X121620452Y-93532142D02*
X121668071Y-93579761D01*
X121620452Y-93627380D01*
X121572833Y-93579761D01*
X121620452Y-93532142D01*
X121620452Y-93627380D01*
X123191880Y-93103571D02*
X122858547Y-93103571D01*
X122858547Y-93627380D02*
X122858547Y-92627380D01*
X123334738Y-92627380D01*
X123715690Y-93627380D02*
X123715690Y-92960714D01*
X123715690Y-93151190D02*
X123763309Y-93055952D01*
X123810928Y-93008333D01*
X123906166Y-92960714D01*
X124001404Y-92960714D01*
X124763309Y-93627380D02*
X124763309Y-93103571D01*
X124715690Y-93008333D01*
X124620452Y-92960714D01*
X124429976Y-92960714D01*
X124334738Y-93008333D01*
X124763309Y-93579761D02*
X124668071Y-93627380D01*
X124429976Y-93627380D01*
X124334738Y-93579761D01*
X124287119Y-93484523D01*
X124287119Y-93389285D01*
X124334738Y-93294047D01*
X124429976Y-93246428D01*
X124668071Y-93246428D01*
X124763309Y-93198809D01*
X125191880Y-93579761D02*
X125287119Y-93627380D01*
X125477595Y-93627380D01*
X125572833Y-93579761D01*
X125620452Y-93484523D01*
X125620452Y-93436904D01*
X125572833Y-93341666D01*
X125477595Y-93294047D01*
X125334738Y-93294047D01*
X125239500Y-93246428D01*
X125191880Y-93151190D01*
X125191880Y-93103571D01*
X125239500Y-93008333D01*
X125334738Y-92960714D01*
X125477595Y-92960714D01*
X125572833Y-93008333D01*
X120477595Y-95237380D02*
X120477595Y-94237380D01*
X120810928Y-94951666D01*
X121144261Y-94237380D01*
X121144261Y-95237380D01*
X121620452Y-95237380D02*
X121620452Y-94237380D01*
X122001404Y-94237380D01*
X122096642Y-94285000D01*
X122144261Y-94332619D01*
X122191880Y-94427857D01*
X122191880Y-94570714D01*
X122144261Y-94665952D01*
X122096642Y-94713571D01*
X122001404Y-94761190D01*
X121620452Y-94761190D01*
X122620452Y-95237380D02*
X122620452Y-94237380D01*
X123001404Y-94237380D01*
X123096642Y-94285000D01*
X123144261Y-94332619D01*
X123191880Y-94427857D01*
X123191880Y-94570714D01*
X123144261Y-94665952D01*
X123096642Y-94713571D01*
X123001404Y-94761190D01*
X122620452Y-94761190D01*
%TO.C,JOY_H3*%
X124554523Y-83552380D02*
X124554523Y-84266666D01*
X124506904Y-84409523D01*
X124411666Y-84504761D01*
X124268809Y-84552380D01*
X124173571Y-84552380D01*
X125221190Y-83552380D02*
X125411666Y-83552380D01*
X125506904Y-83600000D01*
X125602142Y-83695238D01*
X125649761Y-83885714D01*
X125649761Y-84219047D01*
X125602142Y-84409523D01*
X125506904Y-84504761D01*
X125411666Y-84552380D01*
X125221190Y-84552380D01*
X125125952Y-84504761D01*
X125030714Y-84409523D01*
X124983095Y-84219047D01*
X124983095Y-83885714D01*
X125030714Y-83695238D01*
X125125952Y-83600000D01*
X125221190Y-83552380D01*
X126268809Y-84076190D02*
X126268809Y-84552380D01*
X125935476Y-83552380D02*
X126268809Y-84076190D01*
X126602142Y-83552380D01*
X126697380Y-84647619D02*
X127459285Y-84647619D01*
X127697380Y-84552380D02*
X127697380Y-83552380D01*
X127697380Y-84028571D02*
X128268809Y-84028571D01*
X128268809Y-84552380D02*
X128268809Y-83552380D01*
X128649761Y-83552380D02*
X129268809Y-83552380D01*
X128935476Y-83933333D01*
X129078333Y-83933333D01*
X129173571Y-83980952D01*
X129221190Y-84028571D01*
X129268809Y-84123809D01*
X129268809Y-84361904D01*
X129221190Y-84457142D01*
X129173571Y-84504761D01*
X129078333Y-84552380D01*
X128792619Y-84552380D01*
X128697380Y-84504761D01*
X128649761Y-84457142D01*
%TO.C,R28*%
X121102380Y-114434857D02*
X120626190Y-114768190D01*
X121102380Y-115006285D02*
X120102380Y-115006285D01*
X120102380Y-114625333D01*
X120150000Y-114530095D01*
X120197619Y-114482476D01*
X120292857Y-114434857D01*
X120435714Y-114434857D01*
X120530952Y-114482476D01*
X120578571Y-114530095D01*
X120626190Y-114625333D01*
X120626190Y-115006285D01*
X120197619Y-114053904D02*
X120150000Y-114006285D01*
X120102380Y-113911047D01*
X120102380Y-113672952D01*
X120150000Y-113577714D01*
X120197619Y-113530095D01*
X120292857Y-113482476D01*
X120388095Y-113482476D01*
X120530952Y-113530095D01*
X121102380Y-114101523D01*
X121102380Y-113482476D01*
X120530952Y-112911047D02*
X120483333Y-113006285D01*
X120435714Y-113053904D01*
X120340476Y-113101523D01*
X120292857Y-113101523D01*
X120197619Y-113053904D01*
X120150000Y-113006285D01*
X120102380Y-112911047D01*
X120102380Y-112720571D01*
X120150000Y-112625333D01*
X120197619Y-112577714D01*
X120292857Y-112530095D01*
X120340476Y-112530095D01*
X120435714Y-112577714D01*
X120483333Y-112625333D01*
X120530952Y-112720571D01*
X120530952Y-112911047D01*
X120578571Y-113006285D01*
X120626190Y-113053904D01*
X120721428Y-113101523D01*
X120911904Y-113101523D01*
X121007142Y-113053904D01*
X121054761Y-113006285D01*
X121102380Y-112911047D01*
X121102380Y-112720571D01*
X121054761Y-112625333D01*
X121007142Y-112577714D01*
X120911904Y-112530095D01*
X120721428Y-112530095D01*
X120626190Y-112577714D01*
X120578571Y-112625333D01*
X120530952Y-112720571D01*
%TO.C,D3*%
X114792380Y-99798095D02*
X113792380Y-99798095D01*
X113792380Y-99560000D01*
X113840000Y-99417142D01*
X113935238Y-99321904D01*
X114030476Y-99274285D01*
X114220952Y-99226666D01*
X114363809Y-99226666D01*
X114554285Y-99274285D01*
X114649523Y-99321904D01*
X114744761Y-99417142D01*
X114792380Y-99560000D01*
X114792380Y-99798095D01*
X113792380Y-98893333D02*
X113792380Y-98274285D01*
X114173333Y-98607619D01*
X114173333Y-98464761D01*
X114220952Y-98369523D01*
X114268571Y-98321904D01*
X114363809Y-98274285D01*
X114601904Y-98274285D01*
X114697142Y-98321904D01*
X114744761Y-98369523D01*
X114792380Y-98464761D01*
X114792380Y-98750476D01*
X114744761Y-98845714D01*
X114697142Y-98893333D01*
%TO.C,JOY_H1*%
X104743523Y-109688380D02*
X104743523Y-110402666D01*
X104695904Y-110545523D01*
X104600666Y-110640761D01*
X104457809Y-110688380D01*
X104362571Y-110688380D01*
X105410190Y-109688380D02*
X105600666Y-109688380D01*
X105695904Y-109736000D01*
X105791142Y-109831238D01*
X105838761Y-110021714D01*
X105838761Y-110355047D01*
X105791142Y-110545523D01*
X105695904Y-110640761D01*
X105600666Y-110688380D01*
X105410190Y-110688380D01*
X105314952Y-110640761D01*
X105219714Y-110545523D01*
X105172095Y-110355047D01*
X105172095Y-110021714D01*
X105219714Y-109831238D01*
X105314952Y-109736000D01*
X105410190Y-109688380D01*
X106457809Y-110212190D02*
X106457809Y-110688380D01*
X106124476Y-109688380D02*
X106457809Y-110212190D01*
X106791142Y-109688380D01*
X106886380Y-110783619D02*
X107648285Y-110783619D01*
X107886380Y-110688380D02*
X107886380Y-109688380D01*
X107886380Y-110164571D02*
X108457809Y-110164571D01*
X108457809Y-110688380D02*
X108457809Y-109688380D01*
X109457809Y-110688380D02*
X108886380Y-110688380D01*
X109172095Y-110688380D02*
X109172095Y-109688380D01*
X109076857Y-109831238D01*
X108981619Y-109926476D01*
X108886380Y-109974095D01*
%TO.C,JOY_H4*%
X104744523Y-83552380D02*
X104744523Y-84266666D01*
X104696904Y-84409523D01*
X104601666Y-84504761D01*
X104458809Y-84552380D01*
X104363571Y-84552380D01*
X105411190Y-83552380D02*
X105601666Y-83552380D01*
X105696904Y-83600000D01*
X105792142Y-83695238D01*
X105839761Y-83885714D01*
X105839761Y-84219047D01*
X105792142Y-84409523D01*
X105696904Y-84504761D01*
X105601666Y-84552380D01*
X105411190Y-84552380D01*
X105315952Y-84504761D01*
X105220714Y-84409523D01*
X105173095Y-84219047D01*
X105173095Y-83885714D01*
X105220714Y-83695238D01*
X105315952Y-83600000D01*
X105411190Y-83552380D01*
X106458809Y-84076190D02*
X106458809Y-84552380D01*
X106125476Y-83552380D02*
X106458809Y-84076190D01*
X106792142Y-83552380D01*
X106887380Y-84647619D02*
X107649285Y-84647619D01*
X107887380Y-84552380D02*
X107887380Y-83552380D01*
X107887380Y-84028571D02*
X108458809Y-84028571D01*
X108458809Y-84552380D02*
X108458809Y-83552380D01*
X109363571Y-83885714D02*
X109363571Y-84552380D01*
X109125476Y-83504761D02*
X108887380Y-84219047D01*
X109506428Y-84219047D01*
%TO.C,J2*%
X107402380Y-107013333D02*
X108116666Y-107013333D01*
X108259523Y-107060952D01*
X108354761Y-107156190D01*
X108402380Y-107299047D01*
X108402380Y-107394285D01*
X107497619Y-106584761D02*
X107450000Y-106537142D01*
X107402380Y-106441904D01*
X107402380Y-106203809D01*
X107450000Y-106108571D01*
X107497619Y-106060952D01*
X107592857Y-106013333D01*
X107688095Y-106013333D01*
X107830952Y-106060952D01*
X108402380Y-106632380D01*
X108402380Y-106013333D01*
%TO.C,D2*%
X109712380Y-99798095D02*
X108712380Y-99798095D01*
X108712380Y-99560000D01*
X108760000Y-99417142D01*
X108855238Y-99321904D01*
X108950476Y-99274285D01*
X109140952Y-99226666D01*
X109283809Y-99226666D01*
X109474285Y-99274285D01*
X109569523Y-99321904D01*
X109664761Y-99417142D01*
X109712380Y-99560000D01*
X109712380Y-99798095D01*
X108807619Y-98845714D02*
X108760000Y-98798095D01*
X108712380Y-98702857D01*
X108712380Y-98464761D01*
X108760000Y-98369523D01*
X108807619Y-98321904D01*
X108902857Y-98274285D01*
X108998095Y-98274285D01*
X109140952Y-98321904D01*
X109712380Y-98893333D01*
X109712380Y-98274285D01*
%TO.C,D5*%
X124952380Y-99798095D02*
X123952380Y-99798095D01*
X123952380Y-99560000D01*
X124000000Y-99417142D01*
X124095238Y-99321904D01*
X124190476Y-99274285D01*
X124380952Y-99226666D01*
X124523809Y-99226666D01*
X124714285Y-99274285D01*
X124809523Y-99321904D01*
X124904761Y-99417142D01*
X124952380Y-99560000D01*
X124952380Y-99798095D01*
X123952380Y-98321904D02*
X123952380Y-98798095D01*
X124428571Y-98845714D01*
X124380952Y-98798095D01*
X124333333Y-98702857D01*
X124333333Y-98464761D01*
X124380952Y-98369523D01*
X124428571Y-98321904D01*
X124523809Y-98274285D01*
X124761904Y-98274285D01*
X124857142Y-98321904D01*
X124904761Y-98369523D01*
X124952380Y-98464761D01*
X124952380Y-98702857D01*
X124904761Y-98798095D01*
X124857142Y-98845714D01*
%TO.C,R1*%
X113482380Y-114466666D02*
X113006190Y-114800000D01*
X113482380Y-115038095D02*
X112482380Y-115038095D01*
X112482380Y-114657142D01*
X112530000Y-114561904D01*
X112577619Y-114514285D01*
X112672857Y-114466666D01*
X112815714Y-114466666D01*
X112910952Y-114514285D01*
X112958571Y-114561904D01*
X113006190Y-114657142D01*
X113006190Y-115038095D01*
X113482380Y-113514285D02*
X113482380Y-114085714D01*
X113482380Y-113800000D02*
X112482380Y-113800000D01*
X112625238Y-113895238D01*
X112720476Y-113990476D01*
X112768095Y-114085714D01*
%TO.C,SW1*%
X120429976Y-87526761D02*
X120572833Y-87574380D01*
X120810928Y-87574380D01*
X120906166Y-87526761D01*
X120953785Y-87479142D01*
X121001404Y-87383904D01*
X121001404Y-87288666D01*
X120953785Y-87193428D01*
X120906166Y-87145809D01*
X120810928Y-87098190D01*
X120620452Y-87050571D01*
X120525214Y-87002952D01*
X120477595Y-86955333D01*
X120429976Y-86860095D01*
X120429976Y-86764857D01*
X120477595Y-86669619D01*
X120525214Y-86622000D01*
X120620452Y-86574380D01*
X120858547Y-86574380D01*
X121001404Y-86622000D01*
X121334738Y-86574380D02*
X121572833Y-87574380D01*
X121763309Y-86860095D01*
X121953785Y-87574380D01*
X122191880Y-86574380D01*
X123096642Y-87574380D02*
X122525214Y-87574380D01*
X122810928Y-87574380D02*
X122810928Y-86574380D01*
X122715690Y-86717238D01*
X122620452Y-86812476D01*
X122525214Y-86860095D01*
%TO.C,D1*%
X104632380Y-99798095D02*
X103632380Y-99798095D01*
X103632380Y-99560000D01*
X103680000Y-99417142D01*
X103775238Y-99321904D01*
X103870476Y-99274285D01*
X104060952Y-99226666D01*
X104203809Y-99226666D01*
X104394285Y-99274285D01*
X104489523Y-99321904D01*
X104584761Y-99417142D01*
X104632380Y-99560000D01*
X104632380Y-99798095D01*
X104632380Y-98274285D02*
X104632380Y-98845714D01*
X104632380Y-98560000D02*
X103632380Y-98560000D01*
X103775238Y-98655238D01*
X103870476Y-98750476D01*
X103918095Y-98845714D01*
%TO.C,R2*%
X110942380Y-114466666D02*
X110466190Y-114800000D01*
X110942380Y-115038095D02*
X109942380Y-115038095D01*
X109942380Y-114657142D01*
X109990000Y-114561904D01*
X110037619Y-114514285D01*
X110132857Y-114466666D01*
X110275714Y-114466666D01*
X110370952Y-114514285D01*
X110418571Y-114561904D01*
X110466190Y-114657142D01*
X110466190Y-115038095D01*
X110037619Y-114085714D02*
X109990000Y-114038095D01*
X109942380Y-113942857D01*
X109942380Y-113704761D01*
X109990000Y-113609523D01*
X110037619Y-113561904D01*
X110132857Y-113514285D01*
X110228095Y-113514285D01*
X110370952Y-113561904D01*
X110942380Y-114133333D01*
X110942380Y-113514285D01*
%TO.C,D4*%
X119872380Y-99798095D02*
X118872380Y-99798095D01*
X118872380Y-99560000D01*
X118920000Y-99417142D01*
X119015238Y-99321904D01*
X119110476Y-99274285D01*
X119300952Y-99226666D01*
X119443809Y-99226666D01*
X119634285Y-99274285D01*
X119729523Y-99321904D01*
X119824761Y-99417142D01*
X119872380Y-99560000D01*
X119872380Y-99798095D01*
X119205714Y-98369523D02*
X119872380Y-98369523D01*
X118824761Y-98607619D02*
X119539047Y-98845714D01*
X119539047Y-98226666D01*
%TO.C,R6*%
X123642380Y-114466666D02*
X123166190Y-114800000D01*
X123642380Y-115038095D02*
X122642380Y-115038095D01*
X122642380Y-114657142D01*
X122690000Y-114561904D01*
X122737619Y-114514285D01*
X122832857Y-114466666D01*
X122975714Y-114466666D01*
X123070952Y-114514285D01*
X123118571Y-114561904D01*
X123166190Y-114657142D01*
X123166190Y-115038095D01*
X122642380Y-113609523D02*
X122642380Y-113800000D01*
X122690000Y-113895238D01*
X122737619Y-113942857D01*
X122880476Y-114038095D01*
X123070952Y-114085714D01*
X123451904Y-114085714D01*
X123547142Y-114038095D01*
X123594761Y-113990476D01*
X123642380Y-113895238D01*
X123642380Y-113704761D01*
X123594761Y-113609523D01*
X123547142Y-113561904D01*
X123451904Y-113514285D01*
X123213809Y-113514285D01*
X123118571Y-113561904D01*
X123070952Y-113609523D01*
X123023333Y-113704761D01*
X123023333Y-113895238D01*
X123070952Y-113990476D01*
X123118571Y-114038095D01*
X123213809Y-114085714D01*
%TO.C,J3*%
X112482380Y-93551333D02*
X113196666Y-93551333D01*
X113339523Y-93598952D01*
X113434761Y-93694190D01*
X113482380Y-93837047D01*
X113482380Y-93932285D01*
X112482380Y-93170380D02*
X112482380Y-92551333D01*
X112863333Y-92884666D01*
X112863333Y-92741809D01*
X112910952Y-92646571D01*
X112958571Y-92598952D01*
X113053809Y-92551333D01*
X113291904Y-92551333D01*
X113387142Y-92598952D01*
X113434761Y-92646571D01*
X113482380Y-92741809D01*
X113482380Y-93027523D01*
X113434761Y-93122761D01*
X113387142Y-93170380D01*
%TO.C,JOY_H2*%
X124554523Y-109688380D02*
X124554523Y-110402666D01*
X124506904Y-110545523D01*
X124411666Y-110640761D01*
X124268809Y-110688380D01*
X124173571Y-110688380D01*
X125221190Y-109688380D02*
X125411666Y-109688380D01*
X125506904Y-109736000D01*
X125602142Y-109831238D01*
X125649761Y-110021714D01*
X125649761Y-110355047D01*
X125602142Y-110545523D01*
X125506904Y-110640761D01*
X125411666Y-110688380D01*
X125221190Y-110688380D01*
X125125952Y-110640761D01*
X125030714Y-110545523D01*
X124983095Y-110355047D01*
X124983095Y-110021714D01*
X125030714Y-109831238D01*
X125125952Y-109736000D01*
X125221190Y-109688380D01*
X126268809Y-110212190D02*
X126268809Y-110688380D01*
X125935476Y-109688380D02*
X126268809Y-110212190D01*
X126602142Y-109688380D01*
X126697380Y-110783619D02*
X127459285Y-110783619D01*
X127697380Y-110688380D02*
X127697380Y-109688380D01*
X127697380Y-110164571D02*
X128268809Y-110164571D01*
X128268809Y-110688380D02*
X128268809Y-109688380D01*
X128697380Y-109783619D02*
X128745000Y-109736000D01*
X128840238Y-109688380D01*
X129078333Y-109688380D01*
X129173571Y-109736000D01*
X129221190Y-109783619D01*
X129268809Y-109878857D01*
X129268809Y-109974095D01*
X129221190Y-110116952D01*
X128649761Y-110688380D01*
X129268809Y-110688380D01*
%TO.C,R3*%
X105702380Y-104052666D02*
X105226190Y-104386000D01*
X105702380Y-104624095D02*
X104702380Y-104624095D01*
X104702380Y-104243142D01*
X104750000Y-104147904D01*
X104797619Y-104100285D01*
X104892857Y-104052666D01*
X105035714Y-104052666D01*
X105130952Y-104100285D01*
X105178571Y-104147904D01*
X105226190Y-104243142D01*
X105226190Y-104624095D01*
X104702380Y-103719333D02*
X104702380Y-103100285D01*
X105083333Y-103433619D01*
X105083333Y-103290761D01*
X105130952Y-103195523D01*
X105178571Y-103147904D01*
X105273809Y-103100285D01*
X105511904Y-103100285D01*
X105607142Y-103147904D01*
X105654761Y-103195523D01*
X105702380Y-103290761D01*
X105702380Y-103576476D01*
X105654761Y-103671714D01*
X105607142Y-103719333D01*
%TO.C,R27*%
X118562380Y-114434857D02*
X118086190Y-114768190D01*
X118562380Y-115006285D02*
X117562380Y-115006285D01*
X117562380Y-114625333D01*
X117610000Y-114530095D01*
X117657619Y-114482476D01*
X117752857Y-114434857D01*
X117895714Y-114434857D01*
X117990952Y-114482476D01*
X118038571Y-114530095D01*
X118086190Y-114625333D01*
X118086190Y-115006285D01*
X117657619Y-114053904D02*
X117610000Y-114006285D01*
X117562380Y-113911047D01*
X117562380Y-113672952D01*
X117610000Y-113577714D01*
X117657619Y-113530095D01*
X117752857Y-113482476D01*
X117848095Y-113482476D01*
X117990952Y-113530095D01*
X118562380Y-114101523D01*
X118562380Y-113482476D01*
X117562380Y-113149142D02*
X117562380Y-112482476D01*
X118562380Y-112911047D01*
D11*
%TO.C,R28*%
X119902500Y-113046742D02*
X119902500Y-113521258D01*
X118857500Y-113046742D02*
X118857500Y-113521258D01*
%TO.C,D3*%
X118440000Y-96810000D02*
X118440000Y-101460000D01*
X115240000Y-96810000D02*
X115240000Y-101460000D01*
X115240000Y-101460000D02*
X116040000Y-101460000D01*
%TO.C,J2*%
X110430000Y-108010000D02*
X110430000Y-106680000D01*
X123250000Y-108010000D02*
X123250000Y-105350000D01*
X113030000Y-108010000D02*
X113030000Y-105350000D01*
X113030000Y-108010000D02*
X123250000Y-108010000D01*
X111760000Y-108010000D02*
X110430000Y-108010000D01*
X113030000Y-105350000D02*
X123250000Y-105350000D01*
%TO.C,D2*%
X110160000Y-96810000D02*
X110160000Y-101460000D01*
X113360000Y-96810000D02*
X113360000Y-101460000D01*
X110160000Y-101460000D02*
X110960000Y-101460000D01*
%TO.C,D5*%
X125400000Y-101460000D02*
X126200000Y-101460000D01*
X128600000Y-96810000D02*
X128600000Y-101460000D01*
X125400000Y-96810000D02*
X125400000Y-101460000D01*
%TO.C,R1*%
X113777500Y-113521258D02*
X113777500Y-113046742D01*
X114822500Y-113521258D02*
X114822500Y-113046742D01*
%TO.C,SW1*%
X120070000Y-83892000D02*
X120070000Y-83922000D01*
X120070000Y-90352000D02*
X120070000Y-90322000D01*
X113610000Y-90352000D02*
X120070000Y-90352000D01*
X113610000Y-90352000D02*
X113610000Y-90322000D01*
X113610000Y-83892000D02*
X120070000Y-83892000D01*
X120070000Y-85822000D02*
X120070000Y-88422000D01*
X113610000Y-85822000D02*
X113610000Y-88422000D01*
X113610000Y-83922000D02*
X113610000Y-83892000D01*
%TO.C,D1*%
X105080000Y-101460000D02*
X105880000Y-101460000D01*
X105080000Y-96810000D02*
X105080000Y-101460000D01*
X108280000Y-96810000D02*
X108280000Y-101460000D01*
%TO.C,R2*%
X112282500Y-113521258D02*
X112282500Y-113046742D01*
X111237500Y-113521258D02*
X111237500Y-113046742D01*
%TO.C,D4*%
X120320000Y-101460000D02*
X121120000Y-101460000D01*
X120320000Y-96810000D02*
X120320000Y-101460000D01*
X123520000Y-96810000D02*
X123520000Y-101460000D01*
%TO.C,R6*%
X122442500Y-113046742D02*
X122442500Y-113521258D01*
X121397500Y-113046742D02*
X121397500Y-113521258D01*
%TO.C,J3*%
X116840000Y-95310000D02*
X116840000Y-92650000D01*
X114240000Y-95310000D02*
X114240000Y-93980000D01*
X115570000Y-95310000D02*
X114240000Y-95310000D01*
X116840000Y-95310000D02*
X119440000Y-95310000D01*
X116840000Y-92650000D02*
X119440000Y-92650000D01*
X119440000Y-95310000D02*
X119440000Y-92650000D01*
%TO.C,R3*%
X106157500Y-104123258D02*
X106157500Y-103648742D01*
X107202500Y-104123258D02*
X107202500Y-103648742D01*
%TO.C,R27*%
X116317500Y-113046742D02*
X116317500Y-113521258D01*
X117362500Y-113046742D02*
X117362500Y-113521258D01*
%TD*%
M02*
