%TF.GenerationSoftware,KiCad,Pcbnew,(6.0.10)*%
%TF.CreationDate,2023-02-07T20:48:55+01:00*%
%TF.ProjectId,JoystickAdapter,4a6f7973-7469-4636-9b41-646170746572,1.0*%
%TF.SameCoordinates,Original*%
%TF.FileFunction,Copper,L1,Top*%
%TF.FilePolarity,Positive*%
%FSLAX46Y46*%
G04 Gerber Fmt 4.6, Leading zero omitted, Abs format (unit mm)*
G04 Created by KiCad (PCBNEW (6.0.10)) date 2023-02-07 20:48:55*
%MOMM*%
%LPD*%
G01*
G04 APERTURE LIST*
G04 Aperture macros list*
%AMRoundRect*
0 Rectangle with rounded corners*
0 $1 Rounding radius*
0 $2 $3 $4 $5 $6 $7 $8 $9 X,Y pos of 4 corners*
0 Add a 4 corners polygon primitive as box body*
4,1,4,$2,$3,$4,$5,$6,$7,$8,$9,$2,$3,0*
0 Add four circle primitives for the rounded corners*
1,1,$1+$1,$2,$3*
1,1,$1+$1,$4,$5*
1,1,$1+$1,$6,$7*
1,1,$1+$1,$8,$9*
0 Add four rect primitives between the rounded corners*
20,1,$1+$1,$2,$3,$4,$5,0*
20,1,$1+$1,$4,$5,$6,$7,0*
20,1,$1+$1,$6,$7,$8,$9,0*
20,1,$1+$1,$8,$9,$2,$3,0*%
G04 Aperture macros list end*
%TA.AperFunction,NonConductor*%
%ADD10C,0.200000*%
%TD*%
%ADD11C,0.150000*%
%TA.AperFunction,NonConductor*%
%ADD12C,0.150000*%
%TD*%
%TA.AperFunction,SMDPad,CuDef*%
%ADD13RoundRect,0.200000X-0.275000X0.200000X-0.275000X-0.200000X0.275000X-0.200000X0.275000X0.200000X0*%
%TD*%
%TA.AperFunction,SMDPad,CuDef*%
%ADD14R,2.600000X1.500000*%
%TD*%
%TA.AperFunction,ComponentPad*%
%ADD15R,1.700000X1.700000*%
%TD*%
%TA.AperFunction,ComponentPad*%
%ADD16O,1.700000X1.700000*%
%TD*%
%TA.AperFunction,SMDPad,CuDef*%
%ADD17RoundRect,0.200000X0.275000X-0.200000X0.275000X0.200000X-0.275000X0.200000X-0.275000X-0.200000X0*%
%TD*%
%TA.AperFunction,SMDPad,CuDef*%
%ADD18R,1.550000X1.300000*%
%TD*%
%TA.AperFunction,ViaPad*%
%ADD19C,0.800000*%
%TD*%
%TA.AperFunction,Conductor*%
%ADD20C,0.250000*%
%TD*%
%TA.AperFunction,Conductor*%
%ADD21C,0.800000*%
%TD*%
%TA.AperFunction,Conductor*%
%ADD22C,0.500000*%
%TD*%
G04 APERTURE END LIST*
D10*
X104140000Y-106680000D02*
X104140000Y-109220000D01*
X102870000Y-107950000D02*
X105410000Y-107950000D01*
D11*
D12*
X126795785Y-104338380D02*
X126319595Y-104338380D01*
X126319595Y-103338380D01*
X127652928Y-104338380D02*
X127081500Y-104338380D01*
X127367214Y-104338380D02*
X127367214Y-103338380D01*
X127271976Y-103481238D01*
X127176738Y-103576476D01*
X127081500Y-103624095D01*
D13*
%TO.P,R28,1*%
%TO.N,Net-(R26-Pad2)*%
X119380000Y-112459000D03*
%TO.P,R28,2*%
%TO.N,JOY_KY023_Y*%
X119380000Y-114109000D03*
%TD*%
D14*
%TO.P,D3,1,K*%
%TO.N,Net-(D3-Pad1)*%
X116840000Y-100560000D03*
%TO.P,D3,2,A*%
%TO.N,+5V*%
X116840000Y-97560000D03*
%TD*%
D15*
%TO.P,J2,1,Pin_1*%
%TO.N,/JOY_SANWA_GND*%
X111760000Y-106680000D03*
D16*
%TO.P,J2,2,Pin_2*%
%TO.N,/JOY_SANWA_X_LEFT*%
X114300000Y-106680000D03*
%TO.P,J2,3,Pin_3*%
%TO.N,/JOY_SANWA_X_RIGHT*%
X116840000Y-106680000D03*
%TO.P,J2,4,Pin_4*%
%TO.N,/JOY_SANWA_Y_DOWN*%
X119380000Y-106680000D03*
%TO.P,J2,5,Pin_5*%
%TO.N,/JOY_SANWA_Y_UP*%
X121920000Y-106680000D03*
%TD*%
D14*
%TO.P,D2,1,K*%
%TO.N,Net-(D2-Pad1)*%
X111760000Y-100560000D03*
%TO.P,D2,2,A*%
%TO.N,+5V*%
X111760000Y-97560000D03*
%TD*%
%TO.P,D5,1,K*%
%TO.N,Net-(D5-Pad1)*%
X127000000Y-100560000D03*
%TO.P,D5,2,A*%
%TO.N,+5V*%
X127000000Y-97560000D03*
%TD*%
D17*
%TO.P,R1,1*%
%TO.N,/JOY_KY023_+5V*%
X114300000Y-114109000D03*
%TO.P,R1,2*%
%TO.N,+5V*%
X114300000Y-112459000D03*
%TD*%
D18*
%TO.P,SW1,1,1*%
%TO.N,GND*%
X120815000Y-84872000D03*
X112865000Y-84872000D03*
%TO.P,SW1,2,2*%
%TO.N,Net-(J3-Pad2)*%
X112865000Y-89372000D03*
X120815000Y-89372000D03*
%TD*%
D14*
%TO.P,D1,1,K*%
%TO.N,Net-(D1-Pad1)*%
X106680000Y-100560000D03*
%TO.P,D1,2,A*%
%TO.N,+5V*%
X106680000Y-97560000D03*
%TD*%
D17*
%TO.P,R2,1*%
%TO.N,/JOY_KY023_GND*%
X111760000Y-114109000D03*
%TO.P,R2,2*%
%TO.N,GND*%
X111760000Y-112459000D03*
%TD*%
D14*
%TO.P,D4,1,K*%
%TO.N,Net-(D4-Pad1)*%
X121920000Y-100560000D03*
%TO.P,D4,2,A*%
%TO.N,+5V*%
X121920000Y-97560000D03*
%TD*%
D13*
%TO.P,R6,1*%
%TO.N,Net-(J3-Pad2)*%
X121920000Y-112459000D03*
%TO.P,R6,2*%
%TO.N,JOY_KY023_SW*%
X121920000Y-114109000D03*
%TD*%
D15*
%TO.P,J3,1,Pin_1*%
%TO.N,GND*%
X115570000Y-93980000D03*
D16*
%TO.P,J3,2,Pin_2*%
%TO.N,Net-(J3-Pad2)*%
X118110000Y-93980000D03*
%TD*%
D17*
%TO.P,R3,1*%
%TO.N,GND*%
X106680000Y-104711000D03*
%TO.P,R3,2*%
%TO.N,Net-(D1-Pad1)*%
X106680000Y-103061000D03*
%TD*%
D13*
%TO.P,R27,1*%
%TO.N,Net-(R25-Pad2)*%
X116840000Y-112459000D03*
%TO.P,R27,2*%
%TO.N,JOY_KY023_X*%
X116840000Y-114109000D03*
%TD*%
D15*
%TO.P,J1,1,Pin_1*%
%TO.N,/JOY_KY023_GND*%
X111760000Y-116840000D03*
D16*
%TO.P,J1,2,Pin_2*%
%TO.N,/JOY_KY023_+5V*%
X114300000Y-116840000D03*
%TO.P,J1,3,Pin_3*%
%TO.N,JOY_KY023_X*%
X116840000Y-116840000D03*
%TO.P,J1,4,Pin_4*%
%TO.N,JOY_KY023_Y*%
X119380000Y-116840000D03*
%TO.P,J1,5,Pin_5*%
%TO.N,JOY_KY023_SW*%
X121920000Y-116840000D03*
%TD*%
D19*
%TO.N,+5V*%
X114076000Y-90965000D03*
%TO.N,/JOY_SANWA_X_RIGHT*%
X115712000Y-102210000D03*
%TO.N,Net-(R26-Pad2)*%
X114966000Y-103564000D03*
%TO.N,Net-(R25-Pad2)*%
X123875000Y-102967000D03*
%TO.N,/JOY_SANWA_X_LEFT*%
X114397400Y-102066000D03*
%TO.N,Net-(D5-Pad1)*%
X128903000Y-99967200D03*
%TO.N,Net-(D4-Pad1)*%
X123644000Y-101791000D03*
%TO.N,Net-(D3-Pad1)*%
X116840000Y-99185900D03*
%TO.N,Net-(D2-Pad1)*%
X111760000Y-101952000D03*
%TO.N,+5V*%
X129794000Y-92964000D03*
X115062000Y-110744000D03*
X110998000Y-98806000D03*
X116840000Y-96266000D03*
X115316000Y-113284000D03*
X121920000Y-96266000D03*
X119114000Y-97405000D03*
X127254000Y-99060000D03*
X115062000Y-108966000D03*
X115316000Y-112268000D03*
X103824000Y-96012000D03*
%TO.N,GND*%
X129794000Y-94742000D03*
X122428000Y-84836000D03*
X129794000Y-96520000D03*
X106680000Y-105801000D03*
X110998000Y-108966000D03*
X124460000Y-97028000D03*
X110998000Y-110744000D03*
X110744000Y-112268000D03*
X111252000Y-84836000D03*
X119079000Y-100024000D03*
X108204000Y-96106800D03*
X112776000Y-113030000D03*
X113365000Y-95082800D03*
X104604000Y-99888800D03*
%TD*%
D20*
%TO.N,Net-(R26-Pad2)*%
X115445000Y-103564000D02*
X114966000Y-103564000D01*
X118110000Y-106229000D02*
X115445000Y-103564000D01*
X118110000Y-111189000D02*
X118110000Y-106229000D01*
X119380000Y-112459000D02*
X118110000Y-111189000D01*
%TO.N,Net-(R25-Pad2)*%
X123875000Y-111780000D02*
X123875000Y-102967000D01*
X122422000Y-113232000D02*
X123875000Y-111780000D01*
X117613000Y-113232000D02*
X122422000Y-113232000D01*
X116840000Y-112459000D02*
X117613000Y-113232000D01*
%TO.N,Net-(J3-Pad2)*%
X118110000Y-93980000D02*
X118110000Y-92202000D01*
X118110000Y-95155100D02*
X118110000Y-93980000D01*
X119920000Y-96965400D02*
X118110000Y-95155100D01*
X119920000Y-105130000D02*
X119920000Y-96965400D01*
X120650000Y-105860000D02*
X119920000Y-105130000D01*
X120650000Y-111189000D02*
X120650000Y-105860000D01*
X121920000Y-112459000D02*
X120650000Y-111189000D01*
X119380000Y-92202000D02*
X118110000Y-92202000D01*
X120815000Y-90767000D02*
X119380000Y-92202000D01*
X120815000Y-89372000D02*
X120815000Y-90767000D01*
X112865000Y-90779300D02*
X112865000Y-89372000D01*
X114288000Y-92202000D02*
X112865000Y-90779300D01*
X118110000Y-92202000D02*
X114288000Y-92202000D01*
%TO.N,/JOY_SANWA_X_LEFT*%
X113776300Y-104981200D02*
X114300000Y-105504900D01*
X113776300Y-102687100D02*
X113776300Y-104981200D01*
X114397400Y-102066000D02*
X113776300Y-102687100D01*
X114300000Y-106680000D02*
X114300000Y-105504900D01*
%TO.N,/JOY_SANWA_X_RIGHT*%
X114240000Y-104080000D02*
X116840000Y-106680000D01*
X114240000Y-103252000D02*
X114240000Y-104080000D01*
X115283000Y-102210000D02*
X114240000Y-103252000D01*
X115712000Y-102210000D02*
X115283000Y-102210000D01*
%TO.N,JOY_KY023_SW*%
X121920000Y-116840000D02*
X121920000Y-114109000D01*
%TO.N,JOY_KY023_Y*%
X119380000Y-116840000D02*
X119380000Y-114109000D01*
%TO.N,JOY_KY023_X*%
X116840000Y-116840000D02*
X116840000Y-114109000D01*
D21*
%TO.N,/JOY_KY023_+5V*%
X114300000Y-114109000D02*
X114300000Y-116840000D01*
%TO.N,/JOY_KY023_GND*%
X111760000Y-114109000D02*
X111760000Y-116840000D01*
D20*
%TO.N,Net-(D5-Pad1)*%
X128625000Y-100245000D02*
X128903000Y-99967200D01*
X128625000Y-100560000D02*
X128625000Y-100245000D01*
X127000000Y-100560000D02*
X128625000Y-100560000D01*
%TO.N,Net-(D4-Pad1)*%
X123545000Y-101693000D02*
X123644000Y-101791000D01*
X123545000Y-100560000D02*
X123545000Y-101693000D01*
X121920000Y-100560000D02*
X123545000Y-100560000D01*
%TO.N,Net-(D3-Pad1)*%
X116840000Y-99185900D02*
X116840000Y-100560000D01*
%TO.N,Net-(D2-Pad1)*%
X111760000Y-101952000D02*
X111760000Y-100560000D01*
%TO.N,Net-(D1-Pad1)*%
X106680000Y-103061000D02*
X106680000Y-100560000D01*
D22*
%TO.N,+5V*%
X121920000Y-97560000D02*
X121920000Y-96266000D01*
X106680000Y-97560000D02*
X111760000Y-97560000D01*
D21*
X114491000Y-112459000D02*
X115316000Y-113284000D01*
D22*
X127000000Y-98806000D02*
X127254000Y-99060000D01*
X127000000Y-97560000D02*
X127000000Y-98806000D01*
X116840000Y-97560000D02*
X116840000Y-96266000D01*
D21*
X114300000Y-112459000D02*
X114491000Y-112459000D01*
D22*
X110998000Y-98322000D02*
X111760000Y-97560000D01*
X110998000Y-98806000D02*
X110998000Y-98322000D01*
D21*
X114300000Y-112459000D02*
X114491000Y-112459000D01*
X115125000Y-112459000D02*
X115316000Y-112268000D01*
X114491000Y-112459000D02*
X115125000Y-112459000D01*
%TO.N,GND*%
X110935000Y-112459000D02*
X110744000Y-112268000D01*
X111760000Y-112459000D02*
X110935000Y-112459000D01*
D22*
X106680000Y-105801000D02*
X106680000Y-104711000D01*
X122392000Y-84872000D02*
X122428000Y-84836000D01*
X120815000Y-84872000D02*
X122392000Y-84872000D01*
X111288000Y-84872000D02*
X111252000Y-84836000D01*
X112865000Y-84872000D02*
X111288000Y-84872000D01*
D21*
X112205000Y-112459000D02*
X112776000Y-113030000D01*
X111760000Y-112459000D02*
X112205000Y-112459000D01*
%TD*%
M02*
