%TF.GenerationSoftware,KiCad,Pcbnew,(6.0.10)*%
%TF.CreationDate,2023-02-07T20:48:56+01:00*%
%TF.ProjectId,JoystickAdapter,4a6f7973-7469-4636-9b41-646170746572,1.0*%
%TF.SameCoordinates,Original*%
%TF.FileFunction,Legend,Bot*%
%TF.FilePolarity,Positive*%
%FSLAX46Y46*%
G04 Gerber Fmt 4.6, Leading zero omitted, Abs format (unit mm)*
G04 Created by KiCad (PCBNEW (6.0.10)) date 2023-02-07 20:48:56*
%MOMM*%
%LPD*%
G01*
G04 APERTURE LIST*
%ADD10C,0.150000*%
%ADD11C,0.120000*%
G04 APERTURE END LIST*
D10*
%TO.C,R14*%
X107386380Y-103243142D02*
X106910190Y-102909809D01*
X107386380Y-102671714D02*
X106386380Y-102671714D01*
X106386380Y-103052666D01*
X106434000Y-103147904D01*
X106481619Y-103195523D01*
X106576857Y-103243142D01*
X106719714Y-103243142D01*
X106814952Y-103195523D01*
X106862571Y-103147904D01*
X106910190Y-103052666D01*
X106910190Y-102671714D01*
X107386380Y-104195523D02*
X107386380Y-103624095D01*
X107386380Y-103909809D02*
X106386380Y-103909809D01*
X106529238Y-103814571D01*
X106624476Y-103719333D01*
X106672095Y-103624095D01*
X106719714Y-105052666D02*
X107386380Y-105052666D01*
X106338761Y-104814571D02*
X107053047Y-104576476D01*
X107053047Y-105195523D01*
%TO.C,R13*%
X111450380Y-103243142D02*
X110974190Y-102909809D01*
X111450380Y-102671714D02*
X110450380Y-102671714D01*
X110450380Y-103052666D01*
X110498000Y-103147904D01*
X110545619Y-103195523D01*
X110640857Y-103243142D01*
X110783714Y-103243142D01*
X110878952Y-103195523D01*
X110926571Y-103147904D01*
X110974190Y-103052666D01*
X110974190Y-102671714D01*
X111450380Y-104195523D02*
X111450380Y-103624095D01*
X111450380Y-103909809D02*
X110450380Y-103909809D01*
X110593238Y-103814571D01*
X110688476Y-103719333D01*
X110736095Y-103624095D01*
X110450380Y-104528857D02*
X110450380Y-105147904D01*
X110831333Y-104814571D01*
X110831333Y-104957428D01*
X110878952Y-105052666D01*
X110926571Y-105100285D01*
X111021809Y-105147904D01*
X111259904Y-105147904D01*
X111355142Y-105100285D01*
X111402761Y-105052666D01*
X111450380Y-104957428D01*
X111450380Y-104671714D01*
X111402761Y-104576476D01*
X111355142Y-104528857D01*
%TO.C,U1*%
X121626380Y-93980095D02*
X122435904Y-93980095D01*
X122531142Y-94027714D01*
X122578761Y-94075333D01*
X122626380Y-94170571D01*
X122626380Y-94361047D01*
X122578761Y-94456285D01*
X122531142Y-94503904D01*
X122435904Y-94551523D01*
X121626380Y-94551523D01*
X122626380Y-95551523D02*
X122626380Y-94980095D01*
X122626380Y-95265809D02*
X121626380Y-95265809D01*
X121769238Y-95170571D01*
X121864476Y-95075333D01*
X121912095Y-94980095D01*
%TO.C,C2*%
X128944666Y-98401142D02*
X128992285Y-98448761D01*
X129135142Y-98496380D01*
X129230380Y-98496380D01*
X129373238Y-98448761D01*
X129468476Y-98353523D01*
X129516095Y-98258285D01*
X129563714Y-98067809D01*
X129563714Y-97924952D01*
X129516095Y-97734476D01*
X129468476Y-97639238D01*
X129373238Y-97544000D01*
X129230380Y-97496380D01*
X129135142Y-97496380D01*
X128992285Y-97544000D01*
X128944666Y-97591619D01*
X128563714Y-97591619D02*
X128516095Y-97544000D01*
X128420857Y-97496380D01*
X128182761Y-97496380D01*
X128087523Y-97544000D01*
X128039904Y-97591619D01*
X127992285Y-97686857D01*
X127992285Y-97782095D01*
X128039904Y-97924952D01*
X128611333Y-98496380D01*
X127992285Y-98496380D01*
%TO.C,R22*%
X114244380Y-92575142D02*
X113768190Y-92241809D01*
X114244380Y-92003714D02*
X113244380Y-92003714D01*
X113244380Y-92384666D01*
X113292000Y-92479904D01*
X113339619Y-92527523D01*
X113434857Y-92575142D01*
X113577714Y-92575142D01*
X113672952Y-92527523D01*
X113720571Y-92479904D01*
X113768190Y-92384666D01*
X113768190Y-92003714D01*
X113339619Y-92956095D02*
X113292000Y-93003714D01*
X113244380Y-93098952D01*
X113244380Y-93337047D01*
X113292000Y-93432285D01*
X113339619Y-93479904D01*
X113434857Y-93527523D01*
X113530095Y-93527523D01*
X113672952Y-93479904D01*
X114244380Y-92908476D01*
X114244380Y-93527523D01*
X113339619Y-93908476D02*
X113292000Y-93956095D01*
X113244380Y-94051333D01*
X113244380Y-94289428D01*
X113292000Y-94384666D01*
X113339619Y-94432285D01*
X113434857Y-94479904D01*
X113530095Y-94479904D01*
X113672952Y-94432285D01*
X114244380Y-93860857D01*
X114244380Y-94479904D01*
%TO.C,R11*%
X121610380Y-103751142D02*
X121134190Y-103417809D01*
X121610380Y-103179714D02*
X120610380Y-103179714D01*
X120610380Y-103560666D01*
X120658000Y-103655904D01*
X120705619Y-103703523D01*
X120800857Y-103751142D01*
X120943714Y-103751142D01*
X121038952Y-103703523D01*
X121086571Y-103655904D01*
X121134190Y-103560666D01*
X121134190Y-103179714D01*
X121610380Y-104703523D02*
X121610380Y-104132095D01*
X121610380Y-104417809D02*
X120610380Y-104417809D01*
X120753238Y-104322571D01*
X120848476Y-104227333D01*
X120896095Y-104132095D01*
X121610380Y-105655904D02*
X121610380Y-105084476D01*
X121610380Y-105370190D02*
X120610380Y-105370190D01*
X120753238Y-105274952D01*
X120848476Y-105179714D01*
X120896095Y-105084476D01*
%TO.C,J1*%
X117173333Y-113752380D02*
X117173333Y-114466666D01*
X117220952Y-114609523D01*
X117316190Y-114704761D01*
X117459047Y-114752380D01*
X117554285Y-114752380D01*
X116173333Y-114752380D02*
X116744761Y-114752380D01*
X116459047Y-114752380D02*
X116459047Y-113752380D01*
X116554285Y-113895238D01*
X116649523Y-113990476D01*
X116744761Y-114038095D01*
%TO.C,C1*%
X116752666Y-111101142D02*
X116800285Y-111148761D01*
X116943142Y-111196380D01*
X117038380Y-111196380D01*
X117181238Y-111148761D01*
X117276476Y-111053523D01*
X117324095Y-110958285D01*
X117371714Y-110767809D01*
X117371714Y-110624952D01*
X117324095Y-110434476D01*
X117276476Y-110339238D01*
X117181238Y-110244000D01*
X117038380Y-110196380D01*
X116943142Y-110196380D01*
X116800285Y-110244000D01*
X116752666Y-110291619D01*
X115800285Y-111196380D02*
X116371714Y-111196380D01*
X116086000Y-111196380D02*
X116086000Y-110196380D01*
X116181238Y-110339238D01*
X116276476Y-110434476D01*
X116371714Y-110482095D01*
%TO.C,R26*%
X108846857Y-101958380D02*
X109180190Y-101482190D01*
X109418285Y-101958380D02*
X109418285Y-100958380D01*
X109037333Y-100958380D01*
X108942095Y-101006000D01*
X108894476Y-101053619D01*
X108846857Y-101148857D01*
X108846857Y-101291714D01*
X108894476Y-101386952D01*
X108942095Y-101434571D01*
X109037333Y-101482190D01*
X109418285Y-101482190D01*
X108465904Y-101053619D02*
X108418285Y-101006000D01*
X108323047Y-100958380D01*
X108084952Y-100958380D01*
X107989714Y-101006000D01*
X107942095Y-101053619D01*
X107894476Y-101148857D01*
X107894476Y-101244095D01*
X107942095Y-101386952D01*
X108513523Y-101958380D01*
X107894476Y-101958380D01*
X107037333Y-100958380D02*
X107227809Y-100958380D01*
X107323047Y-101006000D01*
X107370666Y-101053619D01*
X107465904Y-101196476D01*
X107513523Y-101386952D01*
X107513523Y-101767904D01*
X107465904Y-101863142D01*
X107418285Y-101910761D01*
X107323047Y-101958380D01*
X107132571Y-101958380D01*
X107037333Y-101910761D01*
X106989714Y-101863142D01*
X106942095Y-101767904D01*
X106942095Y-101529809D01*
X106989714Y-101434571D01*
X107037333Y-101386952D01*
X107132571Y-101339333D01*
X107323047Y-101339333D01*
X107418285Y-101386952D01*
X107465904Y-101434571D01*
X107513523Y-101529809D01*
%TO.C,R7*%
X116022380Y-100417333D02*
X115546190Y-100084000D01*
X116022380Y-99845904D02*
X115022380Y-99845904D01*
X115022380Y-100226857D01*
X115070000Y-100322095D01*
X115117619Y-100369714D01*
X115212857Y-100417333D01*
X115355714Y-100417333D01*
X115450952Y-100369714D01*
X115498571Y-100322095D01*
X115546190Y-100226857D01*
X115546190Y-99845904D01*
X115022380Y-100750666D02*
X115022380Y-101417333D01*
X116022380Y-100988761D01*
%TO.C,R23*%
X125102857Y-93002380D02*
X125436190Y-92526190D01*
X125674285Y-93002380D02*
X125674285Y-92002380D01*
X125293333Y-92002380D01*
X125198095Y-92050000D01*
X125150476Y-92097619D01*
X125102857Y-92192857D01*
X125102857Y-92335714D01*
X125150476Y-92430952D01*
X125198095Y-92478571D01*
X125293333Y-92526190D01*
X125674285Y-92526190D01*
X124721904Y-92097619D02*
X124674285Y-92050000D01*
X124579047Y-92002380D01*
X124340952Y-92002380D01*
X124245714Y-92050000D01*
X124198095Y-92097619D01*
X124150476Y-92192857D01*
X124150476Y-92288095D01*
X124198095Y-92430952D01*
X124769523Y-93002380D01*
X124150476Y-93002380D01*
X123817142Y-92002380D02*
X123198095Y-92002380D01*
X123531428Y-92383333D01*
X123388571Y-92383333D01*
X123293333Y-92430952D01*
X123245714Y-92478571D01*
X123198095Y-92573809D01*
X123198095Y-92811904D01*
X123245714Y-92907142D01*
X123293333Y-92954761D01*
X123388571Y-93002380D01*
X123674285Y-93002380D01*
X123769523Y-92954761D01*
X123817142Y-92907142D01*
%TO.C,R17*%
X105290857Y-95448380D02*
X105624190Y-94972190D01*
X105862285Y-95448380D02*
X105862285Y-94448380D01*
X105481333Y-94448380D01*
X105386095Y-94496000D01*
X105338476Y-94543619D01*
X105290857Y-94638857D01*
X105290857Y-94781714D01*
X105338476Y-94876952D01*
X105386095Y-94924571D01*
X105481333Y-94972190D01*
X105862285Y-94972190D01*
X104338476Y-95448380D02*
X104909904Y-95448380D01*
X104624190Y-95448380D02*
X104624190Y-94448380D01*
X104719428Y-94591238D01*
X104814666Y-94686476D01*
X104909904Y-94734095D01*
X104005142Y-94448380D02*
X103338476Y-94448380D01*
X103767047Y-95448380D01*
%TO.C,R9*%
X128882380Y-101179333D02*
X128406190Y-100846000D01*
X128882380Y-100607904D02*
X127882380Y-100607904D01*
X127882380Y-100988857D01*
X127930000Y-101084095D01*
X127977619Y-101131714D01*
X128072857Y-101179333D01*
X128215714Y-101179333D01*
X128310952Y-101131714D01*
X128358571Y-101084095D01*
X128406190Y-100988857D01*
X128406190Y-100607904D01*
X128882380Y-101655523D02*
X128882380Y-101846000D01*
X128834761Y-101941238D01*
X128787142Y-101988857D01*
X128644285Y-102084095D01*
X128453809Y-102131714D01*
X128072857Y-102131714D01*
X127977619Y-102084095D01*
X127930000Y-102036476D01*
X127882380Y-101941238D01*
X127882380Y-101750761D01*
X127930000Y-101655523D01*
X127977619Y-101607904D01*
X128072857Y-101560285D01*
X128310952Y-101560285D01*
X128406190Y-101607904D01*
X128453809Y-101655523D01*
X128501428Y-101750761D01*
X128501428Y-101941238D01*
X128453809Y-102036476D01*
X128406190Y-102084095D01*
X128310952Y-102131714D01*
%TO.C,R5*%
X114244380Y-98893333D02*
X113768190Y-98560000D01*
X114244380Y-98321904D02*
X113244380Y-98321904D01*
X113244380Y-98702857D01*
X113292000Y-98798095D01*
X113339619Y-98845714D01*
X113434857Y-98893333D01*
X113577714Y-98893333D01*
X113672952Y-98845714D01*
X113720571Y-98798095D01*
X113768190Y-98702857D01*
X113768190Y-98321904D01*
X113244380Y-99798095D02*
X113244380Y-99321904D01*
X113720571Y-99274285D01*
X113672952Y-99321904D01*
X113625333Y-99417142D01*
X113625333Y-99655238D01*
X113672952Y-99750476D01*
X113720571Y-99798095D01*
X113815809Y-99845714D01*
X114053904Y-99845714D01*
X114149142Y-99798095D01*
X114196761Y-99750476D01*
X114244380Y-99655238D01*
X114244380Y-99417142D01*
X114196761Y-99321904D01*
X114149142Y-99274285D01*
%TO.C,R25*%
X125102857Y-101958380D02*
X125436190Y-101482190D01*
X125674285Y-101958380D02*
X125674285Y-100958380D01*
X125293333Y-100958380D01*
X125198095Y-101006000D01*
X125150476Y-101053619D01*
X125102857Y-101148857D01*
X125102857Y-101291714D01*
X125150476Y-101386952D01*
X125198095Y-101434571D01*
X125293333Y-101482190D01*
X125674285Y-101482190D01*
X124721904Y-101053619D02*
X124674285Y-101006000D01*
X124579047Y-100958380D01*
X124340952Y-100958380D01*
X124245714Y-101006000D01*
X124198095Y-101053619D01*
X124150476Y-101148857D01*
X124150476Y-101244095D01*
X124198095Y-101386952D01*
X124769523Y-101958380D01*
X124150476Y-101958380D01*
X123245714Y-100958380D02*
X123721904Y-100958380D01*
X123769523Y-101434571D01*
X123721904Y-101386952D01*
X123626666Y-101339333D01*
X123388571Y-101339333D01*
X123293333Y-101386952D01*
X123245714Y-101434571D01*
X123198095Y-101529809D01*
X123198095Y-101767904D01*
X123245714Y-101863142D01*
X123293333Y-101910761D01*
X123388571Y-101958380D01*
X123626666Y-101958380D01*
X123721904Y-101910761D01*
X123769523Y-101863142D01*
%TO.C,R16*%
X120784857Y-101544380D02*
X121118190Y-101068190D01*
X121356285Y-101544380D02*
X121356285Y-100544380D01*
X120975333Y-100544380D01*
X120880095Y-100592000D01*
X120832476Y-100639619D01*
X120784857Y-100734857D01*
X120784857Y-100877714D01*
X120832476Y-100972952D01*
X120880095Y-101020571D01*
X120975333Y-101068190D01*
X121356285Y-101068190D01*
X119832476Y-101544380D02*
X120403904Y-101544380D01*
X120118190Y-101544380D02*
X120118190Y-100544380D01*
X120213428Y-100687238D01*
X120308666Y-100782476D01*
X120403904Y-100830095D01*
X118975333Y-100544380D02*
X119165809Y-100544380D01*
X119261047Y-100592000D01*
X119308666Y-100639619D01*
X119403904Y-100782476D01*
X119451523Y-100972952D01*
X119451523Y-101353904D01*
X119403904Y-101449142D01*
X119356285Y-101496761D01*
X119261047Y-101544380D01*
X119070571Y-101544380D01*
X118975333Y-101496761D01*
X118927714Y-101449142D01*
X118880095Y-101353904D01*
X118880095Y-101115809D01*
X118927714Y-101020571D01*
X118975333Y-100972952D01*
X119070571Y-100925333D01*
X119261047Y-100925333D01*
X119356285Y-100972952D01*
X119403904Y-101020571D01*
X119451523Y-101115809D01*
%TO.C,C3*%
X116752666Y-109323142D02*
X116800285Y-109370761D01*
X116943142Y-109418380D01*
X117038380Y-109418380D01*
X117181238Y-109370761D01*
X117276476Y-109275523D01*
X117324095Y-109180285D01*
X117371714Y-108989809D01*
X117371714Y-108846952D01*
X117324095Y-108656476D01*
X117276476Y-108561238D01*
X117181238Y-108466000D01*
X117038380Y-108418380D01*
X116943142Y-108418380D01*
X116800285Y-108466000D01*
X116752666Y-108513619D01*
X116419333Y-108418380D02*
X115800285Y-108418380D01*
X116133619Y-108799333D01*
X115990761Y-108799333D01*
X115895523Y-108846952D01*
X115847904Y-108894571D01*
X115800285Y-108989809D01*
X115800285Y-109227904D01*
X115847904Y-109323142D01*
X115895523Y-109370761D01*
X115990761Y-109418380D01*
X116276476Y-109418380D01*
X116371714Y-109370761D01*
X116419333Y-109323142D01*
%TO.C,R20*%
X131516380Y-94099142D02*
X131040190Y-93765809D01*
X131516380Y-93527714D02*
X130516380Y-93527714D01*
X130516380Y-93908666D01*
X130564000Y-94003904D01*
X130611619Y-94051523D01*
X130706857Y-94099142D01*
X130849714Y-94099142D01*
X130944952Y-94051523D01*
X130992571Y-94003904D01*
X131040190Y-93908666D01*
X131040190Y-93527714D01*
X130611619Y-94480095D02*
X130564000Y-94527714D01*
X130516380Y-94622952D01*
X130516380Y-94861047D01*
X130564000Y-94956285D01*
X130611619Y-95003904D01*
X130706857Y-95051523D01*
X130802095Y-95051523D01*
X130944952Y-95003904D01*
X131516380Y-94432476D01*
X131516380Y-95051523D01*
X130516380Y-95670571D02*
X130516380Y-95765809D01*
X130564000Y-95861047D01*
X130611619Y-95908666D01*
X130706857Y-95956285D01*
X130897333Y-96003904D01*
X131135428Y-96003904D01*
X131325904Y-95956285D01*
X131421142Y-95908666D01*
X131468761Y-95861047D01*
X131516380Y-95765809D01*
X131516380Y-95670571D01*
X131468761Y-95575333D01*
X131421142Y-95527714D01*
X131325904Y-95480095D01*
X131135428Y-95432476D01*
X130897333Y-95432476D01*
X130706857Y-95480095D01*
X130611619Y-95527714D01*
X130564000Y-95575333D01*
X130516380Y-95670571D01*
%TO.C,R21*%
X112402857Y-91638380D02*
X112736190Y-91162190D01*
X112974285Y-91638380D02*
X112974285Y-90638380D01*
X112593333Y-90638380D01*
X112498095Y-90686000D01*
X112450476Y-90733619D01*
X112402857Y-90828857D01*
X112402857Y-90971714D01*
X112450476Y-91066952D01*
X112498095Y-91114571D01*
X112593333Y-91162190D01*
X112974285Y-91162190D01*
X112021904Y-90733619D02*
X111974285Y-90686000D01*
X111879047Y-90638380D01*
X111640952Y-90638380D01*
X111545714Y-90686000D01*
X111498095Y-90733619D01*
X111450476Y-90828857D01*
X111450476Y-90924095D01*
X111498095Y-91066952D01*
X112069523Y-91638380D01*
X111450476Y-91638380D01*
X110498095Y-91638380D02*
X111069523Y-91638380D01*
X110783809Y-91638380D02*
X110783809Y-90638380D01*
X110879047Y-90781238D01*
X110974285Y-90876476D01*
X111069523Y-90924095D01*
%TO.C,R18*%
X105290857Y-101544380D02*
X105624190Y-101068190D01*
X105862285Y-101544380D02*
X105862285Y-100544380D01*
X105481333Y-100544380D01*
X105386095Y-100592000D01*
X105338476Y-100639619D01*
X105290857Y-100734857D01*
X105290857Y-100877714D01*
X105338476Y-100972952D01*
X105386095Y-101020571D01*
X105481333Y-101068190D01*
X105862285Y-101068190D01*
X104338476Y-101544380D02*
X104909904Y-101544380D01*
X104624190Y-101544380D02*
X104624190Y-100544380D01*
X104719428Y-100687238D01*
X104814666Y-100782476D01*
X104909904Y-100830095D01*
X103767047Y-100972952D02*
X103862285Y-100925333D01*
X103909904Y-100877714D01*
X103957523Y-100782476D01*
X103957523Y-100734857D01*
X103909904Y-100639619D01*
X103862285Y-100592000D01*
X103767047Y-100544380D01*
X103576571Y-100544380D01*
X103481333Y-100592000D01*
X103433714Y-100639619D01*
X103386095Y-100734857D01*
X103386095Y-100782476D01*
X103433714Y-100877714D01*
X103481333Y-100925333D01*
X103576571Y-100972952D01*
X103767047Y-100972952D01*
X103862285Y-101020571D01*
X103909904Y-101068190D01*
X103957523Y-101163428D01*
X103957523Y-101353904D01*
X103909904Y-101449142D01*
X103862285Y-101496761D01*
X103767047Y-101544380D01*
X103576571Y-101544380D01*
X103481333Y-101496761D01*
X103433714Y-101449142D01*
X103386095Y-101353904D01*
X103386095Y-101163428D01*
X103433714Y-101068190D01*
X103481333Y-101020571D01*
X103576571Y-100972952D01*
%TO.C,R19*%
X128658857Y-92146380D02*
X128992190Y-91670190D01*
X129230285Y-92146380D02*
X129230285Y-91146380D01*
X128849333Y-91146380D01*
X128754095Y-91194000D01*
X128706476Y-91241619D01*
X128658857Y-91336857D01*
X128658857Y-91479714D01*
X128706476Y-91574952D01*
X128754095Y-91622571D01*
X128849333Y-91670190D01*
X129230285Y-91670190D01*
X127706476Y-92146380D02*
X128277904Y-92146380D01*
X127992190Y-92146380D02*
X127992190Y-91146380D01*
X128087428Y-91289238D01*
X128182666Y-91384476D01*
X128277904Y-91432095D01*
X127230285Y-92146380D02*
X127039809Y-92146380D01*
X126944571Y-92098761D01*
X126896952Y-92051142D01*
X126801714Y-91908285D01*
X126754095Y-91717809D01*
X126754095Y-91336857D01*
X126801714Y-91241619D01*
X126849333Y-91194000D01*
X126944571Y-91146380D01*
X127135047Y-91146380D01*
X127230285Y-91194000D01*
X127277904Y-91241619D01*
X127325523Y-91336857D01*
X127325523Y-91574952D01*
X127277904Y-91670190D01*
X127230285Y-91717809D01*
X127135047Y-91765428D01*
X126944571Y-91765428D01*
X126849333Y-91717809D01*
X126801714Y-91670190D01*
X126754095Y-91574952D01*
%TO.C,R24*%
X108846857Y-93002380D02*
X109180190Y-92526190D01*
X109418285Y-93002380D02*
X109418285Y-92002380D01*
X109037333Y-92002380D01*
X108942095Y-92050000D01*
X108894476Y-92097619D01*
X108846857Y-92192857D01*
X108846857Y-92335714D01*
X108894476Y-92430952D01*
X108942095Y-92478571D01*
X109037333Y-92526190D01*
X109418285Y-92526190D01*
X108465904Y-92097619D02*
X108418285Y-92050000D01*
X108323047Y-92002380D01*
X108084952Y-92002380D01*
X107989714Y-92050000D01*
X107942095Y-92097619D01*
X107894476Y-92192857D01*
X107894476Y-92288095D01*
X107942095Y-92430952D01*
X108513523Y-93002380D01*
X107894476Y-93002380D01*
X107037333Y-92335714D02*
X107037333Y-93002380D01*
X107275428Y-91954761D02*
X107513523Y-92669047D01*
X106894476Y-92669047D01*
%TO.C,R15*%
X120784857Y-96718380D02*
X121118190Y-96242190D01*
X121356285Y-96718380D02*
X121356285Y-95718380D01*
X120975333Y-95718380D01*
X120880095Y-95766000D01*
X120832476Y-95813619D01*
X120784857Y-95908857D01*
X120784857Y-96051714D01*
X120832476Y-96146952D01*
X120880095Y-96194571D01*
X120975333Y-96242190D01*
X121356285Y-96242190D01*
X119832476Y-96718380D02*
X120403904Y-96718380D01*
X120118190Y-96718380D02*
X120118190Y-95718380D01*
X120213428Y-95861238D01*
X120308666Y-95956476D01*
X120403904Y-96004095D01*
X118927714Y-95718380D02*
X119403904Y-95718380D01*
X119451523Y-96194571D01*
X119403904Y-96146952D01*
X119308666Y-96099333D01*
X119070571Y-96099333D01*
X118975333Y-96146952D01*
X118927714Y-96194571D01*
X118880095Y-96289809D01*
X118880095Y-96527904D01*
X118927714Y-96623142D01*
X118975333Y-96670761D01*
X119070571Y-96718380D01*
X119308666Y-96718380D01*
X119403904Y-96670761D01*
X119451523Y-96623142D01*
%TO.C,R8*%
X124056380Y-104227333D02*
X123580190Y-103894000D01*
X124056380Y-103655904D02*
X123056380Y-103655904D01*
X123056380Y-104036857D01*
X123104000Y-104132095D01*
X123151619Y-104179714D01*
X123246857Y-104227333D01*
X123389714Y-104227333D01*
X123484952Y-104179714D01*
X123532571Y-104132095D01*
X123580190Y-104036857D01*
X123580190Y-103655904D01*
X123484952Y-104798761D02*
X123437333Y-104703523D01*
X123389714Y-104655904D01*
X123294476Y-104608285D01*
X123246857Y-104608285D01*
X123151619Y-104655904D01*
X123104000Y-104703523D01*
X123056380Y-104798761D01*
X123056380Y-104989238D01*
X123104000Y-105084476D01*
X123151619Y-105132095D01*
X123246857Y-105179714D01*
X123294476Y-105179714D01*
X123389714Y-105132095D01*
X123437333Y-105084476D01*
X123484952Y-104989238D01*
X123484952Y-104798761D01*
X123532571Y-104703523D01*
X123580190Y-104655904D01*
X123675428Y-104608285D01*
X123865904Y-104608285D01*
X123961142Y-104655904D01*
X124008761Y-104703523D01*
X124056380Y-104798761D01*
X124056380Y-104989238D01*
X124008761Y-105084476D01*
X123961142Y-105132095D01*
X123865904Y-105179714D01*
X123675428Y-105179714D01*
X123580190Y-105132095D01*
X123532571Y-105084476D01*
X123484952Y-104989238D01*
%TO.C,R4*%
X117006666Y-87668380D02*
X117340000Y-87192190D01*
X117578095Y-87668380D02*
X117578095Y-86668380D01*
X117197142Y-86668380D01*
X117101904Y-86716000D01*
X117054285Y-86763619D01*
X117006666Y-86858857D01*
X117006666Y-87001714D01*
X117054285Y-87096952D01*
X117101904Y-87144571D01*
X117197142Y-87192190D01*
X117578095Y-87192190D01*
X116149523Y-87001714D02*
X116149523Y-87668380D01*
X116387619Y-86620761D02*
X116625714Y-87335047D01*
X116006666Y-87335047D01*
%TO.C,U2*%
X110056380Y-96774095D02*
X110865904Y-96774095D01*
X110961142Y-96821714D01*
X111008761Y-96869333D01*
X111056380Y-96964571D01*
X111056380Y-97155047D01*
X111008761Y-97250285D01*
X110961142Y-97297904D01*
X110865904Y-97345523D01*
X110056380Y-97345523D01*
X110151619Y-97774095D02*
X110104000Y-97821714D01*
X110056380Y-97916952D01*
X110056380Y-98155047D01*
X110104000Y-98250285D01*
X110151619Y-98297904D01*
X110246857Y-98345523D01*
X110342095Y-98345523D01*
X110484952Y-98297904D01*
X111056380Y-97726476D01*
X111056380Y-98345523D01*
%TO.C,R10*%
X109354857Y-108656380D02*
X109688190Y-108180190D01*
X109926285Y-108656380D02*
X109926285Y-107656380D01*
X109545333Y-107656380D01*
X109450095Y-107704000D01*
X109402476Y-107751619D01*
X109354857Y-107846857D01*
X109354857Y-107989714D01*
X109402476Y-108084952D01*
X109450095Y-108132571D01*
X109545333Y-108180190D01*
X109926285Y-108180190D01*
X108402476Y-108656380D02*
X108973904Y-108656380D01*
X108688190Y-108656380D02*
X108688190Y-107656380D01*
X108783428Y-107799238D01*
X108878666Y-107894476D01*
X108973904Y-107942095D01*
X107783428Y-107656380D02*
X107688190Y-107656380D01*
X107592952Y-107704000D01*
X107545333Y-107751619D01*
X107497714Y-107846857D01*
X107450095Y-108037333D01*
X107450095Y-108275428D01*
X107497714Y-108465904D01*
X107545333Y-108561142D01*
X107592952Y-108608761D01*
X107688190Y-108656380D01*
X107783428Y-108656380D01*
X107878666Y-108608761D01*
X107926285Y-108561142D01*
X107973904Y-108465904D01*
X108021523Y-108275428D01*
X108021523Y-108037333D01*
X107973904Y-107846857D01*
X107926285Y-107751619D01*
X107878666Y-107704000D01*
X107783428Y-107656380D01*
%TO.C,C4*%
X112434666Y-97639142D02*
X112482285Y-97686761D01*
X112625142Y-97734380D01*
X112720380Y-97734380D01*
X112863238Y-97686761D01*
X112958476Y-97591523D01*
X113006095Y-97496285D01*
X113053714Y-97305809D01*
X113053714Y-97162952D01*
X113006095Y-96972476D01*
X112958476Y-96877238D01*
X112863238Y-96782000D01*
X112720380Y-96734380D01*
X112625142Y-96734380D01*
X112482285Y-96782000D01*
X112434666Y-96829619D01*
X111577523Y-97067714D02*
X111577523Y-97734380D01*
X111815619Y-96686761D02*
X112053714Y-97401047D01*
X111434666Y-97401047D01*
%TO.C,R12*%
X117546380Y-103497142D02*
X117070190Y-103163809D01*
X117546380Y-102925714D02*
X116546380Y-102925714D01*
X116546380Y-103306666D01*
X116594000Y-103401904D01*
X116641619Y-103449523D01*
X116736857Y-103497142D01*
X116879714Y-103497142D01*
X116974952Y-103449523D01*
X117022571Y-103401904D01*
X117070190Y-103306666D01*
X117070190Y-102925714D01*
X117546380Y-104449523D02*
X117546380Y-103878095D01*
X117546380Y-104163809D02*
X116546380Y-104163809D01*
X116689238Y-104068571D01*
X116784476Y-103973333D01*
X116832095Y-103878095D01*
X116641619Y-104830476D02*
X116594000Y-104878095D01*
X116546380Y-104973333D01*
X116546380Y-105211428D01*
X116594000Y-105306666D01*
X116641619Y-105354285D01*
X116736857Y-105401904D01*
X116832095Y-105401904D01*
X116974952Y-105354285D01*
X117546380Y-104782857D01*
X117546380Y-105401904D01*
D11*
%TO.C,R14*%
X107681500Y-104123258D02*
X107681500Y-103648742D01*
X108726500Y-104123258D02*
X108726500Y-103648742D01*
%TO.C,R13*%
X109205500Y-104123258D02*
X109205500Y-103648742D01*
X110250500Y-104123258D02*
X110250500Y-103648742D01*
%TO.C,U1*%
X126020000Y-97028000D02*
X126020000Y-98828000D01*
X122900000Y-97028000D02*
X122900000Y-97828000D01*
X126020000Y-97028000D02*
X126020000Y-96228000D01*
X122900000Y-97028000D02*
X122900000Y-96228000D01*
%TO.C,C2*%
X128156580Y-97030000D02*
X127875420Y-97030000D01*
X128156580Y-96010000D02*
X127875420Y-96010000D01*
%TO.C,R22*%
X111997258Y-93711500D02*
X111522742Y-93711500D01*
X111997258Y-94756500D02*
X111522742Y-94756500D01*
%TO.C,R11*%
X119365500Y-104123258D02*
X119365500Y-103648742D01*
X120410500Y-104123258D02*
X120410500Y-103648742D01*
%TO.C,J1*%
X123250000Y-115510000D02*
X123250000Y-118170000D01*
X113030000Y-118170000D02*
X123250000Y-118170000D01*
X110430000Y-118170000D02*
X111760000Y-118170000D01*
X113030000Y-115510000D02*
X113030000Y-118170000D01*
X113030000Y-115510000D02*
X123250000Y-115510000D01*
X110430000Y-116840000D02*
X110430000Y-118170000D01*
%TO.C,C1*%
X112768748Y-111479000D02*
X113291252Y-111479000D01*
X112768748Y-110009000D02*
X113291252Y-110009000D01*
%TO.C,R26*%
X107966742Y-99553500D02*
X108441258Y-99553500D01*
X107966742Y-100598500D02*
X108441258Y-100598500D01*
%TO.C,R7*%
X116317500Y-101583258D02*
X116317500Y-101108742D01*
X117362500Y-101583258D02*
X117362500Y-101108742D01*
%TO.C,R23*%
X124697258Y-93457500D02*
X124222742Y-93457500D01*
X124697258Y-94502500D02*
X124222742Y-94502500D01*
%TO.C,R17*%
X104885258Y-96759500D02*
X104410742Y-96759500D01*
X104885258Y-97804500D02*
X104410742Y-97804500D01*
%TO.C,R9*%
X126477500Y-101583258D02*
X126477500Y-101108742D01*
X127522500Y-101583258D02*
X127522500Y-101108742D01*
%TO.C,R5*%
X112761500Y-101583258D02*
X112761500Y-101108742D01*
X113806500Y-101583258D02*
X113806500Y-101108742D01*
%TO.C,R25*%
X124222742Y-99553500D02*
X124697258Y-99553500D01*
X124222742Y-100598500D02*
X124697258Y-100598500D01*
%TO.C,R16*%
X120732742Y-100223000D02*
X121207258Y-100223000D01*
X120732742Y-99178000D02*
X121207258Y-99178000D01*
%TO.C,C3*%
X112889420Y-108456000D02*
X113170580Y-108456000D01*
X112889420Y-109476000D02*
X113170580Y-109476000D01*
%TO.C,R20*%
X128253258Y-95264500D02*
X127778742Y-95264500D01*
X128253258Y-94219500D02*
X127778742Y-94219500D01*
%TO.C,R21*%
X111522742Y-92978500D02*
X111997258Y-92978500D01*
X111522742Y-91933500D02*
X111997258Y-91933500D01*
%TO.C,R18*%
X104410742Y-99582500D02*
X104885258Y-99582500D01*
X104410742Y-98537500D02*
X104885258Y-98537500D01*
%TO.C,R19*%
X127778742Y-93486500D02*
X128253258Y-93486500D01*
X127778742Y-92441500D02*
X128253258Y-92441500D01*
%TO.C,R24*%
X108441258Y-94502500D02*
X107966742Y-94502500D01*
X108441258Y-93457500D02*
X107966742Y-93457500D01*
%TO.C,R15*%
X121207258Y-98445000D02*
X120732742Y-98445000D01*
X121207258Y-97400000D02*
X120732742Y-97400000D01*
%TO.C,R8*%
X122696500Y-102853258D02*
X122696500Y-102378742D01*
X121651500Y-102853258D02*
X121651500Y-102378742D01*
%TO.C,R4*%
X117077258Y-88123500D02*
X116602742Y-88123500D01*
X117077258Y-89168500D02*
X116602742Y-89168500D01*
%TO.C,U2*%
X109764000Y-97028000D02*
X109764000Y-96228000D01*
X106644000Y-97028000D02*
X106644000Y-97828000D01*
X106644000Y-97028000D02*
X106644000Y-96228000D01*
X109764000Y-97028000D02*
X109764000Y-98828000D01*
%TO.C,R10*%
X108949258Y-107202500D02*
X108474742Y-107202500D01*
X108949258Y-106157500D02*
X108474742Y-106157500D01*
%TO.C,C4*%
X111900580Y-96522000D02*
X111619420Y-96522000D01*
X111900580Y-95502000D02*
X111619420Y-95502000D01*
%TO.C,R12*%
X117841500Y-104123258D02*
X117841500Y-103648742D01*
X118886500Y-104123258D02*
X118886500Y-103648742D01*
%TD*%
M02*
