%TF.GenerationSoftware,KiCad,Pcbnew,(7.0.0)*%
%TF.CreationDate,2023-03-09T19:39:30+01:00*%
%TF.ProjectId,JoystickAdapter,4a6f7973-7469-4636-9b41-646170746572,1.1*%
%TF.SameCoordinates,Original*%
%TF.FileFunction,Legend,Bot*%
%TF.FilePolarity,Positive*%
%FSLAX46Y46*%
G04 Gerber Fmt 4.6, Leading zero omitted, Abs format (unit mm)*
G04 Created by KiCad (PCBNEW (7.0.0)) date 2023-03-09 19:39:30*
%MOMM*%
%LPD*%
G01*
G04 APERTURE LIST*
%ADD10C,0.150000*%
%ADD11C,0.120000*%
G04 APERTURE END LIST*
D10*
%TO.C,D9*%
X107301380Y-103147905D02*
X106301380Y-103147905D01*
X106301380Y-103147905D02*
X106301380Y-103386000D01*
X106301380Y-103386000D02*
X106349000Y-103528857D01*
X106349000Y-103528857D02*
X106444238Y-103624095D01*
X106444238Y-103624095D02*
X106539476Y-103671714D01*
X106539476Y-103671714D02*
X106729952Y-103719333D01*
X106729952Y-103719333D02*
X106872809Y-103719333D01*
X106872809Y-103719333D02*
X107063285Y-103671714D01*
X107063285Y-103671714D02*
X107158523Y-103624095D01*
X107158523Y-103624095D02*
X107253761Y-103528857D01*
X107253761Y-103528857D02*
X107301380Y-103386000D01*
X107301380Y-103386000D02*
X107301380Y-103147905D01*
X107301380Y-104195524D02*
X107301380Y-104386000D01*
X107301380Y-104386000D02*
X107253761Y-104481238D01*
X107253761Y-104481238D02*
X107206142Y-104528857D01*
X107206142Y-104528857D02*
X107063285Y-104624095D01*
X107063285Y-104624095D02*
X106872809Y-104671714D01*
X106872809Y-104671714D02*
X106491857Y-104671714D01*
X106491857Y-104671714D02*
X106396619Y-104624095D01*
X106396619Y-104624095D02*
X106349000Y-104576476D01*
X106349000Y-104576476D02*
X106301380Y-104481238D01*
X106301380Y-104481238D02*
X106301380Y-104290762D01*
X106301380Y-104290762D02*
X106349000Y-104195524D01*
X106349000Y-104195524D02*
X106396619Y-104147905D01*
X106396619Y-104147905D02*
X106491857Y-104100286D01*
X106491857Y-104100286D02*
X106729952Y-104100286D01*
X106729952Y-104100286D02*
X106825190Y-104147905D01*
X106825190Y-104147905D02*
X106872809Y-104195524D01*
X106872809Y-104195524D02*
X106920428Y-104290762D01*
X106920428Y-104290762D02*
X106920428Y-104481238D01*
X106920428Y-104481238D02*
X106872809Y-104576476D01*
X106872809Y-104576476D02*
X106825190Y-104624095D01*
X106825190Y-104624095D02*
X106729952Y-104671714D01*
%TO.C,U1*%
X121541380Y-93980095D02*
X122350904Y-93980095D01*
X122350904Y-93980095D02*
X122446142Y-94027714D01*
X122446142Y-94027714D02*
X122493761Y-94075333D01*
X122493761Y-94075333D02*
X122541380Y-94170571D01*
X122541380Y-94170571D02*
X122541380Y-94361047D01*
X122541380Y-94361047D02*
X122493761Y-94456285D01*
X122493761Y-94456285D02*
X122446142Y-94503904D01*
X122446142Y-94503904D02*
X122350904Y-94551523D01*
X122350904Y-94551523D02*
X121541380Y-94551523D01*
X122541380Y-95551523D02*
X122541380Y-94980095D01*
X122541380Y-95265809D02*
X121541380Y-95265809D01*
X121541380Y-95265809D02*
X121684238Y-95170571D01*
X121684238Y-95170571D02*
X121779476Y-95075333D01*
X121779476Y-95075333D02*
X121827095Y-94980095D01*
%TO.C,C2*%
X128944666Y-98316142D02*
X128992285Y-98363761D01*
X128992285Y-98363761D02*
X129135142Y-98411380D01*
X129135142Y-98411380D02*
X129230380Y-98411380D01*
X129230380Y-98411380D02*
X129373237Y-98363761D01*
X129373237Y-98363761D02*
X129468475Y-98268523D01*
X129468475Y-98268523D02*
X129516094Y-98173285D01*
X129516094Y-98173285D02*
X129563713Y-97982809D01*
X129563713Y-97982809D02*
X129563713Y-97839952D01*
X129563713Y-97839952D02*
X129516094Y-97649476D01*
X129516094Y-97649476D02*
X129468475Y-97554238D01*
X129468475Y-97554238D02*
X129373237Y-97459000D01*
X129373237Y-97459000D02*
X129230380Y-97411380D01*
X129230380Y-97411380D02*
X129135142Y-97411380D01*
X129135142Y-97411380D02*
X128992285Y-97459000D01*
X128992285Y-97459000D02*
X128944666Y-97506619D01*
X128563713Y-97506619D02*
X128516094Y-97459000D01*
X128516094Y-97459000D02*
X128420856Y-97411380D01*
X128420856Y-97411380D02*
X128182761Y-97411380D01*
X128182761Y-97411380D02*
X128087523Y-97459000D01*
X128087523Y-97459000D02*
X128039904Y-97506619D01*
X128039904Y-97506619D02*
X127992285Y-97601857D01*
X127992285Y-97601857D02*
X127992285Y-97697095D01*
X127992285Y-97697095D02*
X128039904Y-97839952D01*
X128039904Y-97839952D02*
X128611332Y-98411380D01*
X128611332Y-98411380D02*
X127992285Y-98411380D01*
%TO.C,R22*%
X114159380Y-92575142D02*
X113683190Y-92241809D01*
X114159380Y-92003714D02*
X113159380Y-92003714D01*
X113159380Y-92003714D02*
X113159380Y-92384666D01*
X113159380Y-92384666D02*
X113207000Y-92479904D01*
X113207000Y-92479904D02*
X113254619Y-92527523D01*
X113254619Y-92527523D02*
X113349857Y-92575142D01*
X113349857Y-92575142D02*
X113492714Y-92575142D01*
X113492714Y-92575142D02*
X113587952Y-92527523D01*
X113587952Y-92527523D02*
X113635571Y-92479904D01*
X113635571Y-92479904D02*
X113683190Y-92384666D01*
X113683190Y-92384666D02*
X113683190Y-92003714D01*
X113254619Y-92956095D02*
X113207000Y-93003714D01*
X113207000Y-93003714D02*
X113159380Y-93098952D01*
X113159380Y-93098952D02*
X113159380Y-93337047D01*
X113159380Y-93337047D02*
X113207000Y-93432285D01*
X113207000Y-93432285D02*
X113254619Y-93479904D01*
X113254619Y-93479904D02*
X113349857Y-93527523D01*
X113349857Y-93527523D02*
X113445095Y-93527523D01*
X113445095Y-93527523D02*
X113587952Y-93479904D01*
X113587952Y-93479904D02*
X114159380Y-92908476D01*
X114159380Y-92908476D02*
X114159380Y-93527523D01*
X113254619Y-93908476D02*
X113207000Y-93956095D01*
X113207000Y-93956095D02*
X113159380Y-94051333D01*
X113159380Y-94051333D02*
X113159380Y-94289428D01*
X113159380Y-94289428D02*
X113207000Y-94384666D01*
X113207000Y-94384666D02*
X113254619Y-94432285D01*
X113254619Y-94432285D02*
X113349857Y-94479904D01*
X113349857Y-94479904D02*
X113445095Y-94479904D01*
X113445095Y-94479904D02*
X113587952Y-94432285D01*
X113587952Y-94432285D02*
X114159380Y-93860857D01*
X114159380Y-93860857D02*
X114159380Y-94479904D01*
%TO.C,J1*%
X117173333Y-113667380D02*
X117173333Y-114381666D01*
X117173333Y-114381666D02*
X117220952Y-114524523D01*
X117220952Y-114524523D02*
X117316190Y-114619761D01*
X117316190Y-114619761D02*
X117459047Y-114667380D01*
X117459047Y-114667380D02*
X117554285Y-114667380D01*
X116173333Y-114667380D02*
X116744761Y-114667380D01*
X116459047Y-114667380D02*
X116459047Y-113667380D01*
X116459047Y-113667380D02*
X116554285Y-113810238D01*
X116554285Y-113810238D02*
X116649523Y-113905476D01*
X116649523Y-113905476D02*
X116744761Y-113953095D01*
%TO.C,C1*%
X116752666Y-111016142D02*
X116800285Y-111063761D01*
X116800285Y-111063761D02*
X116943142Y-111111380D01*
X116943142Y-111111380D02*
X117038380Y-111111380D01*
X117038380Y-111111380D02*
X117181237Y-111063761D01*
X117181237Y-111063761D02*
X117276475Y-110968523D01*
X117276475Y-110968523D02*
X117324094Y-110873285D01*
X117324094Y-110873285D02*
X117371713Y-110682809D01*
X117371713Y-110682809D02*
X117371713Y-110539952D01*
X117371713Y-110539952D02*
X117324094Y-110349476D01*
X117324094Y-110349476D02*
X117276475Y-110254238D01*
X117276475Y-110254238D02*
X117181237Y-110159000D01*
X117181237Y-110159000D02*
X117038380Y-110111380D01*
X117038380Y-110111380D02*
X116943142Y-110111380D01*
X116943142Y-110111380D02*
X116800285Y-110159000D01*
X116800285Y-110159000D02*
X116752666Y-110206619D01*
X115800285Y-111111380D02*
X116371713Y-111111380D01*
X116085999Y-111111380D02*
X116085999Y-110111380D01*
X116085999Y-110111380D02*
X116181237Y-110254238D01*
X116181237Y-110254238D02*
X116276475Y-110349476D01*
X116276475Y-110349476D02*
X116371713Y-110397095D01*
%TO.C,D7*%
X117461380Y-103147905D02*
X116461380Y-103147905D01*
X116461380Y-103147905D02*
X116461380Y-103386000D01*
X116461380Y-103386000D02*
X116509000Y-103528857D01*
X116509000Y-103528857D02*
X116604238Y-103624095D01*
X116604238Y-103624095D02*
X116699476Y-103671714D01*
X116699476Y-103671714D02*
X116889952Y-103719333D01*
X116889952Y-103719333D02*
X117032809Y-103719333D01*
X117032809Y-103719333D02*
X117223285Y-103671714D01*
X117223285Y-103671714D02*
X117318523Y-103624095D01*
X117318523Y-103624095D02*
X117413761Y-103528857D01*
X117413761Y-103528857D02*
X117461380Y-103386000D01*
X117461380Y-103386000D02*
X117461380Y-103147905D01*
X116461380Y-104052667D02*
X116461380Y-104719333D01*
X116461380Y-104719333D02*
X117461380Y-104290762D01*
%TO.C,R26*%
X108846857Y-101873380D02*
X109180190Y-101397190D01*
X109418285Y-101873380D02*
X109418285Y-100873380D01*
X109418285Y-100873380D02*
X109037333Y-100873380D01*
X109037333Y-100873380D02*
X108942095Y-100921000D01*
X108942095Y-100921000D02*
X108894476Y-100968619D01*
X108894476Y-100968619D02*
X108846857Y-101063857D01*
X108846857Y-101063857D02*
X108846857Y-101206714D01*
X108846857Y-101206714D02*
X108894476Y-101301952D01*
X108894476Y-101301952D02*
X108942095Y-101349571D01*
X108942095Y-101349571D02*
X109037333Y-101397190D01*
X109037333Y-101397190D02*
X109418285Y-101397190D01*
X108465904Y-100968619D02*
X108418285Y-100921000D01*
X108418285Y-100921000D02*
X108323047Y-100873380D01*
X108323047Y-100873380D02*
X108084952Y-100873380D01*
X108084952Y-100873380D02*
X107989714Y-100921000D01*
X107989714Y-100921000D02*
X107942095Y-100968619D01*
X107942095Y-100968619D02*
X107894476Y-101063857D01*
X107894476Y-101063857D02*
X107894476Y-101159095D01*
X107894476Y-101159095D02*
X107942095Y-101301952D01*
X107942095Y-101301952D02*
X108513523Y-101873380D01*
X108513523Y-101873380D02*
X107894476Y-101873380D01*
X107037333Y-100873380D02*
X107227809Y-100873380D01*
X107227809Y-100873380D02*
X107323047Y-100921000D01*
X107323047Y-100921000D02*
X107370666Y-100968619D01*
X107370666Y-100968619D02*
X107465904Y-101111476D01*
X107465904Y-101111476D02*
X107513523Y-101301952D01*
X107513523Y-101301952D02*
X107513523Y-101682904D01*
X107513523Y-101682904D02*
X107465904Y-101778142D01*
X107465904Y-101778142D02*
X107418285Y-101825761D01*
X107418285Y-101825761D02*
X107323047Y-101873380D01*
X107323047Y-101873380D02*
X107132571Y-101873380D01*
X107132571Y-101873380D02*
X107037333Y-101825761D01*
X107037333Y-101825761D02*
X106989714Y-101778142D01*
X106989714Y-101778142D02*
X106942095Y-101682904D01*
X106942095Y-101682904D02*
X106942095Y-101444809D01*
X106942095Y-101444809D02*
X106989714Y-101349571D01*
X106989714Y-101349571D02*
X107037333Y-101301952D01*
X107037333Y-101301952D02*
X107132571Y-101254333D01*
X107132571Y-101254333D02*
X107323047Y-101254333D01*
X107323047Y-101254333D02*
X107418285Y-101301952D01*
X107418285Y-101301952D02*
X107465904Y-101349571D01*
X107465904Y-101349571D02*
X107513523Y-101444809D01*
%TO.C,R7*%
X115937380Y-100417333D02*
X115461190Y-100084000D01*
X115937380Y-99845905D02*
X114937380Y-99845905D01*
X114937380Y-99845905D02*
X114937380Y-100226857D01*
X114937380Y-100226857D02*
X114985000Y-100322095D01*
X114985000Y-100322095D02*
X115032619Y-100369714D01*
X115032619Y-100369714D02*
X115127857Y-100417333D01*
X115127857Y-100417333D02*
X115270714Y-100417333D01*
X115270714Y-100417333D02*
X115365952Y-100369714D01*
X115365952Y-100369714D02*
X115413571Y-100322095D01*
X115413571Y-100322095D02*
X115461190Y-100226857D01*
X115461190Y-100226857D02*
X115461190Y-99845905D01*
X114937380Y-100750667D02*
X114937380Y-101417333D01*
X114937380Y-101417333D02*
X115937380Y-100988762D01*
%TO.C,R23*%
X125102857Y-92917380D02*
X125436190Y-92441190D01*
X125674285Y-92917380D02*
X125674285Y-91917380D01*
X125674285Y-91917380D02*
X125293333Y-91917380D01*
X125293333Y-91917380D02*
X125198095Y-91965000D01*
X125198095Y-91965000D02*
X125150476Y-92012619D01*
X125150476Y-92012619D02*
X125102857Y-92107857D01*
X125102857Y-92107857D02*
X125102857Y-92250714D01*
X125102857Y-92250714D02*
X125150476Y-92345952D01*
X125150476Y-92345952D02*
X125198095Y-92393571D01*
X125198095Y-92393571D02*
X125293333Y-92441190D01*
X125293333Y-92441190D02*
X125674285Y-92441190D01*
X124721904Y-92012619D02*
X124674285Y-91965000D01*
X124674285Y-91965000D02*
X124579047Y-91917380D01*
X124579047Y-91917380D02*
X124340952Y-91917380D01*
X124340952Y-91917380D02*
X124245714Y-91965000D01*
X124245714Y-91965000D02*
X124198095Y-92012619D01*
X124198095Y-92012619D02*
X124150476Y-92107857D01*
X124150476Y-92107857D02*
X124150476Y-92203095D01*
X124150476Y-92203095D02*
X124198095Y-92345952D01*
X124198095Y-92345952D02*
X124769523Y-92917380D01*
X124769523Y-92917380D02*
X124150476Y-92917380D01*
X123817142Y-91917380D02*
X123198095Y-91917380D01*
X123198095Y-91917380D02*
X123531428Y-92298333D01*
X123531428Y-92298333D02*
X123388571Y-92298333D01*
X123388571Y-92298333D02*
X123293333Y-92345952D01*
X123293333Y-92345952D02*
X123245714Y-92393571D01*
X123245714Y-92393571D02*
X123198095Y-92488809D01*
X123198095Y-92488809D02*
X123198095Y-92726904D01*
X123198095Y-92726904D02*
X123245714Y-92822142D01*
X123245714Y-92822142D02*
X123293333Y-92869761D01*
X123293333Y-92869761D02*
X123388571Y-92917380D01*
X123388571Y-92917380D02*
X123674285Y-92917380D01*
X123674285Y-92917380D02*
X123769523Y-92869761D01*
X123769523Y-92869761D02*
X123817142Y-92822142D01*
%TO.C,R17*%
X105290857Y-95363380D02*
X105624190Y-94887190D01*
X105862285Y-95363380D02*
X105862285Y-94363380D01*
X105862285Y-94363380D02*
X105481333Y-94363380D01*
X105481333Y-94363380D02*
X105386095Y-94411000D01*
X105386095Y-94411000D02*
X105338476Y-94458619D01*
X105338476Y-94458619D02*
X105290857Y-94553857D01*
X105290857Y-94553857D02*
X105290857Y-94696714D01*
X105290857Y-94696714D02*
X105338476Y-94791952D01*
X105338476Y-94791952D02*
X105386095Y-94839571D01*
X105386095Y-94839571D02*
X105481333Y-94887190D01*
X105481333Y-94887190D02*
X105862285Y-94887190D01*
X104338476Y-95363380D02*
X104909904Y-95363380D01*
X104624190Y-95363380D02*
X104624190Y-94363380D01*
X104624190Y-94363380D02*
X104719428Y-94506238D01*
X104719428Y-94506238D02*
X104814666Y-94601476D01*
X104814666Y-94601476D02*
X104909904Y-94649095D01*
X104005142Y-94363380D02*
X103338476Y-94363380D01*
X103338476Y-94363380D02*
X103767047Y-95363380D01*
%TO.C,D8*%
X111873380Y-103147905D02*
X110873380Y-103147905D01*
X110873380Y-103147905D02*
X110873380Y-103386000D01*
X110873380Y-103386000D02*
X110921000Y-103528857D01*
X110921000Y-103528857D02*
X111016238Y-103624095D01*
X111016238Y-103624095D02*
X111111476Y-103671714D01*
X111111476Y-103671714D02*
X111301952Y-103719333D01*
X111301952Y-103719333D02*
X111444809Y-103719333D01*
X111444809Y-103719333D02*
X111635285Y-103671714D01*
X111635285Y-103671714D02*
X111730523Y-103624095D01*
X111730523Y-103624095D02*
X111825761Y-103528857D01*
X111825761Y-103528857D02*
X111873380Y-103386000D01*
X111873380Y-103386000D02*
X111873380Y-103147905D01*
X111301952Y-104290762D02*
X111254333Y-104195524D01*
X111254333Y-104195524D02*
X111206714Y-104147905D01*
X111206714Y-104147905D02*
X111111476Y-104100286D01*
X111111476Y-104100286D02*
X111063857Y-104100286D01*
X111063857Y-104100286D02*
X110968619Y-104147905D01*
X110968619Y-104147905D02*
X110921000Y-104195524D01*
X110921000Y-104195524D02*
X110873380Y-104290762D01*
X110873380Y-104290762D02*
X110873380Y-104481238D01*
X110873380Y-104481238D02*
X110921000Y-104576476D01*
X110921000Y-104576476D02*
X110968619Y-104624095D01*
X110968619Y-104624095D02*
X111063857Y-104671714D01*
X111063857Y-104671714D02*
X111111476Y-104671714D01*
X111111476Y-104671714D02*
X111206714Y-104624095D01*
X111206714Y-104624095D02*
X111254333Y-104576476D01*
X111254333Y-104576476D02*
X111301952Y-104481238D01*
X111301952Y-104481238D02*
X111301952Y-104290762D01*
X111301952Y-104290762D02*
X111349571Y-104195524D01*
X111349571Y-104195524D02*
X111397190Y-104147905D01*
X111397190Y-104147905D02*
X111492428Y-104100286D01*
X111492428Y-104100286D02*
X111682904Y-104100286D01*
X111682904Y-104100286D02*
X111778142Y-104147905D01*
X111778142Y-104147905D02*
X111825761Y-104195524D01*
X111825761Y-104195524D02*
X111873380Y-104290762D01*
X111873380Y-104290762D02*
X111873380Y-104481238D01*
X111873380Y-104481238D02*
X111825761Y-104576476D01*
X111825761Y-104576476D02*
X111778142Y-104624095D01*
X111778142Y-104624095D02*
X111682904Y-104671714D01*
X111682904Y-104671714D02*
X111492428Y-104671714D01*
X111492428Y-104671714D02*
X111397190Y-104624095D01*
X111397190Y-104624095D02*
X111349571Y-104576476D01*
X111349571Y-104576476D02*
X111301952Y-104481238D01*
%TO.C,R9*%
X128797380Y-101179333D02*
X128321190Y-100846000D01*
X128797380Y-100607905D02*
X127797380Y-100607905D01*
X127797380Y-100607905D02*
X127797380Y-100988857D01*
X127797380Y-100988857D02*
X127845000Y-101084095D01*
X127845000Y-101084095D02*
X127892619Y-101131714D01*
X127892619Y-101131714D02*
X127987857Y-101179333D01*
X127987857Y-101179333D02*
X128130714Y-101179333D01*
X128130714Y-101179333D02*
X128225952Y-101131714D01*
X128225952Y-101131714D02*
X128273571Y-101084095D01*
X128273571Y-101084095D02*
X128321190Y-100988857D01*
X128321190Y-100988857D02*
X128321190Y-100607905D01*
X128797380Y-101655524D02*
X128797380Y-101846000D01*
X128797380Y-101846000D02*
X128749761Y-101941238D01*
X128749761Y-101941238D02*
X128702142Y-101988857D01*
X128702142Y-101988857D02*
X128559285Y-102084095D01*
X128559285Y-102084095D02*
X128368809Y-102131714D01*
X128368809Y-102131714D02*
X127987857Y-102131714D01*
X127987857Y-102131714D02*
X127892619Y-102084095D01*
X127892619Y-102084095D02*
X127845000Y-102036476D01*
X127845000Y-102036476D02*
X127797380Y-101941238D01*
X127797380Y-101941238D02*
X127797380Y-101750762D01*
X127797380Y-101750762D02*
X127845000Y-101655524D01*
X127845000Y-101655524D02*
X127892619Y-101607905D01*
X127892619Y-101607905D02*
X127987857Y-101560286D01*
X127987857Y-101560286D02*
X128225952Y-101560286D01*
X128225952Y-101560286D02*
X128321190Y-101607905D01*
X128321190Y-101607905D02*
X128368809Y-101655524D01*
X128368809Y-101655524D02*
X128416428Y-101750762D01*
X128416428Y-101750762D02*
X128416428Y-101941238D01*
X128416428Y-101941238D02*
X128368809Y-102036476D01*
X128368809Y-102036476D02*
X128321190Y-102084095D01*
X128321190Y-102084095D02*
X128225952Y-102131714D01*
%TO.C,R5*%
X114159380Y-98893333D02*
X113683190Y-98560000D01*
X114159380Y-98321905D02*
X113159380Y-98321905D01*
X113159380Y-98321905D02*
X113159380Y-98702857D01*
X113159380Y-98702857D02*
X113207000Y-98798095D01*
X113207000Y-98798095D02*
X113254619Y-98845714D01*
X113254619Y-98845714D02*
X113349857Y-98893333D01*
X113349857Y-98893333D02*
X113492714Y-98893333D01*
X113492714Y-98893333D02*
X113587952Y-98845714D01*
X113587952Y-98845714D02*
X113635571Y-98798095D01*
X113635571Y-98798095D02*
X113683190Y-98702857D01*
X113683190Y-98702857D02*
X113683190Y-98321905D01*
X113159380Y-99798095D02*
X113159380Y-99321905D01*
X113159380Y-99321905D02*
X113635571Y-99274286D01*
X113635571Y-99274286D02*
X113587952Y-99321905D01*
X113587952Y-99321905D02*
X113540333Y-99417143D01*
X113540333Y-99417143D02*
X113540333Y-99655238D01*
X113540333Y-99655238D02*
X113587952Y-99750476D01*
X113587952Y-99750476D02*
X113635571Y-99798095D01*
X113635571Y-99798095D02*
X113730809Y-99845714D01*
X113730809Y-99845714D02*
X113968904Y-99845714D01*
X113968904Y-99845714D02*
X114064142Y-99798095D01*
X114064142Y-99798095D02*
X114111761Y-99750476D01*
X114111761Y-99750476D02*
X114159380Y-99655238D01*
X114159380Y-99655238D02*
X114159380Y-99417143D01*
X114159380Y-99417143D02*
X114111761Y-99321905D01*
X114111761Y-99321905D02*
X114064142Y-99274286D01*
%TO.C,R25*%
X125102857Y-101873380D02*
X125436190Y-101397190D01*
X125674285Y-101873380D02*
X125674285Y-100873380D01*
X125674285Y-100873380D02*
X125293333Y-100873380D01*
X125293333Y-100873380D02*
X125198095Y-100921000D01*
X125198095Y-100921000D02*
X125150476Y-100968619D01*
X125150476Y-100968619D02*
X125102857Y-101063857D01*
X125102857Y-101063857D02*
X125102857Y-101206714D01*
X125102857Y-101206714D02*
X125150476Y-101301952D01*
X125150476Y-101301952D02*
X125198095Y-101349571D01*
X125198095Y-101349571D02*
X125293333Y-101397190D01*
X125293333Y-101397190D02*
X125674285Y-101397190D01*
X124721904Y-100968619D02*
X124674285Y-100921000D01*
X124674285Y-100921000D02*
X124579047Y-100873380D01*
X124579047Y-100873380D02*
X124340952Y-100873380D01*
X124340952Y-100873380D02*
X124245714Y-100921000D01*
X124245714Y-100921000D02*
X124198095Y-100968619D01*
X124198095Y-100968619D02*
X124150476Y-101063857D01*
X124150476Y-101063857D02*
X124150476Y-101159095D01*
X124150476Y-101159095D02*
X124198095Y-101301952D01*
X124198095Y-101301952D02*
X124769523Y-101873380D01*
X124769523Y-101873380D02*
X124150476Y-101873380D01*
X123245714Y-100873380D02*
X123721904Y-100873380D01*
X123721904Y-100873380D02*
X123769523Y-101349571D01*
X123769523Y-101349571D02*
X123721904Y-101301952D01*
X123721904Y-101301952D02*
X123626666Y-101254333D01*
X123626666Y-101254333D02*
X123388571Y-101254333D01*
X123388571Y-101254333D02*
X123293333Y-101301952D01*
X123293333Y-101301952D02*
X123245714Y-101349571D01*
X123245714Y-101349571D02*
X123198095Y-101444809D01*
X123198095Y-101444809D02*
X123198095Y-101682904D01*
X123198095Y-101682904D02*
X123245714Y-101778142D01*
X123245714Y-101778142D02*
X123293333Y-101825761D01*
X123293333Y-101825761D02*
X123388571Y-101873380D01*
X123388571Y-101873380D02*
X123626666Y-101873380D01*
X123626666Y-101873380D02*
X123721904Y-101825761D01*
X123721904Y-101825761D02*
X123769523Y-101778142D01*
%TO.C,R16*%
X120784857Y-101459380D02*
X121118190Y-100983190D01*
X121356285Y-101459380D02*
X121356285Y-100459380D01*
X121356285Y-100459380D02*
X120975333Y-100459380D01*
X120975333Y-100459380D02*
X120880095Y-100507000D01*
X120880095Y-100507000D02*
X120832476Y-100554619D01*
X120832476Y-100554619D02*
X120784857Y-100649857D01*
X120784857Y-100649857D02*
X120784857Y-100792714D01*
X120784857Y-100792714D02*
X120832476Y-100887952D01*
X120832476Y-100887952D02*
X120880095Y-100935571D01*
X120880095Y-100935571D02*
X120975333Y-100983190D01*
X120975333Y-100983190D02*
X121356285Y-100983190D01*
X119832476Y-101459380D02*
X120403904Y-101459380D01*
X120118190Y-101459380D02*
X120118190Y-100459380D01*
X120118190Y-100459380D02*
X120213428Y-100602238D01*
X120213428Y-100602238D02*
X120308666Y-100697476D01*
X120308666Y-100697476D02*
X120403904Y-100745095D01*
X118975333Y-100459380D02*
X119165809Y-100459380D01*
X119165809Y-100459380D02*
X119261047Y-100507000D01*
X119261047Y-100507000D02*
X119308666Y-100554619D01*
X119308666Y-100554619D02*
X119403904Y-100697476D01*
X119403904Y-100697476D02*
X119451523Y-100887952D01*
X119451523Y-100887952D02*
X119451523Y-101268904D01*
X119451523Y-101268904D02*
X119403904Y-101364142D01*
X119403904Y-101364142D02*
X119356285Y-101411761D01*
X119356285Y-101411761D02*
X119261047Y-101459380D01*
X119261047Y-101459380D02*
X119070571Y-101459380D01*
X119070571Y-101459380D02*
X118975333Y-101411761D01*
X118975333Y-101411761D02*
X118927714Y-101364142D01*
X118927714Y-101364142D02*
X118880095Y-101268904D01*
X118880095Y-101268904D02*
X118880095Y-101030809D01*
X118880095Y-101030809D02*
X118927714Y-100935571D01*
X118927714Y-100935571D02*
X118975333Y-100887952D01*
X118975333Y-100887952D02*
X119070571Y-100840333D01*
X119070571Y-100840333D02*
X119261047Y-100840333D01*
X119261047Y-100840333D02*
X119356285Y-100887952D01*
X119356285Y-100887952D02*
X119403904Y-100935571D01*
X119403904Y-100935571D02*
X119451523Y-101030809D01*
%TO.C,C3*%
X116752666Y-109238142D02*
X116800285Y-109285761D01*
X116800285Y-109285761D02*
X116943142Y-109333380D01*
X116943142Y-109333380D02*
X117038380Y-109333380D01*
X117038380Y-109333380D02*
X117181237Y-109285761D01*
X117181237Y-109285761D02*
X117276475Y-109190523D01*
X117276475Y-109190523D02*
X117324094Y-109095285D01*
X117324094Y-109095285D02*
X117371713Y-108904809D01*
X117371713Y-108904809D02*
X117371713Y-108761952D01*
X117371713Y-108761952D02*
X117324094Y-108571476D01*
X117324094Y-108571476D02*
X117276475Y-108476238D01*
X117276475Y-108476238D02*
X117181237Y-108381000D01*
X117181237Y-108381000D02*
X117038380Y-108333380D01*
X117038380Y-108333380D02*
X116943142Y-108333380D01*
X116943142Y-108333380D02*
X116800285Y-108381000D01*
X116800285Y-108381000D02*
X116752666Y-108428619D01*
X116419332Y-108333380D02*
X115800285Y-108333380D01*
X115800285Y-108333380D02*
X116133618Y-108714333D01*
X116133618Y-108714333D02*
X115990761Y-108714333D01*
X115990761Y-108714333D02*
X115895523Y-108761952D01*
X115895523Y-108761952D02*
X115847904Y-108809571D01*
X115847904Y-108809571D02*
X115800285Y-108904809D01*
X115800285Y-108904809D02*
X115800285Y-109142904D01*
X115800285Y-109142904D02*
X115847904Y-109238142D01*
X115847904Y-109238142D02*
X115895523Y-109285761D01*
X115895523Y-109285761D02*
X115990761Y-109333380D01*
X115990761Y-109333380D02*
X116276475Y-109333380D01*
X116276475Y-109333380D02*
X116371713Y-109285761D01*
X116371713Y-109285761D02*
X116419332Y-109238142D01*
%TO.C,R20*%
X131431380Y-94099142D02*
X130955190Y-93765809D01*
X131431380Y-93527714D02*
X130431380Y-93527714D01*
X130431380Y-93527714D02*
X130431380Y-93908666D01*
X130431380Y-93908666D02*
X130479000Y-94003904D01*
X130479000Y-94003904D02*
X130526619Y-94051523D01*
X130526619Y-94051523D02*
X130621857Y-94099142D01*
X130621857Y-94099142D02*
X130764714Y-94099142D01*
X130764714Y-94099142D02*
X130859952Y-94051523D01*
X130859952Y-94051523D02*
X130907571Y-94003904D01*
X130907571Y-94003904D02*
X130955190Y-93908666D01*
X130955190Y-93908666D02*
X130955190Y-93527714D01*
X130526619Y-94480095D02*
X130479000Y-94527714D01*
X130479000Y-94527714D02*
X130431380Y-94622952D01*
X130431380Y-94622952D02*
X130431380Y-94861047D01*
X130431380Y-94861047D02*
X130479000Y-94956285D01*
X130479000Y-94956285D02*
X130526619Y-95003904D01*
X130526619Y-95003904D02*
X130621857Y-95051523D01*
X130621857Y-95051523D02*
X130717095Y-95051523D01*
X130717095Y-95051523D02*
X130859952Y-95003904D01*
X130859952Y-95003904D02*
X131431380Y-94432476D01*
X131431380Y-94432476D02*
X131431380Y-95051523D01*
X130431380Y-95670571D02*
X130431380Y-95765809D01*
X130431380Y-95765809D02*
X130479000Y-95861047D01*
X130479000Y-95861047D02*
X130526619Y-95908666D01*
X130526619Y-95908666D02*
X130621857Y-95956285D01*
X130621857Y-95956285D02*
X130812333Y-96003904D01*
X130812333Y-96003904D02*
X131050428Y-96003904D01*
X131050428Y-96003904D02*
X131240904Y-95956285D01*
X131240904Y-95956285D02*
X131336142Y-95908666D01*
X131336142Y-95908666D02*
X131383761Y-95861047D01*
X131383761Y-95861047D02*
X131431380Y-95765809D01*
X131431380Y-95765809D02*
X131431380Y-95670571D01*
X131431380Y-95670571D02*
X131383761Y-95575333D01*
X131383761Y-95575333D02*
X131336142Y-95527714D01*
X131336142Y-95527714D02*
X131240904Y-95480095D01*
X131240904Y-95480095D02*
X131050428Y-95432476D01*
X131050428Y-95432476D02*
X130812333Y-95432476D01*
X130812333Y-95432476D02*
X130621857Y-95480095D01*
X130621857Y-95480095D02*
X130526619Y-95527714D01*
X130526619Y-95527714D02*
X130479000Y-95575333D01*
X130479000Y-95575333D02*
X130431380Y-95670571D01*
%TO.C,R21*%
X112402857Y-91553380D02*
X112736190Y-91077190D01*
X112974285Y-91553380D02*
X112974285Y-90553380D01*
X112974285Y-90553380D02*
X112593333Y-90553380D01*
X112593333Y-90553380D02*
X112498095Y-90601000D01*
X112498095Y-90601000D02*
X112450476Y-90648619D01*
X112450476Y-90648619D02*
X112402857Y-90743857D01*
X112402857Y-90743857D02*
X112402857Y-90886714D01*
X112402857Y-90886714D02*
X112450476Y-90981952D01*
X112450476Y-90981952D02*
X112498095Y-91029571D01*
X112498095Y-91029571D02*
X112593333Y-91077190D01*
X112593333Y-91077190D02*
X112974285Y-91077190D01*
X112021904Y-90648619D02*
X111974285Y-90601000D01*
X111974285Y-90601000D02*
X111879047Y-90553380D01*
X111879047Y-90553380D02*
X111640952Y-90553380D01*
X111640952Y-90553380D02*
X111545714Y-90601000D01*
X111545714Y-90601000D02*
X111498095Y-90648619D01*
X111498095Y-90648619D02*
X111450476Y-90743857D01*
X111450476Y-90743857D02*
X111450476Y-90839095D01*
X111450476Y-90839095D02*
X111498095Y-90981952D01*
X111498095Y-90981952D02*
X112069523Y-91553380D01*
X112069523Y-91553380D02*
X111450476Y-91553380D01*
X110498095Y-91553380D02*
X111069523Y-91553380D01*
X110783809Y-91553380D02*
X110783809Y-90553380D01*
X110783809Y-90553380D02*
X110879047Y-90696238D01*
X110879047Y-90696238D02*
X110974285Y-90791476D01*
X110974285Y-90791476D02*
X111069523Y-90839095D01*
%TO.C,R18*%
X105290857Y-101459380D02*
X105624190Y-100983190D01*
X105862285Y-101459380D02*
X105862285Y-100459380D01*
X105862285Y-100459380D02*
X105481333Y-100459380D01*
X105481333Y-100459380D02*
X105386095Y-100507000D01*
X105386095Y-100507000D02*
X105338476Y-100554619D01*
X105338476Y-100554619D02*
X105290857Y-100649857D01*
X105290857Y-100649857D02*
X105290857Y-100792714D01*
X105290857Y-100792714D02*
X105338476Y-100887952D01*
X105338476Y-100887952D02*
X105386095Y-100935571D01*
X105386095Y-100935571D02*
X105481333Y-100983190D01*
X105481333Y-100983190D02*
X105862285Y-100983190D01*
X104338476Y-101459380D02*
X104909904Y-101459380D01*
X104624190Y-101459380D02*
X104624190Y-100459380D01*
X104624190Y-100459380D02*
X104719428Y-100602238D01*
X104719428Y-100602238D02*
X104814666Y-100697476D01*
X104814666Y-100697476D02*
X104909904Y-100745095D01*
X103767047Y-100887952D02*
X103862285Y-100840333D01*
X103862285Y-100840333D02*
X103909904Y-100792714D01*
X103909904Y-100792714D02*
X103957523Y-100697476D01*
X103957523Y-100697476D02*
X103957523Y-100649857D01*
X103957523Y-100649857D02*
X103909904Y-100554619D01*
X103909904Y-100554619D02*
X103862285Y-100507000D01*
X103862285Y-100507000D02*
X103767047Y-100459380D01*
X103767047Y-100459380D02*
X103576571Y-100459380D01*
X103576571Y-100459380D02*
X103481333Y-100507000D01*
X103481333Y-100507000D02*
X103433714Y-100554619D01*
X103433714Y-100554619D02*
X103386095Y-100649857D01*
X103386095Y-100649857D02*
X103386095Y-100697476D01*
X103386095Y-100697476D02*
X103433714Y-100792714D01*
X103433714Y-100792714D02*
X103481333Y-100840333D01*
X103481333Y-100840333D02*
X103576571Y-100887952D01*
X103576571Y-100887952D02*
X103767047Y-100887952D01*
X103767047Y-100887952D02*
X103862285Y-100935571D01*
X103862285Y-100935571D02*
X103909904Y-100983190D01*
X103909904Y-100983190D02*
X103957523Y-101078428D01*
X103957523Y-101078428D02*
X103957523Y-101268904D01*
X103957523Y-101268904D02*
X103909904Y-101364142D01*
X103909904Y-101364142D02*
X103862285Y-101411761D01*
X103862285Y-101411761D02*
X103767047Y-101459380D01*
X103767047Y-101459380D02*
X103576571Y-101459380D01*
X103576571Y-101459380D02*
X103481333Y-101411761D01*
X103481333Y-101411761D02*
X103433714Y-101364142D01*
X103433714Y-101364142D02*
X103386095Y-101268904D01*
X103386095Y-101268904D02*
X103386095Y-101078428D01*
X103386095Y-101078428D02*
X103433714Y-100983190D01*
X103433714Y-100983190D02*
X103481333Y-100935571D01*
X103481333Y-100935571D02*
X103576571Y-100887952D01*
%TO.C,R19*%
X128658857Y-92061380D02*
X128992190Y-91585190D01*
X129230285Y-92061380D02*
X129230285Y-91061380D01*
X129230285Y-91061380D02*
X128849333Y-91061380D01*
X128849333Y-91061380D02*
X128754095Y-91109000D01*
X128754095Y-91109000D02*
X128706476Y-91156619D01*
X128706476Y-91156619D02*
X128658857Y-91251857D01*
X128658857Y-91251857D02*
X128658857Y-91394714D01*
X128658857Y-91394714D02*
X128706476Y-91489952D01*
X128706476Y-91489952D02*
X128754095Y-91537571D01*
X128754095Y-91537571D02*
X128849333Y-91585190D01*
X128849333Y-91585190D02*
X129230285Y-91585190D01*
X127706476Y-92061380D02*
X128277904Y-92061380D01*
X127992190Y-92061380D02*
X127992190Y-91061380D01*
X127992190Y-91061380D02*
X128087428Y-91204238D01*
X128087428Y-91204238D02*
X128182666Y-91299476D01*
X128182666Y-91299476D02*
X128277904Y-91347095D01*
X127230285Y-92061380D02*
X127039809Y-92061380D01*
X127039809Y-92061380D02*
X126944571Y-92013761D01*
X126944571Y-92013761D02*
X126896952Y-91966142D01*
X126896952Y-91966142D02*
X126801714Y-91823285D01*
X126801714Y-91823285D02*
X126754095Y-91632809D01*
X126754095Y-91632809D02*
X126754095Y-91251857D01*
X126754095Y-91251857D02*
X126801714Y-91156619D01*
X126801714Y-91156619D02*
X126849333Y-91109000D01*
X126849333Y-91109000D02*
X126944571Y-91061380D01*
X126944571Y-91061380D02*
X127135047Y-91061380D01*
X127135047Y-91061380D02*
X127230285Y-91109000D01*
X127230285Y-91109000D02*
X127277904Y-91156619D01*
X127277904Y-91156619D02*
X127325523Y-91251857D01*
X127325523Y-91251857D02*
X127325523Y-91489952D01*
X127325523Y-91489952D02*
X127277904Y-91585190D01*
X127277904Y-91585190D02*
X127230285Y-91632809D01*
X127230285Y-91632809D02*
X127135047Y-91680428D01*
X127135047Y-91680428D02*
X126944571Y-91680428D01*
X126944571Y-91680428D02*
X126849333Y-91632809D01*
X126849333Y-91632809D02*
X126801714Y-91585190D01*
X126801714Y-91585190D02*
X126754095Y-91489952D01*
%TO.C,R24*%
X108846857Y-92917380D02*
X109180190Y-92441190D01*
X109418285Y-92917380D02*
X109418285Y-91917380D01*
X109418285Y-91917380D02*
X109037333Y-91917380D01*
X109037333Y-91917380D02*
X108942095Y-91965000D01*
X108942095Y-91965000D02*
X108894476Y-92012619D01*
X108894476Y-92012619D02*
X108846857Y-92107857D01*
X108846857Y-92107857D02*
X108846857Y-92250714D01*
X108846857Y-92250714D02*
X108894476Y-92345952D01*
X108894476Y-92345952D02*
X108942095Y-92393571D01*
X108942095Y-92393571D02*
X109037333Y-92441190D01*
X109037333Y-92441190D02*
X109418285Y-92441190D01*
X108465904Y-92012619D02*
X108418285Y-91965000D01*
X108418285Y-91965000D02*
X108323047Y-91917380D01*
X108323047Y-91917380D02*
X108084952Y-91917380D01*
X108084952Y-91917380D02*
X107989714Y-91965000D01*
X107989714Y-91965000D02*
X107942095Y-92012619D01*
X107942095Y-92012619D02*
X107894476Y-92107857D01*
X107894476Y-92107857D02*
X107894476Y-92203095D01*
X107894476Y-92203095D02*
X107942095Y-92345952D01*
X107942095Y-92345952D02*
X108513523Y-92917380D01*
X108513523Y-92917380D02*
X107894476Y-92917380D01*
X107037333Y-92250714D02*
X107037333Y-92917380D01*
X107275428Y-91869761D02*
X107513523Y-92584047D01*
X107513523Y-92584047D02*
X106894476Y-92584047D01*
%TO.C,R15*%
X120784857Y-96633380D02*
X121118190Y-96157190D01*
X121356285Y-96633380D02*
X121356285Y-95633380D01*
X121356285Y-95633380D02*
X120975333Y-95633380D01*
X120975333Y-95633380D02*
X120880095Y-95681000D01*
X120880095Y-95681000D02*
X120832476Y-95728619D01*
X120832476Y-95728619D02*
X120784857Y-95823857D01*
X120784857Y-95823857D02*
X120784857Y-95966714D01*
X120784857Y-95966714D02*
X120832476Y-96061952D01*
X120832476Y-96061952D02*
X120880095Y-96109571D01*
X120880095Y-96109571D02*
X120975333Y-96157190D01*
X120975333Y-96157190D02*
X121356285Y-96157190D01*
X119832476Y-96633380D02*
X120403904Y-96633380D01*
X120118190Y-96633380D02*
X120118190Y-95633380D01*
X120118190Y-95633380D02*
X120213428Y-95776238D01*
X120213428Y-95776238D02*
X120308666Y-95871476D01*
X120308666Y-95871476D02*
X120403904Y-95919095D01*
X118927714Y-95633380D02*
X119403904Y-95633380D01*
X119403904Y-95633380D02*
X119451523Y-96109571D01*
X119451523Y-96109571D02*
X119403904Y-96061952D01*
X119403904Y-96061952D02*
X119308666Y-96014333D01*
X119308666Y-96014333D02*
X119070571Y-96014333D01*
X119070571Y-96014333D02*
X118975333Y-96061952D01*
X118975333Y-96061952D02*
X118927714Y-96109571D01*
X118927714Y-96109571D02*
X118880095Y-96204809D01*
X118880095Y-96204809D02*
X118880095Y-96442904D01*
X118880095Y-96442904D02*
X118927714Y-96538142D01*
X118927714Y-96538142D02*
X118975333Y-96585761D01*
X118975333Y-96585761D02*
X119070571Y-96633380D01*
X119070571Y-96633380D02*
X119308666Y-96633380D01*
X119308666Y-96633380D02*
X119403904Y-96585761D01*
X119403904Y-96585761D02*
X119451523Y-96538142D01*
%TO.C,R8*%
X123971380Y-104227333D02*
X123495190Y-103894000D01*
X123971380Y-103655905D02*
X122971380Y-103655905D01*
X122971380Y-103655905D02*
X122971380Y-104036857D01*
X122971380Y-104036857D02*
X123019000Y-104132095D01*
X123019000Y-104132095D02*
X123066619Y-104179714D01*
X123066619Y-104179714D02*
X123161857Y-104227333D01*
X123161857Y-104227333D02*
X123304714Y-104227333D01*
X123304714Y-104227333D02*
X123399952Y-104179714D01*
X123399952Y-104179714D02*
X123447571Y-104132095D01*
X123447571Y-104132095D02*
X123495190Y-104036857D01*
X123495190Y-104036857D02*
X123495190Y-103655905D01*
X123399952Y-104798762D02*
X123352333Y-104703524D01*
X123352333Y-104703524D02*
X123304714Y-104655905D01*
X123304714Y-104655905D02*
X123209476Y-104608286D01*
X123209476Y-104608286D02*
X123161857Y-104608286D01*
X123161857Y-104608286D02*
X123066619Y-104655905D01*
X123066619Y-104655905D02*
X123019000Y-104703524D01*
X123019000Y-104703524D02*
X122971380Y-104798762D01*
X122971380Y-104798762D02*
X122971380Y-104989238D01*
X122971380Y-104989238D02*
X123019000Y-105084476D01*
X123019000Y-105084476D02*
X123066619Y-105132095D01*
X123066619Y-105132095D02*
X123161857Y-105179714D01*
X123161857Y-105179714D02*
X123209476Y-105179714D01*
X123209476Y-105179714D02*
X123304714Y-105132095D01*
X123304714Y-105132095D02*
X123352333Y-105084476D01*
X123352333Y-105084476D02*
X123399952Y-104989238D01*
X123399952Y-104989238D02*
X123399952Y-104798762D01*
X123399952Y-104798762D02*
X123447571Y-104703524D01*
X123447571Y-104703524D02*
X123495190Y-104655905D01*
X123495190Y-104655905D02*
X123590428Y-104608286D01*
X123590428Y-104608286D02*
X123780904Y-104608286D01*
X123780904Y-104608286D02*
X123876142Y-104655905D01*
X123876142Y-104655905D02*
X123923761Y-104703524D01*
X123923761Y-104703524D02*
X123971380Y-104798762D01*
X123971380Y-104798762D02*
X123971380Y-104989238D01*
X123971380Y-104989238D02*
X123923761Y-105084476D01*
X123923761Y-105084476D02*
X123876142Y-105132095D01*
X123876142Y-105132095D02*
X123780904Y-105179714D01*
X123780904Y-105179714D02*
X123590428Y-105179714D01*
X123590428Y-105179714D02*
X123495190Y-105132095D01*
X123495190Y-105132095D02*
X123447571Y-105084476D01*
X123447571Y-105084476D02*
X123399952Y-104989238D01*
%TO.C,R4*%
X117006666Y-87583380D02*
X117339999Y-87107190D01*
X117578094Y-87583380D02*
X117578094Y-86583380D01*
X117578094Y-86583380D02*
X117197142Y-86583380D01*
X117197142Y-86583380D02*
X117101904Y-86631000D01*
X117101904Y-86631000D02*
X117054285Y-86678619D01*
X117054285Y-86678619D02*
X117006666Y-86773857D01*
X117006666Y-86773857D02*
X117006666Y-86916714D01*
X117006666Y-86916714D02*
X117054285Y-87011952D01*
X117054285Y-87011952D02*
X117101904Y-87059571D01*
X117101904Y-87059571D02*
X117197142Y-87107190D01*
X117197142Y-87107190D02*
X117578094Y-87107190D01*
X116149523Y-86916714D02*
X116149523Y-87583380D01*
X116387618Y-86535761D02*
X116625713Y-87250047D01*
X116625713Y-87250047D02*
X116006666Y-87250047D01*
%TO.C,U2*%
X109971380Y-96774095D02*
X110780904Y-96774095D01*
X110780904Y-96774095D02*
X110876142Y-96821714D01*
X110876142Y-96821714D02*
X110923761Y-96869333D01*
X110923761Y-96869333D02*
X110971380Y-96964571D01*
X110971380Y-96964571D02*
X110971380Y-97155047D01*
X110971380Y-97155047D02*
X110923761Y-97250285D01*
X110923761Y-97250285D02*
X110876142Y-97297904D01*
X110876142Y-97297904D02*
X110780904Y-97345523D01*
X110780904Y-97345523D02*
X109971380Y-97345523D01*
X110066619Y-97774095D02*
X110019000Y-97821714D01*
X110019000Y-97821714D02*
X109971380Y-97916952D01*
X109971380Y-97916952D02*
X109971380Y-98155047D01*
X109971380Y-98155047D02*
X110019000Y-98250285D01*
X110019000Y-98250285D02*
X110066619Y-98297904D01*
X110066619Y-98297904D02*
X110161857Y-98345523D01*
X110161857Y-98345523D02*
X110257095Y-98345523D01*
X110257095Y-98345523D02*
X110399952Y-98297904D01*
X110399952Y-98297904D02*
X110971380Y-97726476D01*
X110971380Y-97726476D02*
X110971380Y-98345523D01*
%TO.C,D6*%
X122033380Y-104163905D02*
X121033380Y-104163905D01*
X121033380Y-104163905D02*
X121033380Y-104402000D01*
X121033380Y-104402000D02*
X121081000Y-104544857D01*
X121081000Y-104544857D02*
X121176238Y-104640095D01*
X121176238Y-104640095D02*
X121271476Y-104687714D01*
X121271476Y-104687714D02*
X121461952Y-104735333D01*
X121461952Y-104735333D02*
X121604809Y-104735333D01*
X121604809Y-104735333D02*
X121795285Y-104687714D01*
X121795285Y-104687714D02*
X121890523Y-104640095D01*
X121890523Y-104640095D02*
X121985761Y-104544857D01*
X121985761Y-104544857D02*
X122033380Y-104402000D01*
X122033380Y-104402000D02*
X122033380Y-104163905D01*
X121033380Y-105592476D02*
X121033380Y-105402000D01*
X121033380Y-105402000D02*
X121081000Y-105306762D01*
X121081000Y-105306762D02*
X121128619Y-105259143D01*
X121128619Y-105259143D02*
X121271476Y-105163905D01*
X121271476Y-105163905D02*
X121461952Y-105116286D01*
X121461952Y-105116286D02*
X121842904Y-105116286D01*
X121842904Y-105116286D02*
X121938142Y-105163905D01*
X121938142Y-105163905D02*
X121985761Y-105211524D01*
X121985761Y-105211524D02*
X122033380Y-105306762D01*
X122033380Y-105306762D02*
X122033380Y-105497238D01*
X122033380Y-105497238D02*
X121985761Y-105592476D01*
X121985761Y-105592476D02*
X121938142Y-105640095D01*
X121938142Y-105640095D02*
X121842904Y-105687714D01*
X121842904Y-105687714D02*
X121604809Y-105687714D01*
X121604809Y-105687714D02*
X121509571Y-105640095D01*
X121509571Y-105640095D02*
X121461952Y-105592476D01*
X121461952Y-105592476D02*
X121414333Y-105497238D01*
X121414333Y-105497238D02*
X121414333Y-105306762D01*
X121414333Y-105306762D02*
X121461952Y-105211524D01*
X121461952Y-105211524D02*
X121509571Y-105163905D01*
X121509571Y-105163905D02*
X121604809Y-105116286D01*
%TO.C,R10*%
X109354857Y-108571380D02*
X109688190Y-108095190D01*
X109926285Y-108571380D02*
X109926285Y-107571380D01*
X109926285Y-107571380D02*
X109545333Y-107571380D01*
X109545333Y-107571380D02*
X109450095Y-107619000D01*
X109450095Y-107619000D02*
X109402476Y-107666619D01*
X109402476Y-107666619D02*
X109354857Y-107761857D01*
X109354857Y-107761857D02*
X109354857Y-107904714D01*
X109354857Y-107904714D02*
X109402476Y-107999952D01*
X109402476Y-107999952D02*
X109450095Y-108047571D01*
X109450095Y-108047571D02*
X109545333Y-108095190D01*
X109545333Y-108095190D02*
X109926285Y-108095190D01*
X108402476Y-108571380D02*
X108973904Y-108571380D01*
X108688190Y-108571380D02*
X108688190Y-107571380D01*
X108688190Y-107571380D02*
X108783428Y-107714238D01*
X108783428Y-107714238D02*
X108878666Y-107809476D01*
X108878666Y-107809476D02*
X108973904Y-107857095D01*
X107783428Y-107571380D02*
X107688190Y-107571380D01*
X107688190Y-107571380D02*
X107592952Y-107619000D01*
X107592952Y-107619000D02*
X107545333Y-107666619D01*
X107545333Y-107666619D02*
X107497714Y-107761857D01*
X107497714Y-107761857D02*
X107450095Y-107952333D01*
X107450095Y-107952333D02*
X107450095Y-108190428D01*
X107450095Y-108190428D02*
X107497714Y-108380904D01*
X107497714Y-108380904D02*
X107545333Y-108476142D01*
X107545333Y-108476142D02*
X107592952Y-108523761D01*
X107592952Y-108523761D02*
X107688190Y-108571380D01*
X107688190Y-108571380D02*
X107783428Y-108571380D01*
X107783428Y-108571380D02*
X107878666Y-108523761D01*
X107878666Y-108523761D02*
X107926285Y-108476142D01*
X107926285Y-108476142D02*
X107973904Y-108380904D01*
X107973904Y-108380904D02*
X108021523Y-108190428D01*
X108021523Y-108190428D02*
X108021523Y-107952333D01*
X108021523Y-107952333D02*
X107973904Y-107761857D01*
X107973904Y-107761857D02*
X107926285Y-107666619D01*
X107926285Y-107666619D02*
X107878666Y-107619000D01*
X107878666Y-107619000D02*
X107783428Y-107571380D01*
%TO.C,C4*%
X112434666Y-97681142D02*
X112482285Y-97728761D01*
X112482285Y-97728761D02*
X112625142Y-97776380D01*
X112625142Y-97776380D02*
X112720380Y-97776380D01*
X112720380Y-97776380D02*
X112863237Y-97728761D01*
X112863237Y-97728761D02*
X112958475Y-97633523D01*
X112958475Y-97633523D02*
X113006094Y-97538285D01*
X113006094Y-97538285D02*
X113053713Y-97347809D01*
X113053713Y-97347809D02*
X113053713Y-97204952D01*
X113053713Y-97204952D02*
X113006094Y-97014476D01*
X113006094Y-97014476D02*
X112958475Y-96919238D01*
X112958475Y-96919238D02*
X112863237Y-96824000D01*
X112863237Y-96824000D02*
X112720380Y-96776380D01*
X112720380Y-96776380D02*
X112625142Y-96776380D01*
X112625142Y-96776380D02*
X112482285Y-96824000D01*
X112482285Y-96824000D02*
X112434666Y-96871619D01*
X111577523Y-97109714D02*
X111577523Y-97776380D01*
X111815618Y-96728761D02*
X112053713Y-97443047D01*
X112053713Y-97443047D02*
X111434666Y-97443047D01*
D11*
%TO.C,D9*%
X107469000Y-105371000D02*
X107469000Y-103086000D01*
X108939000Y-105371000D02*
X107469000Y-105371000D01*
X108939000Y-103086000D02*
X108939000Y-105371000D01*
%TO.C,U1*%
X122900000Y-97028000D02*
X122900000Y-97828000D01*
X122900000Y-97028000D02*
X122900000Y-96228000D01*
X126020000Y-97028000D02*
X126020000Y-98828000D01*
X126020000Y-97028000D02*
X126020000Y-96228000D01*
%TO.C,C2*%
X128156580Y-97030000D02*
X127875420Y-97030000D01*
X128156580Y-96010000D02*
X127875420Y-96010000D01*
%TO.C,R22*%
X111997258Y-94756500D02*
X111522742Y-94756500D01*
X111997258Y-93711500D02*
X111522742Y-93711500D01*
%TO.C,J1*%
X123250000Y-115510000D02*
X123250000Y-118170000D01*
X113030000Y-115510000D02*
X123250000Y-115510000D01*
X113030000Y-115510000D02*
X113030000Y-118170000D01*
X110430000Y-116840000D02*
X110430000Y-118170000D01*
X113030000Y-118170000D02*
X123250000Y-118170000D01*
X110430000Y-118170000D02*
X111760000Y-118170000D01*
%TO.C,C1*%
X112768748Y-110009000D02*
X113291252Y-110009000D01*
X112768748Y-111479000D02*
X113291252Y-111479000D01*
%TO.C,D7*%
X117629000Y-105371000D02*
X117629000Y-103086000D01*
X119099000Y-105371000D02*
X117629000Y-105371000D01*
X119099000Y-103086000D02*
X119099000Y-105371000D01*
%TO.C,R26*%
X107966742Y-99553500D02*
X108441258Y-99553500D01*
X107966742Y-100598500D02*
X108441258Y-100598500D01*
%TO.C,R7*%
X116317500Y-101583258D02*
X116317500Y-101108742D01*
X117362500Y-101583258D02*
X117362500Y-101108742D01*
%TO.C,R23*%
X124697258Y-94502500D02*
X124222742Y-94502500D01*
X124697258Y-93457500D02*
X124222742Y-93457500D01*
%TO.C,R17*%
X104885258Y-97804500D02*
X104410742Y-97804500D01*
X104885258Y-96759500D02*
X104410742Y-96759500D01*
%TO.C,D8*%
X109247000Y-105371000D02*
X109247000Y-103086000D01*
X110717000Y-105371000D02*
X109247000Y-105371000D01*
X110717000Y-103086000D02*
X110717000Y-105371000D01*
%TO.C,R9*%
X126477500Y-101583258D02*
X126477500Y-101108742D01*
X127522500Y-101583258D02*
X127522500Y-101108742D01*
%TO.C,R5*%
X112761500Y-101583258D02*
X112761500Y-101108742D01*
X113806500Y-101583258D02*
X113806500Y-101108742D01*
%TO.C,R25*%
X124222742Y-99553500D02*
X124697258Y-99553500D01*
X124222742Y-100598500D02*
X124697258Y-100598500D01*
%TO.C,R16*%
X120732742Y-99178000D02*
X121207258Y-99178000D01*
X120732742Y-100223000D02*
X121207258Y-100223000D01*
%TO.C,C3*%
X112889420Y-108456000D02*
X113170580Y-108456000D01*
X112889420Y-109476000D02*
X113170580Y-109476000D01*
%TO.C,R20*%
X128253258Y-95264500D02*
X127778742Y-95264500D01*
X128253258Y-94219500D02*
X127778742Y-94219500D01*
%TO.C,R21*%
X111522742Y-91933500D02*
X111997258Y-91933500D01*
X111522742Y-92978500D02*
X111997258Y-92978500D01*
%TO.C,R18*%
X104410742Y-98537500D02*
X104885258Y-98537500D01*
X104410742Y-99582500D02*
X104885258Y-99582500D01*
%TO.C,R19*%
X127778742Y-92441500D02*
X128253258Y-92441500D01*
X127778742Y-93486500D02*
X128253258Y-93486500D01*
%TO.C,R24*%
X108441258Y-94502500D02*
X107966742Y-94502500D01*
X108441258Y-93457500D02*
X107966742Y-93457500D01*
%TO.C,R15*%
X121207258Y-98445000D02*
X120732742Y-98445000D01*
X121207258Y-97400000D02*
X120732742Y-97400000D01*
%TO.C,R8*%
X121651500Y-102853258D02*
X121651500Y-102378742D01*
X122696500Y-102853258D02*
X122696500Y-102378742D01*
%TO.C,R4*%
X117077258Y-89168500D02*
X116602742Y-89168500D01*
X117077258Y-88123500D02*
X116602742Y-88123500D01*
%TO.C,U2*%
X106644000Y-97028000D02*
X106644000Y-97828000D01*
X106644000Y-97028000D02*
X106644000Y-96228000D01*
X109764000Y-97028000D02*
X109764000Y-98828000D01*
X109764000Y-97028000D02*
X109764000Y-96228000D01*
%TO.C,D6*%
X119407000Y-105371000D02*
X119407000Y-103086000D01*
X120877000Y-105371000D02*
X119407000Y-105371000D01*
X120877000Y-103086000D02*
X120877000Y-105371000D01*
%TO.C,R10*%
X108949258Y-107202500D02*
X108474742Y-107202500D01*
X108949258Y-106157500D02*
X108474742Y-106157500D01*
%TO.C,C4*%
X111900580Y-96522000D02*
X111619420Y-96522000D01*
X111900580Y-95502000D02*
X111619420Y-95502000D01*
%TD*%
M02*
