%TF.GenerationSoftware,KiCad,Pcbnew,(7.0.0)*%
%TF.CreationDate,2023-03-09T18:05:20+01:00*%
%TF.ProjectId,JoystickAdapter,4a6f7973-7469-4636-9b41-646170746572,1.0*%
%TF.SameCoordinates,Original*%
%TF.FileFunction,Copper,L4,Bot*%
%TF.FilePolarity,Positive*%
%FSLAX46Y46*%
G04 Gerber Fmt 4.6, Leading zero omitted, Abs format (unit mm)*
G04 Created by KiCad (PCBNEW (7.0.0)) date 2023-03-09 18:05:20*
%MOMM*%
%LPD*%
G01*
G04 APERTURE LIST*
G04 Aperture macros list*
%AMRoundRect*
0 Rectangle with rounded corners*
0 $1 Rounding radius*
0 $2 $3 $4 $5 $6 $7 $8 $9 X,Y pos of 4 corners*
0 Add a 4 corners polygon primitive as box body*
4,1,4,$2,$3,$4,$5,$6,$7,$8,$9,$2,$3,0*
0 Add four circle primitives for the rounded corners*
1,1,$1+$1,$2,$3*
1,1,$1+$1,$4,$5*
1,1,$1+$1,$6,$7*
1,1,$1+$1,$8,$9*
0 Add four rect primitives between the rounded corners*
20,1,$1+$1,$2,$3,$4,$5,0*
20,1,$1+$1,$4,$5,$6,$7,0*
20,1,$1+$1,$6,$7,$8,$9,0*
20,1,$1+$1,$8,$9,$2,$3,0*%
G04 Aperture macros list end*
%TA.AperFunction,NonConductor*%
%ADD10C,0.200000*%
%TD*%
%ADD11C,0.150000*%
%TA.AperFunction,NonConductor*%
%ADD12C,0.150000*%
%TD*%
%TA.AperFunction,ComponentPad*%
%ADD13R,1.700000X1.700000*%
%TD*%
%TA.AperFunction,ComponentPad*%
%ADD14O,1.700000X1.700000*%
%TD*%
%TA.AperFunction,SMDPad,CuDef*%
%ADD15RoundRect,0.200000X0.275000X-0.200000X0.275000X0.200000X-0.275000X0.200000X-0.275000X-0.200000X0*%
%TD*%
%TA.AperFunction,SMDPad,CuDef*%
%ADD16RoundRect,0.150000X0.150000X-0.512500X0.150000X0.512500X-0.150000X0.512500X-0.150000X-0.512500X0*%
%TD*%
%TA.AperFunction,SMDPad,CuDef*%
%ADD17RoundRect,0.225000X0.225000X0.250000X-0.225000X0.250000X-0.225000X-0.250000X0.225000X-0.250000X0*%
%TD*%
%TA.AperFunction,SMDPad,CuDef*%
%ADD18RoundRect,0.200000X0.200000X0.275000X-0.200000X0.275000X-0.200000X-0.275000X0.200000X-0.275000X0*%
%TD*%
%TA.AperFunction,SMDPad,CuDef*%
%ADD19RoundRect,0.250000X-0.250000X-0.475000X0.250000X-0.475000X0.250000X0.475000X-0.250000X0.475000X0*%
%TD*%
%TA.AperFunction,SMDPad,CuDef*%
%ADD20RoundRect,0.200000X-0.200000X-0.275000X0.200000X-0.275000X0.200000X0.275000X-0.200000X0.275000X0*%
%TD*%
%TA.AperFunction,SMDPad,CuDef*%
%ADD21RoundRect,0.225000X-0.225000X-0.250000X0.225000X-0.250000X0.225000X0.250000X-0.225000X0.250000X0*%
%TD*%
%TA.AperFunction,ViaPad*%
%ADD22C,0.800000*%
%TD*%
%TA.AperFunction,Conductor*%
%ADD23C,0.800000*%
%TD*%
%TA.AperFunction,Conductor*%
%ADD24C,0.500000*%
%TD*%
%TA.AperFunction,Conductor*%
%ADD25C,0.250000*%
%TD*%
G04 APERTURE END LIST*
D10*
X102870000Y-107950000D02*
X105410000Y-107950000D01*
X104140000Y-106680000D02*
X104140000Y-109220000D01*
D11*
D12*
X129079714Y-105777380D02*
X129555904Y-105777380D01*
X129555904Y-105777380D02*
X129555904Y-104777380D01*
X128317809Y-105110714D02*
X128317809Y-105777380D01*
X128555904Y-104729761D02*
X128793999Y-105444047D01*
X128793999Y-105444047D02*
X128174952Y-105444047D01*
D13*
%TO.P,J2,1,Pin_1*%
%TO.N,/JOY_SANWA_GND*%
X111759999Y-106679999D03*
D14*
%TO.P,J2,2,Pin_2*%
%TO.N,/JOY_SANWA_X_LEFT*%
X114299999Y-106679999D03*
%TO.P,J2,3,Pin_3*%
%TO.N,/JOY_SANWA_X_RIGHT*%
X116839999Y-106679999D03*
%TO.P,J2,4,Pin_4*%
%TO.N,/JOY_SANWA_Y_DOWN*%
X119379999Y-106679999D03*
%TO.P,J2,5,Pin_5*%
%TO.N,/JOY_SANWA_Y_UP*%
X121919999Y-106679999D03*
%TD*%
D13*
%TO.P,J3,1,Pin_1*%
%TO.N,GND*%
X115569999Y-93979999D03*
D14*
%TO.P,J3,2,Pin_2*%
%TO.N,Net-(J3-Pin_2)*%
X118109999Y-93979999D03*
%TD*%
D15*
%TO.P,R13,1*%
%TO.N,/JOY_SANWA_Y_DOWN*%
X109728000Y-104711000D03*
%TO.P,R13,2*%
%TO.N,Net-(R13-Pad2)*%
X109728000Y-103061000D03*
%TD*%
D16*
%TO.P,U1,1*%
%TO.N,Net-(R25-Pad2)*%
X125410000Y-98165500D03*
%TO.P,U1,2,V-*%
%TO.N,GND*%
X124460000Y-98165500D03*
%TO.P,U1,3,+*%
%TO.N,Net-(U1-+)*%
X123510000Y-98165500D03*
%TO.P,U1,4,-*%
%TO.N,Net-(U1--)*%
X123510000Y-95890500D03*
%TO.P,U1,5,V+*%
%TO.N,+5V*%
X125410000Y-95890500D03*
%TD*%
D17*
%TO.P,C2,1*%
%TO.N,GND*%
X128791000Y-96520000D03*
%TO.P,C2,2*%
%TO.N,+5V*%
X127241000Y-96520000D03*
%TD*%
D18*
%TO.P,R22,1*%
%TO.N,GND*%
X112585000Y-94234000D03*
%TO.P,R22,2*%
%TO.N,Net-(R13-Pad2)*%
X110935000Y-94234000D03*
%TD*%
D15*
%TO.P,R11,1*%
%TO.N,/JOY_SANWA_X_LEFT*%
X119888000Y-104711000D03*
%TO.P,R11,2*%
%TO.N,Net-(U1-+)*%
X119888000Y-103061000D03*
%TD*%
D13*
%TO.P,J1,1,Pin_1*%
%TO.N,/JOY_KY023_GND*%
X111759999Y-116839999D03*
D14*
%TO.P,J1,2,Pin_2*%
%TO.N,/JOY_KY023_+5V*%
X114299999Y-116839999D03*
%TO.P,J1,3,Pin_3*%
%TO.N,JOY_KY023_X*%
X116839999Y-116839999D03*
%TO.P,J1,4,Pin_4*%
%TO.N,JOY_KY023_Y*%
X119379999Y-116839999D03*
%TO.P,J1,5,Pin_5*%
%TO.N,JOY_KY023_SW*%
X121919999Y-116839999D03*
%TD*%
D19*
%TO.P,C1,1*%
%TO.N,GND*%
X112080000Y-110744000D03*
%TO.P,C1,2*%
%TO.N,+5V*%
X113980000Y-110744000D03*
%TD*%
D20*
%TO.P,R26,1*%
%TO.N,Net-(U2--)*%
X107379000Y-100076000D03*
%TO.P,R26,2*%
%TO.N,Net-(R26-Pad2)*%
X109029000Y-100076000D03*
%TD*%
D15*
%TO.P,R7,1*%
%TO.N,/JOY_SANWA_X_RIGHT*%
X116840000Y-102171000D03*
%TO.P,R7,2*%
%TO.N,Net-(D3-K)*%
X116840000Y-100521000D03*
%TD*%
D18*
%TO.P,R23,1*%
%TO.N,Net-(R12-Pad2)*%
X125285000Y-93980000D03*
%TO.P,R23,2*%
%TO.N,Net-(U1--)*%
X123635000Y-93980000D03*
%TD*%
%TO.P,R17,1*%
%TO.N,Net-(U2-+)*%
X105473000Y-97282000D03*
%TO.P,R17,2*%
%TO.N,+5V*%
X103823000Y-97282000D03*
%TD*%
D15*
%TO.P,R9,1*%
%TO.N,/JOY_SANWA_Y_UP*%
X127000000Y-102171000D03*
%TO.P,R9,2*%
%TO.N,Net-(D5-K)*%
X127000000Y-100521000D03*
%TD*%
%TO.P,R5,1*%
%TO.N,/JOY_SANWA_X_LEFT*%
X113284000Y-102171000D03*
%TO.P,R5,2*%
%TO.N,Net-(D2-K)*%
X113284000Y-100521000D03*
%TD*%
D20*
%TO.P,R25,1*%
%TO.N,Net-(U1--)*%
X123635000Y-100076000D03*
%TO.P,R25,2*%
%TO.N,Net-(R25-Pad2)*%
X125285000Y-100076000D03*
%TD*%
%TO.P,R16,1*%
%TO.N,GND*%
X120145000Y-99700500D03*
%TO.P,R16,2*%
%TO.N,Net-(U1-+)*%
X121795000Y-99700500D03*
%TD*%
D21*
%TO.P,C3,1*%
%TO.N,GND*%
X112255000Y-108966000D03*
%TO.P,C3,2*%
%TO.N,+5V*%
X113805000Y-108966000D03*
%TD*%
D18*
%TO.P,R20,1*%
%TO.N,GND*%
X128841000Y-94742000D03*
%TO.P,R20,2*%
%TO.N,Net-(R12-Pad2)*%
X127191000Y-94742000D03*
%TD*%
D20*
%TO.P,R21,1*%
%TO.N,Net-(R13-Pad2)*%
X110935000Y-92456000D03*
%TO.P,R21,2*%
%TO.N,+5V*%
X112585000Y-92456000D03*
%TD*%
%TO.P,R18,1*%
%TO.N,GND*%
X103823000Y-99060000D03*
%TO.P,R18,2*%
%TO.N,Net-(U2-+)*%
X105473000Y-99060000D03*
%TD*%
%TO.P,R19,1*%
%TO.N,Net-(R12-Pad2)*%
X127191000Y-92964000D03*
%TO.P,R19,2*%
%TO.N,+5V*%
X128841000Y-92964000D03*
%TD*%
D18*
%TO.P,R24,1*%
%TO.N,Net-(R13-Pad2)*%
X109029000Y-93980000D03*
%TO.P,R24,2*%
%TO.N,Net-(U2--)*%
X107379000Y-93980000D03*
%TD*%
%TO.P,R15,1*%
%TO.N,Net-(U1-+)*%
X121795000Y-97922500D03*
%TO.P,R15,2*%
%TO.N,+5V*%
X120145000Y-97922500D03*
%TD*%
D15*
%TO.P,R8,1*%
%TO.N,/JOY_SANWA_Y_DOWN*%
X122174000Y-103441000D03*
%TO.P,R8,2*%
%TO.N,Net-(D4-K)*%
X122174000Y-101791000D03*
%TD*%
D18*
%TO.P,R4,1*%
%TO.N,Net-(J3-Pin_2)*%
X117665000Y-88646000D03*
%TO.P,R4,2*%
%TO.N,+5V*%
X116015000Y-88646000D03*
%TD*%
D16*
%TO.P,U2,1*%
%TO.N,Net-(R26-Pad2)*%
X109154000Y-98165500D03*
%TO.P,U2,2,V-*%
%TO.N,GND*%
X108204000Y-98165500D03*
%TO.P,U2,3,+*%
%TO.N,Net-(U2-+)*%
X107254000Y-98165500D03*
%TO.P,U2,4,-*%
%TO.N,Net-(U2--)*%
X107254000Y-95890500D03*
%TO.P,U2,5,V+*%
%TO.N,+5V*%
X109154000Y-95890500D03*
%TD*%
D15*
%TO.P,R14,1*%
%TO.N,/JOY_SANWA_Y_UP*%
X108204000Y-104711000D03*
%TO.P,R14,2*%
%TO.N,Net-(U2-+)*%
X108204000Y-103061000D03*
%TD*%
D18*
%TO.P,R10,1*%
%TO.N,/JOY_SANWA_GND*%
X109537000Y-106680000D03*
%TO.P,R10,2*%
%TO.N,GND*%
X107887000Y-106680000D03*
%TD*%
D17*
%TO.P,C4,1*%
%TO.N,GND*%
X112535000Y-96012000D03*
%TO.P,C4,2*%
%TO.N,+5V*%
X110985000Y-96012000D03*
%TD*%
D15*
%TO.P,R12,1*%
%TO.N,/JOY_SANWA_X_RIGHT*%
X118364000Y-104711000D03*
%TO.P,R12,2*%
%TO.N,Net-(R12-Pad2)*%
X118364000Y-103061000D03*
%TD*%
D22*
%TO.N,GND*%
X104604000Y-99888800D03*
X110998000Y-108966000D03*
X108204000Y-96106800D03*
X124460000Y-97028000D03*
X129794000Y-96520000D03*
X119079000Y-100024000D03*
X111252000Y-84836000D03*
X110998000Y-110744000D03*
X112776000Y-113030000D03*
X122428000Y-84836000D03*
X129794000Y-94742000D03*
X113365000Y-95082800D03*
X110744000Y-112268000D03*
X106680000Y-105801000D03*
%TO.N,+5V*%
X110998000Y-98806000D03*
X116840000Y-96266000D03*
X114076000Y-90965000D03*
X115316000Y-112268000D03*
X121920000Y-96266000D03*
X115316000Y-113284000D03*
X127254000Y-99060000D03*
X115062000Y-110744000D03*
X119114000Y-97405000D03*
X115062000Y-108966000D03*
X103824000Y-96012000D03*
X129794000Y-92964000D03*
%TO.N,Net-(D2-K)*%
X111760000Y-101952000D03*
%TO.N,Net-(D3-K)*%
X116840000Y-99185900D03*
%TO.N,Net-(D4-K)*%
X123644000Y-101791000D03*
%TO.N,Net-(D5-K)*%
X128903000Y-99967200D03*
%TO.N,/JOY_SANWA_X_RIGHT*%
X115712000Y-102210000D03*
%TO.N,/JOY_SANWA_X_LEFT*%
X114397400Y-102066000D03*
%TO.N,Net-(R25-Pad2)*%
X123875000Y-102967000D03*
%TO.N,Net-(R26-Pad2)*%
X114966000Y-103564000D03*
%TD*%
D23*
%TO.N,GND*%
X112080000Y-110744000D02*
X110998000Y-110744000D01*
D24*
X112535000Y-95912500D02*
X112535000Y-96012000D01*
X119822000Y-100024000D02*
X120145000Y-99700500D01*
X107559000Y-106680000D02*
X106680000Y-105801000D01*
X113365000Y-95082800D02*
X112535000Y-95912500D01*
D23*
X112255000Y-108966000D02*
X110998000Y-108966000D01*
D24*
X119079000Y-100024000D02*
X119822000Y-100024000D01*
X107887000Y-106680000D02*
X107559000Y-106680000D01*
X108204000Y-96106800D02*
X108204000Y-98165500D01*
X112585000Y-94303100D02*
X112585000Y-94234000D01*
X113365000Y-95082800D02*
X112585000Y-94303100D01*
X103823000Y-99107900D02*
X103823000Y-99060000D01*
X128841000Y-94742000D02*
X129794000Y-94742000D01*
X128791000Y-96520000D02*
X129794000Y-96520000D01*
X124460000Y-98165500D02*
X124460000Y-97028000D01*
X104604000Y-99888800D02*
X103823000Y-99107900D01*
%TO.N,+5V*%
X125410000Y-95890500D02*
X126612000Y-95890500D01*
X110985000Y-98793000D02*
X110998000Y-98806000D01*
X103823000Y-97282000D02*
X103823000Y-96013400D01*
X127241000Y-99047000D02*
X127254000Y-99060000D01*
X114076000Y-90965000D02*
X116015000Y-89026000D01*
X110985000Y-96012000D02*
X110985000Y-98793000D01*
X127241000Y-96520000D02*
X127241000Y-99047000D01*
D23*
X113805000Y-108966000D02*
X115062000Y-108966000D01*
D24*
X103823000Y-96013400D02*
X103824000Y-96012000D01*
X119114000Y-97405000D02*
X119628000Y-97405000D01*
X116015000Y-89026000D02*
X116015000Y-88646000D01*
D23*
X113980000Y-110744000D02*
X115062000Y-110744000D01*
D24*
X110864000Y-95890500D02*
X110985000Y-96012000D01*
X126612000Y-95890500D02*
X127241000Y-96520000D01*
X119628000Y-97405000D02*
X120145000Y-97922500D01*
X109154000Y-95890500D02*
X110864000Y-95890500D01*
X112585000Y-92456000D02*
X114076000Y-90965000D01*
X128841000Y-92964000D02*
X129794000Y-92964000D01*
D25*
%TO.N,Net-(D2-K)*%
X111853000Y-101952000D02*
X111760000Y-101952000D01*
X113284000Y-100521000D02*
X111853000Y-101952000D01*
%TO.N,Net-(D3-K)*%
X116840000Y-100521000D02*
X116840000Y-99185900D01*
%TO.N,Net-(D4-K)*%
X122174000Y-101791000D02*
X123644000Y-101791000D01*
%TO.N,Net-(D5-K)*%
X127554000Y-99967200D02*
X128903000Y-99967200D01*
X127000000Y-100521000D02*
X127554000Y-99967200D01*
%TO.N,/JOY_SANWA_Y_UP*%
X109494538Y-107855000D02*
X108712000Y-107072462D01*
X126429000Y-102171000D02*
X127000000Y-102171000D01*
X108712000Y-105219000D02*
X108204000Y-104711000D01*
X121920000Y-106680000D02*
X120745000Y-107855000D01*
X121920000Y-106680000D02*
X126429000Y-102171000D01*
X120745000Y-107855000D02*
X109494538Y-107855000D01*
X108712000Y-107072462D02*
X108712000Y-105219000D01*
%TO.N,/JOY_SANWA_Y_DOWN*%
X116427000Y-105505000D02*
X115633000Y-104711000D01*
X115633000Y-104711000D02*
X109728000Y-104711000D01*
X119380000Y-106680000D02*
X119380000Y-106653700D01*
X122174000Y-103699500D02*
X119299900Y-106573600D01*
X119380000Y-106653700D02*
X119299900Y-106573600D01*
X119380000Y-106680000D02*
X118205000Y-105505000D01*
X118205000Y-105505000D02*
X116427000Y-105505000D01*
X122174000Y-103441000D02*
X122174000Y-103699500D01*
%TO.N,/JOY_SANWA_X_RIGHT*%
X116840000Y-102171000D02*
X116840000Y-102210000D01*
X116840000Y-102210000D02*
X115712000Y-102210000D01*
X116840000Y-102210000D02*
X116840000Y-103390858D01*
X118160142Y-104711000D02*
X118364000Y-104711000D01*
X116840000Y-103390858D02*
X118160142Y-104711000D01*
%TO.N,/JOY_SANWA_X_LEFT*%
X117480231Y-103394693D02*
X117480231Y-102748231D01*
X117971538Y-103886000D02*
X117480231Y-103394693D01*
X119063000Y-103886000D02*
X117971538Y-103886000D01*
X117480231Y-102748231D02*
X117640000Y-102588462D01*
X119888000Y-104711000D02*
X119063000Y-103886000D01*
X117232462Y-101346000D02*
X115117400Y-101346000D01*
X117640000Y-102588462D02*
X117640000Y-101753538D01*
X115117400Y-101346000D02*
X114397400Y-102066000D01*
X114292400Y-102171000D02*
X114397400Y-102066000D01*
X113284000Y-102171000D02*
X114292400Y-102171000D01*
X117640000Y-101753538D02*
X117232462Y-101346000D01*
%TO.N,/JOY_SANWA_GND*%
X111760000Y-106680000D02*
X109537000Y-106680000D01*
%TO.N,Net-(J3-Pin_2)*%
X117665000Y-88646000D02*
X118110000Y-89091000D01*
X118110000Y-89091000D02*
X118110000Y-93980000D01*
%TO.N,Net-(U1-+)*%
X123510000Y-98641600D02*
X123510000Y-98165500D01*
X119888000Y-103061000D02*
X119888000Y-102786000D01*
X121795000Y-98165500D02*
X123510000Y-98165500D01*
X121795000Y-98165500D02*
X121795000Y-99700500D01*
X119888000Y-102786000D02*
X121682000Y-100992000D01*
X124374000Y-100568000D02*
X124374000Y-99506000D01*
X123950000Y-100992000D02*
X124374000Y-100568000D01*
X124374000Y-99506000D02*
X123510000Y-98641600D01*
X121795000Y-97922500D02*
X121795000Y-98165500D01*
X121682000Y-100992000D02*
X123950000Y-100992000D01*
%TO.N,Net-(R12-Pad2)*%
X125285000Y-93154500D02*
X122305000Y-93154500D01*
X127191000Y-92964000D02*
X125476000Y-92964000D01*
X125476000Y-92964000D02*
X125285000Y-93154500D01*
X122305000Y-93154500D02*
X118276000Y-97182700D01*
X127191000Y-94742000D02*
X126047000Y-94742000D01*
X118276000Y-102974000D02*
X118364000Y-103061000D01*
X126047000Y-94742000D02*
X125285000Y-93980000D01*
X118276000Y-97182700D02*
X118276000Y-102974000D01*
X125285000Y-93154500D02*
X125285000Y-93980000D01*
%TO.N,Net-(R13-Pad2)*%
X108950000Y-103839000D02*
X109728000Y-103061000D01*
X108192000Y-93143400D02*
X106982000Y-93143400D01*
X109029000Y-93980000D02*
X108192000Y-93143400D01*
X103484000Y-98171000D02*
X103049000Y-98606000D01*
X104549000Y-95576100D02*
X104549000Y-97774800D01*
X103049000Y-98606000D02*
X103049000Y-99540900D01*
X110681000Y-92710000D02*
X110681000Y-93980000D01*
X109029000Y-93980000D02*
X110681000Y-93980000D01*
X104153000Y-98171000D02*
X103484000Y-98171000D01*
X110935000Y-92456000D02*
X110681000Y-92710000D01*
X103049000Y-99540900D02*
X107347000Y-103839000D01*
X107347000Y-103839000D02*
X108950000Y-103839000D01*
X106982000Y-93143400D02*
X104549000Y-95576100D01*
X104549000Y-97774800D02*
X104153000Y-98171000D01*
X110681000Y-93980000D02*
X110935000Y-94234000D01*
%TO.N,Net-(U2-+)*%
X107347000Y-102204000D02*
X107347000Y-101331000D01*
X105473000Y-99060000D02*
X105473000Y-97282000D01*
X107254000Y-98641600D02*
X107254000Y-98165500D01*
X107347000Y-101331000D02*
X108107000Y-100571000D01*
X107347000Y-101331000D02*
X105473000Y-99456900D01*
X108107000Y-99494800D02*
X107254000Y-98641600D01*
X108107000Y-100571000D02*
X108107000Y-99494800D01*
X108204000Y-103061000D02*
X107347000Y-102204000D01*
X105473000Y-99456900D02*
X105473000Y-99060000D01*
%TO.N,Net-(U1--)*%
X123635000Y-100076000D02*
X123169000Y-100542000D01*
X121035000Y-97437600D02*
X121416000Y-97056400D01*
X121354000Y-100542000D02*
X121035000Y-100222000D01*
X121416000Y-97056400D02*
X122344000Y-97056400D01*
X123635000Y-93980000D02*
X123635000Y-95765500D01*
X123635000Y-95765500D02*
X123510000Y-95890500D01*
X122344000Y-97056400D02*
X123510000Y-95890500D01*
X121035000Y-100222000D02*
X121035000Y-97437600D01*
X123169000Y-100542000D02*
X121354000Y-100542000D01*
%TO.N,Net-(U2--)*%
X107254000Y-95890500D02*
X106560000Y-96584000D01*
X107379000Y-93980000D02*
X107379000Y-95765500D01*
X107379000Y-95765500D02*
X107254000Y-95890500D01*
X106560000Y-99257500D02*
X107379000Y-100076000D01*
X106560000Y-96584000D02*
X106560000Y-99257500D01*
%TO.N,Net-(R25-Pad2)*%
X125285000Y-98290500D02*
X125285000Y-100076000D01*
X125285000Y-100076000D02*
X125285000Y-101557000D01*
X125410000Y-98165500D02*
X125285000Y-98290500D01*
X125285000Y-101557000D02*
X123875000Y-102967000D01*
%TO.N,Net-(R26-Pad2)*%
X112200000Y-103564000D02*
X109029000Y-100393000D01*
X109154000Y-98165500D02*
X109154000Y-99951000D01*
X109029000Y-100393000D02*
X109029000Y-100076000D01*
X109154000Y-99951000D02*
X109029000Y-100076000D01*
X114966000Y-103564000D02*
X112200000Y-103564000D01*
%TD*%
M02*
