M48
; DRILL file {KiCad (7.0.0)} date Thu Mar  9 19:39:42 2023
; FORMAT={-:-/ absolute / metric / decimal}
; #@! TF.CreationDate,2023-03-09T19:39:42+01:00
; #@! TF.GenerationSoftware,Kicad,Pcbnew,(7.0.0)
; #@! TF.FileFunction,Plated,1,4,PTH
FMAT,2
METRIC
; #@! TA.AperFunction,Plated,PTH,ViaDrill
T1C0.400
; #@! TA.AperFunction,Plated,PTH,ComponentDrill
T2C1.000
%
G90
G05
T1
X103.824Y-96.012
X104.604Y-99.889
X106.68Y-105.801
X108.204Y-96.107
X110.744Y-112.268
X110.998Y-98.806
X110.998Y-108.966
X110.998Y-110.744
X111.252Y-84.836
X111.76Y-101.952
X112.776Y-113.03
X113.365Y-95.083
X114.076Y-90.965
X114.397Y-102.066
X114.966Y-103.564
X115.062Y-108.966
X115.062Y-110.744
X115.316Y-112.268
X115.316Y-113.284
X115.712Y-102.21
X116.84Y-96.266
X116.84Y-99.186
X119.079Y-100.024
X119.114Y-97.405
X121.92Y-96.266
X122.428Y-84.836
X123.644Y-101.791
X123.875Y-102.967
X124.46Y-97.028
X127.254Y-99.06
X128.903Y-99.967
X129.794Y-92.964
X129.794Y-94.742
X129.794Y-96.52
T2
X111.76Y-106.68
X111.76Y-116.84
X114.3Y-106.68
X114.3Y-116.84
X115.57Y-93.98
X116.84Y-106.68
X116.84Y-116.84
X118.11Y-93.98
X119.38Y-106.68
X119.38Y-116.84
X121.92Y-106.68
X121.92Y-116.84
T0
M30
