%TF.GenerationSoftware,KiCad,Pcbnew,(7.0.0)*%
%TF.CreationDate,2023-03-09T19:39:30+01:00*%
%TF.ProjectId,JoystickAdapter,4a6f7973-7469-4636-9b41-646170746572,1.1*%
%TF.SameCoordinates,Original*%
%TF.FileFunction,Soldermask,Top*%
%TF.FilePolarity,Negative*%
%FSLAX46Y46*%
G04 Gerber Fmt 4.6, Leading zero omitted, Abs format (unit mm)*
G04 Created by KiCad (PCBNEW (7.0.0)) date 2023-03-09 19:39:30*
%MOMM*%
%LPD*%
G01*
G04 APERTURE LIST*
G04 Aperture macros list*
%AMRoundRect*
0 Rectangle with rounded corners*
0 $1 Rounding radius*
0 $2 $3 $4 $5 $6 $7 $8 $9 X,Y pos of 4 corners*
0 Add a 4 corners polygon primitive as box body*
4,1,4,$2,$3,$4,$5,$6,$7,$8,$9,$2,$3,0*
0 Add four circle primitives for the rounded corners*
1,1,$1+$1,$2,$3*
1,1,$1+$1,$4,$5*
1,1,$1+$1,$6,$7*
1,1,$1+$1,$8,$9*
0 Add four rect primitives between the rounded corners*
20,1,$1+$1,$2,$3,$4,$5,0*
20,1,$1+$1,$4,$5,$6,$7,0*
20,1,$1+$1,$6,$7,$8,$9,0*
20,1,$1+$1,$8,$9,$2,$3,0*%
G04 Aperture macros list end*
%ADD10C,3.200000*%
%ADD11RoundRect,0.200000X-0.275000X0.200000X-0.275000X-0.200000X0.275000X-0.200000X0.275000X0.200000X0*%
%ADD12R,2.600000X1.500000*%
%ADD13R,1.700000X1.700000*%
%ADD14O,1.700000X1.700000*%
%ADD15RoundRect,0.200000X0.275000X-0.200000X0.275000X0.200000X-0.275000X0.200000X-0.275000X-0.200000X0*%
%ADD16R,1.550000X1.300000*%
G04 APERTURE END LIST*
D10*
%TO.C,JOY_H3*%
X126745000Y-88300000D03*
%TD*%
D11*
%TO.C,R28*%
X119380000Y-112459000D03*
X119380000Y-114109000D03*
%TD*%
D12*
%TO.C,D3*%
X116839999Y-100559999D03*
X116839999Y-97559999D03*
%TD*%
D10*
%TO.C,JOY_H1*%
X106935000Y-114300000D03*
%TD*%
%TO.C,JOY_H4*%
X106935000Y-88300000D03*
%TD*%
D13*
%TO.C,J2*%
X111759999Y-106679999D03*
D14*
X114299999Y-106679999D03*
X116839999Y-106679999D03*
X119379999Y-106679999D03*
X121919999Y-106679999D03*
%TD*%
D12*
%TO.C,D2*%
X111759999Y-100559999D03*
X111759999Y-97559999D03*
%TD*%
%TO.C,D5*%
X126999999Y-100559999D03*
X126999999Y-97559999D03*
%TD*%
D15*
%TO.C,R1*%
X114300000Y-114109000D03*
X114300000Y-112459000D03*
%TD*%
D16*
%TO.C,SW1*%
X112864999Y-84871999D03*
X120814999Y-84871999D03*
X112864999Y-89371999D03*
X120814999Y-89371999D03*
%TD*%
D12*
%TO.C,D1*%
X106679999Y-100559999D03*
X106679999Y-97559999D03*
%TD*%
D15*
%TO.C,R2*%
X111760000Y-114109000D03*
X111760000Y-112459000D03*
%TD*%
D12*
%TO.C,D4*%
X121919999Y-100559999D03*
X121919999Y-97559999D03*
%TD*%
D11*
%TO.C,R6*%
X121920000Y-112459000D03*
X121920000Y-114109000D03*
%TD*%
D13*
%TO.C,J3*%
X115569999Y-93979999D03*
D14*
X118109999Y-93979999D03*
%TD*%
D10*
%TO.C,JOY_H2*%
X126745000Y-114300000D03*
%TD*%
D15*
%TO.C,R3*%
X106680000Y-104711000D03*
X106680000Y-103061000D03*
%TD*%
D11*
%TO.C,R27*%
X116840000Y-112459000D03*
X116840000Y-114109000D03*
%TD*%
D13*
%TO.C,J1*%
X111759999Y-116839999D03*
D14*
X114299999Y-116839999D03*
X116839999Y-116839999D03*
X119379999Y-116839999D03*
X121919999Y-116839999D03*
%TD*%
M02*
