%TF.GenerationSoftware,KiCad,Pcbnew,(7.0.0)*%
%TF.CreationDate,2023-03-09T18:05:20+01:00*%
%TF.ProjectId,JoystickAdapter,4a6f7973-7469-4636-9b41-646170746572,1.0*%
%TF.SameCoordinates,Original*%
%TF.FileFunction,Paste,Bot*%
%TF.FilePolarity,Positive*%
%FSLAX46Y46*%
G04 Gerber Fmt 4.6, Leading zero omitted, Abs format (unit mm)*
G04 Created by KiCad (PCBNEW (7.0.0)) date 2023-03-09 18:05:20*
%MOMM*%
%LPD*%
G01*
G04 APERTURE LIST*
G04 Aperture macros list*
%AMRoundRect*
0 Rectangle with rounded corners*
0 $1 Rounding radius*
0 $2 $3 $4 $5 $6 $7 $8 $9 X,Y pos of 4 corners*
0 Add a 4 corners polygon primitive as box body*
4,1,4,$2,$3,$4,$5,$6,$7,$8,$9,$2,$3,0*
0 Add four circle primitives for the rounded corners*
1,1,$1+$1,$2,$3*
1,1,$1+$1,$4,$5*
1,1,$1+$1,$6,$7*
1,1,$1+$1,$8,$9*
0 Add four rect primitives between the rounded corners*
20,1,$1+$1,$2,$3,$4,$5,0*
20,1,$1+$1,$4,$5,$6,$7,0*
20,1,$1+$1,$6,$7,$8,$9,0*
20,1,$1+$1,$8,$9,$2,$3,0*%
G04 Aperture macros list end*
%ADD10RoundRect,0.200000X0.275000X-0.200000X0.275000X0.200000X-0.275000X0.200000X-0.275000X-0.200000X0*%
%ADD11RoundRect,0.150000X0.150000X-0.512500X0.150000X0.512500X-0.150000X0.512500X-0.150000X-0.512500X0*%
%ADD12RoundRect,0.225000X0.225000X0.250000X-0.225000X0.250000X-0.225000X-0.250000X0.225000X-0.250000X0*%
%ADD13RoundRect,0.200000X0.200000X0.275000X-0.200000X0.275000X-0.200000X-0.275000X0.200000X-0.275000X0*%
%ADD14RoundRect,0.250000X-0.250000X-0.475000X0.250000X-0.475000X0.250000X0.475000X-0.250000X0.475000X0*%
%ADD15RoundRect,0.200000X-0.200000X-0.275000X0.200000X-0.275000X0.200000X0.275000X-0.200000X0.275000X0*%
%ADD16RoundRect,0.225000X-0.225000X-0.250000X0.225000X-0.250000X0.225000X0.250000X-0.225000X0.250000X0*%
G04 APERTURE END LIST*
D10*
%TO.C,R13*%
X109728000Y-104711000D03*
X109728000Y-103061000D03*
%TD*%
D11*
%TO.C,U1*%
X125410000Y-98165500D03*
X124460000Y-98165500D03*
X123510000Y-98165500D03*
X123510000Y-95890500D03*
X125410000Y-95890500D03*
%TD*%
D12*
%TO.C,C2*%
X128791000Y-96520000D03*
X127241000Y-96520000D03*
%TD*%
D13*
%TO.C,R22*%
X112585000Y-94234000D03*
X110935000Y-94234000D03*
%TD*%
D10*
%TO.C,R11*%
X119888000Y-104711000D03*
X119888000Y-103061000D03*
%TD*%
D14*
%TO.C,C1*%
X112080000Y-110744000D03*
X113980000Y-110744000D03*
%TD*%
D15*
%TO.C,R26*%
X107379000Y-100076000D03*
X109029000Y-100076000D03*
%TD*%
D10*
%TO.C,R7*%
X116840000Y-102171000D03*
X116840000Y-100521000D03*
%TD*%
D13*
%TO.C,R23*%
X125285000Y-93980000D03*
X123635000Y-93980000D03*
%TD*%
%TO.C,R17*%
X105473000Y-97282000D03*
X103823000Y-97282000D03*
%TD*%
D10*
%TO.C,R9*%
X127000000Y-102171000D03*
X127000000Y-100521000D03*
%TD*%
%TO.C,R5*%
X113284000Y-102171000D03*
X113284000Y-100521000D03*
%TD*%
D15*
%TO.C,R25*%
X123635000Y-100076000D03*
X125285000Y-100076000D03*
%TD*%
%TO.C,R16*%
X120145000Y-99700500D03*
X121795000Y-99700500D03*
%TD*%
D16*
%TO.C,C3*%
X112255000Y-108966000D03*
X113805000Y-108966000D03*
%TD*%
D13*
%TO.C,R20*%
X128841000Y-94742000D03*
X127191000Y-94742000D03*
%TD*%
D15*
%TO.C,R21*%
X110935000Y-92456000D03*
X112585000Y-92456000D03*
%TD*%
%TO.C,R18*%
X103823000Y-99060000D03*
X105473000Y-99060000D03*
%TD*%
%TO.C,R19*%
X127191000Y-92964000D03*
X128841000Y-92964000D03*
%TD*%
D13*
%TO.C,R24*%
X109029000Y-93980000D03*
X107379000Y-93980000D03*
%TD*%
%TO.C,R15*%
X121795000Y-97922500D03*
X120145000Y-97922500D03*
%TD*%
D10*
%TO.C,R8*%
X122174000Y-103441000D03*
X122174000Y-101791000D03*
%TD*%
D13*
%TO.C,R4*%
X117665000Y-88646000D03*
X116015000Y-88646000D03*
%TD*%
D11*
%TO.C,U2*%
X109154000Y-98165500D03*
X108204000Y-98165500D03*
X107254000Y-98165500D03*
X107254000Y-95890500D03*
X109154000Y-95890500D03*
%TD*%
D10*
%TO.C,R14*%
X108204000Y-104711000D03*
X108204000Y-103061000D03*
%TD*%
D13*
%TO.C,R10*%
X109537000Y-106680000D03*
X107887000Y-106680000D03*
%TD*%
D12*
%TO.C,C4*%
X112535000Y-96012000D03*
X110985000Y-96012000D03*
%TD*%
D10*
%TO.C,R12*%
X118364000Y-104711000D03*
X118364000Y-103061000D03*
%TD*%
M02*
