%TF.GenerationSoftware,KiCad,Pcbnew,(7.0.0)*%
%TF.CreationDate,2023-03-09T19:39:30+01:00*%
%TF.ProjectId,JoystickAdapter,4a6f7973-7469-4636-9b41-646170746572,1.1*%
%TF.SameCoordinates,Original*%
%TF.FileFunction,Copper,L3,Inr*%
%TF.FilePolarity,Positive*%
%FSLAX46Y46*%
G04 Gerber Fmt 4.6, Leading zero omitted, Abs format (unit mm)*
G04 Created by KiCad (PCBNEW (7.0.0)) date 2023-03-09 19:39:30*
%MOMM*%
%LPD*%
G01*
G04 APERTURE LIST*
%TA.AperFunction,NonConductor*%
%ADD10C,0.200000*%
%TD*%
%ADD11C,0.150000*%
%TA.AperFunction,NonConductor*%
%ADD12C,0.150000*%
%TD*%
%TA.AperFunction,ComponentPad*%
%ADD13R,1.700000X1.700000*%
%TD*%
%TA.AperFunction,ComponentPad*%
%ADD14O,1.700000X1.700000*%
%TD*%
%TA.AperFunction,ViaPad*%
%ADD15C,0.800000*%
%TD*%
G04 APERTURE END LIST*
D10*
X102870000Y-107950000D02*
X105410000Y-107950000D01*
X104140000Y-106680000D02*
X104140000Y-109220000D01*
D11*
D12*
X126698285Y-105777380D02*
X126222095Y-105777380D01*
X126222095Y-105777380D02*
X126222095Y-104777380D01*
X126936381Y-104777380D02*
X127555428Y-104777380D01*
X127555428Y-104777380D02*
X127222095Y-105158333D01*
X127222095Y-105158333D02*
X127364952Y-105158333D01*
X127364952Y-105158333D02*
X127460190Y-105205952D01*
X127460190Y-105205952D02*
X127507809Y-105253571D01*
X127507809Y-105253571D02*
X127555428Y-105348809D01*
X127555428Y-105348809D02*
X127555428Y-105586904D01*
X127555428Y-105586904D02*
X127507809Y-105682142D01*
X127507809Y-105682142D02*
X127460190Y-105729761D01*
X127460190Y-105729761D02*
X127364952Y-105777380D01*
X127364952Y-105777380D02*
X127079238Y-105777380D01*
X127079238Y-105777380D02*
X126984000Y-105729761D01*
X126984000Y-105729761D02*
X126936381Y-105682142D01*
D13*
%TO.N,/JOY_SANWA_GND*%
%TO.C,J2*%
X111759999Y-106679999D03*
D14*
%TO.N,/JOY_SANWA_X_LEFT*%
X114299999Y-106679999D03*
%TO.N,/JOY_SANWA_X_RIGHT*%
X116839999Y-106679999D03*
%TO.N,/JOY_SANWA_Y_DOWN*%
X119379999Y-106679999D03*
%TO.N,/JOY_SANWA_Y_UP*%
X121919999Y-106679999D03*
%TD*%
D13*
%TO.N,GND*%
%TO.C,J3*%
X115569999Y-93979999D03*
D14*
%TO.N,Net-(J3-Pin_2)*%
X118109999Y-93979999D03*
%TD*%
D13*
%TO.N,/JOY_KY023_GND*%
%TO.C,J1*%
X111759999Y-116839999D03*
D14*
%TO.N,/JOY_KY023_+5V*%
X114299999Y-116839999D03*
%TO.N,JOY_KY023_X*%
X116839999Y-116839999D03*
%TO.N,JOY_KY023_Y*%
X119379999Y-116839999D03*
%TO.N,JOY_KY023_SW*%
X121919999Y-116839999D03*
%TD*%
D15*
%TO.N,GND*%
X104604000Y-99888800D03*
X110998000Y-108966000D03*
X108204000Y-96106800D03*
X124460000Y-97028000D03*
X129794000Y-96520000D03*
X119079000Y-100024000D03*
X111252000Y-84836000D03*
X110998000Y-110744000D03*
X112776000Y-113030000D03*
X122428000Y-84836000D03*
X129794000Y-94742000D03*
X113365000Y-95082800D03*
X110744000Y-112268000D03*
X106680000Y-105801000D03*
%TO.N,+5V*%
X110998000Y-98806000D03*
X116840000Y-96266000D03*
X114076000Y-90965000D03*
X115316000Y-112268000D03*
X121920000Y-96266000D03*
X115316000Y-113284000D03*
X127254000Y-99060000D03*
X115062000Y-110744000D03*
X119114000Y-97405000D03*
X115062000Y-108966000D03*
X103824000Y-96012000D03*
X129794000Y-92964000D03*
%TO.N,Net-(D2-K)*%
X111760000Y-101952000D03*
%TO.N,Net-(D3-K)*%
X116840000Y-99185900D03*
%TO.N,Net-(D4-K)*%
X123644000Y-101791000D03*
%TO.N,Net-(D5-K)*%
X128903000Y-99967200D03*
%TO.N,/JOY_SANWA_X_RIGHT*%
X115712000Y-102210000D03*
%TO.N,/JOY_SANWA_X_LEFT*%
X114397400Y-102066000D03*
%TO.N,Net-(R25-Pad2)*%
X123875000Y-102967000D03*
%TO.N,Net-(R26-Pad2)*%
X114966000Y-103564000D03*
%TD*%
%TA.AperFunction,Conductor*%
%TO.N,+5V*%
G36*
X130747000Y-82566881D02*
G01*
X130793119Y-82613000D01*
X130810000Y-82676000D01*
X130810000Y-83694000D01*
X130793119Y-83757000D01*
X130747000Y-83803119D01*
X130684000Y-83820000D01*
X123190000Y-83820000D01*
X123190000Y-83836590D01*
X123190000Y-84019369D01*
X123171433Y-84085204D01*
X123121203Y-84131636D01*
X123054114Y-84144981D01*
X122989939Y-84121305D01*
X122940250Y-84085204D01*
X122884752Y-84044882D01*
X122710288Y-83967206D01*
X122703835Y-83965834D01*
X122703831Y-83965833D01*
X122529943Y-83928872D01*
X122529940Y-83928871D01*
X122523487Y-83927500D01*
X122332513Y-83927500D01*
X122326060Y-83928871D01*
X122326056Y-83928872D01*
X122152168Y-83965833D01*
X122152161Y-83965835D01*
X122145712Y-83967206D01*
X122139682Y-83969890D01*
X122139681Y-83969891D01*
X121977278Y-84042197D01*
X121977275Y-84042198D01*
X121971248Y-84044882D01*
X121965907Y-84048762D01*
X121965906Y-84048763D01*
X121822091Y-84153250D01*
X121822083Y-84153256D01*
X121816747Y-84157134D01*
X121812330Y-84162039D01*
X121812325Y-84162044D01*
X121693379Y-84294148D01*
X121688960Y-84299056D01*
X121685661Y-84304769D01*
X121685658Y-84304774D01*
X121596777Y-84458721D01*
X121593473Y-84464444D01*
X121591434Y-84470718D01*
X121591430Y-84470728D01*
X121536497Y-84639794D01*
X121536495Y-84639801D01*
X121534458Y-84646072D01*
X121514496Y-84836000D01*
X121534458Y-85025928D01*
X121536495Y-85032200D01*
X121536497Y-85032205D01*
X121591430Y-85201271D01*
X121591433Y-85201278D01*
X121593473Y-85207556D01*
X121688960Y-85372944D01*
X121816747Y-85514866D01*
X121971248Y-85627118D01*
X122145712Y-85704794D01*
X122332513Y-85744500D01*
X122516884Y-85744500D01*
X122523487Y-85744500D01*
X122710288Y-85704794D01*
X122884752Y-85627118D01*
X122989938Y-85550695D01*
X123054114Y-85527019D01*
X123121203Y-85540364D01*
X123171433Y-85586796D01*
X123190000Y-85652631D01*
X123190000Y-91440000D01*
X123206590Y-91440000D01*
X130684000Y-91440000D01*
X130747000Y-91456881D01*
X130793119Y-91503000D01*
X130810000Y-91566000D01*
X130810000Y-94214527D01*
X130793119Y-94277527D01*
X130747000Y-94323646D01*
X130684000Y-94340527D01*
X130621000Y-94323646D01*
X130574881Y-94277527D01*
X130538207Y-94214006D01*
X130533040Y-94205056D01*
X130405253Y-94063134D01*
X130399911Y-94059253D01*
X130399908Y-94059250D01*
X130283687Y-93974811D01*
X130250752Y-93950882D01*
X130076288Y-93873206D01*
X130069835Y-93871834D01*
X130069831Y-93871833D01*
X129895943Y-93834872D01*
X129895940Y-93834871D01*
X129889487Y-93833500D01*
X129698513Y-93833500D01*
X129692060Y-93834871D01*
X129692056Y-93834872D01*
X129518168Y-93871833D01*
X129518161Y-93871835D01*
X129511712Y-93873206D01*
X129505682Y-93875890D01*
X129505681Y-93875891D01*
X129343278Y-93948197D01*
X129343275Y-93948198D01*
X129337248Y-93950882D01*
X129331907Y-93954762D01*
X129331906Y-93954763D01*
X129188091Y-94059250D01*
X129188083Y-94059256D01*
X129182747Y-94063134D01*
X129178330Y-94068039D01*
X129178325Y-94068044D01*
X129081417Y-94175672D01*
X129054960Y-94205056D01*
X129051661Y-94210769D01*
X129051658Y-94210774D01*
X128962777Y-94364721D01*
X128959473Y-94370444D01*
X128957434Y-94376718D01*
X128957430Y-94376728D01*
X128902497Y-94545794D01*
X128902495Y-94545801D01*
X128900458Y-94552072D01*
X128899768Y-94558633D01*
X128899768Y-94558635D01*
X128891936Y-94633156D01*
X128880496Y-94742000D01*
X128900458Y-94931928D01*
X128902495Y-94938200D01*
X128902497Y-94938205D01*
X128957430Y-95107271D01*
X128957433Y-95107278D01*
X128959473Y-95113556D01*
X129054960Y-95278944D01*
X129182747Y-95420866D01*
X129188089Y-95424747D01*
X129188091Y-95424749D01*
X129331668Y-95529064D01*
X129369874Y-95573797D01*
X129383607Y-95631000D01*
X129369874Y-95688203D01*
X129331668Y-95732936D01*
X129188091Y-95837250D01*
X129188083Y-95837256D01*
X129182747Y-95841134D01*
X129178330Y-95846039D01*
X129178325Y-95846044D01*
X129085707Y-95948908D01*
X129054960Y-95983056D01*
X129051661Y-95988769D01*
X129051658Y-95988774D01*
X128962777Y-96142721D01*
X128959473Y-96148444D01*
X128957434Y-96154718D01*
X128957430Y-96154728D01*
X128902497Y-96323794D01*
X128902495Y-96323801D01*
X128900458Y-96330072D01*
X128899768Y-96336633D01*
X128899768Y-96336635D01*
X128884054Y-96486148D01*
X128880496Y-96520000D01*
X128900458Y-96709928D01*
X128902495Y-96716200D01*
X128902497Y-96716205D01*
X128957430Y-96885271D01*
X128957433Y-96885278D01*
X128959473Y-96891556D01*
X129054960Y-97056944D01*
X129182747Y-97198866D01*
X129337248Y-97311118D01*
X129511712Y-97388794D01*
X129698513Y-97428500D01*
X129882884Y-97428500D01*
X129889487Y-97428500D01*
X130076288Y-97388794D01*
X130250752Y-97311118D01*
X130405253Y-97198866D01*
X130533040Y-97056944D01*
X130574881Y-96984472D01*
X130621000Y-96938354D01*
X130684000Y-96921473D01*
X130747000Y-96938354D01*
X130793119Y-96984473D01*
X130810000Y-97047473D01*
X130810000Y-110364000D01*
X130793119Y-110427000D01*
X130747000Y-110473119D01*
X130684000Y-110490000D01*
X124460000Y-110490000D01*
X124460000Y-110506590D01*
X124460000Y-117984000D01*
X124443119Y-118047000D01*
X124397000Y-118093119D01*
X124334000Y-118110000D01*
X122867103Y-118110000D01*
X122807134Y-118094814D01*
X122761620Y-118052916D01*
X122741533Y-117994405D01*
X122751715Y-117933387D01*
X122789712Y-117884569D01*
X122790494Y-117883960D01*
X122843240Y-117842906D01*
X122995722Y-117677268D01*
X123118860Y-117488791D01*
X123209296Y-117282616D01*
X123264564Y-117064368D01*
X123283156Y-116840000D01*
X123264564Y-116615632D01*
X123209296Y-116397384D01*
X123118860Y-116191209D01*
X122995722Y-116002732D01*
X122876680Y-115873419D01*
X122846772Y-115840930D01*
X122846767Y-115840925D01*
X122843240Y-115837094D01*
X122665576Y-115698811D01*
X122660997Y-115696333D01*
X122660994Y-115696331D01*
X122472159Y-115594139D01*
X122472156Y-115594137D01*
X122467574Y-115591658D01*
X122462650Y-115589967D01*
X122462642Y-115589964D01*
X122259565Y-115520248D01*
X122259559Y-115520246D01*
X122254635Y-115518556D01*
X122249498Y-115517698D01*
X122249495Y-115517698D01*
X122037706Y-115482357D01*
X122037703Y-115482356D01*
X122032569Y-115481500D01*
X121807431Y-115481500D01*
X121802297Y-115482356D01*
X121802293Y-115482357D01*
X121590504Y-115517698D01*
X121590498Y-115517699D01*
X121585365Y-115518556D01*
X121580443Y-115520245D01*
X121580434Y-115520248D01*
X121377357Y-115589964D01*
X121377344Y-115589969D01*
X121372426Y-115591658D01*
X121367847Y-115594135D01*
X121367840Y-115594139D01*
X121179005Y-115696331D01*
X121178997Y-115696336D01*
X121174424Y-115698811D01*
X121170313Y-115702010D01*
X121170311Y-115702012D01*
X121000878Y-115833888D01*
X121000872Y-115833893D01*
X120996760Y-115837094D01*
X120993237Y-115840919D01*
X120993227Y-115840930D01*
X120847806Y-115998899D01*
X120847802Y-115998902D01*
X120844278Y-116002732D01*
X120841430Y-116007090D01*
X120841427Y-116007095D01*
X120755483Y-116138643D01*
X120709969Y-116180542D01*
X120650000Y-116195728D01*
X120590031Y-116180542D01*
X120544517Y-116138643D01*
X120458572Y-116007095D01*
X120455722Y-116002732D01*
X120336680Y-115873419D01*
X120306772Y-115840930D01*
X120306767Y-115840925D01*
X120303240Y-115837094D01*
X120125576Y-115698811D01*
X120120997Y-115696333D01*
X120120994Y-115696331D01*
X119932159Y-115594139D01*
X119932156Y-115594137D01*
X119927574Y-115591658D01*
X119922650Y-115589967D01*
X119922642Y-115589964D01*
X119719565Y-115520248D01*
X119719559Y-115520246D01*
X119714635Y-115518556D01*
X119709498Y-115517698D01*
X119709495Y-115517698D01*
X119497706Y-115482357D01*
X119497703Y-115482356D01*
X119492569Y-115481500D01*
X119267431Y-115481500D01*
X119262297Y-115482356D01*
X119262293Y-115482357D01*
X119050504Y-115517698D01*
X119050498Y-115517699D01*
X119045365Y-115518556D01*
X119040443Y-115520245D01*
X119040434Y-115520248D01*
X118837357Y-115589964D01*
X118837344Y-115589969D01*
X118832426Y-115591658D01*
X118827847Y-115594135D01*
X118827840Y-115594139D01*
X118639005Y-115696331D01*
X118638997Y-115696336D01*
X118634424Y-115698811D01*
X118630313Y-115702010D01*
X118630311Y-115702012D01*
X118460878Y-115833888D01*
X118460872Y-115833893D01*
X118456760Y-115837094D01*
X118453237Y-115840919D01*
X118453227Y-115840930D01*
X118307806Y-115998899D01*
X118307802Y-115998902D01*
X118304278Y-116002732D01*
X118301430Y-116007090D01*
X118301427Y-116007095D01*
X118215483Y-116138643D01*
X118169969Y-116180542D01*
X118110000Y-116195728D01*
X118050031Y-116180542D01*
X118004517Y-116138643D01*
X117918572Y-116007095D01*
X117915722Y-116002732D01*
X117796680Y-115873419D01*
X117766772Y-115840930D01*
X117766767Y-115840925D01*
X117763240Y-115837094D01*
X117585576Y-115698811D01*
X117580997Y-115696333D01*
X117580994Y-115696331D01*
X117392159Y-115594139D01*
X117392156Y-115594137D01*
X117387574Y-115591658D01*
X117382650Y-115589967D01*
X117382642Y-115589964D01*
X117179565Y-115520248D01*
X117179559Y-115520246D01*
X117174635Y-115518556D01*
X117169498Y-115517698D01*
X117169495Y-115517698D01*
X116957706Y-115482357D01*
X116957703Y-115482356D01*
X116952569Y-115481500D01*
X116727431Y-115481500D01*
X116722297Y-115482356D01*
X116722293Y-115482357D01*
X116510504Y-115517698D01*
X116510498Y-115517699D01*
X116505365Y-115518556D01*
X116500443Y-115520245D01*
X116500434Y-115520248D01*
X116297357Y-115589964D01*
X116297344Y-115589969D01*
X116292426Y-115591658D01*
X116287847Y-115594135D01*
X116287840Y-115594139D01*
X116099005Y-115696331D01*
X116098997Y-115696336D01*
X116094424Y-115698811D01*
X116090313Y-115702010D01*
X116090311Y-115702012D01*
X115920878Y-115833888D01*
X115920872Y-115833893D01*
X115916760Y-115837094D01*
X115913237Y-115840919D01*
X115913227Y-115840930D01*
X115767806Y-115998899D01*
X115767802Y-115998902D01*
X115764278Y-116002732D01*
X115761430Y-116007090D01*
X115761427Y-116007095D01*
X115675483Y-116138643D01*
X115629969Y-116180542D01*
X115570000Y-116195728D01*
X115510031Y-116180542D01*
X115464517Y-116138643D01*
X115378572Y-116007095D01*
X115375722Y-116002732D01*
X115256680Y-115873419D01*
X115226772Y-115840930D01*
X115226767Y-115840925D01*
X115223240Y-115837094D01*
X115045576Y-115698811D01*
X115040997Y-115696333D01*
X115040994Y-115696331D01*
X114852159Y-115594139D01*
X114852156Y-115594137D01*
X114847574Y-115591658D01*
X114842650Y-115589967D01*
X114842642Y-115589964D01*
X114639565Y-115520248D01*
X114639559Y-115520246D01*
X114634635Y-115518556D01*
X114629498Y-115517698D01*
X114629495Y-115517698D01*
X114417706Y-115482357D01*
X114417703Y-115482356D01*
X114412569Y-115481500D01*
X114187431Y-115481500D01*
X114182297Y-115482356D01*
X114182293Y-115482357D01*
X113970504Y-115517698D01*
X113970498Y-115517699D01*
X113965365Y-115518556D01*
X113960443Y-115520245D01*
X113960434Y-115520248D01*
X113757357Y-115589964D01*
X113757344Y-115589969D01*
X113752426Y-115591658D01*
X113747847Y-115594135D01*
X113747840Y-115594139D01*
X113559005Y-115696331D01*
X113558997Y-115696336D01*
X113554424Y-115698811D01*
X113550313Y-115702010D01*
X113550311Y-115702012D01*
X113380878Y-115833888D01*
X113380872Y-115833893D01*
X113376760Y-115837094D01*
X113373237Y-115840920D01*
X113373226Y-115840931D01*
X113315754Y-115903362D01*
X113262281Y-115937761D01*
X113198820Y-115941671D01*
X113141530Y-115914095D01*
X113104998Y-115862056D01*
X113064037Y-115752236D01*
X113064036Y-115752235D01*
X113060889Y-115743796D01*
X112973261Y-115626739D01*
X112929713Y-115594139D01*
X112863417Y-115544510D01*
X112863414Y-115544508D01*
X112856204Y-115539111D01*
X112847766Y-115535964D01*
X112847763Y-115535962D01*
X112726580Y-115490763D01*
X112726578Y-115490762D01*
X112719201Y-115488011D01*
X112711373Y-115487169D01*
X112711367Y-115487168D01*
X112661988Y-115481860D01*
X112661985Y-115481859D01*
X112658638Y-115481500D01*
X110861362Y-115481500D01*
X110858015Y-115481859D01*
X110858011Y-115481860D01*
X110808632Y-115487168D01*
X110808625Y-115487169D01*
X110800799Y-115488011D01*
X110793423Y-115490761D01*
X110793419Y-115490763D01*
X110672236Y-115535962D01*
X110672230Y-115535965D01*
X110663796Y-115539111D01*
X110656588Y-115544506D01*
X110656582Y-115544510D01*
X110553950Y-115621340D01*
X110553946Y-115621343D01*
X110546739Y-115626739D01*
X110541343Y-115633946D01*
X110541340Y-115633950D01*
X110464510Y-115736582D01*
X110464506Y-115736588D01*
X110459111Y-115743796D01*
X110455965Y-115752230D01*
X110455962Y-115752236D01*
X110410763Y-115873419D01*
X110410761Y-115873423D01*
X110408011Y-115880799D01*
X110407169Y-115888625D01*
X110407168Y-115888632D01*
X110405585Y-115903362D01*
X110401500Y-115941362D01*
X110401500Y-117738638D01*
X110401859Y-117741985D01*
X110401860Y-117741988D01*
X110407168Y-117791367D01*
X110407169Y-117791373D01*
X110408011Y-117799201D01*
X110410762Y-117806578D01*
X110410763Y-117806580D01*
X110459111Y-117936204D01*
X110456985Y-117936996D01*
X110469090Y-117986244D01*
X110451473Y-118048291D01*
X110405461Y-118093491D01*
X110343110Y-118110000D01*
X109346000Y-118110000D01*
X109283000Y-118093119D01*
X109236881Y-118047000D01*
X109220000Y-117984000D01*
X109220000Y-112268000D01*
X109830496Y-112268000D01*
X109850458Y-112457928D01*
X109852495Y-112464200D01*
X109852497Y-112464205D01*
X109907430Y-112633271D01*
X109907433Y-112633278D01*
X109909473Y-112639556D01*
X110004960Y-112804944D01*
X110132747Y-112946866D01*
X110287248Y-113059118D01*
X110461712Y-113136794D01*
X110648513Y-113176500D01*
X110832884Y-113176500D01*
X110839487Y-113176500D01*
X111026288Y-113136794D01*
X111200752Y-113059118D01*
X111240829Y-113030000D01*
X111862496Y-113030000D01*
X111882458Y-113219928D01*
X111884495Y-113226200D01*
X111884497Y-113226205D01*
X111939430Y-113395271D01*
X111939433Y-113395278D01*
X111941473Y-113401556D01*
X112036960Y-113566944D01*
X112164747Y-113708866D01*
X112319248Y-113821118D01*
X112493712Y-113898794D01*
X112680513Y-113938500D01*
X112864884Y-113938500D01*
X112871487Y-113938500D01*
X113058288Y-113898794D01*
X113232752Y-113821118D01*
X113387253Y-113708866D01*
X113515040Y-113566944D01*
X113610527Y-113401556D01*
X113669542Y-113219928D01*
X113689504Y-113030000D01*
X113669542Y-112840072D01*
X113610527Y-112658444D01*
X113515040Y-112493056D01*
X113387253Y-112351134D01*
X113381911Y-112347253D01*
X113381908Y-112347250D01*
X113263793Y-112261435D01*
X113232752Y-112238882D01*
X113058288Y-112161206D01*
X113051835Y-112159834D01*
X113051831Y-112159833D01*
X112877943Y-112122872D01*
X112877940Y-112122871D01*
X112871487Y-112121500D01*
X112680513Y-112121500D01*
X112674060Y-112122871D01*
X112674056Y-112122872D01*
X112500168Y-112159833D01*
X112500161Y-112159835D01*
X112493712Y-112161206D01*
X112487682Y-112163890D01*
X112487681Y-112163891D01*
X112325278Y-112236197D01*
X112325275Y-112236198D01*
X112319248Y-112238882D01*
X112313907Y-112242762D01*
X112313906Y-112242763D01*
X112170091Y-112347250D01*
X112170083Y-112347256D01*
X112164747Y-112351134D01*
X112160330Y-112356039D01*
X112160325Y-112356044D01*
X112041379Y-112488148D01*
X112036960Y-112493056D01*
X112033661Y-112498769D01*
X112033658Y-112498774D01*
X111952378Y-112639556D01*
X111941473Y-112658444D01*
X111939434Y-112664718D01*
X111939430Y-112664728D01*
X111884497Y-112833794D01*
X111884495Y-112833801D01*
X111882458Y-112840072D01*
X111881768Y-112846633D01*
X111881768Y-112846635D01*
X111863186Y-113023435D01*
X111862496Y-113030000D01*
X111240829Y-113030000D01*
X111355253Y-112946866D01*
X111483040Y-112804944D01*
X111578527Y-112639556D01*
X111637542Y-112457928D01*
X111657504Y-112268000D01*
X111637542Y-112078072D01*
X111578527Y-111896444D01*
X111483040Y-111731056D01*
X111458833Y-111704171D01*
X111428385Y-111641744D01*
X111435646Y-111572663D01*
X111478407Y-111517930D01*
X111609253Y-111422866D01*
X111737040Y-111280944D01*
X111832527Y-111115556D01*
X111891542Y-110933928D01*
X111911504Y-110744000D01*
X111891542Y-110554072D01*
X111865239Y-110473119D01*
X111834569Y-110378728D01*
X111834568Y-110378726D01*
X111832527Y-110372444D01*
X111737040Y-110207056D01*
X111609253Y-110065134D01*
X111603911Y-110061253D01*
X111603908Y-110061250D01*
X111460331Y-109956935D01*
X111422125Y-109912201D01*
X111408392Y-109854998D01*
X111422125Y-109797796D01*
X111460327Y-109753066D01*
X111609253Y-109644866D01*
X111737040Y-109502944D01*
X111832527Y-109337556D01*
X111891542Y-109155928D01*
X111911504Y-108966000D01*
X111891542Y-108776072D01*
X111832527Y-108594444D01*
X111737040Y-108429056D01*
X111609253Y-108287134D01*
X111580762Y-108266434D01*
X111540818Y-108218148D01*
X111529075Y-108156588D01*
X111548441Y-108096986D01*
X111594125Y-108054085D01*
X111654826Y-108038500D01*
X112655269Y-108038500D01*
X112658638Y-108038500D01*
X112719201Y-108031989D01*
X112856204Y-107980889D01*
X112973261Y-107893261D01*
X113060889Y-107776204D01*
X113104998Y-107657943D01*
X113141530Y-107605904D01*
X113198820Y-107578328D01*
X113262282Y-107582238D01*
X113315755Y-107616638D01*
X113343319Y-107646580D01*
X113376760Y-107682906D01*
X113554424Y-107821189D01*
X113752426Y-107928342D01*
X113757355Y-107930034D01*
X113757357Y-107930035D01*
X113839364Y-107958188D01*
X113965365Y-108001444D01*
X114187431Y-108038500D01*
X114407358Y-108038500D01*
X114412569Y-108038500D01*
X114634635Y-108001444D01*
X114847574Y-107928342D01*
X115045576Y-107821189D01*
X115223240Y-107682906D01*
X115375722Y-107517268D01*
X115464521Y-107381349D01*
X115510029Y-107339458D01*
X115569998Y-107324271D01*
X115629968Y-107339457D01*
X115675481Y-107381354D01*
X115764278Y-107517268D01*
X115814727Y-107572069D01*
X115913227Y-107679069D01*
X115913231Y-107679073D01*
X115916760Y-107682906D01*
X116094424Y-107821189D01*
X116292426Y-107928342D01*
X116297355Y-107930034D01*
X116297357Y-107930035D01*
X116379364Y-107958188D01*
X116505365Y-108001444D01*
X116727431Y-108038500D01*
X116947358Y-108038500D01*
X116952569Y-108038500D01*
X117174635Y-108001444D01*
X117387574Y-107928342D01*
X117585576Y-107821189D01*
X117763240Y-107682906D01*
X117915722Y-107517268D01*
X118004521Y-107381349D01*
X118050029Y-107339458D01*
X118109998Y-107324271D01*
X118169968Y-107339457D01*
X118215481Y-107381354D01*
X118304278Y-107517268D01*
X118354727Y-107572069D01*
X118453227Y-107679069D01*
X118453231Y-107679073D01*
X118456760Y-107682906D01*
X118634424Y-107821189D01*
X118832426Y-107928342D01*
X118837355Y-107930034D01*
X118837357Y-107930035D01*
X118919364Y-107958188D01*
X119045365Y-108001444D01*
X119267431Y-108038500D01*
X119487358Y-108038500D01*
X119492569Y-108038500D01*
X119714635Y-108001444D01*
X119927574Y-107928342D01*
X120125576Y-107821189D01*
X120303240Y-107682906D01*
X120455722Y-107517268D01*
X120544521Y-107381349D01*
X120590029Y-107339458D01*
X120649998Y-107324271D01*
X120709968Y-107339457D01*
X120755481Y-107381354D01*
X120844278Y-107517268D01*
X120894727Y-107572069D01*
X120993227Y-107679069D01*
X120993231Y-107679073D01*
X120996760Y-107682906D01*
X121174424Y-107821189D01*
X121372426Y-107928342D01*
X121377355Y-107930034D01*
X121377357Y-107930035D01*
X121459364Y-107958188D01*
X121585365Y-108001444D01*
X121807431Y-108038500D01*
X122027358Y-108038500D01*
X122032569Y-108038500D01*
X122254635Y-108001444D01*
X122467574Y-107928342D01*
X122665576Y-107821189D01*
X122843240Y-107682906D01*
X122995722Y-107517268D01*
X123118860Y-107328791D01*
X123209296Y-107122616D01*
X123264564Y-106904368D01*
X123283156Y-106680000D01*
X123264564Y-106455632D01*
X123209296Y-106237384D01*
X123118860Y-106031209D01*
X122995722Y-105842732D01*
X122876680Y-105713419D01*
X122846772Y-105680930D01*
X122846767Y-105680925D01*
X122843240Y-105677094D01*
X122665576Y-105538811D01*
X122660997Y-105536333D01*
X122660994Y-105536331D01*
X122472159Y-105434139D01*
X122472156Y-105434137D01*
X122467574Y-105431658D01*
X122462650Y-105429967D01*
X122462642Y-105429964D01*
X122259565Y-105360248D01*
X122259559Y-105360246D01*
X122254635Y-105358556D01*
X122249498Y-105357698D01*
X122249495Y-105357698D01*
X122037706Y-105322357D01*
X122037703Y-105322356D01*
X122032569Y-105321500D01*
X121807431Y-105321500D01*
X121802297Y-105322356D01*
X121802293Y-105322357D01*
X121590504Y-105357698D01*
X121590498Y-105357699D01*
X121585365Y-105358556D01*
X121580443Y-105360245D01*
X121580434Y-105360248D01*
X121377357Y-105429964D01*
X121377344Y-105429969D01*
X121372426Y-105431658D01*
X121367847Y-105434135D01*
X121367840Y-105434139D01*
X121179005Y-105536331D01*
X121178997Y-105536336D01*
X121174424Y-105538811D01*
X121170313Y-105542010D01*
X121170311Y-105542012D01*
X121000878Y-105673888D01*
X121000872Y-105673893D01*
X120996760Y-105677094D01*
X120993237Y-105680919D01*
X120993227Y-105680930D01*
X120847806Y-105838899D01*
X120847802Y-105838902D01*
X120844278Y-105842732D01*
X120841434Y-105847083D01*
X120841430Y-105847090D01*
X120755482Y-105978644D01*
X120709968Y-106020542D01*
X120649998Y-106035728D01*
X120590029Y-106020541D01*
X120544518Y-105978645D01*
X120455722Y-105842732D01*
X120336680Y-105713419D01*
X120306772Y-105680930D01*
X120306767Y-105680925D01*
X120303240Y-105677094D01*
X120125576Y-105538811D01*
X120120997Y-105536333D01*
X120120994Y-105536331D01*
X119932159Y-105434139D01*
X119932156Y-105434137D01*
X119927574Y-105431658D01*
X119922650Y-105429967D01*
X119922642Y-105429964D01*
X119719565Y-105360248D01*
X119719559Y-105360246D01*
X119714635Y-105358556D01*
X119709498Y-105357698D01*
X119709495Y-105357698D01*
X119497706Y-105322357D01*
X119497703Y-105322356D01*
X119492569Y-105321500D01*
X119267431Y-105321500D01*
X119262297Y-105322356D01*
X119262293Y-105322357D01*
X119050504Y-105357698D01*
X119050498Y-105357699D01*
X119045365Y-105358556D01*
X119040443Y-105360245D01*
X119040434Y-105360248D01*
X118837357Y-105429964D01*
X118837344Y-105429969D01*
X118832426Y-105431658D01*
X118827847Y-105434135D01*
X118827840Y-105434139D01*
X118639005Y-105536331D01*
X118638997Y-105536336D01*
X118634424Y-105538811D01*
X118630313Y-105542010D01*
X118630311Y-105542012D01*
X118460878Y-105673888D01*
X118460872Y-105673893D01*
X118456760Y-105677094D01*
X118453237Y-105680919D01*
X118453227Y-105680930D01*
X118307806Y-105838899D01*
X118307802Y-105838902D01*
X118304278Y-105842732D01*
X118301434Y-105847083D01*
X118301430Y-105847090D01*
X118215482Y-105978644D01*
X118169968Y-106020542D01*
X118109998Y-106035728D01*
X118050029Y-106020541D01*
X118004518Y-105978645D01*
X117915722Y-105842732D01*
X117796680Y-105713419D01*
X117766772Y-105680930D01*
X117766767Y-105680925D01*
X117763240Y-105677094D01*
X117585576Y-105538811D01*
X117580997Y-105536333D01*
X117580994Y-105536331D01*
X117392159Y-105434139D01*
X117392156Y-105434137D01*
X117387574Y-105431658D01*
X117382650Y-105429967D01*
X117382642Y-105429964D01*
X117179565Y-105360248D01*
X117179559Y-105360246D01*
X117174635Y-105358556D01*
X117169498Y-105357698D01*
X117169495Y-105357698D01*
X116957706Y-105322357D01*
X116957703Y-105322356D01*
X116952569Y-105321500D01*
X116727431Y-105321500D01*
X116722297Y-105322356D01*
X116722293Y-105322357D01*
X116510504Y-105357698D01*
X116510498Y-105357699D01*
X116505365Y-105358556D01*
X116500443Y-105360245D01*
X116500434Y-105360248D01*
X116297357Y-105429964D01*
X116297344Y-105429969D01*
X116292426Y-105431658D01*
X116287847Y-105434135D01*
X116287840Y-105434139D01*
X116099005Y-105536331D01*
X116098997Y-105536336D01*
X116094424Y-105538811D01*
X116090313Y-105542010D01*
X116090311Y-105542012D01*
X115920878Y-105673888D01*
X115920872Y-105673893D01*
X115916760Y-105677094D01*
X115913237Y-105680919D01*
X115913227Y-105680930D01*
X115767806Y-105838899D01*
X115767802Y-105838902D01*
X115764278Y-105842732D01*
X115761434Y-105847083D01*
X115761430Y-105847090D01*
X115675482Y-105978644D01*
X115629968Y-106020542D01*
X115569998Y-106035728D01*
X115510029Y-106020541D01*
X115464518Y-105978645D01*
X115375722Y-105842732D01*
X115256680Y-105713419D01*
X115226772Y-105680930D01*
X115226767Y-105680925D01*
X115223240Y-105677094D01*
X115045576Y-105538811D01*
X115040997Y-105536333D01*
X115040994Y-105536331D01*
X114852159Y-105434139D01*
X114852156Y-105434137D01*
X114847574Y-105431658D01*
X114842650Y-105429967D01*
X114842642Y-105429964D01*
X114639565Y-105360248D01*
X114639559Y-105360246D01*
X114634635Y-105358556D01*
X114629498Y-105357698D01*
X114629495Y-105357698D01*
X114417706Y-105322357D01*
X114417703Y-105322356D01*
X114412569Y-105321500D01*
X114187431Y-105321500D01*
X114182297Y-105322356D01*
X114182293Y-105322357D01*
X113970504Y-105357698D01*
X113970498Y-105357699D01*
X113965365Y-105358556D01*
X113960443Y-105360245D01*
X113960434Y-105360248D01*
X113757357Y-105429964D01*
X113757344Y-105429969D01*
X113752426Y-105431658D01*
X113747847Y-105434135D01*
X113747840Y-105434139D01*
X113559005Y-105536331D01*
X113558997Y-105536336D01*
X113554424Y-105538811D01*
X113550313Y-105542010D01*
X113550311Y-105542012D01*
X113380878Y-105673888D01*
X113380872Y-105673893D01*
X113376760Y-105677094D01*
X113373237Y-105680920D01*
X113373226Y-105680931D01*
X113315754Y-105743362D01*
X113262281Y-105777761D01*
X113198820Y-105781671D01*
X113141530Y-105754095D01*
X113104998Y-105702056D01*
X113064037Y-105592236D01*
X113064036Y-105592235D01*
X113060889Y-105583796D01*
X112973261Y-105466739D01*
X112966049Y-105461340D01*
X112863417Y-105384510D01*
X112863414Y-105384508D01*
X112856204Y-105379111D01*
X112847766Y-105375964D01*
X112847763Y-105375962D01*
X112726580Y-105330763D01*
X112726578Y-105330762D01*
X112719201Y-105328011D01*
X112711373Y-105327169D01*
X112711367Y-105327168D01*
X112661988Y-105321860D01*
X112661985Y-105321859D01*
X112658638Y-105321500D01*
X110861362Y-105321500D01*
X110858015Y-105321859D01*
X110858011Y-105321860D01*
X110808632Y-105327168D01*
X110808625Y-105327169D01*
X110800799Y-105328011D01*
X110793423Y-105330761D01*
X110793419Y-105330763D01*
X110672236Y-105375962D01*
X110672230Y-105375965D01*
X110663796Y-105379111D01*
X110656588Y-105384506D01*
X110656582Y-105384510D01*
X110553950Y-105461340D01*
X110553946Y-105461343D01*
X110546739Y-105466739D01*
X110541343Y-105473946D01*
X110541340Y-105473950D01*
X110464510Y-105576582D01*
X110464506Y-105576588D01*
X110459111Y-105583796D01*
X110455965Y-105592230D01*
X110455962Y-105592236D01*
X110410763Y-105713419D01*
X110410761Y-105713423D01*
X110408011Y-105720799D01*
X110407169Y-105728625D01*
X110407168Y-105728632D01*
X110405585Y-105743362D01*
X110401500Y-105781362D01*
X110401500Y-107578638D01*
X110401859Y-107581985D01*
X110401860Y-107581988D01*
X110407168Y-107631367D01*
X110407169Y-107631373D01*
X110408011Y-107639201D01*
X110410762Y-107646578D01*
X110410763Y-107646580D01*
X110455962Y-107767763D01*
X110455964Y-107767766D01*
X110459111Y-107776204D01*
X110464508Y-107783414D01*
X110464510Y-107783417D01*
X110490389Y-107817987D01*
X110546739Y-107893261D01*
X110553950Y-107898659D01*
X110608726Y-107939664D01*
X110648866Y-107990518D01*
X110658430Y-108054596D01*
X110634889Y-108114955D01*
X110584468Y-108155638D01*
X110547280Y-108172196D01*
X110547277Y-108172197D01*
X110541248Y-108174882D01*
X110535907Y-108178762D01*
X110535906Y-108178763D01*
X110392091Y-108283250D01*
X110392087Y-108283254D01*
X110386747Y-108287134D01*
X110382330Y-108292039D01*
X110382325Y-108292044D01*
X110299540Y-108383987D01*
X110258960Y-108429056D01*
X110255661Y-108434769D01*
X110255658Y-108434774D01*
X110184225Y-108558500D01*
X110163473Y-108594444D01*
X110161434Y-108600718D01*
X110161430Y-108600728D01*
X110106497Y-108769794D01*
X110106495Y-108769801D01*
X110104458Y-108776072D01*
X110084496Y-108966000D01*
X110104458Y-109155928D01*
X110106495Y-109162200D01*
X110106497Y-109162205D01*
X110161430Y-109331271D01*
X110161433Y-109331278D01*
X110163473Y-109337556D01*
X110258960Y-109502944D01*
X110386747Y-109644866D01*
X110535669Y-109753065D01*
X110573874Y-109797796D01*
X110587607Y-109854998D01*
X110573874Y-109912201D01*
X110535669Y-109956935D01*
X110392093Y-110061250D01*
X110386747Y-110065134D01*
X110382330Y-110070039D01*
X110382325Y-110070044D01*
X110263379Y-110202148D01*
X110258960Y-110207056D01*
X110255661Y-110212769D01*
X110255658Y-110212774D01*
X110168348Y-110364000D01*
X110163473Y-110372444D01*
X110161434Y-110378718D01*
X110161430Y-110378728D01*
X110106497Y-110547794D01*
X110106495Y-110547801D01*
X110104458Y-110554072D01*
X110084496Y-110744000D01*
X110104458Y-110933928D01*
X110106495Y-110940200D01*
X110106497Y-110940205D01*
X110161430Y-111109271D01*
X110161433Y-111109278D01*
X110163473Y-111115556D01*
X110258960Y-111280944D01*
X110283165Y-111307826D01*
X110313614Y-111370255D01*
X110306353Y-111439335D01*
X110263589Y-111494071D01*
X110138091Y-111585250D01*
X110138083Y-111585256D01*
X110132747Y-111589134D01*
X110128330Y-111594039D01*
X110128325Y-111594044D01*
X110009379Y-111726148D01*
X110004960Y-111731056D01*
X110001661Y-111736769D01*
X110001658Y-111736774D01*
X109912777Y-111890721D01*
X109909473Y-111896444D01*
X109907434Y-111902718D01*
X109907430Y-111902728D01*
X109852497Y-112071794D01*
X109852495Y-112071801D01*
X109850458Y-112078072D01*
X109849768Y-112084633D01*
X109849768Y-112084635D01*
X109845749Y-112122872D01*
X109830496Y-112268000D01*
X109220000Y-112268000D01*
X109220000Y-110506590D01*
X109220000Y-110490000D01*
X102996000Y-110490000D01*
X102933000Y-110473119D01*
X102886881Y-110427000D01*
X102870000Y-110364000D01*
X102870000Y-108684500D01*
X102886881Y-108621500D01*
X102933000Y-108575381D01*
X102996000Y-108558500D01*
X103405500Y-108558500D01*
X103468500Y-108575381D01*
X103514619Y-108621500D01*
X103531500Y-108684500D01*
X103531500Y-109259885D01*
X103532037Y-109263971D01*
X103532038Y-109263972D01*
X103546083Y-109370661D01*
X103546084Y-109370667D01*
X103547162Y-109378850D01*
X103550321Y-109386478D01*
X103550322Y-109386479D01*
X103605315Y-109519245D01*
X103605316Y-109519248D01*
X103608476Y-109526875D01*
X103706013Y-109653987D01*
X103833124Y-109751524D01*
X103981150Y-109812838D01*
X104140000Y-109833751D01*
X104298850Y-109812838D01*
X104446875Y-109751524D01*
X104573987Y-109653987D01*
X104671524Y-109526875D01*
X104732838Y-109378850D01*
X104748500Y-109259885D01*
X104748500Y-108684500D01*
X104765381Y-108621500D01*
X104811500Y-108575381D01*
X104874500Y-108558500D01*
X105445763Y-108558500D01*
X105449885Y-108558500D01*
X105568850Y-108542838D01*
X105716875Y-108481524D01*
X105843987Y-108383987D01*
X105941524Y-108256876D01*
X106002838Y-108108850D01*
X106023751Y-107950000D01*
X106002838Y-107791150D01*
X105941524Y-107643125D01*
X105843987Y-107516013D01*
X105716875Y-107418476D01*
X105709248Y-107415316D01*
X105709245Y-107415315D01*
X105576479Y-107360322D01*
X105576478Y-107360321D01*
X105568850Y-107357162D01*
X105560667Y-107356084D01*
X105560661Y-107356083D01*
X105453972Y-107342038D01*
X105453971Y-107342037D01*
X105449885Y-107341500D01*
X105445763Y-107341500D01*
X104874500Y-107341500D01*
X104811500Y-107324619D01*
X104765381Y-107278500D01*
X104748500Y-107215500D01*
X104748500Y-106644237D01*
X104748500Y-106640115D01*
X104732838Y-106521150D01*
X104671524Y-106373125D01*
X104573987Y-106246013D01*
X104567436Y-106240986D01*
X104567435Y-106240985D01*
X104478257Y-106172556D01*
X104446876Y-106148476D01*
X104439250Y-106145317D01*
X104439248Y-106145316D01*
X104306479Y-106090322D01*
X104306478Y-106090321D01*
X104298850Y-106087162D01*
X104290667Y-106086084D01*
X104290661Y-106086083D01*
X104148188Y-106067327D01*
X104140000Y-106066249D01*
X104131812Y-106067327D01*
X103989338Y-106086083D01*
X103989330Y-106086085D01*
X103981150Y-106087162D01*
X103973523Y-106090321D01*
X103973520Y-106090322D01*
X103840754Y-106145315D01*
X103840748Y-106145318D01*
X103833125Y-106148476D01*
X103826576Y-106153500D01*
X103826571Y-106153504D01*
X103712563Y-106240986D01*
X103712558Y-106240990D01*
X103706013Y-106246013D01*
X103700990Y-106252558D01*
X103700986Y-106252563D01*
X103613504Y-106366571D01*
X103613500Y-106366576D01*
X103608476Y-106373125D01*
X103605318Y-106380748D01*
X103605315Y-106380754D01*
X103550322Y-106513520D01*
X103547162Y-106521150D01*
X103546085Y-106529330D01*
X103546083Y-106529338D01*
X103532038Y-106636027D01*
X103531500Y-106640115D01*
X103531500Y-106644237D01*
X103531500Y-107215500D01*
X103514619Y-107278500D01*
X103468500Y-107324619D01*
X103405500Y-107341500D01*
X102996000Y-107341500D01*
X102933000Y-107324619D01*
X102886881Y-107278500D01*
X102870000Y-107215500D01*
X102870000Y-105801000D01*
X105766496Y-105801000D01*
X105786458Y-105990928D01*
X105788495Y-105997200D01*
X105788497Y-105997205D01*
X105843430Y-106166271D01*
X105843433Y-106166278D01*
X105845473Y-106172556D01*
X105940960Y-106337944D01*
X106068747Y-106479866D01*
X106223248Y-106592118D01*
X106397712Y-106669794D01*
X106584513Y-106709500D01*
X106768884Y-106709500D01*
X106775487Y-106709500D01*
X106962288Y-106669794D01*
X107136752Y-106592118D01*
X107291253Y-106479866D01*
X107419040Y-106337944D01*
X107514527Y-106172556D01*
X107573542Y-105990928D01*
X107593504Y-105801000D01*
X107573542Y-105611072D01*
X107514527Y-105429444D01*
X107419040Y-105264056D01*
X107291253Y-105122134D01*
X107285911Y-105118253D01*
X107285908Y-105118250D01*
X107208057Y-105061688D01*
X107136752Y-105009882D01*
X106962288Y-104932206D01*
X106955835Y-104930834D01*
X106955831Y-104930833D01*
X106781943Y-104893872D01*
X106781940Y-104893871D01*
X106775487Y-104892500D01*
X106584513Y-104892500D01*
X106578060Y-104893871D01*
X106578056Y-104893872D01*
X106404168Y-104930833D01*
X106404161Y-104930835D01*
X106397712Y-104932206D01*
X106391682Y-104934890D01*
X106391681Y-104934891D01*
X106229278Y-105007197D01*
X106229275Y-105007198D01*
X106223248Y-105009882D01*
X106217907Y-105013762D01*
X106217906Y-105013763D01*
X106074091Y-105118250D01*
X106074083Y-105118256D01*
X106068747Y-105122134D01*
X106064330Y-105127039D01*
X106064325Y-105127044D01*
X105945379Y-105259148D01*
X105940960Y-105264056D01*
X105937661Y-105269769D01*
X105937658Y-105269774D01*
X105848777Y-105423721D01*
X105845473Y-105429444D01*
X105843434Y-105435718D01*
X105843430Y-105435728D01*
X105788497Y-105604794D01*
X105788495Y-105604801D01*
X105786458Y-105611072D01*
X105785768Y-105617633D01*
X105785768Y-105617635D01*
X105776895Y-105702056D01*
X105766496Y-105801000D01*
X102870000Y-105801000D01*
X102870000Y-101952000D01*
X110846496Y-101952000D01*
X110866458Y-102141928D01*
X110868495Y-102148200D01*
X110868497Y-102148205D01*
X110923430Y-102317271D01*
X110923433Y-102317278D01*
X110925473Y-102323556D01*
X111020960Y-102488944D01*
X111148747Y-102630866D01*
X111303248Y-102743118D01*
X111477712Y-102820794D01*
X111664513Y-102860500D01*
X111848884Y-102860500D01*
X111855487Y-102860500D01*
X112042288Y-102820794D01*
X112216752Y-102743118D01*
X112371253Y-102630866D01*
X112499040Y-102488944D01*
X112594527Y-102323556D01*
X112653542Y-102141928D01*
X112661522Y-102066000D01*
X113483896Y-102066000D01*
X113503858Y-102255928D01*
X113505895Y-102262200D01*
X113505897Y-102262205D01*
X113560830Y-102431271D01*
X113560833Y-102431278D01*
X113562873Y-102437556D01*
X113658360Y-102602944D01*
X113786147Y-102744866D01*
X113940648Y-102857118D01*
X114115112Y-102934794D01*
X114114550Y-102936054D01*
X114154317Y-102959716D01*
X114185212Y-103005958D01*
X114193191Y-103060996D01*
X114176700Y-103114108D01*
X114134775Y-103186723D01*
X114134771Y-103186730D01*
X114131473Y-103192444D01*
X114129434Y-103198718D01*
X114129430Y-103198728D01*
X114074497Y-103367794D01*
X114074495Y-103367801D01*
X114072458Y-103374072D01*
X114052496Y-103564000D01*
X114072458Y-103753928D01*
X114074495Y-103760200D01*
X114074497Y-103760205D01*
X114129430Y-103929271D01*
X114129433Y-103929278D01*
X114131473Y-103935556D01*
X114134777Y-103941278D01*
X114211778Y-104074649D01*
X114226960Y-104100944D01*
X114354747Y-104242866D01*
X114509248Y-104355118D01*
X114683712Y-104432794D01*
X114870513Y-104472500D01*
X115054884Y-104472500D01*
X115061487Y-104472500D01*
X115248288Y-104432794D01*
X115422752Y-104355118D01*
X115577253Y-104242866D01*
X115705040Y-104100944D01*
X115722246Y-104071143D01*
X125332643Y-104071143D01*
X125332643Y-106748857D01*
X128555672Y-106748857D01*
X128572262Y-106748857D01*
X128572262Y-104071143D01*
X125332643Y-104071143D01*
X115722246Y-104071143D01*
X115800527Y-103935556D01*
X115859542Y-103753928D01*
X115879504Y-103564000D01*
X115859542Y-103374072D01*
X115821745Y-103257748D01*
X115819322Y-103188331D01*
X115854052Y-103128176D01*
X115915382Y-103095566D01*
X115994288Y-103078794D01*
X116168752Y-103001118D01*
X116323253Y-102888866D01*
X116451040Y-102746944D01*
X116546527Y-102581556D01*
X116605542Y-102399928D01*
X116625504Y-102210000D01*
X116605542Y-102020072D01*
X116546527Y-101838444D01*
X116519135Y-101791000D01*
X122730496Y-101791000D01*
X122731186Y-101797565D01*
X122748107Y-101958565D01*
X122750458Y-101980928D01*
X122752495Y-101987200D01*
X122752497Y-101987205D01*
X122807430Y-102156271D01*
X122807433Y-102156278D01*
X122809473Y-102162556D01*
X122904960Y-102327944D01*
X123021085Y-102456914D01*
X123045847Y-102498124D01*
X123053369Y-102545614D01*
X123042796Y-102591420D01*
X123040473Y-102595444D01*
X123038431Y-102601726D01*
X123038431Y-102601728D01*
X122983497Y-102770794D01*
X122983495Y-102770801D01*
X122981458Y-102777072D01*
X122980768Y-102783633D01*
X122980768Y-102783635D01*
X122962262Y-102959716D01*
X122961496Y-102967000D01*
X122981458Y-103156928D01*
X122983495Y-103163200D01*
X122983497Y-103163205D01*
X123038430Y-103332271D01*
X123038433Y-103332278D01*
X123040473Y-103338556D01*
X123135960Y-103503944D01*
X123263747Y-103645866D01*
X123418248Y-103758118D01*
X123592712Y-103835794D01*
X123779513Y-103875500D01*
X123963884Y-103875500D01*
X123970487Y-103875500D01*
X124157288Y-103835794D01*
X124331752Y-103758118D01*
X124486253Y-103645866D01*
X124614040Y-103503944D01*
X124709527Y-103338556D01*
X124768542Y-103156928D01*
X124788504Y-102967000D01*
X124768542Y-102777072D01*
X124722298Y-102634749D01*
X124711569Y-102601728D01*
X124711568Y-102601726D01*
X124709527Y-102595444D01*
X124614040Y-102430056D01*
X124497917Y-102301088D01*
X124473151Y-102259870D01*
X124465630Y-102212375D01*
X124476206Y-102166574D01*
X124478527Y-102162556D01*
X124537542Y-101980928D01*
X124557504Y-101791000D01*
X124537542Y-101601072D01*
X124478527Y-101419444D01*
X124383040Y-101254056D01*
X124255253Y-101112134D01*
X124249911Y-101108253D01*
X124249908Y-101108250D01*
X124160787Y-101043500D01*
X124100752Y-100999882D01*
X123926288Y-100922206D01*
X123919835Y-100920834D01*
X123919831Y-100920833D01*
X123745943Y-100883872D01*
X123745940Y-100883871D01*
X123739487Y-100882500D01*
X123548513Y-100882500D01*
X123542060Y-100883871D01*
X123542056Y-100883872D01*
X123368168Y-100920833D01*
X123368161Y-100920835D01*
X123361712Y-100922206D01*
X123355682Y-100924890D01*
X123355681Y-100924891D01*
X123193278Y-100997197D01*
X123193275Y-100997198D01*
X123187248Y-100999882D01*
X123181907Y-101003762D01*
X123181906Y-101003763D01*
X123038091Y-101108250D01*
X123038083Y-101108256D01*
X123032747Y-101112134D01*
X123028330Y-101117039D01*
X123028325Y-101117044D01*
X122953730Y-101199891D01*
X122904960Y-101254056D01*
X122901661Y-101259769D01*
X122901658Y-101259774D01*
X122828127Y-101387134D01*
X122809473Y-101419444D01*
X122807434Y-101425718D01*
X122807430Y-101425728D01*
X122752497Y-101594794D01*
X122752495Y-101594801D01*
X122750458Y-101601072D01*
X122730496Y-101791000D01*
X116519135Y-101791000D01*
X116451040Y-101673056D01*
X116323253Y-101531134D01*
X116317911Y-101527253D01*
X116317908Y-101527250D01*
X116240057Y-101470688D01*
X116168752Y-101418882D01*
X115994288Y-101341206D01*
X115987835Y-101339834D01*
X115987831Y-101339833D01*
X115813943Y-101302872D01*
X115813940Y-101302871D01*
X115807487Y-101301500D01*
X115616513Y-101301500D01*
X115610060Y-101302871D01*
X115610056Y-101302872D01*
X115436168Y-101339833D01*
X115436161Y-101339835D01*
X115429712Y-101341206D01*
X115423682Y-101343890D01*
X115423681Y-101343891D01*
X115261278Y-101416197D01*
X115261275Y-101416198D01*
X115255248Y-101418882D01*
X115249909Y-101422760D01*
X115249902Y-101422765D01*
X115215236Y-101447951D01*
X115158711Y-101470788D01*
X115098081Y-101464415D01*
X115047543Y-101430326D01*
X115008653Y-101387134D01*
X115003311Y-101383253D01*
X115003308Y-101383250D01*
X114925457Y-101326688D01*
X114854152Y-101274882D01*
X114679688Y-101197206D01*
X114673235Y-101195834D01*
X114673231Y-101195833D01*
X114499343Y-101158872D01*
X114499340Y-101158871D01*
X114492887Y-101157500D01*
X114301913Y-101157500D01*
X114295460Y-101158871D01*
X114295456Y-101158872D01*
X114121568Y-101195833D01*
X114121561Y-101195835D01*
X114115112Y-101197206D01*
X114109082Y-101199890D01*
X114109081Y-101199891D01*
X113946678Y-101272197D01*
X113946675Y-101272198D01*
X113940648Y-101274882D01*
X113935307Y-101278762D01*
X113935306Y-101278763D01*
X113791491Y-101383250D01*
X113791483Y-101383256D01*
X113786147Y-101387134D01*
X113781730Y-101392039D01*
X113781725Y-101392044D01*
X113662779Y-101524148D01*
X113658360Y-101529056D01*
X113655061Y-101534769D01*
X113655058Y-101534774D01*
X113620406Y-101594794D01*
X113562873Y-101694444D01*
X113560834Y-101700718D01*
X113560830Y-101700728D01*
X113505897Y-101869794D01*
X113505895Y-101869801D01*
X113503858Y-101876072D01*
X113483896Y-102066000D01*
X112661522Y-102066000D01*
X112673504Y-101952000D01*
X112653542Y-101762072D01*
X112603362Y-101607635D01*
X112596569Y-101586728D01*
X112596568Y-101586726D01*
X112594527Y-101580444D01*
X112499040Y-101415056D01*
X112371253Y-101273134D01*
X112365911Y-101269253D01*
X112365908Y-101269250D01*
X112266747Y-101197206D01*
X112216752Y-101160882D01*
X112042288Y-101083206D01*
X112035835Y-101081834D01*
X112035831Y-101081833D01*
X111861943Y-101044872D01*
X111861940Y-101044871D01*
X111855487Y-101043500D01*
X111664513Y-101043500D01*
X111658060Y-101044871D01*
X111658056Y-101044872D01*
X111484168Y-101081833D01*
X111484161Y-101081835D01*
X111477712Y-101083206D01*
X111471682Y-101085890D01*
X111471681Y-101085891D01*
X111309278Y-101158197D01*
X111309275Y-101158198D01*
X111303248Y-101160882D01*
X111297907Y-101164762D01*
X111297906Y-101164763D01*
X111154091Y-101269250D01*
X111154083Y-101269256D01*
X111148747Y-101273134D01*
X111144330Y-101278039D01*
X111144325Y-101278044D01*
X111041680Y-101392044D01*
X111020960Y-101415056D01*
X111017661Y-101420769D01*
X111017658Y-101420774D01*
X110951107Y-101536044D01*
X110925473Y-101580444D01*
X110923434Y-101586718D01*
X110923430Y-101586728D01*
X110868497Y-101755794D01*
X110868495Y-101755801D01*
X110866458Y-101762072D01*
X110865768Y-101768633D01*
X110865768Y-101768635D01*
X110855136Y-101869794D01*
X110846496Y-101952000D01*
X102870000Y-101952000D01*
X102870000Y-99888800D01*
X103690496Y-99888800D01*
X103710458Y-100078728D01*
X103712495Y-100085000D01*
X103712497Y-100085005D01*
X103767430Y-100254071D01*
X103767433Y-100254078D01*
X103769473Y-100260356D01*
X103818041Y-100344478D01*
X103850834Y-100401278D01*
X103864960Y-100425744D01*
X103992747Y-100567666D01*
X104147248Y-100679918D01*
X104321712Y-100757594D01*
X104508513Y-100797300D01*
X104692884Y-100797300D01*
X104699487Y-100797300D01*
X104886288Y-100757594D01*
X105060752Y-100679918D01*
X105215253Y-100567666D01*
X105343040Y-100425744D01*
X105438527Y-100260356D01*
X105497542Y-100078728D01*
X105517504Y-99888800D01*
X105497542Y-99698872D01*
X105438527Y-99517244D01*
X105343040Y-99351856D01*
X105215253Y-99209934D01*
X105209911Y-99206053D01*
X105209908Y-99206050D01*
X105182174Y-99185900D01*
X115926496Y-99185900D01*
X115946458Y-99375828D01*
X115948495Y-99382100D01*
X115948497Y-99382105D01*
X116003430Y-99551171D01*
X116003433Y-99551178D01*
X116005473Y-99557456D01*
X116100960Y-99722844D01*
X116228747Y-99864766D01*
X116383248Y-99977018D01*
X116557712Y-100054694D01*
X116744513Y-100094400D01*
X116928884Y-100094400D01*
X116935487Y-100094400D01*
X117122288Y-100054694D01*
X117191228Y-100024000D01*
X118165496Y-100024000D01*
X118185458Y-100213928D01*
X118187495Y-100220200D01*
X118187497Y-100220205D01*
X118242430Y-100389271D01*
X118242433Y-100389278D01*
X118244473Y-100395556D01*
X118339960Y-100560944D01*
X118467747Y-100702866D01*
X118622248Y-100815118D01*
X118796712Y-100892794D01*
X118983513Y-100932500D01*
X119167884Y-100932500D01*
X119174487Y-100932500D01*
X119361288Y-100892794D01*
X119535752Y-100815118D01*
X119690253Y-100702866D01*
X119818040Y-100560944D01*
X119913527Y-100395556D01*
X119972542Y-100213928D01*
X119992504Y-100024000D01*
X119986534Y-99967200D01*
X127989496Y-99967200D01*
X128009458Y-100157128D01*
X128011495Y-100163400D01*
X128011497Y-100163405D01*
X128066430Y-100332471D01*
X128066433Y-100332478D01*
X128068473Y-100338756D01*
X128163960Y-100504144D01*
X128291747Y-100646066D01*
X128446248Y-100758318D01*
X128620712Y-100835994D01*
X128807513Y-100875700D01*
X128991884Y-100875700D01*
X128998487Y-100875700D01*
X129185288Y-100835994D01*
X129359752Y-100758318D01*
X129514253Y-100646066D01*
X129642040Y-100504144D01*
X129737527Y-100338756D01*
X129796542Y-100157128D01*
X129816504Y-99967200D01*
X129796542Y-99777272D01*
X129737527Y-99595644D01*
X129642040Y-99430256D01*
X129514253Y-99288334D01*
X129508911Y-99284453D01*
X129508908Y-99284450D01*
X129373265Y-99185900D01*
X129359752Y-99176082D01*
X129185288Y-99098406D01*
X129178835Y-99097034D01*
X129178831Y-99097033D01*
X129004943Y-99060072D01*
X129004940Y-99060071D01*
X128998487Y-99058700D01*
X128807513Y-99058700D01*
X128801060Y-99060071D01*
X128801056Y-99060072D01*
X128627168Y-99097033D01*
X128627161Y-99097035D01*
X128620712Y-99098406D01*
X128614682Y-99101090D01*
X128614681Y-99101091D01*
X128452278Y-99173397D01*
X128452275Y-99173398D01*
X128446248Y-99176082D01*
X128440907Y-99179962D01*
X128440906Y-99179963D01*
X128297091Y-99284450D01*
X128297083Y-99284456D01*
X128291747Y-99288334D01*
X128287330Y-99293239D01*
X128287325Y-99293244D01*
X128218877Y-99369264D01*
X128163960Y-99430256D01*
X128160661Y-99435969D01*
X128160658Y-99435974D01*
X128090521Y-99557456D01*
X128068473Y-99595644D01*
X128066434Y-99601918D01*
X128066430Y-99601928D01*
X128011497Y-99770994D01*
X128011495Y-99771001D01*
X128009458Y-99777272D01*
X127989496Y-99967200D01*
X119986534Y-99967200D01*
X119972542Y-99834072D01*
X119930745Y-99705435D01*
X119915569Y-99658728D01*
X119915568Y-99658726D01*
X119913527Y-99652444D01*
X119818040Y-99487056D01*
X119690253Y-99345134D01*
X119684911Y-99341253D01*
X119684908Y-99341250D01*
X119606729Y-99284450D01*
X119535752Y-99232882D01*
X119361288Y-99155206D01*
X119354835Y-99153834D01*
X119354831Y-99153833D01*
X119180943Y-99116872D01*
X119180940Y-99116871D01*
X119174487Y-99115500D01*
X118983513Y-99115500D01*
X118977060Y-99116871D01*
X118977056Y-99116872D01*
X118803168Y-99153833D01*
X118803161Y-99153835D01*
X118796712Y-99155206D01*
X118790682Y-99157890D01*
X118790681Y-99157891D01*
X118628278Y-99230197D01*
X118628275Y-99230198D01*
X118622248Y-99232882D01*
X118616907Y-99236762D01*
X118616906Y-99236763D01*
X118473091Y-99341250D01*
X118473083Y-99341256D01*
X118467747Y-99345134D01*
X118463330Y-99350039D01*
X118463325Y-99350044D01*
X118385954Y-99435974D01*
X118339960Y-99487056D01*
X118336661Y-99492769D01*
X118336658Y-99492774D01*
X118273638Y-99601928D01*
X118244473Y-99652444D01*
X118242434Y-99658718D01*
X118242430Y-99658728D01*
X118187497Y-99827794D01*
X118187495Y-99827801D01*
X118185458Y-99834072D01*
X118165496Y-100024000D01*
X117191228Y-100024000D01*
X117296752Y-99977018D01*
X117451253Y-99864766D01*
X117579040Y-99722844D01*
X117674527Y-99557456D01*
X117733542Y-99375828D01*
X117753504Y-99185900D01*
X117733542Y-98995972D01*
X117674527Y-98814344D01*
X117579040Y-98648956D01*
X117451253Y-98507034D01*
X117445911Y-98503153D01*
X117445908Y-98503150D01*
X117368057Y-98446588D01*
X117296752Y-98394782D01*
X117122288Y-98317106D01*
X117115835Y-98315734D01*
X117115831Y-98315733D01*
X116941943Y-98278772D01*
X116941940Y-98278771D01*
X116935487Y-98277400D01*
X116744513Y-98277400D01*
X116738060Y-98278771D01*
X116738056Y-98278772D01*
X116564168Y-98315733D01*
X116564161Y-98315735D01*
X116557712Y-98317106D01*
X116551682Y-98319790D01*
X116551681Y-98319791D01*
X116389278Y-98392097D01*
X116389275Y-98392098D01*
X116383248Y-98394782D01*
X116377907Y-98398662D01*
X116377906Y-98398663D01*
X116234091Y-98503150D01*
X116234083Y-98503156D01*
X116228747Y-98507034D01*
X116224330Y-98511939D01*
X116224325Y-98511944D01*
X116105379Y-98644048D01*
X116100960Y-98648956D01*
X116097661Y-98654669D01*
X116097658Y-98654674D01*
X116008777Y-98808621D01*
X116005473Y-98814344D01*
X116003434Y-98820618D01*
X116003430Y-98820628D01*
X115948497Y-98989694D01*
X115948495Y-98989701D01*
X115946458Y-98995972D01*
X115926496Y-99185900D01*
X105182174Y-99185900D01*
X105132057Y-99149488D01*
X105060752Y-99097682D01*
X104886288Y-99020006D01*
X104879835Y-99018634D01*
X104879831Y-99018633D01*
X104705943Y-98981672D01*
X104705940Y-98981671D01*
X104699487Y-98980300D01*
X104508513Y-98980300D01*
X104502060Y-98981671D01*
X104502056Y-98981672D01*
X104328168Y-99018633D01*
X104328161Y-99018635D01*
X104321712Y-99020006D01*
X104315682Y-99022690D01*
X104315681Y-99022691D01*
X104153278Y-99094997D01*
X104153275Y-99094998D01*
X104147248Y-99097682D01*
X104141907Y-99101562D01*
X104141906Y-99101563D01*
X103998091Y-99206050D01*
X103998083Y-99206056D01*
X103992747Y-99209934D01*
X103988330Y-99214839D01*
X103988325Y-99214844D01*
X103869379Y-99346948D01*
X103864960Y-99351856D01*
X103861661Y-99357569D01*
X103861658Y-99357574D01*
X103786902Y-99487056D01*
X103769473Y-99517244D01*
X103767434Y-99523518D01*
X103767430Y-99523528D01*
X103712497Y-99692594D01*
X103712495Y-99692601D01*
X103710458Y-99698872D01*
X103709768Y-99705433D01*
X103709768Y-99705435D01*
X103707938Y-99722844D01*
X103690496Y-99888800D01*
X102870000Y-99888800D01*
X102870000Y-97028000D01*
X123546496Y-97028000D01*
X123547186Y-97034565D01*
X123564454Y-97198866D01*
X123566458Y-97217928D01*
X123568495Y-97224200D01*
X123568497Y-97224205D01*
X123623430Y-97393271D01*
X123623433Y-97393278D01*
X123625473Y-97399556D01*
X123720960Y-97564944D01*
X123848747Y-97706866D01*
X124003248Y-97819118D01*
X124177712Y-97896794D01*
X124364513Y-97936500D01*
X124548884Y-97936500D01*
X124555487Y-97936500D01*
X124742288Y-97896794D01*
X124916752Y-97819118D01*
X125071253Y-97706866D01*
X125199040Y-97564944D01*
X125294527Y-97399556D01*
X125353542Y-97217928D01*
X125373504Y-97028000D01*
X125353542Y-96838072D01*
X125294527Y-96656444D01*
X125199040Y-96491056D01*
X125071253Y-96349134D01*
X125065911Y-96345253D01*
X125065908Y-96345250D01*
X124988057Y-96288688D01*
X124916752Y-96236882D01*
X124742288Y-96159206D01*
X124735835Y-96157834D01*
X124735831Y-96157833D01*
X124561943Y-96120872D01*
X124561940Y-96120871D01*
X124555487Y-96119500D01*
X124364513Y-96119500D01*
X124358060Y-96120871D01*
X124358056Y-96120872D01*
X124184168Y-96157833D01*
X124184161Y-96157835D01*
X124177712Y-96159206D01*
X124171682Y-96161890D01*
X124171681Y-96161891D01*
X124009278Y-96234197D01*
X124009275Y-96234198D01*
X124003248Y-96236882D01*
X123997907Y-96240762D01*
X123997906Y-96240763D01*
X123854091Y-96345250D01*
X123854083Y-96345256D01*
X123848747Y-96349134D01*
X123844330Y-96354039D01*
X123844325Y-96354044D01*
X123738054Y-96472071D01*
X123720960Y-96491056D01*
X123717661Y-96496769D01*
X123717658Y-96496774D01*
X123636107Y-96638025D01*
X123625473Y-96656444D01*
X123623434Y-96662718D01*
X123623430Y-96662728D01*
X123568497Y-96831794D01*
X123568495Y-96831801D01*
X123566458Y-96838072D01*
X123546496Y-97028000D01*
X102870000Y-97028000D01*
X102870000Y-96106800D01*
X107290496Y-96106800D01*
X107310458Y-96296728D01*
X107312495Y-96303000D01*
X107312497Y-96303005D01*
X107367430Y-96472071D01*
X107367433Y-96472078D01*
X107369473Y-96478356D01*
X107464960Y-96643744D01*
X107592747Y-96785666D01*
X107747248Y-96897918D01*
X107921712Y-96975594D01*
X108108513Y-97015300D01*
X108292884Y-97015300D01*
X108299487Y-97015300D01*
X108486288Y-96975594D01*
X108660752Y-96897918D01*
X108815253Y-96785666D01*
X108943040Y-96643744D01*
X109038527Y-96478356D01*
X109097542Y-96296728D01*
X109117504Y-96106800D01*
X109097542Y-95916872D01*
X109047112Y-95761666D01*
X109040569Y-95741528D01*
X109040568Y-95741526D01*
X109038527Y-95735244D01*
X108943040Y-95569856D01*
X108815253Y-95427934D01*
X108809911Y-95424053D01*
X108809908Y-95424050D01*
X108684355Y-95332831D01*
X108660752Y-95315682D01*
X108486288Y-95238006D01*
X108479835Y-95236634D01*
X108479831Y-95236633D01*
X108305943Y-95199672D01*
X108305940Y-95199671D01*
X108299487Y-95198300D01*
X108108513Y-95198300D01*
X108102060Y-95199671D01*
X108102056Y-95199672D01*
X107928168Y-95236633D01*
X107928161Y-95236635D01*
X107921712Y-95238006D01*
X107915682Y-95240690D01*
X107915681Y-95240691D01*
X107753278Y-95312997D01*
X107753275Y-95312998D01*
X107747248Y-95315682D01*
X107741907Y-95319562D01*
X107741906Y-95319563D01*
X107598091Y-95424050D01*
X107598083Y-95424056D01*
X107592747Y-95427934D01*
X107588330Y-95432839D01*
X107588325Y-95432844D01*
X107563804Y-95460078D01*
X107464960Y-95569856D01*
X107461661Y-95575569D01*
X107461658Y-95575574D01*
X107429658Y-95631000D01*
X107369473Y-95735244D01*
X107367434Y-95741518D01*
X107367430Y-95741528D01*
X107312497Y-95910594D01*
X107312495Y-95910601D01*
X107310458Y-95916872D01*
X107309768Y-95923433D01*
X107309768Y-95923435D01*
X107306664Y-95952966D01*
X107290496Y-96106800D01*
X102870000Y-96106800D01*
X102870000Y-95082800D01*
X112451496Y-95082800D01*
X112471458Y-95272728D01*
X112473495Y-95279000D01*
X112473497Y-95279005D01*
X112528430Y-95448071D01*
X112528433Y-95448078D01*
X112530473Y-95454356D01*
X112625960Y-95619744D01*
X112753747Y-95761666D01*
X112908248Y-95873918D01*
X113082712Y-95951594D01*
X113269513Y-95991300D01*
X113453884Y-95991300D01*
X113460487Y-95991300D01*
X113647288Y-95951594D01*
X113821752Y-95873918D01*
X113976253Y-95761666D01*
X114104040Y-95619744D01*
X114199527Y-95454356D01*
X114244120Y-95317113D01*
X114275174Y-95266640D01*
X114325872Y-95235945D01*
X114384994Y-95231823D01*
X114439457Y-95255183D01*
X114473796Y-95280889D01*
X114610799Y-95331989D01*
X114671362Y-95338500D01*
X116465269Y-95338500D01*
X116468638Y-95338500D01*
X116529201Y-95331989D01*
X116666204Y-95280889D01*
X116783261Y-95193261D01*
X116870889Y-95076204D01*
X116914998Y-94957943D01*
X116951530Y-94905904D01*
X117008820Y-94878328D01*
X117072282Y-94882238D01*
X117125756Y-94916638D01*
X117186760Y-94982906D01*
X117364424Y-95121189D01*
X117562426Y-95228342D01*
X117567355Y-95230034D01*
X117567357Y-95230035D01*
X117590576Y-95238006D01*
X117775365Y-95301444D01*
X117997431Y-95338500D01*
X118217358Y-95338500D01*
X118222569Y-95338500D01*
X118444635Y-95301444D01*
X118657574Y-95228342D01*
X118855576Y-95121189D01*
X119033240Y-94982906D01*
X119185722Y-94817268D01*
X119308860Y-94628791D01*
X119399296Y-94422616D01*
X119454564Y-94204368D01*
X119473156Y-93980000D01*
X119454564Y-93755632D01*
X119399296Y-93537384D01*
X119308860Y-93331209D01*
X119185722Y-93142732D01*
X119066680Y-93013419D01*
X119036772Y-92980930D01*
X119036767Y-92980925D01*
X119033240Y-92977094D01*
X118855576Y-92838811D01*
X118850997Y-92836333D01*
X118850994Y-92836331D01*
X118662159Y-92734139D01*
X118662156Y-92734137D01*
X118657574Y-92731658D01*
X118652650Y-92729967D01*
X118652642Y-92729964D01*
X118449565Y-92660248D01*
X118449559Y-92660246D01*
X118444635Y-92658556D01*
X118439498Y-92657698D01*
X118439495Y-92657698D01*
X118227706Y-92622357D01*
X118227703Y-92622356D01*
X118222569Y-92621500D01*
X117997431Y-92621500D01*
X117992297Y-92622356D01*
X117992293Y-92622357D01*
X117780504Y-92657698D01*
X117780498Y-92657699D01*
X117775365Y-92658556D01*
X117770443Y-92660245D01*
X117770434Y-92660248D01*
X117567357Y-92729964D01*
X117567344Y-92729969D01*
X117562426Y-92731658D01*
X117557847Y-92734135D01*
X117557840Y-92734139D01*
X117369005Y-92836331D01*
X117368997Y-92836336D01*
X117364424Y-92838811D01*
X117360313Y-92842010D01*
X117360311Y-92842012D01*
X117190878Y-92973888D01*
X117190872Y-92973893D01*
X117186760Y-92977094D01*
X117183237Y-92980920D01*
X117183226Y-92980931D01*
X117125754Y-93043362D01*
X117072281Y-93077761D01*
X117008820Y-93081671D01*
X116951530Y-93054095D01*
X116914998Y-93002056D01*
X116874037Y-92892236D01*
X116874036Y-92892235D01*
X116870889Y-92883796D01*
X116783261Y-92766739D01*
X116739713Y-92734139D01*
X116673417Y-92684510D01*
X116673414Y-92684508D01*
X116666204Y-92679111D01*
X116657766Y-92675964D01*
X116657763Y-92675962D01*
X116536580Y-92630763D01*
X116536578Y-92630762D01*
X116529201Y-92628011D01*
X116521373Y-92627169D01*
X116521367Y-92627168D01*
X116471988Y-92621860D01*
X116471985Y-92621859D01*
X116468638Y-92621500D01*
X114671362Y-92621500D01*
X114668015Y-92621859D01*
X114668011Y-92621860D01*
X114618632Y-92627168D01*
X114618625Y-92627169D01*
X114610799Y-92628011D01*
X114603423Y-92630761D01*
X114603419Y-92630763D01*
X114482236Y-92675962D01*
X114482230Y-92675965D01*
X114473796Y-92679111D01*
X114466588Y-92684506D01*
X114466582Y-92684510D01*
X114363950Y-92761340D01*
X114363946Y-92761343D01*
X114356739Y-92766739D01*
X114351343Y-92773946D01*
X114351340Y-92773950D01*
X114274510Y-92876582D01*
X114274506Y-92876588D01*
X114269111Y-92883796D01*
X114265965Y-92892230D01*
X114265962Y-92892236D01*
X114220763Y-93013419D01*
X114220761Y-93013423D01*
X114218011Y-93020799D01*
X114217169Y-93028625D01*
X114217168Y-93028632D01*
X114215585Y-93043362D01*
X114211500Y-93081362D01*
X114211500Y-93084731D01*
X114211500Y-94336962D01*
X114197162Y-94395337D01*
X114157410Y-94440427D01*
X114101291Y-94461969D01*
X114041579Y-94455059D01*
X113991866Y-94421274D01*
X113976253Y-94403934D01*
X113970911Y-94400053D01*
X113970908Y-94400050D01*
X113865746Y-94323646D01*
X113821752Y-94291682D01*
X113647288Y-94214006D01*
X113640835Y-94212634D01*
X113640831Y-94212633D01*
X113466943Y-94175672D01*
X113466940Y-94175671D01*
X113460487Y-94174300D01*
X113269513Y-94174300D01*
X113263060Y-94175671D01*
X113263056Y-94175672D01*
X113089168Y-94212633D01*
X113089161Y-94212635D01*
X113082712Y-94214006D01*
X113076682Y-94216690D01*
X113076681Y-94216691D01*
X112914278Y-94288997D01*
X112914275Y-94288998D01*
X112908248Y-94291682D01*
X112902907Y-94295562D01*
X112902906Y-94295563D01*
X112759091Y-94400050D01*
X112759083Y-94400056D01*
X112753747Y-94403934D01*
X112749330Y-94408839D01*
X112749325Y-94408844D01*
X112630379Y-94540948D01*
X112625960Y-94545856D01*
X112622661Y-94551569D01*
X112622658Y-94551574D01*
X112533777Y-94705521D01*
X112530473Y-94711244D01*
X112528434Y-94717518D01*
X112528430Y-94717528D01*
X112473497Y-94886594D01*
X112473495Y-94886601D01*
X112471458Y-94892872D01*
X112470768Y-94899433D01*
X112470768Y-94899435D01*
X112462398Y-94979069D01*
X112451496Y-95082800D01*
X102870000Y-95082800D01*
X102870000Y-91566000D01*
X102886881Y-91503000D01*
X102933000Y-91456881D01*
X102996000Y-91440000D01*
X110473410Y-91440000D01*
X110490000Y-91440000D01*
X110490000Y-85652631D01*
X110508567Y-85586796D01*
X110558797Y-85540364D01*
X110625886Y-85527019D01*
X110690061Y-85550695D01*
X110795248Y-85627118D01*
X110969712Y-85704794D01*
X111156513Y-85744500D01*
X111340884Y-85744500D01*
X111347487Y-85744500D01*
X111534288Y-85704794D01*
X111708752Y-85627118D01*
X111863253Y-85514866D01*
X111991040Y-85372944D01*
X112086527Y-85207556D01*
X112145542Y-85025928D01*
X112165504Y-84836000D01*
X112145542Y-84646072D01*
X112086527Y-84464444D01*
X111991040Y-84299056D01*
X111863253Y-84157134D01*
X111857911Y-84153253D01*
X111857908Y-84153250D01*
X111764250Y-84085204D01*
X111708752Y-84044882D01*
X111534288Y-83967206D01*
X111527835Y-83965834D01*
X111527831Y-83965833D01*
X111353943Y-83928872D01*
X111353940Y-83928871D01*
X111347487Y-83927500D01*
X111156513Y-83927500D01*
X111150060Y-83928871D01*
X111150056Y-83928872D01*
X110976168Y-83965833D01*
X110976161Y-83965835D01*
X110969712Y-83967206D01*
X110963682Y-83969890D01*
X110963681Y-83969891D01*
X110801278Y-84042197D01*
X110801275Y-84042198D01*
X110795248Y-84044882D01*
X110789907Y-84048762D01*
X110789906Y-84048763D01*
X110690061Y-84121305D01*
X110625886Y-84144981D01*
X110558797Y-84131636D01*
X110508567Y-84085204D01*
X110490000Y-84019369D01*
X110490000Y-83836590D01*
X110490000Y-83820000D01*
X102996000Y-83820000D01*
X102933000Y-83803119D01*
X102886881Y-83757000D01*
X102870000Y-83694000D01*
X102870000Y-82676000D01*
X102886881Y-82613000D01*
X102933000Y-82566881D01*
X102996000Y-82550000D01*
X130684000Y-82550000D01*
X130747000Y-82566881D01*
G37*
%TD.AperFunction*%
%TD*%
M02*
