M48
; DRILL file {KiCad (7.0.0)} date Tue Feb 21 15:07:28 2023
; FORMAT={-:-/ absolute / metric / decimal}
; #@! TF.CreationDate,2023-02-21T15:07:28+01:00
; #@! TF.GenerationSoftware,Kicad,Pcbnew,(7.0.0)
; #@! TF.FileFunction,Plated,1,4,PTH
FMAT,2
METRIC
; #@! TA.AperFunction,Plated,PTH,ViaDrill
T1C0.400
; #@! TA.AperFunction,Plated,PTH,ViaDrill
T2C0.600
; #@! TA.AperFunction,Plated,PTH,ComponentDrill
T3C0.750
; #@! TA.AperFunction,Plated,PTH,ComponentDrill
T4C1.000
; #@! TA.AperFunction,Plated,PTH,ComponentDrill
T5C1.016
; #@! TA.AperFunction,Plated,PTH,ComponentDrill
T6C3.500
%
G90
G05
T1
X75.946Y-61.722
X78.486Y-73.406
X78.785Y-80.121
X81.026Y-65.786
X83.312Y-72.39
X83.312Y-111.76
X100.33Y-102.87
X101.346Y-94.234
X104.394Y-132.842
X108.865Y-94.07
X110.236Y-120.904
X120.65Y-145.542
X121.136Y-137.757
X121.92Y-144.78
X123.695Y-85.771
X123.698Y-76.708
X123.698Y-112.522
X125.589Y-94.218
X127.0Y-116.332
X127.254Y-138.938
X127.282Y-94.04
X128.304Y-84.296
X130.302Y-123.19
X131.312Y-94.071
X134.825Y-100.33
X136.044Y-83.446
X136.716Y-124.169
X138.43Y-101.854
X142.489Y-120.65
X142.494Y-123.698
X143.764Y-119.634
X146.05Y-99.314
X147.002Y-94.176
X155.145Y-124.309
X155.448Y-93.472
X156.226Y-94.541
X156.705Y-93.395
X156.718Y-102.87
X159.258Y-100.584
X164.338Y-103.124
X167.64Y-106.68
X169.212Y-133.973
X169.564Y-145.034
X170.688Y-105.156
X176.479Y-99.766
X178.083Y-111.532
X179.57Y-111.433
X182.372Y-127.254
X182.626Y-142.24
X184.22Y-110.529
X189.743Y-83.242
X191.262Y-104.902
X191.544Y-109.504
X192.206Y-96.452
X195.326Y-85.09
X200.152Y-98.298
X201.168Y-96.012
X203.84Y-99.443
X208.737Y-71.068
X211.853Y-80.748
X213.36Y-77.724
X215.914Y-96.959
X218.424Y-67.08
X219.456Y-76.2
X222.978Y-60.862
X224.057Y-82.013
X233.916Y-49.821
X235.935Y-52.8
X236.728Y-49.53
X239.014Y-41.91
X239.632Y-61.803
T2
X59.436Y-80.01
X59.436Y-82.55
X59.436Y-85.09
X64.008Y-76.708
X65.278Y-75.438
X69.596Y-54.864
X71.374Y-66.04
X71.882Y-64.008
X72.136Y-54.864
X72.715Y-81.915
X74.168Y-54.356
X74.445Y-74.59
X74.93Y-67.818
X77.47Y-56.134
X77.47Y-58.166
X79.736Y-65.895
X82.688Y-66.611
X83.058Y-63.754
X83.058Y-68.326
X85.389Y-83.923
X85.84Y-73.68
X86.36Y-63.246
X87.122Y-78.74
X88.646Y-72.39
X111.748Y-120.662
X124.968Y-87.376
X129.286Y-90.17
X133.096Y-88.138
X135.128Y-88.138
X137.16Y-89.408
X139.954Y-89.408
X149.352Y-89.154
X160.528Y-91.44
X160.608Y-96.52
X161.29Y-124.206
X161.735Y-102.843
X161.735Y-140.97
X161.798Y-107.95
X164.338Y-108.712
X167.894Y-91.44
X170.434Y-112.776
X171.45Y-108.458
X173.99Y-124.46
X179.909Y-91.347
X180.848Y-96.52
X180.848Y-115.57
X180.872Y-86.237
X180.874Y-124.166
X180.878Y-102.039
X180.889Y-132.141
X203.488Y-86.722
X204.38Y-91.039
X204.724Y-134.62
X209.296Y-134.62
X213.614Y-90.678
X214.122Y-79.502
X214.63Y-40.132
X215.433Y-42.397
X215.455Y-52.185
X215.482Y-72.903
X215.526Y-31.92
X215.53Y-62.62
X215.816Y-59.263
X215.822Y-49.127
X215.853Y-69.258
X216.916Y-90.678
X224.826Y-50.981
X224.965Y-71.31
X225.107Y-30.638
X229.88Y-148.683
X230.745Y-144.988
X233.68Y-80.518
X233.68Y-113.538
X236.734Y-110.296
X238.506Y-140.97
X238.695Y-144.916
X238.76Y-80.518
X238.76Y-113.538
X240.538Y-77.47
X240.538Y-140.716
X240.792Y-110.49
X243.84Y-80.518
X243.84Y-113.538
X248.92Y-80.518
X248.92Y-113.538
T3
X145.14Y-85.09
X145.14Y-86.36
X145.14Y-87.63
T4
X53.34Y-40.64
X53.34Y-43.18
X55.88Y-40.64
X55.88Y-43.18
X55.88Y-50.8
X55.88Y-53.34
X55.88Y-55.88
X81.28Y-50.8
X81.28Y-53.34
X81.28Y-55.88
X83.82Y-50.8
X83.82Y-53.34
X83.82Y-55.88
X101.6Y-78.74
X104.14Y-78.74
X106.68Y-78.74
X109.22Y-78.74
X111.76Y-78.74
X114.3Y-78.74
X116.84Y-78.74
X119.38Y-78.74
X121.92Y-78.74
X124.46Y-78.74
X127.0Y-78.74
X129.54Y-78.74
X132.08Y-78.74
X134.62Y-78.74
X137.16Y-78.74
X139.7Y-78.74
X165.1Y-114.3
X165.1Y-119.38
X165.1Y-124.46
X165.1Y-127.0
X167.64Y-114.3
X167.64Y-119.38
X167.64Y-124.46
X167.64Y-127.0
X167.64Y-134.62
X167.64Y-137.16
X167.64Y-139.7
X167.64Y-142.24
X205.74Y-142.24
X208.28Y-142.24
X210.12Y-49.74
X210.12Y-53.74
X210.12Y-60.74
X210.12Y-64.74
X210.82Y-142.24
X213.36Y-142.24
X215.9Y-142.24
X228.6Y-33.02
X228.6Y-35.56
X228.6Y-43.18
X228.6Y-45.72
X228.6Y-53.34
X228.6Y-55.88
X228.6Y-63.5
X228.6Y-66.04
X228.6Y-73.66
X228.6Y-76.2
X242.57Y-147.32
X242.57Y-149.86
X246.38Y-40.64
X246.38Y-43.18
X246.38Y-45.72
X246.38Y-48.26
X246.38Y-50.8
X246.38Y-53.34
X246.38Y-55.88
X246.38Y-58.42
X246.38Y-60.96
X246.38Y-63.5
X246.38Y-66.04
X246.38Y-68.58
X246.38Y-71.12
X246.38Y-73.66
X246.38Y-76.2
X248.92Y-40.64
X248.92Y-43.18
X248.92Y-45.72
X248.92Y-48.26
X248.92Y-50.8
X248.92Y-53.34
X248.92Y-55.88
X248.92Y-58.42
X248.92Y-60.96
X248.92Y-63.5
X248.92Y-66.04
X248.92Y-68.58
X248.92Y-71.12
X248.92Y-73.66
X248.92Y-76.2
X248.92Y-93.98
X248.92Y-96.52
X248.92Y-99.06
X248.92Y-101.6
X248.92Y-104.14
X248.92Y-127.0
X248.92Y-129.54
X248.92Y-132.08
X248.92Y-134.62
X248.92Y-137.16
T5
X75.306Y-140.97
X77.846Y-140.97
X80.386Y-140.97
X82.926Y-140.97
X84.45Y-92.71
X85.466Y-140.97
X86.99Y-92.71
X88.006Y-140.97
X89.53Y-92.71
X90.546Y-140.97
X92.07Y-92.71
X93.086Y-140.97
X94.61Y-92.71
X95.626Y-140.97
X97.15Y-92.71
X98.166Y-140.97
X99.69Y-92.71
X102.23Y-92.71
X102.23Y-140.97
X104.77Y-140.97
X107.31Y-92.71
X107.31Y-140.97
X109.85Y-92.71
X109.85Y-140.97
X112.39Y-92.71
X112.39Y-140.97
X114.93Y-92.71
X114.93Y-140.97
X117.47Y-92.71
X117.47Y-140.97
X120.01Y-92.71
X120.01Y-140.97
X120.137Y-115.57
X120.137Y-118.11
X120.137Y-120.65
X122.55Y-92.71
X122.677Y-115.57
X122.677Y-118.11
X122.677Y-120.65
X125.09Y-92.71
X125.09Y-140.97
X127.63Y-140.97
X130.17Y-92.71
X130.17Y-140.97
X132.71Y-92.71
X132.71Y-140.97
X135.25Y-92.71
X135.25Y-140.97
X137.79Y-92.71
X137.79Y-140.97
X140.33Y-92.71
X140.33Y-140.97
X142.87Y-92.71
X142.87Y-140.97
X145.41Y-92.71
X147.95Y-92.71
X150.49Y-97.79
X150.49Y-100.33
X150.49Y-102.87
X150.49Y-105.41
X150.49Y-107.95
X150.49Y-110.49
X150.49Y-113.03
X150.49Y-115.57
X150.49Y-118.11
X150.49Y-120.65
X150.49Y-123.19
X150.49Y-125.73
X150.49Y-128.27
X150.49Y-130.81
X150.49Y-133.35
X150.49Y-135.89
X150.49Y-138.43
X150.49Y-140.97
X153.03Y-97.79
X153.03Y-100.33
X153.03Y-102.87
X153.03Y-105.41
X153.03Y-107.95
X153.03Y-110.49
X153.03Y-113.03
X153.03Y-115.57
X153.03Y-118.11
X153.03Y-120.65
X153.03Y-123.19
X153.03Y-125.73
X153.03Y-128.27
X153.03Y-130.81
X153.03Y-133.35
X153.03Y-135.89
X153.03Y-138.43
X153.03Y-140.97
T6
X94.12Y-40.74
X94.12Y-77.74
X209.12Y-40.74
X209.12Y-77.74
T0
M30
