%TF.GenerationSoftware,KiCad,Pcbnew,(7.0.0)*%
%TF.CreationDate,2023-02-21T15:07:20+01:00*%
%TF.ProjectId,MagicGame,4d616769-6347-4616-9d65-2e6b69636164,1.1*%
%TF.SameCoordinates,Original*%
%TF.FileFunction,Copper,L4,Bot*%
%TF.FilePolarity,Positive*%
%FSLAX46Y46*%
G04 Gerber Fmt 4.6, Leading zero omitted, Abs format (unit mm)*
G04 Created by KiCad (PCBNEW (7.0.0)) date 2023-02-21 15:07:20*
%MOMM*%
%LPD*%
G01*
G04 APERTURE LIST*
%ADD10C,0.300000*%
%TA.AperFunction,NonConductor*%
%ADD11C,0.300000*%
%TD*%
%TA.AperFunction,ComponentPad*%
%ADD12O,1.727200X1.727200*%
%TD*%
%TA.AperFunction,ComponentPad*%
%ADD13R,1.727200X1.727200*%
%TD*%
%TA.AperFunction,ComponentPad*%
%ADD14R,1.700000X1.700000*%
%TD*%
%TA.AperFunction,ComponentPad*%
%ADD15O,1.700000X1.700000*%
%TD*%
%TA.AperFunction,ComponentPad*%
%ADD16R,1.500000X1.050000*%
%TD*%
%TA.AperFunction,ComponentPad*%
%ADD17O,1.500000X1.050000*%
%TD*%
%TA.AperFunction,ComponentPad*%
%ADD18C,6.500000*%
%TD*%
%TA.AperFunction,ComponentPad*%
%ADD19R,1.500000X3.000000*%
%TD*%
%TA.AperFunction,ComponentPad*%
%ADD20O,1.500000X3.000000*%
%TD*%
%TA.AperFunction,ComponentPad*%
%ADD21R,2.000000X2.000000*%
%TD*%
%TA.AperFunction,ViaPad*%
%ADD22C,1.000000*%
%TD*%
%TA.AperFunction,ViaPad*%
%ADD23C,0.800000*%
%TD*%
%TA.AperFunction,Conductor*%
%ADD24C,0.500000*%
%TD*%
%TA.AperFunction,Conductor*%
%ADD25C,0.700000*%
%TD*%
%TA.AperFunction,Conductor*%
%ADD26C,0.400000*%
%TD*%
%TA.AperFunction,Conductor*%
%ADD27C,0.450000*%
%TD*%
G04 APERTURE END LIST*
D10*
D11*
X67508571Y-150411071D02*
X68222857Y-150411071D01*
X68222857Y-150411071D02*
X68222857Y-148911071D01*
X66365714Y-149411071D02*
X66365714Y-150411071D01*
X66722856Y-148839642D02*
X67079999Y-149911071D01*
X67079999Y-149911071D02*
X66151428Y-149911071D01*
D12*
%TO.P,XA1,*%
%TO.N,*%
X84449999Y-92709999D03*
%TO.P,XA1,3V3,3.3V*%
%TO.N,+3.3V*%
X92069999Y-92709999D03*
%TO.P,XA1,5V1,5V*%
%TO.N,5V_ARDUINO*%
X94609999Y-92709999D03*
%TO.P,XA1,5V2,SPI_5V*%
%TO.N,ICSP_5V*%
X122676999Y-120649999D03*
%TO.P,XA1,5V3,5V*%
%TO.N,5V_ARDUINO*%
X150489999Y-140969999D03*
%TO.P,XA1,5V4,5V*%
X153029999Y-140969999D03*
%TO.P,XA1,A0,A0*%
%TO.N,/JOY_AZ*%
X107309999Y-92709999D03*
%TO.P,XA1,A1,A1*%
%TO.N,/JOY_EL*%
X109849999Y-92709999D03*
%TO.P,XA1,A2,A2*%
%TO.N,/JOY_START*%
X112389999Y-92709999D03*
%TO.P,XA1,A3,A3*%
%TO.N,unconnected-(XA1-PadA3)*%
X114929999Y-92709999D03*
%TO.P,XA1,A4,A4*%
%TO.N,unconnected-(XA1-PadA4)*%
X117469999Y-92709999D03*
%TO.P,XA1,A5,A5*%
%TO.N,unconnected-(XA1-PadA5)*%
X120009999Y-92709999D03*
%TO.P,XA1,A6,A6*%
%TO.N,unconnected-(XA1-PadA6)*%
X122549999Y-92709999D03*
%TO.P,XA1,A7,A7*%
%TO.N,unconnected-(XA1-PadA7)*%
X125089999Y-92709999D03*
%TO.P,XA1,A8,A8*%
%TO.N,unconnected-(XA1-PadA8)*%
X130169999Y-92709999D03*
%TO.P,XA1,A9,A9*%
%TO.N,unconnected-(XA1-PadA9)*%
X132709999Y-92709999D03*
%TO.P,XA1,A10,A10*%
%TO.N,unconnected-(XA1-PadA10)*%
X135249999Y-92709999D03*
%TO.P,XA1,A11,A11*%
%TO.N,unconnected-(XA1-PadA11)*%
X137789999Y-92709999D03*
%TO.P,XA1,A12,A12*%
%TO.N,unconnected-(XA1-PadA12)*%
X140329999Y-92709999D03*
%TO.P,XA1,A13,A13*%
%TO.N,unconnected-(XA1-PadA13)*%
X142869999Y-92709999D03*
%TO.P,XA1,A14,A14*%
%TO.N,unconnected-(XA1-PadA14)*%
X145409999Y-92709999D03*
%TO.P,XA1,A15,A15*%
%TO.N,unconnected-(XA1-PadA15)*%
X147949999Y-92709999D03*
%TO.P,XA1,AREF,AREF*%
%TO.N,unconnected-(XA1-PadAREF)*%
X80385999Y-140969999D03*
%TO.P,XA1,D0,D0_RX0*%
%TO.N,unconnected-(XA1-D0_RX0-PadD0)*%
X120009999Y-140969999D03*
%TO.P,XA1,D1,D1_TX0*%
%TO.N,unconnected-(XA1-D1_TX0-PadD1)*%
X117469999Y-140969999D03*
%TO.P,XA1,D2,D2_INT0*%
%TO.N,LED_PROGRESS1*%
X114929999Y-140969999D03*
%TO.P,XA1,D3,D3_INT1*%
%TO.N,LED_PROGRESS2*%
X112389999Y-140969999D03*
%TO.P,XA1,D4,D4*%
%TO.N,LED_PROGRESS3*%
X109849999Y-140969999D03*
%TO.P,XA1,D5,D5*%
%TO.N,LED_PROGRESS4*%
X107309999Y-140969999D03*
%TO.P,XA1,D6,D6*%
%TO.N,LED_PROGRESS5*%
X104769999Y-140969999D03*
%TO.P,XA1,D7,D7*%
%TO.N,unconnected-(XA1-PadD7)*%
X102229999Y-140969999D03*
%TO.P,XA1,D8,D8*%
%TO.N,LCD_CO*%
X98165999Y-140969999D03*
%TO.P,XA1,D9,D9*%
%TO.N,LCD_BL*%
X95625999Y-140969999D03*
%TO.P,XA1,D10,D10*%
%TO.N,unconnected-(XA1-PadD10)*%
X93085999Y-140969999D03*
%TO.P,XA1,D11,D11*%
%TO.N,unconnected-(XA1-PadD11)*%
X90545999Y-140969999D03*
%TO.P,XA1,D12,D12*%
%TO.N,unconnected-(XA1-PadD12)*%
X88005999Y-140969999D03*
%TO.P,XA1,D13,D13*%
%TO.N,unconnected-(XA1-PadD13)*%
X85465999Y-140969999D03*
%TO.P,XA1,D14,D14_TX3*%
%TO.N,unconnected-(XA1-D14_TX3-PadD14)*%
X125089999Y-140969999D03*
%TO.P,XA1,D15,D15_RX3*%
%TO.N,unconnected-(XA1-D15_RX3-PadD15)*%
X127629999Y-140969999D03*
%TO.P,XA1,D16,D16_TX2*%
%TO.N,unconnected-(XA1-D16_TX2-PadD16)*%
X130169999Y-140969999D03*
%TO.P,XA1,D17,D17_RX2*%
%TO.N,unconnected-(XA1-D17_RX2-PadD17)*%
X132709999Y-140969999D03*
%TO.P,XA1,D18,D18_TX1*%
%TO.N,USB_UART_RX*%
X135249999Y-140969999D03*
%TO.P,XA1,D19,D19_RX1*%
%TO.N,USB_UART_TX*%
X137789999Y-140969999D03*
%TO.P,XA1,D20,D20_SDA*%
%TO.N,I2C_SDA*%
X140329999Y-140969999D03*
%TO.P,XA1,D21,D21_SCL*%
%TO.N,I2C_SCL*%
X142869999Y-140969999D03*
%TO.P,XA1,D22,D22*%
%TO.N,SW_LIMIT_AZ_L*%
X150489999Y-138429999D03*
%TO.P,XA1,D23,D23*%
%TO.N,SW_LIMIT_AZ_R*%
X153029999Y-138429999D03*
%TO.P,XA1,D24,D24*%
%TO.N,SW_LIMIT_EL_B*%
X150489999Y-135889999D03*
%TO.P,XA1,D25,D25*%
%TO.N,SW_LIMIT_EL_T*%
X153029999Y-135889999D03*
%TO.P,XA1,D26,D26*%
%TO.N,SW_START*%
X150489999Y-133349999D03*
%TO.P,XA1,D27,D27*%
%TO.N,unconnected-(XA1-PadD27)*%
X153029999Y-133349999D03*
%TO.P,XA1,D28,D28*%
%TO.N,unconnected-(XA1-PadD28)*%
X150489999Y-130809999D03*
%TO.P,XA1,D29,D29*%
%TO.N,unconnected-(XA1-PadD29)*%
X153029999Y-130809999D03*
%TO.P,XA1,D30,D30*%
%TO.N,MOTOR1_A+*%
X150489999Y-128269999D03*
%TO.P,XA1,D31,D31*%
%TO.N,MOTOR1_B+*%
X153029999Y-128269999D03*
%TO.P,XA1,D32,D32*%
%TO.N,MOTOR1_A-*%
X150489999Y-125729999D03*
%TO.P,XA1,D33,D33*%
%TO.N,MOTOR1_B-*%
X153029999Y-125729999D03*
%TO.P,XA1,D34,D34*%
%TO.N,MOTOR2_A+*%
X150489999Y-123189999D03*
%TO.P,XA1,D35,D35*%
%TO.N,MOTOR2_B+*%
X153029999Y-123189999D03*
%TO.P,XA1,D36,D36*%
%TO.N,MOTOR2_A-*%
X150489999Y-120649999D03*
%TO.P,XA1,D37,D37*%
%TO.N,MOTOR2_B-*%
X153029999Y-120649999D03*
%TO.P,XA1,D38,D38*%
%TO.N,LED_AZ_LEFT*%
X150489999Y-118109999D03*
%TO.P,XA1,D39,D39*%
%TO.N,LED_AZ_CENTER*%
X153029999Y-118109999D03*
%TO.P,XA1,D40,D40*%
%TO.N,LED_AZ_RIGHT*%
X150489999Y-115569999D03*
%TO.P,XA1,D41,D41*%
%TO.N,unconnected-(XA1-PadD41)*%
X153029999Y-115569999D03*
%TO.P,XA1,D42,D42*%
%TO.N,LED_EL_BOTTOM*%
X150489999Y-113029999D03*
%TO.P,XA1,D43,D43*%
%TO.N,LED_EL_CENTER*%
X153029999Y-113029999D03*
%TO.P,XA1,D44,D44*%
%TO.N,LED_EL_TOP*%
X150489999Y-110489999D03*
%TO.P,XA1,D45,D45*%
%TO.N,unconnected-(XA1-PadD45)*%
X153029999Y-110489999D03*
%TO.P,XA1,D46,D46*%
%TO.N,LED_OK*%
X150489999Y-107949999D03*
%TO.P,XA1,D47,D47*%
%TO.N,LED_ERROR*%
X153029999Y-107949999D03*
%TO.P,XA1,D48,D48*%
%TO.N,LCD_RS*%
X150489999Y-105409999D03*
%TO.P,XA1,D49,D49*%
%TO.N,LCD_EN*%
X153029999Y-105409999D03*
%TO.P,XA1,D50,D50*%
%TO.N,LCD_D4*%
X150489999Y-102869999D03*
%TO.P,XA1,D51,D51*%
%TO.N,LCD_D5*%
X153029999Y-102869999D03*
%TO.P,XA1,D52,D52*%
%TO.N,LCD_D6*%
X150489999Y-100329999D03*
%TO.P,XA1,D53,D53_SS*%
%TO.N,LCD_D7*%
X153029999Y-100329999D03*
D13*
%TO.P,XA1,GND1,GND*%
%TO.N,GND*%
X82925999Y-140969999D03*
%TO.P,XA1,GND2,GND*%
X97149999Y-92709999D03*
%TO.P,XA1,GND3,GND*%
X99689999Y-92709999D03*
%TO.P,XA1,GND4,SPI_GND*%
%TO.N,ICSP_GND*%
X122676999Y-115569999D03*
%TO.P,XA1,GND5,GND*%
%TO.N,GND*%
X150489999Y-97789999D03*
%TO.P,XA1,GND6,GND*%
X153029999Y-97789999D03*
D12*
%TO.P,XA1,IORF,IOREF*%
%TO.N,unconnected-(XA1-IOREF-PadIORF)*%
X86989999Y-92709999D03*
%TO.P,XA1,MISO,SPI_MISO*%
%TO.N,ICSP_MISO*%
X120136999Y-120649999D03*
%TO.P,XA1,MOSI,SPI_MOSI*%
%TO.N,ICSP_MOSI*%
X122676999Y-118109999D03*
%TO.P,XA1,RST1,RESET*%
%TO.N,RESET*%
X89529999Y-92709999D03*
%TO.P,XA1,RST2,SPI_RESET*%
%TO.N,ICSP_RST*%
X120136999Y-115569999D03*
%TO.P,XA1,SCK,SPI_SCK*%
%TO.N,ICSP_SCK*%
X120136999Y-118109999D03*
%TO.P,XA1,SCL,SCL*%
%TO.N,unconnected-(XA1-PadSCL)*%
X75305999Y-140969999D03*
%TO.P,XA1,SDA,SDA*%
%TO.N,unconnected-(XA1-PadSDA)*%
X77845999Y-140969999D03*
%TO.P,XA1,VIN,VIN*%
%TO.N,unconnected-(XA1-PadVIN)*%
X102229999Y-92709999D03*
%TD*%
D14*
%TO.P,J2,1,Pin_1*%
%TO.N,GND*%
X167639999Y-134619999D03*
D15*
%TO.P,J2,2,Pin_2*%
%TO.N,I2C_SCL*%
X167639999Y-137159999D03*
%TO.P,J2,3,Pin_3*%
%TO.N,I2C_SDA*%
X167639999Y-139699999D03*
%TO.P,J2,4,Pin_4*%
%TO.N,Net-(J2-Pin_4)*%
X167639999Y-142239999D03*
%TD*%
D14*
%TO.P,J9,1,Pin_1*%
%TO.N,GND*%
X242569999Y-147319999D03*
D15*
%TO.P,J9,2,Pin_2*%
%TO.N,SW_START*%
X242569999Y-149859999D03*
%TD*%
D14*
%TO.P,J11,1,Pin_1*%
%TO.N,GND*%
X228599999Y-53339999D03*
D15*
%TO.P,J11,2,Pin_2*%
%TO.N,SW_LIMIT_AZ_R*%
X228599999Y-55879999D03*
%TD*%
D14*
%TO.P,J12,1,Pin_1*%
%TO.N,GND*%
X228599999Y-63499999D03*
D15*
%TO.P,J12,2,Pin_2*%
%TO.N,SW_LIMIT_EL_B*%
X228599999Y-66039999D03*
%TD*%
D16*
%TO.P,Q1,1,E*%
%TO.N,GND*%
X145139999Y-87629999D03*
D17*
%TO.P,Q1,2,B*%
%TO.N,Net-(Q1-B)*%
X145139999Y-86359999D03*
%TO.P,Q1,3,C*%
%TO.N,Net-(Q1-C)*%
X145139999Y-85089999D03*
%TD*%
D14*
%TO.P,J8,1,Pin_1*%
%TO.N,GND*%
X228599999Y-33019999D03*
D15*
%TO.P,J8,2,Pin_2*%
%TO.N,RESET*%
X228599999Y-35559999D03*
%TD*%
D14*
%TO.P,J13,1,Pin_1*%
%TO.N,GND*%
X228599999Y-73659999D03*
D15*
%TO.P,J13,2,Pin_2*%
%TO.N,SW_LIMIT_EL_T*%
X228599999Y-76199999D03*
%TD*%
D14*
%TO.P,J16,1,Pin_1*%
%TO.N,+5V*%
X165099999Y-114299999D03*
D15*
%TO.P,J16,2,Pin_2*%
X167639999Y-114299999D03*
%TD*%
D14*
%TO.P,J14,1,Pin_1*%
%TO.N,GND*%
X165099999Y-124459999D03*
D15*
%TO.P,J14,2,Pin_2*%
X167639999Y-124459999D03*
%TO.P,J14,3,Pin_3*%
X165099999Y-126999999D03*
%TO.P,J14,4,Pin_4*%
X167639999Y-126999999D03*
%TD*%
D14*
%TO.P,J7,1,Pin_1*%
%TO.N,GND*%
X248919999Y-76199999D03*
D15*
%TO.P,J7,2,Pin_2*%
%TO.N,Net-(J7-Pin_2)*%
X246379999Y-76199999D03*
%TO.P,J7,3,Pin_3*%
%TO.N,GND*%
X248919999Y-73659999D03*
%TO.P,J7,4,Pin_4*%
%TO.N,Net-(J7-Pin_4)*%
X246379999Y-73659999D03*
%TO.P,J7,5,Pin_5*%
%TO.N,GND*%
X248919999Y-71119999D03*
%TO.P,J7,6,Pin_6*%
%TO.N,Net-(J7-Pin_6)*%
X246379999Y-71119999D03*
%TO.P,J7,7,Pin_7*%
%TO.N,GND*%
X248919999Y-68579999D03*
%TO.P,J7,8,Pin_8*%
%TO.N,Net-(J7-Pin_8)*%
X246379999Y-68579999D03*
%TO.P,J7,9,Pin_9*%
%TO.N,GND*%
X248919999Y-66039999D03*
%TO.P,J7,10,Pin_10*%
%TO.N,Net-(J7-Pin_10)*%
X246379999Y-66039999D03*
%TO.P,J7,11,Pin_11*%
%TO.N,GND*%
X248919999Y-63499999D03*
%TO.P,J7,12,Pin_12*%
%TO.N,Net-(J7-Pin_12)*%
X246379999Y-63499999D03*
%TO.P,J7,13,Pin_13*%
%TO.N,GND*%
X248919999Y-60959999D03*
%TO.P,J7,14,Pin_14*%
%TO.N,Net-(J7-Pin_14)*%
X246379999Y-60959999D03*
%TO.P,J7,15,Pin_15*%
%TO.N,GND*%
X248919999Y-58419999D03*
%TO.P,J7,16,Pin_16*%
%TO.N,Net-(J7-Pin_16)*%
X246379999Y-58419999D03*
%TO.P,J7,17,Pin_17*%
%TO.N,GND*%
X248919999Y-55879999D03*
%TO.P,J7,18,Pin_18*%
%TO.N,Net-(J7-Pin_18)*%
X246379999Y-55879999D03*
%TO.P,J7,19,Pin_19*%
%TO.N,GND*%
X248919999Y-53339999D03*
%TO.P,J7,20,Pin_20*%
%TO.N,Net-(J7-Pin_20)*%
X246379999Y-53339999D03*
%TO.P,J7,21,Pin_21*%
%TO.N,GND*%
X248919999Y-50799999D03*
%TO.P,J7,22,Pin_22*%
%TO.N,Net-(J7-Pin_22)*%
X246379999Y-50799999D03*
%TO.P,J7,23,Pin_23*%
%TO.N,GND*%
X248919999Y-48259999D03*
%TO.P,J7,24,Pin_24*%
%TO.N,Net-(J7-Pin_24)*%
X246379999Y-48259999D03*
%TO.P,J7,25,Pin_25*%
%TO.N,GND*%
X248919999Y-45719999D03*
%TO.P,J7,26,Pin_26*%
%TO.N,Net-(J7-Pin_26)*%
X246379999Y-45719999D03*
%TO.P,J7,27,Pin_27*%
%TO.N,GND*%
X248919999Y-43179999D03*
%TO.P,J7,28,Pin_28*%
%TO.N,Net-(J7-Pin_28)*%
X246379999Y-43179999D03*
%TO.P,J7,29,Pin_29*%
%TO.N,GND*%
X248919999Y-40639999D03*
%TO.P,J7,30,Pin_30*%
%TO.N,Net-(J7-Pin_30)*%
X246379999Y-40639999D03*
%TD*%
D14*
%TO.P,J4,1,Pin_1*%
%TO.N,+5V*%
X248919999Y-104139999D03*
D15*
%TO.P,J4,2,Pin_2*%
%TO.N,Net-(J4-Pin_2)*%
X248919999Y-101599999D03*
%TO.P,J4,3,Pin_3*%
%TO.N,Net-(J4-Pin_3)*%
X248919999Y-99059999D03*
%TO.P,J4,4,Pin_4*%
%TO.N,Net-(J4-Pin_4)*%
X248919999Y-96519999D03*
%TO.P,J4,5,Pin_5*%
%TO.N,Net-(J4-Pin_5)*%
X248919999Y-93979999D03*
%TD*%
D14*
%TO.P,J17,1,Pin_1*%
%TO.N,+3.3V*%
X165099999Y-119379999D03*
D15*
%TO.P,J17,2,Pin_2*%
X167639999Y-119379999D03*
%TD*%
D14*
%TO.P,J3,1,Pin_1*%
%TO.N,ICSP_MISO*%
X81279999Y-50799999D03*
D15*
%TO.P,J3,2,Pin_2*%
%TO.N,ICSP_5V*%
X83819999Y-50799999D03*
%TO.P,J3,3,Pin_3*%
%TO.N,ICSP_SCK*%
X81279999Y-53339999D03*
%TO.P,J3,4,Pin_4*%
%TO.N,ICSP_MOSI*%
X83819999Y-53339999D03*
%TO.P,J3,5,Pin_5*%
%TO.N,ICSP_RST*%
X81279999Y-55879999D03*
%TO.P,J3,6,Pin_6*%
%TO.N,ICSP_GND*%
X83819999Y-55879999D03*
%TD*%
D14*
%TO.P,J15,1,Pin_1*%
%TO.N,GND*%
X53339999Y-40639999D03*
D15*
%TO.P,J15,2,Pin_2*%
X55879999Y-40639999D03*
%TO.P,J15,3,Pin_3*%
X53339999Y-43179999D03*
%TO.P,J15,4,Pin_4*%
X55879999Y-43179999D03*
%TD*%
D18*
%TO.P,U4,*%
%TO.N,*%
X209120000Y-77740000D03*
X209120000Y-40740000D03*
X94120000Y-77740000D03*
X94120000Y-40740000D03*
D19*
%TO.P,U4,1,VSS*%
%TO.N,GND*%
X134619999Y-78739999D03*
D20*
%TO.P,U4,2,VDD*%
%TO.N,+5V*%
X132079999Y-78739999D03*
%TO.P,U4,3,VO*%
%TO.N,Net-(U4-VO)*%
X129539999Y-78739999D03*
%TO.P,U4,4,RS*%
%TO.N,LCD_RS*%
X126999999Y-78739999D03*
%TO.P,U4,5,R/~{W}*%
%TO.N,Net-(U4-R{slash}~{W})*%
X124459999Y-78739999D03*
%TO.P,U4,6,E*%
%TO.N,LCD_EN*%
X121919999Y-78739999D03*
%TO.P,U4,7,DB0*%
%TO.N,unconnected-(U4-DB0-Pad7)*%
X119379999Y-78739999D03*
%TO.P,U4,8,DB1*%
%TO.N,unconnected-(U4-DB1-Pad8)*%
X116839999Y-78739999D03*
%TO.P,U4,9,DB2*%
%TO.N,unconnected-(U4-DB2-Pad9)*%
X114299999Y-78739999D03*
%TO.P,U4,10,DB3*%
%TO.N,unconnected-(U4-DB3-Pad10)*%
X111759999Y-78739999D03*
%TO.P,U4,11,DB4*%
%TO.N,LCD_D4*%
X109219999Y-78739999D03*
%TO.P,U4,12,DB5*%
%TO.N,LCD_D5*%
X106679999Y-78739999D03*
%TO.P,U4,13,DB6*%
%TO.N,LCD_D6*%
X104139999Y-78739999D03*
%TO.P,U4,14,DB7*%
%TO.N,LCD_D7*%
X101599999Y-78739999D03*
%TO.P,U4,15,A/VEE*%
%TO.N,Net-(U4-A{slash}VEE)*%
X137159999Y-78739999D03*
%TO.P,U4,16,K*%
%TO.N,Net-(U4-K)*%
X139699999Y-78739999D03*
D21*
%TO.P,U4,A1,A1*%
%TO.N,unconnected-(U4-PadA1)*%
X210119999Y-64739999D03*
%TO.P,U4,A2,A2*%
%TO.N,unconnected-(U4-PadA2)*%
X210119999Y-53739999D03*
%TO.P,U4,K1,K1*%
%TO.N,unconnected-(U4-PadK1)*%
X210119999Y-60739999D03*
%TO.P,U4,K2,K2*%
%TO.N,unconnected-(U4-PadK2)*%
X210119999Y-49739999D03*
%TD*%
D14*
%TO.P,JP1,1,A*%
%TO.N,/VBUS_filtered*%
X55879999Y-55879999D03*
D15*
%TO.P,JP1,2,C*%
%TO.N,+5V*%
X55879999Y-53339999D03*
%TO.P,JP1,3,B*%
%TO.N,5V_ARDUINO*%
X55879999Y-50799999D03*
%TD*%
D14*
%TO.P,J5,1,Pin_1*%
%TO.N,+5V*%
X248919999Y-137159999D03*
D15*
%TO.P,J5,2,Pin_2*%
%TO.N,Net-(J5-Pin_2)*%
X248919999Y-134619999D03*
%TO.P,J5,3,Pin_3*%
%TO.N,Net-(J5-Pin_3)*%
X248919999Y-132079999D03*
%TO.P,J5,4,Pin_4*%
%TO.N,Net-(J5-Pin_4)*%
X248919999Y-129539999D03*
%TO.P,J5,5,Pin_5*%
%TO.N,Net-(J5-Pin_5)*%
X248919999Y-126999999D03*
%TD*%
D14*
%TO.P,J10,1,Pin_1*%
%TO.N,GND*%
X228599999Y-43179999D03*
D15*
%TO.P,J10,2,Pin_2*%
%TO.N,SW_LIMIT_AZ_L*%
X228599999Y-45719999D03*
%TD*%
D14*
%TO.P,J6,1,Pin_1*%
%TO.N,Net-(J6-Pin_1)*%
X205739999Y-142239999D03*
D15*
%TO.P,J6,2,Pin_2*%
%TO.N,Net-(J6-Pin_2)*%
X208279999Y-142239999D03*
%TO.P,J6,3,Pin_3*%
%TO.N,JOY_X*%
X210819999Y-142239999D03*
%TO.P,J6,4,Pin_4*%
%TO.N,JOY_Y*%
X213359999Y-142239999D03*
%TO.P,J6,5,Pin_5*%
%TO.N,JOY_SW*%
X215899999Y-142239999D03*
%TD*%
D22*
%TO.N,GND*%
X74168000Y-54356000D03*
X149352000Y-89154000D03*
X59436000Y-80010000D03*
X87122000Y-78740000D03*
X204724000Y-134620000D03*
X72136000Y-54864000D03*
X161290000Y-124206000D03*
X179909000Y-91347500D03*
X225107000Y-30637600D03*
X215530000Y-62620100D03*
X204380000Y-91039300D03*
X83058000Y-63754000D03*
X180848000Y-96520000D03*
X160608000Y-96520000D03*
X224965000Y-71310000D03*
X224826000Y-50981300D03*
X82687600Y-66610900D03*
X71882000Y-64008000D03*
X216916000Y-90678000D03*
X71374000Y-66040000D03*
X88646000Y-72390000D03*
X160528000Y-91440000D03*
X238506000Y-140970000D03*
X124968000Y-87376000D03*
X180878000Y-102039000D03*
X164338000Y-108712000D03*
X215482000Y-72903200D03*
X86360000Y-63246000D03*
X215526000Y-31920300D03*
X65278000Y-75438000D03*
X213614000Y-90678000D03*
X83058000Y-68326000D03*
X64008000Y-76708000D03*
X171450000Y-108458000D03*
X161735000Y-102843000D03*
X59436000Y-85090000D03*
X238695000Y-144916000D03*
X79736000Y-65895000D03*
X236734000Y-110296000D03*
X161798000Y-107950000D03*
X215455000Y-52185000D03*
X180889000Y-132141000D03*
X59436000Y-82550000D03*
X180872000Y-86237000D03*
X230745000Y-144988000D03*
X180874000Y-124166000D03*
X135128000Y-88138000D03*
X215433000Y-42397300D03*
X129286000Y-90170000D03*
X69596000Y-54864000D03*
X180848000Y-115570000D03*
X173990000Y-124460000D03*
%TO.N,+5V*%
X85389400Y-83923500D03*
X243840000Y-113538000D03*
X229880000Y-148683000D03*
X167894000Y-91440000D03*
X74930000Y-67818000D03*
X243840000Y-80518000D03*
X77470000Y-56134000D03*
X233680000Y-80518000D03*
X215822000Y-49127500D03*
X170434000Y-112776000D03*
X72715200Y-81915200D03*
X77470000Y-58166000D03*
X248920000Y-80518000D03*
X240538000Y-140716000D03*
X233680000Y-113538000D03*
X238760000Y-113538000D03*
X240538000Y-77470000D03*
X139954000Y-89408000D03*
X238760000Y-80518000D03*
X240792000Y-110490000D03*
X85840400Y-73679700D03*
X74445400Y-74589600D03*
X209296000Y-134620000D03*
X214122000Y-79502000D03*
X215853000Y-69258500D03*
X215816000Y-59263300D03*
X248920000Y-113538000D03*
X133096000Y-88138000D03*
X161735000Y-140970000D03*
X137160000Y-89408000D03*
X214630000Y-40132000D03*
D23*
%TO.N,LED_OK*%
X156226000Y-94541300D03*
X176479000Y-99766400D03*
X195326000Y-85090000D03*
%TO.N,LED_ERROR*%
X189743000Y-83242500D03*
X167640000Y-106680000D03*
%TO.N,LED_AZ_LEFT*%
X203840000Y-99442700D03*
X224057000Y-82013200D03*
X156705000Y-93395300D03*
%TO.N,LED_AZ_CENTER*%
X211853000Y-80748400D03*
X192206000Y-96451800D03*
%TO.N,LED_AZ_RIGHT*%
X239632000Y-61803400D03*
X215914000Y-96959400D03*
X155448000Y-93472000D03*
%TO.N,LED_EL_BOTTOM*%
X169212000Y-133973000D03*
X143764000Y-119634000D03*
X219456000Y-76200000D03*
%TO.N,LED_EL_CENTER*%
X170688000Y-105156000D03*
X208737000Y-71067900D03*
%TO.N,LED_EL_TOP*%
X164338000Y-103124000D03*
X222978000Y-60862000D03*
X159258000Y-100584000D03*
%TO.N,LED_PROGRESS1*%
X127282000Y-94040400D03*
X121136000Y-137757000D03*
%TO.N,LED_PROGRESS2*%
X201168000Y-96012000D03*
X235935000Y-52800500D03*
%TO.N,LED_PROGRESS3*%
X200152000Y-98298000D03*
X236728000Y-49530000D03*
%TO.N,LED_PROGRESS4*%
X233916000Y-49821200D03*
X191262000Y-104902000D03*
X169564000Y-145034000D03*
%TO.N,LED_PROGRESS5*%
X239014000Y-41910000D03*
X191544000Y-109504000D03*
%TO.N,SW_LIMIT_AZ_L*%
X127000000Y-116332000D03*
X125589000Y-94218000D03*
%TO.N,SW_LIMIT_EL_B*%
X218424000Y-67079800D03*
%TO.N,SW_LIMIT_EL_T*%
X213360000Y-77724000D03*
D22*
%TO.N,5V_ARDUINO*%
X111748000Y-120662000D03*
D23*
%TO.N,Net-(Q1-C)*%
X136043800Y-83446300D03*
%TO.N,USB_UART_TX*%
X78785400Y-80120700D03*
X110236000Y-120904000D03*
%TO.N,USB_UART_RX*%
X104394000Y-132842000D03*
X83312000Y-111760000D03*
%TO.N,Net-(U1-TXD)*%
X78486000Y-73406000D03*
X75946000Y-61722000D03*
%TO.N,LCD_CO*%
X123695300Y-85770900D03*
X101346000Y-94234000D03*
X128304100Y-84295700D03*
X100330000Y-102870000D03*
%TO.N,LCD_BL*%
X131311900Y-94070900D03*
X130302000Y-123190000D03*
%TO.N,Net-(U1-RXD)*%
X81026000Y-65786000D03*
X83312000Y-72390000D03*
%TO.N,MOTOR1_A+*%
X184220000Y-110529000D03*
%TO.N,MOTOR1_B+*%
X179570000Y-111433000D03*
%TO.N,MOTOR1_A-*%
X147002000Y-94175800D03*
%TO.N,MOTOR1_B-*%
X178083000Y-111532000D03*
%TO.N,MOTOR2_A+*%
X146050000Y-99314000D03*
%TO.N,MOTOR2_A-*%
X142489000Y-120650000D03*
X182372000Y-127254000D03*
%TO.N,MOTOR2_B-*%
X155145000Y-124309000D03*
%TO.N,LCD_D4*%
X138430000Y-101854000D03*
%TO.N,LCD_D5*%
X156718000Y-102870000D03*
%TO.N,LCD_D6*%
X134825000Y-100330000D03*
%TO.N,LCD_D7*%
X123698000Y-76708000D03*
D22*
%TO.N,+3.3V*%
X203488000Y-86722400D03*
D23*
%TO.N,SW_START*%
X121920000Y-144780000D03*
X136716000Y-124169000D03*
%TO.N,/JOY_AZ*%
X142494000Y-123698000D03*
X127254000Y-138938000D03*
X123698000Y-112522000D03*
%TO.N,/JOY_EL*%
X120650000Y-145542000D03*
%TO.N,/JOY_START*%
X182626000Y-142240000D03*
X108865000Y-94069900D03*
%TD*%
D24*
%TO.N,LED_OK*%
X149097000Y-95768900D02*
X154999000Y-95768900D01*
X150490000Y-107950000D02*
X149168000Y-106628000D01*
X180650000Y-99766400D02*
X195326000Y-85090000D01*
X149168000Y-104984000D02*
X148468000Y-104284000D01*
X148468000Y-96397700D02*
X149097000Y-95768900D01*
X148468000Y-104284000D02*
X148468000Y-96397700D01*
X154999000Y-95768900D02*
X156226000Y-94541300D01*
X176479000Y-99766400D02*
X180650000Y-99766400D01*
X149168000Y-106628000D02*
X149168000Y-104984000D01*
%TO.N,LED_ERROR*%
X155664000Y-106680000D02*
X167640000Y-106680000D01*
X154394000Y-107950000D02*
X155664000Y-106680000D01*
X189743000Y-83815000D02*
X167640000Y-105918000D01*
X153030000Y-107950000D02*
X154394000Y-107950000D01*
X189743000Y-83242500D02*
X189743000Y-83815000D01*
X167640000Y-105918000D02*
X167640000Y-106680000D01*
%TO.N,LED_AZ_LEFT*%
X206666000Y-99442700D02*
X224057000Y-82052200D01*
X151956000Y-90360000D02*
X150876000Y-91440000D01*
X147068000Y-95453300D02*
X147068000Y-104865000D01*
X147768000Y-105564000D02*
X147768000Y-115388000D01*
X150876000Y-91440000D02*
X150876000Y-91645300D01*
X156705000Y-93395300D02*
X156705000Y-93061900D01*
X147068000Y-104865000D02*
X147768000Y-105564000D01*
X224057000Y-82052200D02*
X224057000Y-82013200D01*
X150876000Y-91645300D02*
X147068000Y-95453300D01*
X154003000Y-90360000D02*
X151956000Y-90360000D01*
X147768000Y-115388000D02*
X150490000Y-118110000D01*
X156705000Y-93061900D02*
X154003000Y-90360000D01*
X203840000Y-99442700D02*
X206666000Y-99442700D01*
%TO.N,LED_AZ_CENTER*%
X192206000Y-96451800D02*
X205276000Y-83381400D01*
X170625000Y-106221000D02*
X182436000Y-106221000D01*
X158736000Y-118110000D02*
X170625000Y-106221000D01*
X182436000Y-106221000D02*
X192206000Y-96451800D01*
X153030000Y-118110000D02*
X158736000Y-118110000D01*
X205276000Y-83381400D02*
X209220000Y-83381400D01*
X209220000Y-83381400D02*
X211853000Y-80748400D01*
%TO.N,LED_AZ_RIGHT*%
X148807000Y-95068800D02*
X154105000Y-95068800D01*
X215914000Y-96959400D02*
X215914000Y-96252000D01*
X147768000Y-96107600D02*
X148807000Y-95068800D01*
X147768000Y-104574000D02*
X147768000Y-96107600D01*
X155448000Y-93726000D02*
X155448000Y-93472000D01*
X148468000Y-105274000D02*
X147768000Y-104574000D01*
X148468000Y-113548000D02*
X148468000Y-105274000D01*
X239632000Y-72534000D02*
X239632000Y-61803400D01*
X215914000Y-96252000D02*
X239632000Y-72534000D01*
X150490000Y-115570000D02*
X148468000Y-113548000D01*
X154105000Y-95068800D02*
X155448000Y-93726000D01*
%TO.N,LED_EL_BOTTOM*%
X185233000Y-117297000D02*
X169212000Y-133317000D01*
X125655000Y-138828000D02*
X125338000Y-138828000D01*
X124954000Y-142778000D02*
X137190000Y-142778000D01*
X203949000Y-93419000D02*
X201385000Y-93419000D01*
X149272000Y-144710000D02*
X167202000Y-144710000D01*
X149010000Y-144972000D02*
X149272000Y-144710000D01*
X169212000Y-142700000D02*
X169212000Y-133973000D01*
X169212000Y-133317000D02*
X169212000Y-133973000D01*
X125338000Y-138828000D02*
X123725000Y-140441000D01*
X143764000Y-119634000D02*
X143764000Y-120719000D01*
X143764000Y-120719000D02*
X125655000Y-138828000D01*
X123725000Y-141549000D02*
X124954000Y-142778000D01*
X185233000Y-109571000D02*
X185233000Y-117297000D01*
X123725000Y-140441000D02*
X123725000Y-141549000D01*
X139384000Y-144972000D02*
X149010000Y-144972000D01*
X201385000Y-93419000D02*
X185233000Y-109571000D01*
X219456000Y-76200000D02*
X219456000Y-77912000D01*
X219456000Y-77912000D02*
X203949000Y-93419000D01*
X137190000Y-142778000D02*
X139384000Y-144972000D01*
X167202000Y-144710000D02*
X169212000Y-142700000D01*
%TO.N,LED_EL_CENTER*%
X203658000Y-71067900D02*
X208737000Y-71067900D01*
X170688000Y-104038000D02*
X203658000Y-71067900D01*
X170697000Y-105124000D02*
X170697000Y-105147000D01*
X170688000Y-105133000D02*
X170697000Y-105124000D01*
X162791000Y-113030000D02*
X170688000Y-105133000D01*
X170697000Y-105147000D02*
X170688000Y-105156000D01*
X170688000Y-105156000D02*
X170688000Y-105133000D01*
X170688000Y-105133000D02*
X170688000Y-104038000D01*
X153030000Y-113030000D02*
X162791000Y-113030000D01*
%TO.N,LED_EL_TOP*%
X207264000Y-62738000D02*
X213106000Y-62738000D01*
X214982000Y-60862000D02*
X222978000Y-60862000D01*
X182118000Y-87884000D02*
X207264000Y-62738000D01*
X161798000Y-100584000D02*
X164338000Y-103124000D01*
X164338000Y-103124000D02*
X179578000Y-87884000D01*
X213106000Y-62738000D02*
X214982000Y-60862000D01*
X179578000Y-87884000D02*
X182118000Y-87884000D01*
X159258000Y-100584000D02*
X161798000Y-100584000D01*
%TO.N,LED_PROGRESS1*%
X122448000Y-137757000D02*
X128345000Y-131860000D01*
X121136000Y-137757000D02*
X122448000Y-137757000D01*
X128345000Y-95103700D02*
X127282000Y-94040400D01*
X128345000Y-131860000D02*
X128345000Y-95103700D01*
%TO.N,LED_PROGRESS2*%
X200914000Y-96012000D02*
X194564000Y-102362000D01*
X194564000Y-102944000D02*
X191656000Y-105852000D01*
X169866000Y-146110000D02*
X149852000Y-146110000D01*
X191469000Y-105852000D02*
X187087000Y-110234000D01*
X117978000Y-146558000D02*
X112390000Y-140970000D01*
X221821000Y-77527100D02*
X203336000Y-96012000D01*
X187087000Y-110234000D02*
X187087000Y-128889000D01*
X235897000Y-52800500D02*
X221821000Y-66876100D01*
X221821000Y-66876100D02*
X221821000Y-77527100D01*
X149404000Y-146558000D02*
X117978000Y-146558000D01*
X191656000Y-105852000D02*
X191469000Y-105852000D01*
X194564000Y-102362000D02*
X194564000Y-102944000D01*
X187087000Y-128889000D02*
X169866000Y-146110000D01*
X235935000Y-52800500D02*
X235897000Y-52800500D01*
X149852000Y-146110000D02*
X149404000Y-146558000D01*
X201168000Y-96012000D02*
X200914000Y-96012000D01*
X203336000Y-96012000D02*
X201168000Y-96012000D01*
%TO.N,LED_PROGRESS3*%
X170156000Y-146810000D02*
X188943000Y-128023000D01*
X195834000Y-102616000D02*
X200152000Y-98298000D01*
X195834000Y-103632000D02*
X195834000Y-102616000D01*
X226378000Y-63309900D02*
X226378000Y-73960800D01*
X188943000Y-110523000D02*
X195834000Y-103632000D01*
X234025000Y-56297100D02*
X233391000Y-56297100D01*
X236982000Y-49784000D02*
X236982000Y-53340300D01*
X236728000Y-49530000D02*
X236982000Y-49784000D01*
X116139000Y-147259000D02*
X149693000Y-147259000D01*
X226378000Y-73960800D02*
X202026000Y-98313200D01*
X202026000Y-98313200D02*
X200167000Y-98313200D01*
X200167000Y-98313200D02*
X200152000Y-98298000D01*
X188943000Y-128023000D02*
X188943000Y-110523000D01*
X234689000Y-55633300D02*
X234025000Y-56297100D01*
X236982000Y-53340300D02*
X234689000Y-55633300D01*
X109850000Y-140970000D02*
X116139000Y-147259000D01*
X149693000Y-147259000D02*
X150142000Y-146810000D01*
X233391000Y-56297100D02*
X226378000Y-63309900D01*
X150142000Y-146810000D02*
X170156000Y-146810000D01*
%TO.N,LED_PROGRESS4*%
X233916000Y-49821200D02*
X231869000Y-51867600D01*
X191262000Y-104902000D02*
X190892000Y-104902000D01*
X231869000Y-55795800D02*
X221049000Y-66616500D01*
X190892000Y-104902000D02*
X186139000Y-109655000D01*
X221049000Y-66616500D02*
X221049000Y-77309700D01*
X186139000Y-128376000D02*
X169564000Y-144951000D01*
X191262000Y-104532000D02*
X191262000Y-104902000D01*
X201675000Y-94119200D02*
X191262000Y-104532000D01*
X204239000Y-94119200D02*
X201675000Y-94119200D01*
X231869000Y-51867600D02*
X231869000Y-55795800D01*
X221049000Y-77309700D02*
X204239000Y-94119200D01*
X169564000Y-144951000D02*
X169564000Y-145034000D01*
X186139000Y-109655000D02*
X186139000Y-128376000D01*
%TO.N,LED_PROGRESS5*%
X238506000Y-42418000D02*
X239014000Y-41910000D01*
X171514000Y-147510000D02*
X150432000Y-147510000D01*
X191544000Y-109504000D02*
X191544000Y-127480000D01*
X149983000Y-147959000D02*
X111759000Y-147959000D01*
X238506000Y-59082800D02*
X238506000Y-42418000D01*
X227300000Y-70288800D02*
X238506000Y-59082800D01*
X227300000Y-74452000D02*
X227300000Y-70288800D01*
X150432000Y-147510000D02*
X149983000Y-147959000D01*
X111759000Y-147959000D02*
X104770000Y-140970000D01*
X192248000Y-109504000D02*
X227300000Y-74452000D01*
X191544000Y-127480000D02*
X171514000Y-147510000D01*
X191544000Y-109504000D02*
X192248000Y-109504000D01*
%TO.N,I2C_SDA*%
X143632000Y-144272000D02*
X140330000Y-140970000D01*
X161798000Y-143764000D02*
X149228000Y-143764000D01*
X149228000Y-143764000D02*
X148720000Y-144272000D01*
X167640000Y-139700000D02*
X165862000Y-139700000D01*
X165862000Y-139700000D02*
X161798000Y-143764000D01*
X148720000Y-144272000D02*
X143632000Y-144272000D01*
%TO.N,ICSP_MISO*%
X103544000Y-104057000D02*
X120137000Y-120650000D01*
X93136900Y-81730200D02*
X103544000Y-92137200D01*
X92797100Y-81730200D02*
X93136900Y-81730200D01*
X79255500Y-61475500D02*
X87054800Y-69274800D01*
X87054800Y-69274800D02*
X87054800Y-75987900D01*
X81280000Y-50800000D02*
X79255500Y-52824500D01*
X87054800Y-75987900D02*
X92797100Y-81730200D01*
X103544000Y-92137200D02*
X103544000Y-104057000D01*
X79255500Y-52824500D02*
X79255500Y-61475500D01*
D25*
%TO.N,ICSP_5V*%
X59493700Y-73820000D02*
X107801000Y-122128000D01*
X83820000Y-50800000D02*
X82371200Y-49351200D01*
X82371200Y-49351200D02*
X55258200Y-49351200D01*
X59493700Y-69406100D02*
X59493700Y-73820000D01*
X121200000Y-122128000D02*
X122677000Y-120650000D01*
X107801000Y-122128000D02*
X121200000Y-122128000D01*
X55258200Y-49351200D02*
X54479800Y-50129600D01*
X54479800Y-50129600D02*
X54479800Y-64392200D01*
X54479800Y-64392200D02*
X59493700Y-69406100D01*
D24*
%TO.N,ICSP_SCK*%
X79955700Y-54664300D02*
X79955700Y-58593600D01*
X92228100Y-70866000D02*
X94742000Y-70866000D01*
X98552000Y-85598000D02*
X104306000Y-91352000D01*
X104306000Y-91352000D02*
X104306000Y-102279000D01*
X79955700Y-58593600D02*
X92228100Y-70866000D01*
X104306000Y-102279000D02*
X120137000Y-118110000D01*
X81280000Y-53340000D02*
X79955700Y-54664300D01*
X94742000Y-70866000D02*
X98552000Y-74676000D01*
X98552000Y-74676000D02*
X98552000Y-85598000D01*
%TO.N,ICSP_MOSI*%
X122677000Y-118110000D02*
X123991000Y-116796000D01*
X100350000Y-69870200D02*
X83820000Y-53340000D01*
X123991000Y-114510000D02*
X105973000Y-96492000D01*
X100350000Y-82402000D02*
X100350000Y-69870200D01*
X105973000Y-88025100D02*
X100350000Y-82402000D01*
X123991000Y-116796000D02*
X123991000Y-114510000D01*
X105973000Y-96492000D02*
X105973000Y-88025100D01*
%TO.N,ICSP_RST*%
X99314000Y-73914000D02*
X81280000Y-55880000D01*
X105006000Y-88397800D02*
X99314000Y-82705800D01*
X99314000Y-82705800D02*
X99314000Y-73914000D01*
X120137000Y-115570000D02*
X120137000Y-114206000D01*
X120137000Y-114206000D02*
X105006000Y-99075400D01*
X105006000Y-99075400D02*
X105006000Y-88397800D01*
%TO.N,SW_LIMIT_AZ_L*%
X127000000Y-95629000D02*
X125589000Y-94218000D01*
X127000000Y-116332000D02*
X127000000Y-95629000D01*
%TO.N,SW_LIMIT_AZ_R*%
X218483000Y-65234800D02*
X217160000Y-66558000D01*
X228600000Y-55880000D02*
X228600000Y-57230000D01*
X203649900Y-88766100D02*
X181583000Y-110833000D01*
X217160000Y-66558000D02*
X217160000Y-78142400D01*
X159049929Y-138430000D02*
X153030000Y-138430000D01*
X220595000Y-65234800D02*
X218483000Y-65234800D01*
X171362000Y-126117929D02*
X159049929Y-138430000D01*
X206536000Y-88766100D02*
X203649900Y-88766100D01*
X228600000Y-57230000D02*
X220595000Y-65234800D01*
X181583000Y-111787000D02*
X171388000Y-121982000D01*
X181583000Y-110833000D02*
X181583000Y-111787000D01*
X217160000Y-78142400D02*
X206536000Y-88766100D01*
X171388000Y-121982000D02*
X171362000Y-121982000D01*
X171362000Y-121982000D02*
X171362000Y-126117929D01*
%TO.N,SW_LIMIT_EL_B*%
X183134000Y-110271950D02*
X183134000Y-111252000D01*
X218424000Y-77867900D02*
X206587000Y-89705500D01*
X149143000Y-137237000D02*
X150490000Y-135890000D01*
X218424000Y-67079800D02*
X218424000Y-77867900D01*
X172062000Y-126407879D02*
X156134000Y-142335879D01*
X183134000Y-111252000D02*
X172062000Y-122324000D01*
X203700450Y-89705500D02*
X183134000Y-110271950D01*
X149143000Y-141498000D02*
X149143000Y-137237000D01*
X172062000Y-122324000D02*
X172062000Y-126407879D01*
X149980000Y-142336000D02*
X149143000Y-141498000D01*
X156134000Y-142335879D02*
X156134000Y-142336000D01*
X156134000Y-142336000D02*
X149980000Y-142336000D01*
X206587000Y-89705500D02*
X203700450Y-89705500D01*
%TO.N,SW_LIMIT_EL_T*%
X213072000Y-81240200D02*
X206246000Y-88066000D01*
X170470000Y-126020000D02*
X160599000Y-135890000D01*
X203360000Y-88066000D02*
X180520000Y-110906000D01*
X213072000Y-78012000D02*
X213072000Y-81240200D01*
X180520000Y-110906000D02*
X180520000Y-111834000D01*
X170470000Y-121884000D02*
X170470000Y-126020000D01*
X180520000Y-111834000D02*
X170470000Y-121884000D01*
X206246000Y-88066000D02*
X203360000Y-88066000D01*
X160599000Y-135890000D02*
X153030000Y-135890000D01*
X213360000Y-77724000D02*
X213072000Y-78012000D01*
D25*
%TO.N,5V_ARDUINO*%
X94610000Y-92710000D02*
X94610000Y-103525000D01*
X94610000Y-92710000D02*
X94610000Y-91078800D01*
X60393900Y-55313900D02*
X55880000Y-50800000D01*
X94610000Y-91078800D02*
X60393900Y-56862700D01*
X94610000Y-103525000D02*
X111748000Y-120662000D01*
X60393900Y-56862700D02*
X60393900Y-55313900D01*
D24*
%TO.N,Net-(Q1-C)*%
X145140000Y-84065000D02*
X136662500Y-84065000D01*
X145140000Y-85090000D02*
X145140000Y-84065000D01*
X136662500Y-84065000D02*
X136043800Y-83446300D01*
%TO.N,USB_UART_TX*%
X78785400Y-89453400D02*
X110236000Y-120904000D01*
X78785400Y-80120700D02*
X78785400Y-89453400D01*
%TO.N,USB_UART_RX*%
X83312000Y-111760000D02*
X104394000Y-132842000D01*
D26*
%TO.N,Net-(U1-TXD)*%
X78486000Y-71628000D02*
X78486000Y-73406000D01*
X75946000Y-61722000D02*
X75946000Y-69088000D01*
X75946000Y-69088000D02*
X78486000Y-71628000D01*
D24*
%TO.N,LCD_CO*%
X100330000Y-95250000D02*
X100330000Y-95758000D01*
X100330000Y-102870000D02*
X100330000Y-95758000D01*
X101346000Y-94234000D02*
X100330000Y-95250000D01*
X123695300Y-85770900D02*
X125170500Y-84295700D01*
X125170500Y-84295700D02*
X128304100Y-84295700D01*
%TO.N,LCD_BL*%
X131311900Y-94070900D02*
X135472900Y-94070900D01*
X140208000Y-113284000D02*
X130302000Y-123190000D01*
X140208000Y-98806000D02*
X140208000Y-113284000D01*
X135472900Y-94070900D02*
X140208000Y-98806000D01*
%TO.N,Net-(U1-RXD)*%
X83312000Y-72390000D02*
X81026000Y-70104000D01*
X81026000Y-70104000D02*
X81026000Y-65786000D01*
%TO.N,MOTOR1_A+*%
X184220000Y-116516000D02*
X184220000Y-110529000D01*
X173930000Y-125730000D02*
X175006000Y-125730000D01*
X156624000Y-143036000D02*
X173930000Y-125730000D01*
X144272000Y-141885000D02*
X145897000Y-143510000D01*
X148810000Y-143036000D02*
X156624000Y-143036000D01*
X150490000Y-128270000D02*
X144272000Y-134488000D01*
X145897000Y-143510000D02*
X148336000Y-143510000D01*
X175006000Y-125730000D02*
X184220000Y-116516000D01*
X144272000Y-134488000D02*
X144272000Y-141885000D01*
X148336000Y-143510000D02*
X148810000Y-143036000D01*
%TO.N,MOTOR1_B+*%
X153030000Y-128270000D02*
X154394000Y-128270000D01*
X160792000Y-121872000D02*
X169132000Y-121872000D01*
X169132000Y-121872000D02*
X179570000Y-111433000D01*
X154394000Y-128270000D02*
X160792000Y-121872000D01*
%TO.N,MOTOR1_A-*%
X150490000Y-125730000D02*
X145734000Y-120974000D01*
X145100000Y-96077700D02*
X147002000Y-94175800D01*
X145734000Y-105670000D02*
X145100000Y-105036000D01*
X145734000Y-120974000D02*
X145734000Y-105670000D01*
X145100000Y-105036000D02*
X145100000Y-96077700D01*
D27*
%TO.N,MOTOR1_B-*%
X155448000Y-125730000D02*
X160297000Y-120881000D01*
X153030000Y-125730000D02*
X155448000Y-125730000D01*
D24*
X168735000Y-120881000D02*
X178083000Y-111532000D01*
D27*
X160297000Y-120881000D02*
X168735000Y-120881000D01*
D24*
%TO.N,MOTOR2_A+*%
X146525000Y-119225000D02*
X150490000Y-123190000D01*
X146050000Y-99314000D02*
X146050000Y-104837000D01*
X146525000Y-105312000D02*
X146525000Y-119225000D01*
X146050000Y-104837000D02*
X146525000Y-105312000D01*
%TO.N,MOTOR2_A-*%
X137808000Y-145672000D02*
X149300000Y-145672000D01*
X167518000Y-145410000D02*
X176909000Y-136019000D01*
X149300000Y-145672000D02*
X149562000Y-145410000D01*
X142489000Y-120650000D02*
X123025000Y-140114000D01*
X123025000Y-141839000D02*
X125664000Y-144478000D01*
X123025000Y-140114000D02*
X123025000Y-141839000D01*
X125664000Y-144478000D02*
X136614000Y-144478000D01*
X149562000Y-145410000D02*
X167518000Y-145410000D01*
X176909000Y-136019000D02*
X176909000Y-132717000D01*
X136614000Y-144478000D02*
X137808000Y-145672000D01*
X176909000Y-132717000D02*
X182372000Y-127254000D01*
%TO.N,MOTOR2_B-*%
X153030000Y-120650000D02*
X155145000Y-122765000D01*
X155145000Y-122765000D02*
X155145000Y-124309000D01*
%TO.N,LCD_RS*%
X150490000Y-105316000D02*
X149168000Y-103994000D01*
X149387000Y-96469000D02*
X155753000Y-96469000D01*
X157655000Y-94566700D02*
X157655000Y-93001800D01*
X157655000Y-93001800D02*
X145394000Y-80740000D01*
X127000000Y-80740000D02*
X127000000Y-78740000D01*
X145394000Y-80740000D02*
X127000000Y-80740000D01*
X150490000Y-105410000D02*
X150490000Y-105316000D01*
X149168000Y-103994000D02*
X149168000Y-96687800D01*
X149168000Y-96687800D02*
X149387000Y-96469000D01*
X155753000Y-96469000D02*
X157655000Y-94566700D01*
%TO.N,LCD_EN*%
X159478000Y-92422000D02*
X142814000Y-75758200D01*
X159478000Y-97073900D02*
X159478000Y-92422000D01*
X153030000Y-104775000D02*
X155046000Y-102759000D01*
X142814000Y-75758200D02*
X142814000Y-75758000D01*
X155046000Y-101505000D02*
X159478000Y-97073900D01*
X121920000Y-76962000D02*
X121920000Y-78740000D01*
X123124000Y-75758000D02*
X121920000Y-76962000D01*
X142814000Y-75758000D02*
X123124000Y-75758000D01*
X155046000Y-102759000D02*
X155046000Y-101505000D01*
X153030000Y-105410000D02*
X153030000Y-104775000D01*
%TO.N,LCD_D4*%
X138430000Y-101854000D02*
X135225000Y-98649000D01*
X135225000Y-98649000D02*
X134242000Y-98649000D01*
X109220000Y-76740000D02*
X109220000Y-78740000D01*
X115570000Y-77560000D02*
X114750000Y-76740000D01*
X114750000Y-76740000D02*
X109220000Y-76740000D01*
X115570000Y-79977500D02*
X115570000Y-77560000D01*
X134242000Y-98649000D02*
X115570000Y-79977500D01*
%TO.N,LCD_D5*%
X162052000Y-97282000D02*
X162052000Y-91479100D01*
X106680000Y-77216000D02*
X106680000Y-78740000D01*
X145865000Y-75292400D02*
X145631000Y-75058000D01*
X156718000Y-101339000D02*
X160267000Y-97790000D01*
X161544000Y-97790000D02*
X162052000Y-97282000D01*
X160267000Y-97790000D02*
X161544000Y-97790000D01*
X108838000Y-75058000D02*
X106680000Y-77216000D01*
X145631000Y-75058000D02*
X108838000Y-75058000D01*
X156718000Y-102870000D02*
X156718000Y-101339000D01*
X162052000Y-91479100D02*
X145865000Y-75292400D01*
%TO.N,LCD_D6*%
X134366000Y-100330000D02*
X129045000Y-95009000D01*
X129045000Y-94442100D02*
X115343000Y-80740000D01*
X134825000Y-100330000D02*
X134366000Y-100330000D01*
X104140000Y-80740000D02*
X104140000Y-78740000D01*
X129045000Y-95009000D02*
X129045000Y-94442100D01*
X115343000Y-80740000D02*
X104140000Y-80740000D01*
%TO.N,LCD_D7*%
X142822000Y-76782300D02*
X123772000Y-76782300D01*
X158496000Y-94864000D02*
X158496000Y-92456000D01*
X158496000Y-92456000D02*
X142822000Y-76782300D01*
X123772000Y-76782300D02*
X123698000Y-76708000D01*
X153030000Y-100330000D02*
X158496000Y-94864000D01*
D25*
%TO.N,+3.3V*%
X179973000Y-107047000D02*
X183163000Y-107047000D01*
X167640000Y-119380000D02*
X179973000Y-107047000D01*
X183163000Y-107047000D02*
X203488000Y-86722400D01*
D24*
%TO.N,SW_START*%
X122303000Y-144397000D02*
X121920000Y-144780000D01*
X136716000Y-124636000D02*
X122303000Y-139050000D01*
X136716000Y-124169000D02*
X136716000Y-124636000D01*
X122303000Y-139050000D02*
X122303000Y-144397000D01*
%TO.N,/JOY_AZ*%
X142494000Y-123698000D02*
X127254000Y-138938000D01*
X107310000Y-92710000D02*
X107310000Y-96134000D01*
X107310000Y-96134000D02*
X123698000Y-112522000D01*
%TO.N,/JOY_EL*%
X109850000Y-92710000D02*
X109850000Y-94073600D01*
X120142000Y-138176000D02*
X121412000Y-139446000D01*
X121412000Y-141426000D02*
X120650000Y-142188000D01*
X120650000Y-142188000D02*
X120650000Y-145542000D01*
X120142000Y-134112000D02*
X120142000Y-138176000D01*
X125433000Y-128821000D02*
X120142000Y-134112000D01*
X125433000Y-109656000D02*
X125433000Y-128821000D01*
X121412000Y-139446000D02*
X121412000Y-141426000D01*
X109850000Y-94073600D02*
X125433000Y-109656000D01*
%TO.N,/JOY_START*%
X111612000Y-152210000D02*
X168158000Y-152210000D01*
X108865000Y-94354900D02*
X124733000Y-110223000D01*
X108865000Y-94069900D02*
X108865000Y-94354900D01*
X168158000Y-152210000D02*
X171270000Y-149098000D01*
X124733000Y-120631000D02*
X122428000Y-122936000D01*
X118110000Y-122936000D02*
X100890000Y-140156000D01*
X100890000Y-140156000D02*
X100890000Y-141488000D01*
X175768000Y-149098000D02*
X182626000Y-142240000D01*
X171270000Y-149098000D02*
X175768000Y-149098000D01*
X100890000Y-141488000D02*
X111612000Y-152210000D01*
X124733000Y-110223000D02*
X124733000Y-120631000D01*
X122428000Y-122936000D02*
X118110000Y-122936000D01*
%TD*%
M02*
