%TF.GenerationSoftware,KiCad,Pcbnew,(6.0.10)*%
%TF.CreationDate,2023-01-25T18:59:45+01:00*%
%TF.ProjectId,MagicGame,4d616769-6347-4616-9d65-2e6b69636164,1.0*%
%TF.SameCoordinates,Original*%
%TF.FileFunction,Copper,L1,Top*%
%TF.FilePolarity,Positive*%
%FSLAX46Y46*%
G04 Gerber Fmt 4.6, Leading zero omitted, Abs format (unit mm)*
G04 Created by KiCad (PCBNEW (6.0.10)) date 2023-01-25 18:59:45*
%MOMM*%
%LPD*%
G01*
G04 APERTURE LIST*
G04 Aperture macros list*
%AMRoundRect*
0 Rectangle with rounded corners*
0 $1 Rounding radius*
0 $2 $3 $4 $5 $6 $7 $8 $9 X,Y pos of 4 corners*
0 Add a 4 corners polygon primitive as box body*
4,1,4,$2,$3,$4,$5,$6,$7,$8,$9,$2,$3,0*
0 Add four circle primitives for the rounded corners*
1,1,$1+$1,$2,$3*
1,1,$1+$1,$4,$5*
1,1,$1+$1,$6,$7*
1,1,$1+$1,$8,$9*
0 Add four rect primitives between the rounded corners*
20,1,$1+$1,$2,$3,$4,$5,0*
20,1,$1+$1,$4,$5,$6,$7,0*
20,1,$1+$1,$6,$7,$8,$9,0*
20,1,$1+$1,$8,$9,$2,$3,0*%
G04 Aperture macros list end*
%ADD10C,0.300000*%
%TA.AperFunction,NonConductor*%
%ADD11C,0.300000*%
%TD*%
%TA.AperFunction,SMDPad,CuDef*%
%ADD12R,2.600000X1.500000*%
%TD*%
%TA.AperFunction,SMDPad,CuDef*%
%ADD13RoundRect,0.225000X0.250000X-0.225000X0.250000X0.225000X-0.250000X0.225000X-0.250000X-0.225000X0*%
%TD*%
%TA.AperFunction,ComponentPad*%
%ADD14R,1.700000X1.700000*%
%TD*%
%TA.AperFunction,ComponentPad*%
%ADD15O,1.700000X1.700000*%
%TD*%
%TA.AperFunction,SMDPad,CuDef*%
%ADD16R,1.500000X2.600000*%
%TD*%
%TA.AperFunction,SMDPad,CuDef*%
%ADD17RoundRect,0.250000X-0.312500X-1.450000X0.312500X-1.450000X0.312500X1.450000X-0.312500X1.450000X0*%
%TD*%
%TA.AperFunction,SMDPad,CuDef*%
%ADD18RoundRect,0.200000X-0.200000X-0.275000X0.200000X-0.275000X0.200000X0.275000X-0.200000X0.275000X0*%
%TD*%
%TA.AperFunction,SMDPad,CuDef*%
%ADD19RoundRect,0.200000X-0.275000X0.200000X-0.275000X-0.200000X0.275000X-0.200000X0.275000X0.200000X0*%
%TD*%
%TA.AperFunction,SMDPad,CuDef*%
%ADD20RoundRect,0.250000X0.475000X-0.250000X0.475000X0.250000X-0.475000X0.250000X-0.475000X-0.250000X0*%
%TD*%
%TA.AperFunction,SMDPad,CuDef*%
%ADD21R,1.550000X1.300000*%
%TD*%
%TA.AperFunction,SMDPad,CuDef*%
%ADD22RoundRect,0.200000X0.275000X-0.200000X0.275000X0.200000X-0.275000X0.200000X-0.275000X-0.200000X0*%
%TD*%
%TA.AperFunction,SMDPad,CuDef*%
%ADD23RoundRect,0.200000X0.200000X0.275000X-0.200000X0.275000X-0.200000X-0.275000X0.200000X-0.275000X0*%
%TD*%
%TA.AperFunction,SMDPad,CuDef*%
%ADD24RoundRect,0.225000X0.225000X0.250000X-0.225000X0.250000X-0.225000X-0.250000X0.225000X-0.250000X0*%
%TD*%
%TA.AperFunction,ComponentPad*%
%ADD25R,1.500000X1.050000*%
%TD*%
%TA.AperFunction,ComponentPad*%
%ADD26O,1.500000X1.050000*%
%TD*%
%TA.AperFunction,SMDPad,CuDef*%
%ADD27R,2.500000X0.500000*%
%TD*%
%TA.AperFunction,SMDPad,CuDef*%
%ADD28R,2.500000X2.000000*%
%TD*%
%TA.AperFunction,SMDPad,CuDef*%
%ADD29RoundRect,0.225000X-0.250000X0.225000X-0.250000X-0.225000X0.250000X-0.225000X0.250000X0.225000X0*%
%TD*%
%TA.AperFunction,SMDPad,CuDef*%
%ADD30RoundRect,0.250000X-0.475000X0.250000X-0.475000X-0.250000X0.475000X-0.250000X0.475000X0.250000X0*%
%TD*%
%TA.AperFunction,SMDPad,CuDef*%
%ADD31RoundRect,0.218750X-0.381250X0.218750X-0.381250X-0.218750X0.381250X-0.218750X0.381250X0.218750X0*%
%TD*%
%TA.AperFunction,SMDPad,CuDef*%
%ADD32RoundRect,0.250000X-0.250000X-0.475000X0.250000X-0.475000X0.250000X0.475000X-0.250000X0.475000X0*%
%TD*%
%TA.AperFunction,SMDPad,CuDef*%
%ADD33R,1.750000X0.450000*%
%TD*%
%TA.AperFunction,SMDPad,CuDef*%
%ADD34RoundRect,0.225000X-0.225000X-0.250000X0.225000X-0.250000X0.225000X0.250000X-0.225000X0.250000X0*%
%TD*%
%TA.AperFunction,SMDPad,CuDef*%
%ADD35R,1.500000X0.600000*%
%TD*%
%TA.AperFunction,SMDPad,CuDef*%
%ADD36RoundRect,0.218750X0.381250X-0.218750X0.381250X0.218750X-0.381250X0.218750X-0.381250X-0.218750X0*%
%TD*%
%TA.AperFunction,SMDPad,CuDef*%
%ADD37RoundRect,0.250000X0.250000X0.475000X-0.250000X0.475000X-0.250000X-0.475000X0.250000X-0.475000X0*%
%TD*%
%TA.AperFunction,ComponentPad*%
%ADD38C,6.500000*%
%TD*%
%TA.AperFunction,ComponentPad*%
%ADD39R,1.500000X3.000000*%
%TD*%
%TA.AperFunction,ComponentPad*%
%ADD40O,1.500000X3.000000*%
%TD*%
%TA.AperFunction,ComponentPad*%
%ADD41R,2.000000X2.000000*%
%TD*%
%TA.AperFunction,ComponentPad*%
%ADD42O,1.727200X1.727200*%
%TD*%
%TA.AperFunction,ComponentPad*%
%ADD43R,1.727200X1.727200*%
%TD*%
%TA.AperFunction,ViaPad*%
%ADD44C,1.000000*%
%TD*%
%TA.AperFunction,ViaPad*%
%ADD45C,0.800000*%
%TD*%
%TA.AperFunction,Conductor*%
%ADD46C,0.700000*%
%TD*%
%TA.AperFunction,Conductor*%
%ADD47C,0.450000*%
%TD*%
%TA.AperFunction,Conductor*%
%ADD48C,0.400000*%
%TD*%
%TA.AperFunction,Conductor*%
%ADD49C,0.500000*%
%TD*%
%TA.AperFunction,Conductor*%
%ADD50C,0.449800*%
%TD*%
G04 APERTURE END LIST*
D10*
D11*
X59686428Y-150538571D02*
X58972142Y-150538571D01*
X58972142Y-149038571D01*
X60972142Y-150538571D02*
X60115000Y-150538571D01*
X60543571Y-150538571D02*
X60543571Y-149038571D01*
X60400714Y-149252857D01*
X60257857Y-149395714D01*
X60115000Y-149467142D01*
D12*
%TO.P,D8,1,K*%
%TO.N,Net-(D8-Pad1)*%
X238760000Y-118340000D03*
%TO.P,D8,2,A*%
%TO.N,+5V*%
X238760000Y-115340000D03*
%TD*%
D13*
%TO.P,C4,1*%
%TO.N,GND*%
X86360000Y-77229000D03*
%TO.P,C4,2*%
%TO.N,/USB_3V3*%
X86360000Y-75679000D03*
%TD*%
D14*
%TO.P,J2,1,Pin_1*%
%TO.N,GND*%
X167640000Y-134620000D03*
D15*
%TO.P,J2,2,Pin_2*%
%TO.N,I2C_SCL*%
X167640000Y-137160000D03*
%TO.P,J2,3,Pin_3*%
%TO.N,I2C_SDA*%
X167640000Y-139700000D03*
%TO.P,J2,4,Pin_4*%
%TO.N,Net-(J2-Pad4)*%
X167640000Y-142240000D03*
%TD*%
D16*
%TO.P,D21,1,K*%
%TO.N,Net-(D21-Pad1)*%
X186460000Y-86360000D03*
%TO.P,D21,2,A*%
%TO.N,LED_PROGRESS1*%
X189460000Y-86360000D03*
%TD*%
D12*
%TO.P,D7,1,K*%
%TO.N,Net-(D7-Pad1)*%
X233680000Y-118340000D03*
%TO.P,D7,2,A*%
%TO.N,+5V*%
X233680000Y-115340000D03*
%TD*%
D17*
%TO.P,F1,1*%
%TO.N,/USB_VBUS*%
X63648500Y-61976000D03*
%TO.P,F1,2*%
%TO.N,/VBUS_fused*%
X67923500Y-61976000D03*
%TD*%
D14*
%TO.P,J9,1,Pin_1*%
%TO.N,GND*%
X242570000Y-147320000D03*
D15*
%TO.P,J9,2,Pin_2*%
%TO.N,SW_START*%
X242570000Y-149860000D03*
%TD*%
D18*
%TO.P,R36,1*%
%TO.N,GND*%
X182055000Y-124460000D03*
%TO.P,R36,2*%
%TO.N,Net-(D19-Pad1)*%
X183705000Y-124460000D03*
%TD*%
D19*
%TO.P,R34,1*%
%TO.N,GND*%
X218440000Y-90615000D03*
%TO.P,R34,2*%
%TO.N,Net-(D17-Pad1)*%
X218440000Y-92265000D03*
%TD*%
D12*
%TO.P,D5,1,K*%
%TO.N,Net-(D5-Pad1)*%
X243840000Y-85320000D03*
%TO.P,D5,2,A*%
%TO.N,+5V*%
X243840000Y-82320000D03*
%TD*%
D20*
%TO.P,C3,1*%
%TO.N,GND*%
X88392000Y-77404000D03*
%TO.P,C3,2*%
%TO.N,/USB_3V3*%
X88392000Y-75504000D03*
%TD*%
D14*
%TO.P,J11,1,Pin_1*%
%TO.N,GND*%
X228600000Y-53340000D03*
D15*
%TO.P,J11,2,Pin_2*%
%TO.N,SW_LIMIT_AZ_R*%
X228600000Y-55880000D03*
%TD*%
D21*
%TO.P,SW6,1,1*%
%TO.N,GND*%
X224955000Y-72680000D03*
X217005000Y-72680000D03*
%TO.P,SW6,2,2*%
%TO.N,SW_LIMIT_EL_T*%
X217005000Y-77180000D03*
X224955000Y-77180000D03*
%TD*%
D22*
%TO.P,R4,1*%
%TO.N,Net-(R4-Pad1)*%
X88646000Y-67881000D03*
%TO.P,R4,2*%
%TO.N,/VBUS_filtered*%
X88646000Y-66231000D03*
%TD*%
%TO.P,R21,1*%
%TO.N,Net-(J4-Pad2)*%
X248920000Y-89725000D03*
%TO.P,R21,2*%
%TO.N,Net-(D6-Pad1)*%
X248920000Y-88075000D03*
%TD*%
D14*
%TO.P,J12,1,Pin_1*%
%TO.N,GND*%
X228600000Y-63500000D03*
D15*
%TO.P,J12,2,Pin_2*%
%TO.N,SW_LIMIT_EL_B*%
X228600000Y-66040000D03*
%TD*%
D16*
%TO.P,D25,1,K*%
%TO.N,Net-(D25-Pad1)*%
X186460000Y-106680000D03*
%TO.P,D25,2,A*%
%TO.N,LED_PROGRESS5*%
X189460000Y-106680000D03*
%TD*%
D20*
%TO.P,C24,1*%
%TO.N,GND*%
X151638000Y-87818000D03*
%TO.P,C24,2*%
%TO.N,Net-(C22-Pad2)*%
X151638000Y-85918000D03*
%TD*%
D22*
%TO.P,R18,1*%
%TO.N,Net-(J4-Pad5)*%
X233680000Y-89725000D03*
%TO.P,R18,2*%
%TO.N,Net-(D3-Pad1)*%
X233680000Y-88075000D03*
%TD*%
D23*
%TO.P,R51,1*%
%TO.N,Net-(J7-Pad18)*%
X242125000Y-55880000D03*
%TO.P,R51,2*%
%TO.N,LED_EL_CENTER*%
X240475000Y-55880000D03*
%TD*%
D24*
%TO.P,C20,1*%
%TO.N,GND*%
X134887000Y-84328000D03*
%TO.P,C20,2*%
%TO.N,+5V*%
X133337000Y-84328000D03*
%TD*%
D20*
%TO.P,C13,1*%
%TO.N,ICSP_GND*%
X89154000Y-54036000D03*
%TO.P,C13,2*%
%TO.N,ICSP_5V*%
X89154000Y-52136000D03*
%TD*%
D12*
%TO.P,D17,1,K*%
%TO.N,Net-(D17-Pad1)*%
X218440000Y-95020000D03*
%TO.P,D17,2,A*%
%TO.N,LED_AZ_RIGHT*%
X218440000Y-98020000D03*
%TD*%
D25*
%TO.P,Q1,1,E*%
%TO.N,GND*%
X145140000Y-87630000D03*
D26*
%TO.P,Q1,2,B*%
%TO.N,Net-(C22-Pad2)*%
X145140000Y-86360000D03*
%TO.P,Q1,3,C*%
%TO.N,Net-(Q1-Pad3)*%
X145140000Y-85090000D03*
%TD*%
D18*
%TO.P,R42,1*%
%TO.N,GND*%
X182055000Y-106680000D03*
%TO.P,R42,2*%
%TO.N,Net-(D25-Pad1)*%
X183705000Y-106680000D03*
%TD*%
D23*
%TO.P,R53,1*%
%TO.N,Net-(J7-Pad22)*%
X242125000Y-50800000D03*
%TO.P,R53,2*%
%TO.N,LED_PROGRESS1*%
X240475000Y-50800000D03*
%TD*%
%TO.P,R43,1*%
%TO.N,Net-(J7-Pad2)*%
X242125000Y-76200000D03*
%TO.P,R43,2*%
%TO.N,+5V*%
X240475000Y-76200000D03*
%TD*%
D18*
%TO.P,R40,1*%
%TO.N,GND*%
X182055000Y-96520000D03*
%TO.P,R40,2*%
%TO.N,Net-(D23-Pad1)*%
X183705000Y-96520000D03*
%TD*%
D23*
%TO.P,R48,1*%
%TO.N,Net-(J7-Pad12)*%
X242125000Y-63500000D03*
%TO.P,R48,2*%
%TO.N,LED_AZ_CENTER*%
X240475000Y-63500000D03*
%TD*%
D14*
%TO.P,J8,1,Pin_1*%
%TO.N,GND*%
X228600000Y-33020000D03*
D15*
%TO.P,J8,2,Pin_2*%
%TO.N,RESET*%
X228600000Y-35560000D03*
%TD*%
D20*
%TO.P,C9,1*%
%TO.N,GND*%
X173736000Y-123190000D03*
%TO.P,C9,2*%
%TO.N,+3.3V*%
X173736000Y-121290000D03*
%TD*%
D23*
%TO.P,R66,1*%
%TO.N,Net-(C21-Pad2)*%
X131127000Y-84328000D03*
%TO.P,R66,2*%
%TO.N,LCD_CO*%
X129477000Y-84328000D03*
%TD*%
D16*
%TO.P,D24,1,K*%
%TO.N,Net-(D24-Pad1)*%
X186460000Y-101600000D03*
%TO.P,D24,2,A*%
%TO.N,LED_PROGRESS4*%
X189460000Y-101600000D03*
%TD*%
D22*
%TO.P,R59,1*%
%TO.N,SW_START*%
X228600000Y-150685000D03*
%TO.P,R59,2*%
%TO.N,+5V*%
X228600000Y-149035000D03*
%TD*%
D12*
%TO.P,D4,1,K*%
%TO.N,Net-(D4-Pad1)*%
X238760000Y-85320000D03*
%TO.P,D4,2,A*%
%TO.N,+5V*%
X238760000Y-82320000D03*
%TD*%
D27*
%TO.P,J1,1,VBUS*%
%TO.N,/USB_VBUS*%
X59759000Y-69520000D03*
%TO.P,J1,2,D-*%
%TO.N,/USB_D-*%
X59759000Y-70320000D03*
%TO.P,J1,3,D+*%
%TO.N,/USB_D+*%
X59759000Y-71120000D03*
%TO.P,J1,4,ID*%
%TO.N,unconnected-(J1-Pad4)*%
X59759000Y-71920000D03*
%TO.P,J1,5,GND*%
%TO.N,/USB_GND*%
X59759000Y-72720000D03*
D28*
%TO.P,J1,6,Shield*%
%TO.N,/USB_Shield*%
X59759000Y-66720000D03*
X54259000Y-75520000D03*
X54259000Y-66720000D03*
X59759000Y-75520000D03*
%TD*%
D29*
%TO.P,C29,1*%
%TO.N,GND*%
X165354000Y-109715000D03*
%TO.P,C29,2*%
%TO.N,+5V*%
X165354000Y-111265000D03*
%TD*%
D16*
%TO.P,D18,1,K*%
%TO.N,Net-(D18-Pad1)*%
X186460000Y-132080000D03*
%TO.P,D18,2,A*%
%TO.N,LED_EL_BOTTOM*%
X189460000Y-132080000D03*
%TD*%
D23*
%TO.P,R56,1*%
%TO.N,Net-(J7-Pad28)*%
X242125000Y-43180000D03*
%TO.P,R56,2*%
%TO.N,LED_PROGRESS4*%
X240475000Y-43180000D03*
%TD*%
D16*
%TO.P,D12,1,K*%
%TO.N,Net-(D12-Pad1)*%
X166140000Y-96520000D03*
%TO.P,D12,2,A*%
%TO.N,+3.3V*%
X169140000Y-96520000D03*
%TD*%
D19*
%TO.P,R65,1*%
%TO.N,Net-(R65-Pad1)*%
X139700000Y-85535000D03*
%TO.P,R65,2*%
%TO.N,+5V*%
X139700000Y-87185000D03*
%TD*%
D30*
%TO.P,C26,1*%
%TO.N,GND*%
X170434000Y-109540000D03*
%TO.P,C26,2*%
%TO.N,+5V*%
X170434000Y-111440000D03*
%TD*%
D12*
%TO.P,D6,1,K*%
%TO.N,Net-(D6-Pad1)*%
X248920000Y-85320000D03*
%TO.P,D6,2,A*%
%TO.N,+5V*%
X248920000Y-82320000D03*
%TD*%
D23*
%TO.P,R14,1*%
%TO.N,I2C_SCL*%
X163385000Y-137160000D03*
%TO.P,R14,2*%
%TO.N,+5V*%
X161735000Y-137160000D03*
%TD*%
D14*
%TO.P,J13,1,Pin_1*%
%TO.N,GND*%
X228600000Y-73660000D03*
D15*
%TO.P,J13,2,Pin_2*%
%TO.N,SW_LIMIT_EL_T*%
X228600000Y-76200000D03*
%TD*%
D22*
%TO.P,R16,1*%
%TO.N,JOY_X*%
X210820000Y-137985000D03*
%TO.P,R16,2*%
%TO.N,/JOY_EL*%
X210820000Y-136335000D03*
%TD*%
D31*
%TO.P,L1,1,1*%
%TO.N,/USB_GND*%
X64008000Y-73105500D03*
%TO.P,L1,2,2*%
%TO.N,GND*%
X64008000Y-75230500D03*
%TD*%
D23*
%TO.P,R13,1*%
%TO.N,I2C_SDA*%
X163385000Y-139700000D03*
%TO.P,R13,2*%
%TO.N,+5V*%
X161735000Y-139700000D03*
%TD*%
D22*
%TO.P,R19,1*%
%TO.N,Net-(J4-Pad4)*%
X238760000Y-89725000D03*
%TO.P,R19,2*%
%TO.N,Net-(D4-Pad1)*%
X238760000Y-88075000D03*
%TD*%
D14*
%TO.P,J16,1,Pin_1*%
%TO.N,+5V*%
X165100000Y-114300000D03*
D15*
%TO.P,J16,2,Pin_2*%
X167640000Y-114300000D03*
%TD*%
D32*
%TO.P,C25,1*%
%TO.N,GND*%
X74234000Y-56134000D03*
%TO.P,C25,2*%
%TO.N,+5V*%
X76134000Y-56134000D03*
%TD*%
D33*
%TO.P,U1,1,TXD*%
%TO.N,Net-(R6-Pad1)*%
X77680000Y-61815000D03*
%TO.P,U1,2,DTR*%
%TO.N,unconnected-(U1-Pad2)*%
X77680000Y-62465000D03*
%TO.P,U1,3,RTS*%
%TO.N,unconnected-(U1-Pad3)*%
X77680000Y-63115000D03*
%TO.P,U1,4,VCCIO*%
%TO.N,+5V*%
X77680000Y-63765000D03*
%TO.P,U1,5,RXD*%
%TO.N,Net-(R7-Pad1)*%
X77680000Y-64415000D03*
%TO.P,U1,6,RI*%
%TO.N,unconnected-(U1-Pad6)*%
X77680000Y-65065000D03*
%TO.P,U1,7,GND*%
%TO.N,GND*%
X77680000Y-65715000D03*
%TO.P,U1,8*%
%TO.N,N/C*%
X77680000Y-66365000D03*
%TO.P,U1,9,DCR*%
%TO.N,unconnected-(U1-Pad9)*%
X77680000Y-67015000D03*
%TO.P,U1,10,DCD*%
%TO.N,unconnected-(U1-Pad10)*%
X77680000Y-67665000D03*
%TO.P,U1,11,CTS*%
%TO.N,unconnected-(U1-Pad11)*%
X77680000Y-68315000D03*
%TO.P,U1,12,CBUS4*%
%TO.N,unconnected-(U1-Pad12)*%
X77680000Y-68965000D03*
%TO.P,U1,13,CBUS2*%
%TO.N,unconnected-(U1-Pad13)*%
X77680000Y-69615000D03*
%TO.P,U1,14,CBUS3*%
%TO.N,unconnected-(U1-Pad14)*%
X77680000Y-70265000D03*
%TO.P,U1,15,USBD+*%
%TO.N,/USB_D_R+*%
X84880000Y-70265000D03*
%TO.P,U1,16,USBD-*%
%TO.N,/USB_D_R-*%
X84880000Y-69615000D03*
%TO.P,U1,17,3V3OUT*%
%TO.N,/USB_3V3*%
X84880000Y-68965000D03*
%TO.P,U1,18,GND*%
%TO.N,GND*%
X84880000Y-68315000D03*
%TO.P,U1,19,~{RESET}*%
%TO.N,Net-(R4-Pad1)*%
X84880000Y-67665000D03*
%TO.P,U1,20,VCC*%
%TO.N,/VBUS_filtered*%
X84880000Y-67015000D03*
%TO.P,U1,21,GND*%
%TO.N,GND*%
X84880000Y-66365000D03*
%TO.P,U1,22,CBUS1*%
%TO.N,unconnected-(U1-Pad22)*%
X84880000Y-65715000D03*
%TO.P,U1,23,CBUS0*%
%TO.N,unconnected-(U1-Pad23)*%
X84880000Y-65065000D03*
%TO.P,U1,24*%
%TO.N,N/C*%
X84880000Y-64415000D03*
%TO.P,U1,25,AGND*%
%TO.N,GND*%
X84880000Y-63765000D03*
%TO.P,U1,26,TEST*%
X84880000Y-63115000D03*
%TO.P,U1,27,OSCI*%
%TO.N,unconnected-(U1-Pad27)*%
X84880000Y-62465000D03*
%TO.P,U1,28,OSCO*%
%TO.N,unconnected-(U1-Pad28)*%
X84880000Y-61815000D03*
%TD*%
D22*
%TO.P,RV1,1*%
%TO.N,/USB_D-*%
X66548000Y-69913000D03*
%TO.P,RV1,2*%
%TO.N,/USB_Shield*%
X66548000Y-68263000D03*
%TD*%
D23*
%TO.P,R50,1*%
%TO.N,Net-(J7-Pad16)*%
X242125000Y-58420000D03*
%TO.P,R50,2*%
%TO.N,LED_EL_BOTTOM*%
X240475000Y-58420000D03*
%TD*%
D16*
%TO.P,D19,1,K*%
%TO.N,Net-(D19-Pad1)*%
X186460000Y-124460000D03*
%TO.P,D19,2,A*%
%TO.N,LED_EL_CENTER*%
X189460000Y-124460000D03*
%TD*%
D19*
%TO.P,R8,1*%
%TO.N,Net-(R6-Pad1)*%
X78740000Y-75375000D03*
%TO.P,R8,2*%
%TO.N,USB_UART_TX*%
X78740000Y-77025000D03*
%TD*%
D32*
%TO.P,C15,1*%
%TO.N,GND*%
X237810000Y-109220000D03*
%TO.P,C15,2*%
%TO.N,+5V*%
X239710000Y-109220000D03*
%TD*%
D22*
%TO.P,R27,1*%
%TO.N,Net-(J6-Pad1)*%
X205740000Y-137985000D03*
%TO.P,R27,2*%
%TO.N,GND*%
X205740000Y-136335000D03*
%TD*%
D34*
%TO.P,C8,1*%
%TO.N,GND*%
X73393000Y-64008000D03*
%TO.P,C8,2*%
%TO.N,+5V*%
X74943000Y-64008000D03*
%TD*%
D21*
%TO.P,SW3,1,1*%
%TO.N,GND*%
X224955000Y-42200000D03*
X217005000Y-42200000D03*
%TO.P,SW3,2,2*%
%TO.N,SW_LIMIT_AZ_L*%
X217005000Y-46700000D03*
X224955000Y-46700000D03*
%TD*%
D22*
%TO.P,R15,1*%
%TO.N,JOY_Y*%
X213360000Y-137985000D03*
%TO.P,R15,2*%
%TO.N,/JOY_AZ*%
X213360000Y-136335000D03*
%TD*%
D30*
%TO.P,C5,1*%
%TO.N,GND*%
X72136000Y-56200000D03*
%TO.P,C5,2*%
%TO.N,/VBUS_filtered*%
X72136000Y-58100000D03*
%TD*%
D34*
%TO.P,C21,1*%
%TO.N,GND*%
X129514000Y-86360000D03*
%TO.P,C21,2*%
%TO.N,Net-(C21-Pad2)*%
X131064000Y-86360000D03*
%TD*%
D35*
%TO.P,U2,1,I1*%
%TO.N,MOTOR1_A+*%
X235210000Y-94615000D03*
%TO.P,U2,2,I2*%
%TO.N,MOTOR1_B+*%
X235210000Y-95885000D03*
%TO.P,U2,3,I3*%
%TO.N,MOTOR1_A-*%
X235210000Y-97155000D03*
%TO.P,U2,4,I4*%
%TO.N,MOTOR1_B-*%
X235210000Y-98425000D03*
%TO.P,U2,5,I5*%
%TO.N,unconnected-(U2-Pad5)*%
X235210000Y-99695000D03*
%TO.P,U2,6,I6*%
%TO.N,unconnected-(U2-Pad6)*%
X235210000Y-100965000D03*
%TO.P,U2,7,I7*%
%TO.N,unconnected-(U2-Pad7)*%
X235210000Y-102235000D03*
%TO.P,U2,8,GND*%
%TO.N,GND*%
X235210000Y-103505000D03*
%TO.P,U2,9,COM*%
%TO.N,+5V*%
X242310000Y-103505000D03*
%TO.P,U2,10,O7*%
%TO.N,unconnected-(U2-Pad10)*%
X242310000Y-102235000D03*
%TO.P,U2,11,O6*%
%TO.N,unconnected-(U2-Pad11)*%
X242310000Y-100965000D03*
%TO.P,U2,12,O5*%
%TO.N,unconnected-(U2-Pad12)*%
X242310000Y-99695000D03*
%TO.P,U2,13,O4*%
%TO.N,Net-(J4-Pad2)*%
X242310000Y-98425000D03*
%TO.P,U2,14,O3*%
%TO.N,Net-(J4-Pad3)*%
X242310000Y-97155000D03*
%TO.P,U2,15,O2*%
%TO.N,Net-(J4-Pad4)*%
X242310000Y-95885000D03*
%TO.P,U2,16,O1*%
%TO.N,Net-(J4-Pad5)*%
X242310000Y-94615000D03*
%TD*%
D29*
%TO.P,C6,1*%
%TO.N,GND*%
X69598000Y-56375000D03*
%TO.P,C6,2*%
%TO.N,/VBUS_filtered*%
X69598000Y-57925000D03*
%TD*%
D32*
%TO.P,C23,1*%
%TO.N,GND*%
X129352000Y-88646000D03*
%TO.P,C23,2*%
%TO.N,Net-(C21-Pad2)*%
X131252000Y-88646000D03*
%TD*%
D16*
%TO.P,D11,1,K*%
%TO.N,Net-(D11-Pad1)*%
X166140000Y-91440000D03*
%TO.P,D11,2,A*%
%TO.N,+5V*%
X169140000Y-91440000D03*
%TD*%
D19*
%TO.P,R9,1*%
%TO.N,Net-(R7-Pad1)*%
X81280000Y-75375000D03*
%TO.P,R9,2*%
%TO.N,USB_UART_RX*%
X81280000Y-77025000D03*
%TD*%
D12*
%TO.P,D3,1,K*%
%TO.N,Net-(D3-Pad1)*%
X233680000Y-85395000D03*
%TO.P,D3,2,A*%
%TO.N,+5V*%
X233680000Y-82395000D03*
%TD*%
D22*
%TO.P,R26,1*%
%TO.N,Net-(J6-Pad2)*%
X208280000Y-137985000D03*
%TO.P,R26,2*%
%TO.N,+5V*%
X208280000Y-136335000D03*
%TD*%
D18*
%TO.P,R1,1*%
%TO.N,/USB_Shield*%
X56310000Y-85090000D03*
%TO.P,R1,2*%
%TO.N,GND*%
X57960000Y-85090000D03*
%TD*%
D12*
%TO.P,D15,1,K*%
%TO.N,Net-(D15-Pad1)*%
X203200000Y-95020000D03*
%TO.P,D15,2,A*%
%TO.N,LED_AZ_LEFT*%
X203200000Y-98020000D03*
%TD*%
D18*
%TO.P,R38,1*%
%TO.N,GND*%
X182055000Y-86360000D03*
%TO.P,R38,2*%
%TO.N,Net-(D21-Pad1)*%
X183705000Y-86360000D03*
%TD*%
D34*
%TO.P,C14,1*%
%TO.N,GND*%
X237985000Y-106680000D03*
%TO.P,C14,2*%
%TO.N,+5V*%
X239535000Y-106680000D03*
%TD*%
D18*
%TO.P,R39,1*%
%TO.N,GND*%
X182055000Y-91440000D03*
%TO.P,R39,2*%
%TO.N,Net-(D22-Pad1)*%
X183705000Y-91440000D03*
%TD*%
D14*
%TO.P,J14,1,Pin_1*%
%TO.N,GND*%
X165100000Y-124460000D03*
D15*
%TO.P,J14,2,Pin_2*%
X167640000Y-124460000D03*
%TO.P,J14,3,Pin_3*%
X165100000Y-127000000D03*
%TO.P,J14,4,Pin_4*%
X167640000Y-127000000D03*
%TD*%
D18*
%TO.P,R31,1*%
%TO.N,GND*%
X161735000Y-106680000D03*
%TO.P,R31,2*%
%TO.N,Net-(D14-Pad1)*%
X163385000Y-106680000D03*
%TD*%
D22*
%TO.P,R25,1*%
%TO.N,Net-(J5-Pad2)*%
X248920000Y-122745000D03*
%TO.P,R25,2*%
%TO.N,Net-(D10-Pad1)*%
X248920000Y-121095000D03*
%TD*%
%TO.P,R23,1*%
%TO.N,Net-(J5-Pad4)*%
X238760000Y-122745000D03*
%TO.P,R23,2*%
%TO.N,Net-(D8-Pad1)*%
X238760000Y-121095000D03*
%TD*%
D34*
%TO.P,C16,1*%
%TO.N,GND*%
X237985000Y-139700000D03*
%TO.P,C16,2*%
%TO.N,+5V*%
X239535000Y-139700000D03*
%TD*%
D23*
%TO.P,R10,1*%
%TO.N,USB_UART_TX*%
X78803000Y-78994000D03*
%TO.P,R10,2*%
%TO.N,Net-(D1-Pad1)*%
X77153000Y-78994000D03*
%TD*%
D16*
%TO.P,D2,1,K*%
%TO.N,Net-(D2-Pad1)*%
X82828000Y-82042000D03*
%TO.P,D2,2,A*%
%TO.N,+5V*%
X85828000Y-82042000D03*
%TD*%
D19*
%TO.P,R63,1*%
%TO.N,SW_LIMIT_EL_T*%
X214630000Y-76645000D03*
%TO.P,R63,2*%
%TO.N,+5V*%
X214630000Y-78295000D03*
%TD*%
D12*
%TO.P,D9,1,K*%
%TO.N,Net-(D9-Pad1)*%
X243840000Y-118340000D03*
%TO.P,D9,2,A*%
%TO.N,+5V*%
X243840000Y-115340000D03*
%TD*%
D19*
%TO.P,R33,1*%
%TO.N,GND*%
X210820000Y-90615000D03*
%TO.P,R33,2*%
%TO.N,Net-(D16-Pad1)*%
X210820000Y-92265000D03*
%TD*%
D12*
%TO.P,D16,1,K*%
%TO.N,Net-(D16-Pad1)*%
X210820000Y-95020000D03*
%TO.P,D16,2,A*%
%TO.N,LED_AZ_CENTER*%
X210820000Y-98020000D03*
%TD*%
D14*
%TO.P,J7,1,Pin_1*%
%TO.N,GND*%
X248920000Y-76200000D03*
D15*
%TO.P,J7,2,Pin_2*%
%TO.N,Net-(J7-Pad2)*%
X246380000Y-76200000D03*
%TO.P,J7,3,Pin_3*%
%TO.N,GND*%
X248920000Y-73660000D03*
%TO.P,J7,4,Pin_4*%
%TO.N,Net-(J7-Pad4)*%
X246380000Y-73660000D03*
%TO.P,J7,5,Pin_5*%
%TO.N,GND*%
X248920000Y-71120000D03*
%TO.P,J7,6,Pin_6*%
%TO.N,Net-(J7-Pad6)*%
X246380000Y-71120000D03*
%TO.P,J7,7,Pin_7*%
%TO.N,GND*%
X248920000Y-68580000D03*
%TO.P,J7,8,Pin_8*%
%TO.N,Net-(J7-Pad8)*%
X246380000Y-68580000D03*
%TO.P,J7,9,Pin_9*%
%TO.N,GND*%
X248920000Y-66040000D03*
%TO.P,J7,10,Pin_10*%
%TO.N,Net-(J7-Pad10)*%
X246380000Y-66040000D03*
%TO.P,J7,11,Pin_11*%
%TO.N,GND*%
X248920000Y-63500000D03*
%TO.P,J7,12,Pin_12*%
%TO.N,Net-(J7-Pad12)*%
X246380000Y-63500000D03*
%TO.P,J7,13,Pin_13*%
%TO.N,GND*%
X248920000Y-60960000D03*
%TO.P,J7,14,Pin_14*%
%TO.N,Net-(J7-Pad14)*%
X246380000Y-60960000D03*
%TO.P,J7,15,Pin_15*%
%TO.N,GND*%
X248920000Y-58420000D03*
%TO.P,J7,16,Pin_16*%
%TO.N,Net-(J7-Pad16)*%
X246380000Y-58420000D03*
%TO.P,J7,17,Pin_17*%
%TO.N,GND*%
X248920000Y-55880000D03*
%TO.P,J7,18,Pin_18*%
%TO.N,Net-(J7-Pad18)*%
X246380000Y-55880000D03*
%TO.P,J7,19,Pin_19*%
%TO.N,GND*%
X248920000Y-53340000D03*
%TO.P,J7,20,Pin_20*%
%TO.N,Net-(J7-Pad20)*%
X246380000Y-53340000D03*
%TO.P,J7,21,Pin_21*%
%TO.N,GND*%
X248920000Y-50800000D03*
%TO.P,J7,22,Pin_22*%
%TO.N,Net-(J7-Pad22)*%
X246380000Y-50800000D03*
%TO.P,J7,23,Pin_23*%
%TO.N,GND*%
X248920000Y-48260000D03*
%TO.P,J7,24,Pin_24*%
%TO.N,Net-(J7-Pad24)*%
X246380000Y-48260000D03*
%TO.P,J7,25,Pin_25*%
%TO.N,GND*%
X248920000Y-45720000D03*
%TO.P,J7,26,Pin_26*%
%TO.N,Net-(J7-Pad26)*%
X246380000Y-45720000D03*
%TO.P,J7,27,Pin_27*%
%TO.N,GND*%
X248920000Y-43180000D03*
%TO.P,J7,28,Pin_28*%
%TO.N,Net-(J7-Pad28)*%
X246380000Y-43180000D03*
%TO.P,J7,29,Pin_29*%
%TO.N,GND*%
X248920000Y-40640000D03*
%TO.P,J7,30,Pin_30*%
%TO.N,Net-(J7-Pad30)*%
X246380000Y-40640000D03*
%TD*%
D16*
%TO.P,D23,1,K*%
%TO.N,Net-(D23-Pad1)*%
X186460000Y-96520000D03*
%TO.P,D23,2,A*%
%TO.N,LED_PROGRESS3*%
X189460000Y-96520000D03*
%TD*%
D34*
%TO.P,C27,1*%
%TO.N,GND*%
X74409000Y-58420000D03*
%TO.P,C27,2*%
%TO.N,+5V*%
X75959000Y-58420000D03*
%TD*%
%TO.P,C2,1*%
%TO.N,/USB_Shield*%
X56375000Y-82550000D03*
%TO.P,C2,2*%
%TO.N,GND*%
X57925000Y-82550000D03*
%TD*%
D19*
%TO.P,R60,1*%
%TO.N,SW_LIMIT_AZ_L*%
X214630000Y-47435000D03*
%TO.P,R60,2*%
%TO.N,+5V*%
X214630000Y-49085000D03*
%TD*%
D16*
%TO.P,D20,1,K*%
%TO.N,Net-(D20-Pad1)*%
X186460000Y-116840000D03*
%TO.P,D20,2,A*%
%TO.N,LED_EL_TOP*%
X189460000Y-116840000D03*
%TD*%
D18*
%TO.P,R29,1*%
%TO.N,GND*%
X161735000Y-96520000D03*
%TO.P,R29,2*%
%TO.N,Net-(D12-Pad1)*%
X163385000Y-96520000D03*
%TD*%
D22*
%TO.P,R22,1*%
%TO.N,Net-(J5-Pad5)*%
X233680000Y-122745000D03*
%TO.P,R22,2*%
%TO.N,Net-(D7-Pad1)*%
X233680000Y-121095000D03*
%TD*%
D23*
%TO.P,R49,1*%
%TO.N,Net-(J7-Pad14)*%
X242125000Y-60960000D03*
%TO.P,R49,2*%
%TO.N,LED_AZ_RIGHT*%
X240475000Y-60960000D03*
%TD*%
D21*
%TO.P,SW1,1,1*%
%TO.N,GND*%
X224955000Y-32040000D03*
X217005000Y-32040000D03*
%TO.P,SW1,2,2*%
%TO.N,RESET*%
X224955000Y-36540000D03*
X217005000Y-36540000D03*
%TD*%
D32*
%TO.P,C17,1*%
%TO.N,GND*%
X237810000Y-142240000D03*
%TO.P,C17,2*%
%TO.N,+5V*%
X239710000Y-142240000D03*
%TD*%
D13*
%TO.P,C12,1*%
%TO.N,ICSP_GND*%
X86868000Y-53848000D03*
%TO.P,C12,2*%
%TO.N,ICSP_5V*%
X86868000Y-52298000D03*
%TD*%
D12*
%TO.P,D10,1,K*%
%TO.N,Net-(D10-Pad1)*%
X248920000Y-118340000D03*
%TO.P,D10,2,A*%
%TO.N,+5V*%
X248920000Y-115340000D03*
%TD*%
D18*
%TO.P,R2,1*%
%TO.N,/USB_D+*%
X68517000Y-71882000D03*
%TO.P,R2,2*%
%TO.N,/USB_D_R+*%
X70167000Y-71882000D03*
%TD*%
D22*
%TO.P,R24,1*%
%TO.N,Net-(J5-Pad3)*%
X243840000Y-122745000D03*
%TO.P,R24,2*%
%TO.N,Net-(D9-Pad1)*%
X243840000Y-121095000D03*
%TD*%
D19*
%TO.P,R58,1*%
%TO.N,RESET*%
X214630000Y-37275000D03*
%TO.P,R58,2*%
%TO.N,+5V*%
X214630000Y-38925000D03*
%TD*%
D23*
%TO.P,R57,1*%
%TO.N,Net-(J7-Pad30)*%
X242125000Y-40640000D03*
%TO.P,R57,2*%
%TO.N,LED_PROGRESS5*%
X240475000Y-40640000D03*
%TD*%
D14*
%TO.P,J4,1,Pin_1*%
%TO.N,+5V*%
X248920000Y-104140000D03*
D15*
%TO.P,J4,2,Pin_2*%
%TO.N,Net-(J4-Pad2)*%
X248920000Y-101600000D03*
%TO.P,J4,3,Pin_3*%
%TO.N,Net-(J4-Pad3)*%
X248920000Y-99060000D03*
%TO.P,J4,4,Pin_4*%
%TO.N,Net-(J4-Pad4)*%
X248920000Y-96520000D03*
%TO.P,J4,5,Pin_5*%
%TO.N,Net-(J4-Pad5)*%
X248920000Y-93980000D03*
%TD*%
D36*
%TO.P,L2,1,1*%
%TO.N,/VBUS_fused*%
X71934000Y-62022500D03*
%TO.P,L2,2,2*%
%TO.N,/VBUS_filtered*%
X71934000Y-59897500D03*
%TD*%
D14*
%TO.P,J17,1,Pin_1*%
%TO.N,+3.3V*%
X165100000Y-119380000D03*
D15*
%TO.P,J17,2,Pin_2*%
X167640000Y-119380000D03*
%TD*%
D16*
%TO.P,D22,1,K*%
%TO.N,Net-(D22-Pad1)*%
X186460000Y-91440000D03*
%TO.P,D22,2,A*%
%TO.N,LED_PROGRESS2*%
X189460000Y-91440000D03*
%TD*%
D13*
%TO.P,C10,1*%
%TO.N,GND*%
X171704000Y-122949000D03*
%TO.P,C10,2*%
%TO.N,+3.3V*%
X171704000Y-121399000D03*
%TD*%
D23*
%TO.P,R47,1*%
%TO.N,Net-(J7-Pad10)*%
X242125000Y-66040000D03*
%TO.P,R47,2*%
%TO.N,LED_AZ_LEFT*%
X240475000Y-66040000D03*
%TD*%
%TO.P,R52,1*%
%TO.N,Net-(J7-Pad20)*%
X242125000Y-53340000D03*
%TO.P,R52,2*%
%TO.N,LED_EL_TOP*%
X240475000Y-53340000D03*
%TD*%
D18*
%TO.P,R37,1*%
%TO.N,GND*%
X182055000Y-116840000D03*
%TO.P,R37,2*%
%TO.N,Net-(D20-Pad1)*%
X183705000Y-116840000D03*
%TD*%
D23*
%TO.P,R45,1*%
%TO.N,Net-(J7-Pad6)*%
X242125000Y-71120000D03*
%TO.P,R45,2*%
%TO.N,LED_OK*%
X240475000Y-71120000D03*
%TD*%
D14*
%TO.P,J3,1,Pin_1*%
%TO.N,ICSP_MISO*%
X81280000Y-50800000D03*
D15*
%TO.P,J3,2,Pin_2*%
%TO.N,ICSP_5V*%
X83820000Y-50800000D03*
%TO.P,J3,3,Pin_3*%
%TO.N,ICSP_SCK*%
X81280000Y-53340000D03*
%TO.P,J3,4,Pin_4*%
%TO.N,ICSP_MOSI*%
X83820000Y-53340000D03*
%TO.P,J3,5,Pin_5*%
%TO.N,ICSP_RST*%
X81280000Y-55880000D03*
%TO.P,J3,6,Pin_6*%
%TO.N,ICSP_GND*%
X83820000Y-55880000D03*
%TD*%
D19*
%TO.P,R32,1*%
%TO.N,GND*%
X203200000Y-90615000D03*
%TO.P,R32,2*%
%TO.N,Net-(D15-Pad1)*%
X203200000Y-92265000D03*
%TD*%
D16*
%TO.P,D1,1,K*%
%TO.N,Net-(D1-Pad1)*%
X77192000Y-82042000D03*
%TO.P,D1,2,A*%
%TO.N,+5V*%
X74192000Y-82042000D03*
%TD*%
D23*
%TO.P,R55,1*%
%TO.N,Net-(J7-Pad26)*%
X242125000Y-45720000D03*
%TO.P,R55,2*%
%TO.N,LED_PROGRESS3*%
X240475000Y-45720000D03*
%TD*%
D19*
%TO.P,R67,1*%
%TO.N,Net-(C22-Pad2)*%
X153924000Y-86043000D03*
%TO.P,R67,2*%
%TO.N,LCD_BL*%
X153924000Y-87693000D03*
%TD*%
%TO.P,R62,1*%
%TO.N,SW_LIMIT_EL_B*%
X214630000Y-67755000D03*
%TO.P,R62,2*%
%TO.N,+5V*%
X214630000Y-69405000D03*
%TD*%
D18*
%TO.P,R11,1*%
%TO.N,USB_UART_RX*%
X81154000Y-78994000D03*
%TO.P,R11,2*%
%TO.N,Net-(D2-Pad1)*%
X82804000Y-78994000D03*
%TD*%
D19*
%TO.P,R61,1*%
%TO.N,SW_LIMIT_AZ_R*%
X214630000Y-57595000D03*
%TO.P,R61,2*%
%TO.N,+5V*%
X214630000Y-59245000D03*
%TD*%
D14*
%TO.P,J15,1,Pin_1*%
%TO.N,GND*%
X53340000Y-40640000D03*
D15*
%TO.P,J15,2,Pin_2*%
X55880000Y-40640000D03*
%TO.P,J15,3,Pin_3*%
X53340000Y-43180000D03*
%TO.P,J15,4,Pin_4*%
X55880000Y-43180000D03*
%TD*%
D23*
%TO.P,R44,1*%
%TO.N,Net-(J7-Pad4)*%
X242125000Y-73660000D03*
%TO.P,R44,2*%
%TO.N,+3.3V*%
X240475000Y-73660000D03*
%TD*%
D22*
%TO.P,R20,1*%
%TO.N,Net-(J4-Pad3)*%
X243840000Y-89725000D03*
%TO.P,R20,2*%
%TO.N,Net-(D5-Pad1)*%
X243840000Y-88075000D03*
%TD*%
D19*
%TO.P,RV2,1*%
%TO.N,/USB_D+*%
X66548000Y-71819000D03*
%TO.P,RV2,2*%
%TO.N,/USB_Shield*%
X66548000Y-73469000D03*
%TD*%
D21*
%TO.P,SW5,1,1*%
%TO.N,GND*%
X217005000Y-62520000D03*
X224955000Y-62520000D03*
%TO.P,SW5,2,2*%
%TO.N,SW_LIMIT_EL_B*%
X224955000Y-67020000D03*
X217005000Y-67020000D03*
%TD*%
D34*
%TO.P,C1,1*%
%TO.N,/USB_Shield*%
X56375000Y-80010000D03*
%TO.P,C1,2*%
%TO.N,GND*%
X57925000Y-80010000D03*
%TD*%
D13*
%TO.P,C11,1*%
%TO.N,GND*%
X162306000Y-123203000D03*
%TO.P,C11,2*%
%TO.N,+3.3V*%
X162306000Y-121653000D03*
%TD*%
D23*
%TO.P,R46,1*%
%TO.N,Net-(J7-Pad8)*%
X242125000Y-68580000D03*
%TO.P,R46,2*%
%TO.N,LED_ERROR*%
X240475000Y-68580000D03*
%TD*%
D18*
%TO.P,R41,1*%
%TO.N,GND*%
X182055000Y-101600000D03*
%TO.P,R41,2*%
%TO.N,Net-(D24-Pad1)*%
X183705000Y-101600000D03*
%TD*%
%TO.P,R30,1*%
%TO.N,GND*%
X161735000Y-101600000D03*
%TO.P,R30,2*%
%TO.N,Net-(D13-Pad1)*%
X163385000Y-101600000D03*
%TD*%
D35*
%TO.P,U3,1,I1*%
%TO.N,MOTOR2_A+*%
X235210000Y-127635000D03*
%TO.P,U3,2,I2*%
%TO.N,MOTOR2_B+*%
X235210000Y-128905000D03*
%TO.P,U3,3,I3*%
%TO.N,MOTOR2_A-*%
X235210000Y-130175000D03*
%TO.P,U3,4,I4*%
%TO.N,MOTOR2_B-*%
X235210000Y-131445000D03*
%TO.P,U3,5,I5*%
%TO.N,unconnected-(U3-Pad5)*%
X235210000Y-132715000D03*
%TO.P,U3,6,I6*%
%TO.N,unconnected-(U3-Pad6)*%
X235210000Y-133985000D03*
%TO.P,U3,7,I7*%
%TO.N,unconnected-(U3-Pad7)*%
X235210000Y-135255000D03*
%TO.P,U3,8,GND*%
%TO.N,GND*%
X235210000Y-136525000D03*
%TO.P,U3,9,COM*%
%TO.N,+5V*%
X242310000Y-136525000D03*
%TO.P,U3,10,O7*%
%TO.N,unconnected-(U3-Pad10)*%
X242310000Y-135255000D03*
%TO.P,U3,11,O6*%
%TO.N,unconnected-(U3-Pad11)*%
X242310000Y-133985000D03*
%TO.P,U3,12,O5*%
%TO.N,unconnected-(U3-Pad12)*%
X242310000Y-132715000D03*
%TO.P,U3,13,O4*%
%TO.N,Net-(J5-Pad2)*%
X242310000Y-131445000D03*
%TO.P,U3,14,O3*%
%TO.N,Net-(J5-Pad3)*%
X242310000Y-130175000D03*
%TO.P,U3,15,O2*%
%TO.N,Net-(J5-Pad4)*%
X242310000Y-128905000D03*
%TO.P,U3,16,O1*%
%TO.N,Net-(J5-Pad5)*%
X242310000Y-127635000D03*
%TD*%
D37*
%TO.P,C19,1*%
%TO.N,GND*%
X135062000Y-86614000D03*
%TO.P,C19,2*%
%TO.N,+5V*%
X133162000Y-86614000D03*
%TD*%
D16*
%TO.P,D14,1,K*%
%TO.N,Net-(D14-Pad1)*%
X166140000Y-106680000D03*
%TO.P,D14,2,A*%
%TO.N,LED_ERROR*%
X169140000Y-106680000D03*
%TD*%
D38*
%TO.P,U4,*%
%TO.N,*%
X209120000Y-40740000D03*
X94120000Y-40740000D03*
X209120000Y-77740000D03*
X94120000Y-77740000D03*
D39*
%TO.P,U4,1,VSS*%
%TO.N,GND*%
X134620000Y-78740000D03*
D40*
%TO.P,U4,2,VDD*%
%TO.N,+5V*%
X132080000Y-78740000D03*
%TO.P,U4,3,VO*%
%TO.N,Net-(C21-Pad2)*%
X129540000Y-78740000D03*
%TO.P,U4,4,RS*%
%TO.N,LCD_RS*%
X127000000Y-78740000D03*
%TO.P,U4,5,R/~{W}*%
%TO.N,Net-(R64-Pad2)*%
X124460000Y-78740000D03*
%TO.P,U4,6,E*%
%TO.N,LCD_EN*%
X121920000Y-78740000D03*
%TO.P,U4,7,DB0*%
%TO.N,unconnected-(U4-Pad7)*%
X119380000Y-78740000D03*
%TO.P,U4,8,DB1*%
%TO.N,unconnected-(U4-Pad8)*%
X116840000Y-78740000D03*
%TO.P,U4,9,DB2*%
%TO.N,unconnected-(U4-Pad9)*%
X114300000Y-78740000D03*
%TO.P,U4,10,DB3*%
%TO.N,unconnected-(U4-Pad10)*%
X111760000Y-78740000D03*
%TO.P,U4,11,DB4*%
%TO.N,LCD_D4*%
X109220000Y-78740000D03*
%TO.P,U4,12,DB5*%
%TO.N,LCD_D5*%
X106680000Y-78740000D03*
%TO.P,U4,13,DB6*%
%TO.N,LCD_D6*%
X104140000Y-78740000D03*
%TO.P,U4,14,DB7*%
%TO.N,LCD_D7*%
X101600000Y-78740000D03*
%TO.P,U4,15,A/VEE*%
%TO.N,Net-(R65-Pad1)*%
X137160000Y-78740000D03*
%TO.P,U4,16,K*%
%TO.N,Net-(Q1-Pad3)*%
X139700000Y-78740000D03*
D41*
%TO.P,U4,A1,A1*%
%TO.N,unconnected-(U4-PadA1)*%
X210120000Y-64740000D03*
%TO.P,U4,A2,A2*%
%TO.N,unconnected-(U4-PadA2)*%
X210120000Y-53740000D03*
%TO.P,U4,K1,K1*%
%TO.N,unconnected-(U4-PadK1)*%
X210120000Y-60740000D03*
%TO.P,U4,K2,K2*%
%TO.N,unconnected-(U4-PadK2)*%
X210120000Y-49740000D03*
%TD*%
D23*
%TO.P,R12,1*%
%TO.N,Net-(J2-Pad4)*%
X163385000Y-142240000D03*
%TO.P,R12,2*%
%TO.N,+5V*%
X161735000Y-142240000D03*
%TD*%
D34*
%TO.P,C18,1*%
%TO.N,GND*%
X206235000Y-134620000D03*
%TO.P,C18,2*%
%TO.N,+5V*%
X207785000Y-134620000D03*
%TD*%
D32*
%TO.P,C7,1*%
%TO.N,GND*%
X72964000Y-66040000D03*
%TO.P,C7,2*%
%TO.N,+5V*%
X74864000Y-66040000D03*
%TD*%
D23*
%TO.P,R54,1*%
%TO.N,Net-(J7-Pad24)*%
X242125000Y-48260000D03*
%TO.P,R54,2*%
%TO.N,LED_PROGRESS2*%
X240475000Y-48260000D03*
%TD*%
%TO.P,R6,1*%
%TO.N,Net-(R6-Pad1)*%
X77025000Y-73660000D03*
%TO.P,R6,2*%
%TO.N,+5V*%
X75375000Y-73660000D03*
%TD*%
D14*
%TO.P,JP1,1,A*%
%TO.N,/VBUS_filtered*%
X55880000Y-55880000D03*
D15*
%TO.P,JP1,2,C*%
%TO.N,+5V*%
X55880000Y-53340000D03*
%TO.P,JP1,3,B*%
%TO.N,5V_ARDUINO*%
X55880000Y-50800000D03*
%TD*%
D18*
%TO.P,R35,1*%
%TO.N,GND*%
X182055000Y-132080000D03*
%TO.P,R35,2*%
%TO.N,Net-(D18-Pad1)*%
X183705000Y-132080000D03*
%TD*%
%TO.P,R28,1*%
%TO.N,GND*%
X161735000Y-91440000D03*
%TO.P,R28,2*%
%TO.N,Net-(D11-Pad1)*%
X163385000Y-91440000D03*
%TD*%
D16*
%TO.P,D13,1,K*%
%TO.N,Net-(D13-Pad1)*%
X166140000Y-101600000D03*
%TO.P,D13,2,A*%
%TO.N,LED_OK*%
X169140000Y-101600000D03*
%TD*%
D21*
%TO.P,SW4,1,1*%
%TO.N,GND*%
X224955000Y-52360000D03*
X217005000Y-52360000D03*
%TO.P,SW4,2,2*%
%TO.N,SW_LIMIT_AZ_R*%
X217005000Y-56860000D03*
X224955000Y-56860000D03*
%TD*%
%TO.P,SW2,1,1*%
%TO.N,GND*%
X238695000Y-146340000D03*
X230745000Y-146340000D03*
%TO.P,SW2,2,2*%
%TO.N,SW_START*%
X230745000Y-150840000D03*
X238695000Y-150840000D03*
%TD*%
D14*
%TO.P,J5,1,Pin_1*%
%TO.N,+5V*%
X248920000Y-137160000D03*
D15*
%TO.P,J5,2,Pin_2*%
%TO.N,Net-(J5-Pad2)*%
X248920000Y-134620000D03*
%TO.P,J5,3,Pin_3*%
%TO.N,Net-(J5-Pad3)*%
X248920000Y-132080000D03*
%TO.P,J5,4,Pin_4*%
%TO.N,Net-(J5-Pad4)*%
X248920000Y-129540000D03*
%TO.P,J5,5,Pin_5*%
%TO.N,Net-(J5-Pad5)*%
X248920000Y-127000000D03*
%TD*%
D13*
%TO.P,C22,1*%
%TO.N,GND*%
X149352000Y-87643000D03*
%TO.P,C22,2*%
%TO.N,Net-(C22-Pad2)*%
X149352000Y-86093000D03*
%TD*%
D18*
%TO.P,R7,1*%
%TO.N,Net-(R7-Pad1)*%
X82995000Y-73660000D03*
%TO.P,R7,2*%
%TO.N,+5V*%
X84645000Y-73660000D03*
%TD*%
%TO.P,R3,1*%
%TO.N,/USB_D-*%
X68517000Y-70104000D03*
%TO.P,R3,2*%
%TO.N,/USB_D_R-*%
X70167000Y-70104000D03*
%TD*%
D14*
%TO.P,J10,1,Pin_1*%
%TO.N,GND*%
X228600000Y-43180000D03*
D15*
%TO.P,J10,2,Pin_2*%
%TO.N,SW_LIMIT_AZ_L*%
X228600000Y-45720000D03*
%TD*%
D22*
%TO.P,R5,1*%
%TO.N,GND*%
X88646000Y-71183000D03*
%TO.P,R5,2*%
%TO.N,Net-(R4-Pad1)*%
X88646000Y-69533000D03*
%TD*%
D14*
%TO.P,J6,1,Pin_1*%
%TO.N,Net-(J6-Pad1)*%
X205740000Y-142240000D03*
D15*
%TO.P,J6,2,Pin_2*%
%TO.N,Net-(J6-Pad2)*%
X208280000Y-142240000D03*
%TO.P,J6,3,Pin_3*%
%TO.N,JOY_X*%
X210820000Y-142240000D03*
%TO.P,J6,4,Pin_4*%
%TO.N,JOY_Y*%
X213360000Y-142240000D03*
%TO.P,J6,5,Pin_5*%
%TO.N,JOY_SW*%
X215900000Y-142240000D03*
%TD*%
D29*
%TO.P,C28,1*%
%TO.N,GND*%
X167386000Y-109715000D03*
%TO.P,C28,2*%
%TO.N,+5V*%
X167386000Y-111265000D03*
%TD*%
D22*
%TO.P,R17,1*%
%TO.N,JOY_SW*%
X215900000Y-137985000D03*
%TO.P,R17,2*%
%TO.N,/JOY_START*%
X215900000Y-136335000D03*
%TD*%
%TO.P,R64,1*%
%TO.N,GND*%
X124968000Y-85915000D03*
%TO.P,R64,2*%
%TO.N,Net-(R64-Pad2)*%
X124968000Y-84265000D03*
%TD*%
D42*
%TO.P,XA1,*%
%TO.N,*%
X84450000Y-92710000D03*
%TO.P,XA1,3V3,3.3V*%
%TO.N,+3.3V*%
X92070000Y-92710000D03*
%TO.P,XA1,5V1,5V*%
%TO.N,5V_ARDUINO*%
X94610000Y-92710000D03*
%TO.P,XA1,5V2,SPI_5V*%
%TO.N,ICSP_5V*%
X122677000Y-120650000D03*
%TO.P,XA1,5V3,5V*%
%TO.N,5V_ARDUINO*%
X150490000Y-140970000D03*
%TO.P,XA1,5V4,5V*%
X153030000Y-140970000D03*
%TO.P,XA1,A0,A0*%
%TO.N,/JOY_AZ*%
X107310000Y-92710000D03*
%TO.P,XA1,A1,A1*%
%TO.N,/JOY_EL*%
X109850000Y-92710000D03*
%TO.P,XA1,A2,A2*%
%TO.N,/JOY_START*%
X112390000Y-92710000D03*
%TO.P,XA1,A3,A3*%
%TO.N,unconnected-(XA1-PadA3)*%
X114930000Y-92710000D03*
%TO.P,XA1,A4,A4*%
%TO.N,unconnected-(XA1-PadA4)*%
X117470000Y-92710000D03*
%TO.P,XA1,A5,A5*%
%TO.N,unconnected-(XA1-PadA5)*%
X120010000Y-92710000D03*
%TO.P,XA1,A6,A6*%
%TO.N,unconnected-(XA1-PadA6)*%
X122550000Y-92710000D03*
%TO.P,XA1,A7,A7*%
%TO.N,unconnected-(XA1-PadA7)*%
X125090000Y-92710000D03*
%TO.P,XA1,A8,A8*%
%TO.N,unconnected-(XA1-PadA8)*%
X130170000Y-92710000D03*
%TO.P,XA1,A9,A9*%
%TO.N,unconnected-(XA1-PadA9)*%
X132710000Y-92710000D03*
%TO.P,XA1,A10,A10*%
%TO.N,unconnected-(XA1-PadA10)*%
X135250000Y-92710000D03*
%TO.P,XA1,A11,A11*%
%TO.N,unconnected-(XA1-PadA11)*%
X137790000Y-92710000D03*
%TO.P,XA1,A12,A12*%
%TO.N,unconnected-(XA1-PadA12)*%
X140330000Y-92710000D03*
%TO.P,XA1,A13,A13*%
%TO.N,unconnected-(XA1-PadA13)*%
X142870000Y-92710000D03*
%TO.P,XA1,A14,A14*%
%TO.N,LCD_CO*%
X145410000Y-92710000D03*
%TO.P,XA1,A15,A15*%
%TO.N,LCD_BL*%
X147950000Y-92710000D03*
%TO.P,XA1,AREF,AREF*%
%TO.N,unconnected-(XA1-PadAREF)*%
X80386000Y-140970000D03*
%TO.P,XA1,D0,D0_RX0*%
%TO.N,USB_UART_TX*%
X120010000Y-140970000D03*
%TO.P,XA1,D1,D1_TX0*%
%TO.N,USB_UART_RX*%
X117470000Y-140970000D03*
%TO.P,XA1,D2,D2_INT0*%
%TO.N,LED_PROGRESS1*%
X114930000Y-140970000D03*
%TO.P,XA1,D3,D3_INT1*%
%TO.N,LED_PROGRESS2*%
X112390000Y-140970000D03*
%TO.P,XA1,D4,D4*%
%TO.N,LED_PROGRESS3*%
X109850000Y-140970000D03*
%TO.P,XA1,D5,D5*%
%TO.N,LED_PROGRESS4*%
X107310000Y-140970000D03*
%TO.P,XA1,D6,D6*%
%TO.N,LED_PROGRESS5*%
X104770000Y-140970000D03*
%TO.P,XA1,D7,D7*%
%TO.N,unconnected-(XA1-PadD7)*%
X102230000Y-140970000D03*
%TO.P,XA1,D8,D8*%
%TO.N,unconnected-(XA1-PadD8)*%
X98166000Y-140970000D03*
%TO.P,XA1,D9,D9*%
%TO.N,unconnected-(XA1-PadD9)*%
X95626000Y-140970000D03*
%TO.P,XA1,D10,D10*%
%TO.N,unconnected-(XA1-PadD10)*%
X93086000Y-140970000D03*
%TO.P,XA1,D11,D11*%
%TO.N,unconnected-(XA1-PadD11)*%
X90546000Y-140970000D03*
%TO.P,XA1,D12,D12*%
%TO.N,unconnected-(XA1-PadD12)*%
X88006000Y-140970000D03*
%TO.P,XA1,D13,D13*%
%TO.N,unconnected-(XA1-PadD13)*%
X85466000Y-140970000D03*
%TO.P,XA1,D14,D14_TX3*%
%TO.N,unconnected-(XA1-PadD14)*%
X125090000Y-140970000D03*
%TO.P,XA1,D15,D15_RX3*%
%TO.N,unconnected-(XA1-PadD15)*%
X127630000Y-140970000D03*
%TO.P,XA1,D16,D16_TX2*%
%TO.N,unconnected-(XA1-PadD16)*%
X130170000Y-140970000D03*
%TO.P,XA1,D17,D17_RX2*%
%TO.N,unconnected-(XA1-PadD17)*%
X132710000Y-140970000D03*
%TO.P,XA1,D18,D18_TX1*%
%TO.N,unconnected-(XA1-PadD18)*%
X135250000Y-140970000D03*
%TO.P,XA1,D19,D19_RX1*%
%TO.N,unconnected-(XA1-PadD19)*%
X137790000Y-140970000D03*
%TO.P,XA1,D20,D20_SDA*%
%TO.N,I2C_SDA*%
X140330000Y-140970000D03*
%TO.P,XA1,D21,D21_SCL*%
%TO.N,I2C_SCL*%
X142870000Y-140970000D03*
%TO.P,XA1,D22,D22*%
%TO.N,SW_LIMIT_AZ_L*%
X150490000Y-138430000D03*
%TO.P,XA1,D23,D23*%
%TO.N,SW_LIMIT_AZ_R*%
X153030000Y-138430000D03*
%TO.P,XA1,D24,D24*%
%TO.N,SW_LIMIT_EL_B*%
X150490000Y-135890000D03*
%TO.P,XA1,D25,D25*%
%TO.N,SW_LIMIT_EL_T*%
X153030000Y-135890000D03*
%TO.P,XA1,D26,D26*%
%TO.N,SW_START*%
X150490000Y-133350000D03*
%TO.P,XA1,D27,D27*%
%TO.N,unconnected-(XA1-PadD27)*%
X153030000Y-133350000D03*
%TO.P,XA1,D28,D28*%
%TO.N,unconnected-(XA1-PadD28)*%
X150490000Y-130810000D03*
%TO.P,XA1,D29,D29*%
%TO.N,unconnected-(XA1-PadD29)*%
X153030000Y-130810000D03*
%TO.P,XA1,D30,D30*%
%TO.N,MOTOR1_A+*%
X150490000Y-128270000D03*
%TO.P,XA1,D31,D31*%
%TO.N,MOTOR1_B+*%
X153030000Y-128270000D03*
%TO.P,XA1,D32,D32*%
%TO.N,MOTOR1_A-*%
X150490000Y-125730000D03*
%TO.P,XA1,D33,D33*%
%TO.N,MOTOR1_B-*%
X153030000Y-125730000D03*
%TO.P,XA1,D34,D34*%
%TO.N,MOTOR2_A+*%
X150490000Y-123190000D03*
%TO.P,XA1,D35,D35*%
%TO.N,MOTOR2_B+*%
X153030000Y-123190000D03*
%TO.P,XA1,D36,D36*%
%TO.N,MOTOR2_A-*%
X150490000Y-120650000D03*
%TO.P,XA1,D37,D37*%
%TO.N,MOTOR2_B-*%
X153030000Y-120650000D03*
%TO.P,XA1,D38,D38*%
%TO.N,LED_AZ_LEFT*%
X150490000Y-118110000D03*
%TO.P,XA1,D39,D39*%
%TO.N,LED_AZ_CENTER*%
X153030000Y-118110000D03*
%TO.P,XA1,D40,D40*%
%TO.N,LED_AZ_RIGHT*%
X150490000Y-115570000D03*
%TO.P,XA1,D41,D41*%
%TO.N,unconnected-(XA1-PadD41)*%
X153030000Y-115570000D03*
%TO.P,XA1,D42,D42*%
%TO.N,LED_EL_BOTTOM*%
X150490000Y-113030000D03*
%TO.P,XA1,D43,D43*%
%TO.N,LED_EL_CENTER*%
X153030000Y-113030000D03*
%TO.P,XA1,D44,D44*%
%TO.N,LED_EL_TOP*%
X150490000Y-110490000D03*
%TO.P,XA1,D45,D45*%
%TO.N,unconnected-(XA1-PadD45)*%
X153030000Y-110490000D03*
%TO.P,XA1,D46,D46*%
%TO.N,LED_OK*%
X150490000Y-107950000D03*
%TO.P,XA1,D47,D47*%
%TO.N,LED_ERROR*%
X153030000Y-107950000D03*
%TO.P,XA1,D48,D48*%
%TO.N,LCD_RS*%
X150490000Y-105410000D03*
%TO.P,XA1,D49,D49*%
%TO.N,LCD_EN*%
X153030000Y-105410000D03*
%TO.P,XA1,D50,D50*%
%TO.N,LCD_D4*%
X150490000Y-102870000D03*
%TO.P,XA1,D51,D51*%
%TO.N,LCD_D5*%
X153030000Y-102870000D03*
%TO.P,XA1,D52,D52*%
%TO.N,LCD_D6*%
X150490000Y-100330000D03*
%TO.P,XA1,D53,D53_SS*%
%TO.N,LCD_D7*%
X153030000Y-100330000D03*
D43*
%TO.P,XA1,GND1,GND*%
%TO.N,GND*%
X82926000Y-140970000D03*
%TO.P,XA1,GND2,GND*%
X97150000Y-92710000D03*
%TO.P,XA1,GND3,GND*%
X99690000Y-92710000D03*
%TO.P,XA1,GND4,SPI_GND*%
%TO.N,ICSP_GND*%
X122677000Y-115570000D03*
%TO.P,XA1,GND5,GND*%
%TO.N,GND*%
X150490000Y-97790000D03*
%TO.P,XA1,GND6,GND*%
X153030000Y-97790000D03*
D42*
%TO.P,XA1,IORF,IOREF*%
%TO.N,unconnected-(XA1-PadIORF)*%
X86990000Y-92710000D03*
%TO.P,XA1,MISO,SPI_MISO*%
%TO.N,ICSP_MISO*%
X120137000Y-120650000D03*
%TO.P,XA1,MOSI,SPI_MOSI*%
%TO.N,ICSP_MOSI*%
X122677000Y-118110000D03*
%TO.P,XA1,RST1,RESET*%
%TO.N,RESET*%
X89530000Y-92710000D03*
%TO.P,XA1,RST2,SPI_RESET*%
%TO.N,ICSP_RST*%
X120137000Y-115570000D03*
%TO.P,XA1,SCK,SPI_SCK*%
%TO.N,ICSP_SCK*%
X120137000Y-118110000D03*
%TO.P,XA1,SCL,SCL*%
%TO.N,unconnected-(XA1-PadSCL)*%
X75306000Y-140970000D03*
%TO.P,XA1,SDA,SDA*%
%TO.N,unconnected-(XA1-PadSDA)*%
X77846000Y-140970000D03*
%TO.P,XA1,VIN,VIN*%
%TO.N,unconnected-(XA1-PadVIN)*%
X102230000Y-92710000D03*
%TD*%
D44*
%TO.N,GND*%
X179909000Y-91347500D03*
X135128000Y-88392000D03*
X59436000Y-85090000D03*
X79736000Y-65895000D03*
X71374000Y-66040000D03*
X74168000Y-54356000D03*
X180848000Y-115570000D03*
X69596000Y-54864000D03*
X204724000Y-134620000D03*
X164338000Y-108712000D03*
X215530000Y-62620100D03*
X215455000Y-52185000D03*
X149352000Y-89154000D03*
X88646000Y-72390000D03*
X238695000Y-144916000D03*
X82687600Y-66610900D03*
X87122000Y-78740000D03*
X129286000Y-90424000D03*
X230745000Y-144988000D03*
X72136000Y-54864000D03*
X71882000Y-64008000D03*
X180872000Y-86237000D03*
X59436000Y-82550000D03*
X160608000Y-96520000D03*
X160528000Y-91440000D03*
X225107000Y-30637600D03*
X215526000Y-31920300D03*
X180889000Y-132141000D03*
X64008000Y-76708000D03*
X180848000Y-96520000D03*
X86360000Y-63246000D03*
X236734000Y-110296000D03*
X215482000Y-72903200D03*
X204380000Y-91039300D03*
X171450000Y-108458000D03*
X173990000Y-124460000D03*
X124968000Y-87376000D03*
X224826000Y-50981300D03*
X59436000Y-80010000D03*
X83058000Y-63754000D03*
X65278000Y-75438000D03*
X215433000Y-42397300D03*
X224965000Y-71310000D03*
X161290000Y-124206000D03*
X213614000Y-90678000D03*
X180874000Y-124166000D03*
X161735000Y-107778500D03*
X180878000Y-102039000D03*
X216916000Y-90678000D03*
X83058000Y-68326000D03*
X161735000Y-102843000D03*
X238506000Y-140970000D03*
%TO.N,+5V*%
X240792000Y-110490000D03*
X243840000Y-113538000D03*
X240538000Y-77470000D03*
X209296000Y-134620000D03*
X85840400Y-73679700D03*
X161735000Y-140970000D03*
X238760000Y-80518000D03*
X77470000Y-56134000D03*
X72715200Y-81915200D03*
X248920000Y-113538000D03*
X214630000Y-40132000D03*
X167894000Y-91440000D03*
X139700000Y-88392000D03*
X248920000Y-80518000D03*
X215853000Y-69258500D03*
X74930000Y-67818000D03*
X74445400Y-74589600D03*
X243840000Y-80518000D03*
X238760000Y-113538000D03*
X77470000Y-58166000D03*
X215822000Y-49127500D03*
X240538000Y-140716000D03*
X215816000Y-59263300D03*
X170434000Y-112776000D03*
X85389400Y-83923500D03*
X233680000Y-113538000D03*
X229880000Y-148683000D03*
X133350000Y-88392000D03*
X214122000Y-79502000D03*
X233680000Y-80518000D03*
D45*
%TO.N,LED_OK*%
X176479000Y-99766400D03*
X195326000Y-85090000D03*
X156226000Y-94541300D03*
%TO.N,LED_ERROR*%
X167640000Y-106680000D03*
X189743000Y-83242500D03*
%TO.N,LED_AZ_LEFT*%
X203840000Y-99442700D03*
X156705000Y-93395300D03*
X224057000Y-82013200D03*
%TO.N,LED_AZ_CENTER*%
X211853000Y-80748400D03*
X192206000Y-96451800D03*
%TO.N,LED_AZ_RIGHT*%
X155448000Y-93472000D03*
X239632000Y-61803400D03*
X215914000Y-96959400D03*
%TO.N,LED_EL_BOTTOM*%
X143764000Y-119634000D03*
X219456000Y-76200000D03*
X169212000Y-133973000D03*
%TO.N,LED_EL_CENTER*%
X170688000Y-105156000D03*
X208737000Y-71067900D03*
%TO.N,LED_EL_TOP*%
X222978000Y-60862000D03*
X164338000Y-103124000D03*
X159258000Y-100584000D03*
%TO.N,LED_PROGRESS1*%
X127282000Y-94040400D03*
X121136000Y-137757000D03*
%TO.N,LED_PROGRESS2*%
X235934532Y-52800532D03*
X201168000Y-96012000D03*
%TO.N,LED_PROGRESS3*%
X200152000Y-98298000D03*
X236728000Y-49530000D03*
%TO.N,LED_PROGRESS4*%
X191262000Y-104902000D03*
X233916000Y-49821200D03*
X169564000Y-145034000D03*
%TO.N,LED_PROGRESS5*%
X239014000Y-41910000D03*
X191544000Y-109504000D03*
%TO.N,SW_LIMIT_AZ_L*%
X127000000Y-116332000D03*
X125589000Y-94218000D03*
%TO.N,SW_LIMIT_EL_B*%
X218424000Y-67079800D03*
%TO.N,SW_LIMIT_EL_T*%
X213360000Y-77724000D03*
D44*
%TO.N,5V_ARDUINO*%
X111748000Y-120662000D03*
D45*
%TO.N,Net-(R6-Pad1)*%
X78486000Y-73406000D03*
X75946000Y-61722000D03*
%TO.N,Net-(R7-Pad1)*%
X83312000Y-72390000D03*
X81026000Y-65786000D03*
%TO.N,MOTOR1_A+*%
X184220000Y-110529000D03*
%TO.N,MOTOR1_B+*%
X179570000Y-111433000D03*
%TO.N,MOTOR1_A-*%
X147002000Y-94175800D03*
%TO.N,MOTOR1_B-*%
X178083000Y-111532000D03*
%TO.N,MOTOR2_A+*%
X146050000Y-99314000D03*
%TO.N,MOTOR2_A-*%
X182372000Y-127254000D03*
X142489000Y-120650000D03*
%TO.N,MOTOR2_B-*%
X155145000Y-124309000D03*
%TO.N,LCD_D4*%
X138430000Y-101854000D03*
%TO.N,LCD_D5*%
X156718000Y-102870000D03*
%TO.N,LCD_D6*%
X134825000Y-100330000D03*
%TO.N,LCD_D7*%
X123698000Y-76708000D03*
D44*
%TO.N,+3.3V*%
X203488000Y-86722400D03*
D45*
%TO.N,SW_START*%
X136716000Y-124169000D03*
X121920000Y-144780000D03*
%TO.N,/JOY_AZ*%
X127254000Y-138938000D03*
X123698000Y-112522000D03*
X142494000Y-123698000D03*
%TO.N,/JOY_EL*%
X120650000Y-145542000D03*
%TO.N,/JOY_START*%
X182626000Y-142240000D03*
X108865000Y-94069900D03*
%TD*%
D46*
%TO.N,GND*%
X182055000Y-124460000D02*
X181761000Y-124166000D01*
X161735000Y-101627000D02*
X161735000Y-102843000D01*
X203624000Y-91039300D02*
X203200000Y-90615000D01*
X74234000Y-56134000D02*
X74234000Y-54422000D01*
X181932000Y-86237000D02*
X182055000Y-86360000D01*
X180002000Y-91440000D02*
X179909000Y-91347500D01*
X217005000Y-32040000D02*
X215630000Y-32040000D01*
X237985000Y-106680000D02*
X237985000Y-106280000D01*
X74234000Y-54422000D02*
X74168000Y-54356000D01*
X224965000Y-71419600D02*
X224965000Y-71310000D01*
X182055000Y-91440000D02*
X180002000Y-91440000D01*
X226330000Y-62520000D02*
X224955000Y-62520000D01*
X124968000Y-85915000D02*
X124968000Y-87376000D01*
X86360000Y-77229000D02*
X87363000Y-77229000D01*
X224955000Y-42200000D02*
X226330000Y-42200000D01*
X237985000Y-139700000D02*
X237985000Y-139300000D01*
X165354000Y-109715000D02*
X165341000Y-109715000D01*
X135062000Y-88326000D02*
X135128000Y-88392000D01*
X72136000Y-56200000D02*
X72136000Y-54864000D01*
X215482000Y-72903200D02*
X215630000Y-72755000D01*
X167386000Y-109715000D02*
X165354000Y-109715000D01*
X74234000Y-56134000D02*
X72202000Y-56134000D01*
X237985000Y-139300000D02*
X235210000Y-136525000D01*
X170434000Y-109474000D02*
X171450000Y-108458000D01*
X162293000Y-123203000D02*
X161290000Y-124206000D01*
X237985000Y-109045000D02*
X237985000Y-106680000D01*
X69598000Y-56375000D02*
X69598000Y-54866000D01*
X237810000Y-139875000D02*
X237985000Y-139700000D01*
X57925000Y-80010000D02*
X59436000Y-80010000D01*
X129514000Y-88484000D02*
X129352000Y-88646000D01*
X170434000Y-109540000D02*
X167561000Y-109540000D01*
X74102000Y-56266000D02*
X74102000Y-58113000D01*
X87363000Y-77229000D02*
X88217000Y-77229000D01*
X205740000Y-136335000D02*
X205740000Y-135115000D01*
X228600000Y-63500000D02*
X227150000Y-63500000D01*
X149352000Y-87643000D02*
X145153000Y-87643000D01*
X173736000Y-124206000D02*
X173990000Y-124460000D01*
X145153000Y-87643000D02*
X145140000Y-87630000D01*
X149352000Y-87643000D02*
X149352000Y-89154000D01*
X72964000Y-66040000D02*
X71374000Y-66040000D01*
X165341000Y-109715000D02*
X164338000Y-108712000D01*
X74102000Y-58113000D02*
X74409000Y-58420000D01*
X65070500Y-75230500D02*
X65278000Y-75438000D01*
X204380000Y-91039300D02*
X203624000Y-91039300D01*
D47*
X79556000Y-65715000D02*
X79736000Y-65895000D01*
D46*
X134887000Y-86439000D02*
X135062000Y-86614000D01*
X181616000Y-106241000D02*
X182055000Y-106680000D01*
X129352000Y-88646000D02*
X129352000Y-90358000D01*
X236734000Y-110296000D02*
X237810000Y-109220000D01*
X215630000Y-42200000D02*
X215433000Y-42397300D01*
X57960000Y-85090000D02*
X59436000Y-85090000D01*
X237810000Y-109220000D02*
X237985000Y-109045000D01*
X181616000Y-102039000D02*
X182055000Y-101600000D01*
X238318000Y-140782000D02*
X238506000Y-140970000D01*
X134620000Y-84061000D02*
X134887000Y-84328000D01*
X237810000Y-142240000D02*
X237810000Y-140782000D01*
X87363000Y-78499000D02*
X87122000Y-78740000D01*
X170434000Y-109540000D02*
X170434000Y-109474000D01*
X215630000Y-72755000D02*
X215630000Y-72680000D01*
X238695000Y-144916000D02*
X238695000Y-146340000D01*
X167561000Y-109540000D02*
X167386000Y-109715000D01*
X73393000Y-64008000D02*
X71882000Y-64008000D01*
X161735000Y-107778500D02*
X161735000Y-106597500D01*
X87363000Y-77229000D02*
X87363000Y-78499000D01*
D47*
X84880000Y-63115000D02*
X86229000Y-63115000D01*
D46*
X226330000Y-42200000D02*
X227150000Y-43020000D01*
X173736000Y-123190000D02*
X171945000Y-123190000D01*
X182055000Y-96520000D02*
X180848000Y-96520000D01*
X237810000Y-140782000D02*
X238318000Y-140782000D01*
X217005000Y-42200000D02*
X215630000Y-42200000D01*
X64008000Y-75230500D02*
X65070500Y-75230500D01*
X224955000Y-52360000D02*
X224955000Y-51110000D01*
X182055000Y-116840000D02*
X182055000Y-116777000D01*
X215530000Y-62620100D02*
X215630000Y-62520000D01*
X216979000Y-90615000D02*
X216916000Y-90678000D01*
X224955000Y-30790000D02*
X225107000Y-30637600D01*
X206235000Y-134620000D02*
X204724000Y-134620000D01*
X181994000Y-132141000D02*
X182055000Y-132080000D01*
D47*
X86229000Y-63115000D02*
X86360000Y-63246000D01*
D46*
X215630000Y-62520000D02*
X217005000Y-62520000D01*
X205740000Y-135115000D02*
X206235000Y-134620000D01*
X149352000Y-87643000D02*
X151463000Y-87643000D01*
X181761000Y-124166000D02*
X180874000Y-124166000D01*
D47*
X84880000Y-68315000D02*
X83069000Y-68315000D01*
D46*
X181616000Y-102039000D02*
X181616000Y-106241000D01*
X129352000Y-90358000D02*
X129286000Y-90424000D01*
X161735000Y-91440000D02*
X160528000Y-91440000D01*
X215630000Y-32040000D02*
X215630000Y-32024000D01*
X129514000Y-86360000D02*
X129514000Y-88484000D01*
X135062000Y-86614000D02*
X135062000Y-88326000D01*
X215455000Y-52185000D02*
X215630000Y-52360000D01*
X237985000Y-106280000D02*
X235210000Y-103505000D01*
D47*
X77680000Y-65715000D02*
X79556000Y-65715000D01*
X83069000Y-68315000D02*
X83058000Y-68326000D01*
D46*
X72202000Y-56134000D02*
X72136000Y-56200000D01*
X227150000Y-63340000D02*
X226330000Y-62520000D01*
X180872000Y-86237000D02*
X181932000Y-86237000D01*
X224955000Y-71430000D02*
X224965000Y-71419600D01*
X215630000Y-72680000D02*
X217005000Y-72680000D01*
X210820000Y-90615000D02*
X213551000Y-90615000D01*
X215630000Y-32024000D02*
X215526000Y-31920300D01*
X224955000Y-72680000D02*
X224955000Y-71430000D01*
X180889000Y-132141000D02*
X181994000Y-132141000D01*
X227150000Y-43180000D02*
X228600000Y-43180000D01*
D47*
X82933600Y-66365000D02*
X82687600Y-66610900D01*
D46*
X161735000Y-96520000D02*
X160608000Y-96520000D01*
X134620000Y-78740000D02*
X134620000Y-84061000D01*
X227150000Y-43020000D02*
X227150000Y-43180000D01*
X215630000Y-52360000D02*
X217005000Y-52360000D01*
X224955000Y-32040000D02*
X224955000Y-30790000D01*
D47*
X84880000Y-66365000D02*
X82933600Y-66365000D01*
D46*
X151463000Y-87643000D02*
X151638000Y-87818000D01*
X224955000Y-51110000D02*
X224826000Y-50981300D01*
X134887000Y-84328000D02*
X134887000Y-86439000D01*
X69598000Y-54866000D02*
X69596000Y-54864000D01*
X171945000Y-123190000D02*
X171704000Y-122949000D01*
X182055000Y-116777000D02*
X180848000Y-115570000D01*
X218440000Y-90615000D02*
X216979000Y-90615000D01*
X88217000Y-77229000D02*
X88392000Y-77404000D01*
X162306000Y-123203000D02*
X162293000Y-123203000D01*
X88646000Y-71183000D02*
X88646000Y-72390000D01*
D47*
X84880000Y-63765000D02*
X83069000Y-63765000D01*
D46*
X57925000Y-82550000D02*
X59436000Y-82550000D01*
X213551000Y-90615000D02*
X213614000Y-90678000D01*
X74234000Y-56134000D02*
X74102000Y-56266000D01*
X173736000Y-123190000D02*
X173736000Y-124206000D01*
X180878000Y-102039000D02*
X181616000Y-102039000D01*
X237810000Y-140782000D02*
X237810000Y-139875000D01*
X227150000Y-63500000D02*
X227150000Y-63340000D01*
D47*
X83069000Y-63765000D02*
X83058000Y-63754000D01*
D46*
X230745000Y-144988000D02*
X230745000Y-146340000D01*
X64008000Y-75230500D02*
X64008000Y-76708000D01*
D48*
%TO.N,/USB_3V3*%
X87109000Y-69944000D02*
X86130000Y-68965000D01*
D46*
X88217000Y-75679000D02*
X88392000Y-75504000D01*
D48*
X86130000Y-68965000D02*
X84880000Y-68965000D01*
D46*
X87109000Y-75679000D02*
X88217000Y-75679000D01*
D48*
X87109000Y-75679000D02*
X87109000Y-69944000D01*
D46*
X86360000Y-75679000D02*
X87109000Y-75679000D01*
%TO.N,/VBUS_filtered*%
X71934000Y-58874300D02*
X70547300Y-58874300D01*
D48*
X87059000Y-66231000D02*
X88646000Y-66231000D01*
D46*
X85608700Y-59446700D02*
X88646000Y-62484000D01*
X71934000Y-59446700D02*
X85608700Y-59446700D01*
X57925000Y-57925000D02*
X55880000Y-55880000D01*
X71934000Y-58874300D02*
X71934000Y-58302000D01*
X88646000Y-62484000D02*
X88646000Y-66231000D01*
X71934000Y-58302000D02*
X72136000Y-58100000D01*
D48*
X84880000Y-67015000D02*
X86275000Y-67015000D01*
D46*
X70547300Y-58874300D02*
X69598000Y-57925000D01*
X71934000Y-59446700D02*
X71934000Y-58874300D01*
X71934000Y-59897500D02*
X71934000Y-59446700D01*
X69598000Y-57925000D02*
X57925000Y-57925000D01*
D48*
X86275000Y-67015000D02*
X87059000Y-66231000D01*
D46*
%TO.N,+5V*%
X240475000Y-77407000D02*
X240538000Y-77470000D01*
X85840400Y-73679700D02*
X84664700Y-73679700D01*
X214776000Y-69258500D02*
X214630000Y-69405000D01*
X74864000Y-67752000D02*
X74930000Y-67818000D01*
X170434000Y-111440000D02*
X170434000Y-112776000D01*
D47*
X77680000Y-63765000D02*
X75186000Y-63765000D01*
D46*
X233680000Y-82395000D02*
X233680000Y-80518000D01*
X215853000Y-69258500D02*
X214776000Y-69258500D01*
X239535000Y-106680000D02*
X239535000Y-106280000D01*
X215816000Y-59263300D02*
X214648000Y-59263300D01*
X167386000Y-111265000D02*
X165354000Y-111265000D01*
X167561000Y-111440000D02*
X167386000Y-111265000D01*
X239710000Y-140782000D02*
X239710000Y-139875000D01*
X133162000Y-86614000D02*
X133162000Y-88204000D01*
X239535000Y-106280000D02*
X242310000Y-103505000D01*
X133162000Y-88204000D02*
X133350000Y-88392000D01*
X239535000Y-139700000D02*
X239535000Y-139300000D01*
X239710000Y-109408000D02*
X240792000Y-110490000D01*
X139700000Y-87185000D02*
X139700000Y-88392000D01*
X239710000Y-142240000D02*
X239710000Y-140782000D01*
X74864000Y-66040000D02*
X74864000Y-67752000D01*
X75375000Y-73660000D02*
X74445400Y-74589600D01*
X72842000Y-82042000D02*
X74192000Y-82042000D01*
X72715200Y-81915200D02*
X72842000Y-82042000D01*
X77216000Y-58420000D02*
X77470000Y-58166000D01*
X75959000Y-58420000D02*
X75959000Y-57370200D01*
X165354000Y-111265000D02*
X165354000Y-114046000D01*
X132080000Y-80036000D02*
X133337000Y-81293000D01*
X85828000Y-83484900D02*
X85389400Y-83923500D01*
X243840000Y-115340000D02*
X243840000Y-113538000D01*
X214630000Y-78295000D02*
X214630000Y-78994000D01*
X248920000Y-82320000D02*
X248920000Y-80518000D01*
X133162000Y-84503000D02*
X133337000Y-84328000D01*
X233680000Y-115340000D02*
X233680000Y-113538000D01*
X208280000Y-135115000D02*
X207785000Y-134620000D01*
X214630000Y-78994000D02*
X214122000Y-79502000D01*
X75959000Y-58420000D02*
X77216000Y-58420000D01*
D47*
X74943000Y-64008000D02*
X74943000Y-65961000D01*
D46*
X161735000Y-137160000D02*
X161735000Y-139700000D01*
X132080000Y-78740000D02*
X132080000Y-80036000D01*
X228952000Y-148683000D02*
X228600000Y-149035000D01*
X167386000Y-114046000D02*
X167640000Y-114300000D01*
X84664700Y-73679700D02*
X84645000Y-73660000D01*
X167386000Y-111265000D02*
X167386000Y-114046000D01*
X161735000Y-139700000D02*
X161735000Y-140970000D01*
X239710000Y-140782000D02*
X240472000Y-140782000D01*
X248920000Y-115340000D02*
X248920000Y-113538000D01*
X170434000Y-111440000D02*
X167561000Y-111440000D01*
X214672000Y-49127500D02*
X214630000Y-49085000D01*
X207785000Y-134620000D02*
X209296000Y-134620000D01*
X215822000Y-49127500D02*
X214672000Y-49127500D01*
X76134000Y-57195200D02*
X76134000Y-56134000D01*
X133337000Y-81293000D02*
X133337000Y-84328000D01*
X240475000Y-76200000D02*
X240475000Y-77407000D01*
X240472000Y-140782000D02*
X240538000Y-140716000D01*
X238760000Y-82320000D02*
X238760000Y-80518000D01*
X169140000Y-91440000D02*
X167894000Y-91440000D01*
D47*
X75186000Y-63765000D02*
X74943000Y-64008000D01*
D46*
X239710000Y-109220000D02*
X239535000Y-109045000D01*
X133162000Y-86614000D02*
X133162000Y-84503000D01*
X239535000Y-109045000D02*
X239535000Y-106680000D01*
X239710000Y-109220000D02*
X239710000Y-109408000D01*
X239535000Y-139300000D02*
X242310000Y-136525000D01*
X85828000Y-82042000D02*
X85828000Y-83484900D01*
X75959000Y-57370200D02*
X76134000Y-57195200D01*
X238760000Y-115340000D02*
X238760000Y-113538000D01*
X165354000Y-114046000D02*
X165100000Y-114300000D01*
X208280000Y-136335000D02*
X208280000Y-135115000D01*
X214648000Y-59263300D02*
X214630000Y-59245000D01*
X239710000Y-139875000D02*
X239535000Y-139700000D01*
X214630000Y-38925000D02*
X214630000Y-40132000D01*
D47*
X74943000Y-65961000D02*
X74864000Y-66040000D01*
D46*
X161735000Y-140970000D02*
X161735000Y-142240000D01*
X229880000Y-148683000D02*
X228952000Y-148683000D01*
X76134000Y-56134000D02*
X77470000Y-56134000D01*
X243840000Y-82320000D02*
X243840000Y-80518000D01*
D49*
%TO.N,Net-(D1-Pad1)*%
X77192000Y-80242000D02*
X77153000Y-80203000D01*
X77153000Y-80203000D02*
X77153000Y-78994000D01*
X77192000Y-82042000D02*
X77192000Y-80242000D01*
%TO.N,Net-(D2-Pad1)*%
X80302000Y-80766000D02*
X81578000Y-82042000D01*
X82804000Y-78994000D02*
X81839200Y-78029200D01*
X81578000Y-82042000D02*
X82828000Y-82042000D01*
X80719400Y-78029200D02*
X80302000Y-78446600D01*
X80302000Y-78446600D02*
X80302000Y-80766000D01*
X81839200Y-78029200D02*
X80719400Y-78029200D01*
%TO.N,Net-(D3-Pad1)*%
X233680000Y-85395000D02*
X233680000Y-88075000D01*
%TO.N,Net-(D4-Pad1)*%
X238760000Y-88075000D02*
X238760000Y-85320000D01*
%TO.N,Net-(D5-Pad1)*%
X243840000Y-88075000D02*
X243840000Y-85320000D01*
%TO.N,Net-(D6-Pad1)*%
X248920000Y-85320000D02*
X248920000Y-88075000D01*
%TO.N,Net-(D7-Pad1)*%
X233680000Y-121095000D02*
X233680000Y-118340000D01*
%TO.N,Net-(D8-Pad1)*%
X238760000Y-121095000D02*
X238760000Y-118340000D01*
%TO.N,Net-(D9-Pad1)*%
X243840000Y-121095000D02*
X243840000Y-118340000D01*
%TO.N,Net-(D10-Pad1)*%
X248920000Y-118340000D02*
X248920000Y-121095000D01*
%TO.N,Net-(D11-Pad1)*%
X166140000Y-91440000D02*
X163385000Y-91440000D01*
%TO.N,Net-(D12-Pad1)*%
X163385000Y-96520000D02*
X166140000Y-96520000D01*
%TO.N,LED_OK*%
X171040000Y-95695900D02*
X169886000Y-94541300D01*
X170190000Y-101600000D02*
X171040000Y-100750000D01*
X224536902Y-85090000D02*
X224536902Y-85089942D01*
X195326000Y-85090000D02*
X224536902Y-85090000D01*
X171040000Y-99766400D02*
X171040000Y-95695900D01*
X171040000Y-99766400D02*
X176479000Y-99766400D01*
X169140000Y-101600000D02*
X170190000Y-101600000D01*
X238506844Y-71120000D02*
X240475000Y-71120000D01*
X171040000Y-100750000D02*
X171040000Y-99766400D01*
X224536902Y-85089942D02*
X238506844Y-71120000D01*
X169886000Y-94541300D02*
X156226000Y-94541300D01*
%TO.N,Net-(D13-Pad1)*%
X166140000Y-101600000D02*
X163385000Y-101600000D01*
%TO.N,LED_ERROR*%
X225394000Y-83242500D02*
X189743000Y-83242500D01*
X169140000Y-106680000D02*
X167640000Y-106680000D01*
X240475000Y-68580000D02*
X240057000Y-68580000D01*
X240057000Y-68580000D02*
X225394000Y-83242500D01*
%TO.N,Net-(D14-Pad1)*%
X166140000Y-106680000D02*
X163385000Y-106680000D01*
%TO.N,LED_AZ_LEFT*%
X240475000Y-66040000D02*
X240475000Y-67171400D01*
X225633000Y-82013200D02*
X224057000Y-82013200D01*
X203200000Y-99270000D02*
X203668000Y-99270000D01*
X203668000Y-99270000D02*
X203840000Y-99442700D01*
X240475000Y-67171400D02*
X225705000Y-81941200D01*
X203200000Y-99270000D02*
X203102000Y-99367600D01*
X225705000Y-81941200D02*
X225633000Y-82013200D01*
X181309000Y-99367600D02*
X175337000Y-93395300D01*
X175337000Y-93395300D02*
X156705000Y-93395300D01*
X203102000Y-99367600D02*
X181309000Y-99367600D01*
X203200000Y-98020000D02*
X203200000Y-99270000D01*
%TO.N,Net-(D15-Pad1)*%
X203200000Y-92265000D02*
X203200000Y-95020000D01*
%TO.N,LED_AZ_CENTER*%
X234128000Y-72527600D02*
X225908000Y-80748400D01*
X201561503Y-96962000D02*
X199195200Y-96962000D01*
X192206000Y-96451800D02*
X198685000Y-96451800D01*
X207820000Y-96819800D02*
X209020000Y-98020000D01*
X234128000Y-69846500D02*
X234128000Y-72527600D01*
X199195200Y-96962000D02*
X198685000Y-96451800D01*
X225908000Y-80748400D02*
X211853000Y-80748400D01*
X240475000Y-63500000D02*
X234128000Y-69846500D01*
X209020000Y-98020000D02*
X210820000Y-98020000D01*
X201703703Y-96819800D02*
X201561503Y-96962000D01*
X207820000Y-96819800D02*
X201703703Y-96819800D01*
%TO.N,Net-(D16-Pad1)*%
X210820000Y-95020000D02*
X210820000Y-92265000D01*
%TO.N,LED_AZ_RIGHT*%
X204829000Y-89512900D02*
X159153000Y-89512900D01*
X159153000Y-89512900D02*
X155448000Y-93218000D01*
X205619000Y-92577000D02*
X205619000Y-90303000D01*
X218440000Y-98020000D02*
X216640000Y-98020000D01*
X215914000Y-97294300D02*
X215914000Y-96959400D01*
X216640000Y-98020000D02*
X215914000Y-97294300D01*
X155448000Y-93218000D02*
X155448000Y-93472000D01*
X215426000Y-96471100D02*
X209513000Y-96471100D01*
X209513000Y-96471100D02*
X205619000Y-92577000D01*
X239632000Y-61803400D02*
X240475000Y-60960000D01*
X215914000Y-96959400D02*
X215426000Y-96471100D01*
X205619000Y-90303000D02*
X204829000Y-89512900D01*
%TO.N,Net-(D17-Pad1)*%
X218440000Y-95020000D02*
X218440000Y-92265000D01*
%TO.N,LED_EL_BOTTOM*%
X187567000Y-133973000D02*
X189460000Y-132080000D01*
X223774000Y-75946000D02*
X219710000Y-75946000D01*
X169212000Y-133973000D02*
X187567000Y-133973000D01*
X240475000Y-59245000D02*
X223774000Y-75946000D01*
X150490000Y-113030000D02*
X143886000Y-119634000D01*
X240475000Y-58420000D02*
X240475000Y-59245000D01*
X143886000Y-119634000D02*
X143764000Y-119634000D01*
X219710000Y-75946000D02*
X219456000Y-76200000D01*
%TO.N,Net-(D18-Pad1)*%
X183705000Y-132080000D02*
X186460000Y-132080000D01*
%TO.N,LED_EL_CENTER*%
X170688000Y-105156000D02*
X174212000Y-108680000D01*
X174212000Y-108680000D02*
X174212000Y-110486000D01*
X174212000Y-110486000D02*
X186176000Y-122450000D01*
X187450000Y-122450000D02*
X189460000Y-124460000D01*
X240475000Y-55880000D02*
X240475000Y-56014000D01*
X240475000Y-56014000D02*
X226267000Y-70222200D01*
X186176000Y-122450000D02*
X187450000Y-122450000D01*
X216206000Y-71067900D02*
X208737000Y-71067900D01*
X217052000Y-70222200D02*
X216206000Y-71067900D01*
X226267000Y-70222200D02*
X217052000Y-70222200D01*
%TO.N,Net-(D19-Pad1)*%
X186460000Y-124460000D02*
X183705000Y-124460000D01*
%TO.N,LED_EL_TOP*%
X164338000Y-103124000D02*
X165035000Y-103821000D01*
X147120000Y-97806700D02*
X135619300Y-97806700D01*
X133604000Y-100584000D02*
X143510000Y-110490000D01*
X171385000Y-103821000D02*
X165035000Y-103821000D01*
X232953000Y-60862000D02*
X240475000Y-53340000D01*
X133604000Y-99822000D02*
X133604000Y-100584000D01*
X175260000Y-107696000D02*
X171385000Y-103821000D01*
X154370000Y-95776200D02*
X149150000Y-95776200D01*
X157312867Y-98719133D02*
X159177734Y-100584000D01*
X154370000Y-95776266D02*
X157312867Y-98719133D01*
X159177734Y-100584000D02*
X159258000Y-100584000D01*
X175260000Y-110052503D02*
X175260000Y-107696000D01*
X222978000Y-60862000D02*
X232953000Y-60862000D01*
X143720000Y-110490000D02*
X150490000Y-110490000D01*
X154370000Y-95776200D02*
X154370000Y-95776266D01*
X179073497Y-113866000D02*
X175260000Y-110052503D01*
X186486000Y-113866000D02*
X179073497Y-113866000D01*
X149150000Y-95776200D02*
X147120000Y-97806700D01*
X189460000Y-116840000D02*
X186486000Y-113866000D01*
X135619300Y-97806700D02*
X133604000Y-99822000D01*
%TO.N,Net-(D20-Pad1)*%
X183705000Y-116840000D02*
X186460000Y-116840000D01*
%TO.N,LED_PROGRESS1*%
X223611000Y-58328800D02*
X216020000Y-65919800D01*
X128270000Y-82081000D02*
X128270000Y-77470000D01*
X186319000Y-76706100D02*
X188210000Y-78597000D01*
X121136000Y-137757000D02*
X118143000Y-137757000D01*
X128270000Y-77470000D02*
X129034000Y-76706100D01*
X129034000Y-76706100D02*
X186319000Y-76706100D01*
X232946000Y-58328800D02*
X223611000Y-58328800D01*
X188210000Y-86360000D02*
X189460000Y-86360000D01*
X118143000Y-137757000D02*
X114930000Y-140970000D01*
X188210000Y-78597000D02*
X188210000Y-86360000D01*
X127282000Y-94040400D02*
X127282000Y-83069400D01*
X127282000Y-83069400D02*
X128270000Y-82081000D01*
X212542000Y-65919800D02*
X199864000Y-78597000D01*
X216020000Y-65919800D02*
X212542000Y-65919800D01*
X240475000Y-50800000D02*
X232946000Y-58328800D01*
X199864000Y-78597000D02*
X188210000Y-78597000D01*
%TO.N,Net-(D21-Pad1)*%
X183705000Y-86360000D02*
X186460000Y-86360000D01*
%TO.N,LED_PROGRESS2*%
X235934532Y-52800468D02*
X240475000Y-48260000D01*
X196596000Y-91440000D02*
X201168000Y-96012000D01*
X235934532Y-52800532D02*
X235934532Y-52800468D01*
X194990000Y-91440000D02*
X196596000Y-91440000D01*
X189460000Y-91440000D02*
X194990000Y-91440000D01*
%TO.N,Net-(D22-Pad1)*%
X186460000Y-91440000D02*
X183705000Y-91440000D01*
%TO.N,LED_PROGRESS3*%
X192672000Y-98482100D02*
X190710000Y-96520000D01*
X200152000Y-98298000D02*
X199967900Y-98482100D01*
X199967900Y-98482100D02*
X192672000Y-98482100D01*
X236728000Y-49530000D02*
X240475000Y-45783000D01*
X190710000Y-96520000D02*
X189460000Y-96520000D01*
X240475000Y-45783000D02*
X240475000Y-45720000D01*
%TO.N,Net-(D23-Pad1)*%
X186460000Y-96520000D02*
X183705000Y-96520000D01*
%TO.N,LED_PROGRESS4*%
X107310000Y-140970000D02*
X110060000Y-143720000D01*
X139736000Y-145034000D02*
X169564000Y-145034000D01*
X189460000Y-101600000D02*
X189460000Y-103100000D01*
X240475000Y-43262000D02*
X240475000Y-43180000D01*
X110060000Y-143720000D02*
X138422000Y-143720000D01*
X233916000Y-49821200D02*
X240475000Y-43262000D01*
X189460000Y-103100000D02*
X191262000Y-104902000D01*
X138422000Y-143720000D02*
X139736000Y-145034000D01*
%TO.N,Net-(D24-Pad1)*%
X183705000Y-101600000D02*
X186460000Y-101600000D01*
%TO.N,LED_PROGRESS5*%
X190484000Y-109504000D02*
X191544000Y-109504000D01*
X239014000Y-41910000D02*
X240284000Y-40640000D01*
X189460000Y-106680000D02*
X189460000Y-108480000D01*
X189460000Y-108480000D02*
X190484000Y-109504000D01*
X240284000Y-40640000D02*
X240475000Y-40640000D01*
%TO.N,/USB_VBUS*%
X60909000Y-69520000D02*
X62166500Y-68262500D01*
X59759000Y-69520000D02*
X60909000Y-69520000D01*
D46*
X63648500Y-61976000D02*
X63648500Y-66780500D01*
X62378500Y-68050500D02*
X62166500Y-68262500D01*
X63648500Y-66780500D02*
X62378500Y-68050500D01*
D49*
X62166500Y-68262500D02*
X62378500Y-68050500D01*
D46*
%TO.N,/VBUS_fused*%
X67923500Y-61976000D02*
X71887500Y-61976000D01*
X71887500Y-61976000D02*
X71934000Y-62022500D01*
D47*
%TO.N,/USB_D-*%
X66548000Y-69913000D02*
X68326000Y-69913000D01*
X66141000Y-70320000D02*
X66548000Y-69913000D01*
X59759000Y-70320000D02*
X66141000Y-70320000D01*
X68326000Y-69913000D02*
X68517000Y-70104000D01*
%TO.N,/USB_D+*%
X59759000Y-71120000D02*
X65849000Y-71120000D01*
X68454000Y-71819000D02*
X68517000Y-71882000D01*
X66548000Y-71819000D02*
X68454000Y-71819000D01*
X65849000Y-71120000D02*
X66548000Y-71819000D01*
D49*
%TO.N,/USB_GND*%
X59759000Y-72720000D02*
X63622500Y-72720000D01*
X63622500Y-72720000D02*
X64008000Y-73105500D01*
%TO.N,I2C_SCL*%
X145220000Y-143320000D02*
X142870000Y-140970000D01*
X167640000Y-137160000D02*
X163385000Y-137160000D01*
X152892000Y-143320000D02*
X145220000Y-143320000D01*
X163385000Y-137160000D02*
X162445000Y-136220000D01*
X162445000Y-136220000D02*
X159992000Y-136220000D01*
X159992000Y-136220000D02*
X152892000Y-143320000D01*
%TO.N,I2C_SDA*%
X163385000Y-139700000D02*
X167640000Y-139700000D01*
%TO.N,Net-(J2-Pad4)*%
X167640000Y-142240000D02*
X163385000Y-142240000D01*
D46*
%TO.N,ICSP_5V*%
X86868000Y-52136000D02*
X89154000Y-52136000D01*
X86868000Y-52136000D02*
X86868000Y-52298000D01*
X83820000Y-50800000D02*
X85532000Y-50800000D01*
X85532000Y-50800000D02*
X86868000Y-52136000D01*
%TO.N,ICSP_GND*%
X104077000Y-96970400D02*
X122677000Y-115570000D01*
X89916000Y-60526000D02*
X89916000Y-85178600D01*
X85270000Y-55880000D02*
X85270000Y-55822000D01*
X82996500Y-92098100D02*
X82996500Y-93259700D01*
X82996500Y-93259700D02*
X86707200Y-96970400D01*
X86707200Y-96970400D02*
X104077000Y-96970400D01*
X89916000Y-85178600D02*
X82996500Y-92098100D01*
X86868000Y-53848000D02*
X87056000Y-54036000D01*
X85270000Y-55880000D02*
X89916000Y-60526000D01*
X87056000Y-54036000D02*
X89154000Y-54036000D01*
X83820000Y-55880000D02*
X85270000Y-55880000D01*
X85270000Y-55822000D02*
X87056000Y-54036000D01*
D49*
%TO.N,Net-(J4-Pad2)*%
X248920000Y-101600000D02*
X247570000Y-101600000D01*
X244395000Y-98425000D02*
X242310000Y-98425000D01*
X247570000Y-101600000D02*
X244395000Y-98425000D01*
X248920000Y-89725000D02*
X251621000Y-92425800D01*
X251621000Y-92425800D02*
X251621000Y-98899200D01*
X251621000Y-98899200D02*
X248920000Y-101600000D01*
%TO.N,Net-(J4-Pad3)*%
X245524000Y-91408500D02*
X243840000Y-89725000D01*
X249248000Y-91408500D02*
X245524000Y-91408500D01*
X250921000Y-93081500D02*
X249248000Y-91408500D01*
X250921000Y-97059300D02*
X250921000Y-93081500D01*
X248920000Y-99060000D02*
X250921000Y-97059300D01*
X245665000Y-97155000D02*
X242310000Y-97155000D01*
X247570000Y-99060000D02*
X245665000Y-97155000D01*
X248920000Y-99060000D02*
X247570000Y-99060000D01*
%TO.N,Net-(J4-Pad4)*%
X248920000Y-96520000D02*
X248920000Y-95885000D01*
X241144000Y-92108700D02*
X238760000Y-89725000D01*
X250220000Y-93376700D02*
X248952000Y-92108700D01*
X250220000Y-94584500D02*
X250220000Y-93376700D01*
X248952000Y-92108700D02*
X241144000Y-92108700D01*
X242310000Y-95885000D02*
X248920000Y-95885000D01*
X248920000Y-95885000D02*
X250220000Y-94584500D01*
%TO.N,Net-(J4-Pad5)*%
X243560000Y-94615000D02*
X242310000Y-94615000D01*
X242310000Y-94615000D02*
X238570000Y-94615000D01*
X238570000Y-94615000D02*
X233680000Y-89725000D01*
X244195000Y-93980000D02*
X243560000Y-94615000D01*
X248920000Y-93980000D02*
X244195000Y-93980000D01*
%TO.N,Net-(J5-Pad2)*%
X248920000Y-134620000D02*
X248322000Y-134620000D01*
X251676000Y-131266000D02*
X251676000Y-125501000D01*
X244395000Y-131445000D02*
X242310000Y-131445000D01*
X247570000Y-134620000D02*
X244395000Y-131445000D01*
X248322000Y-134620000D02*
X247570000Y-134620000D01*
X251676000Y-125501000D02*
X248920000Y-122745000D01*
X248322000Y-134620000D02*
X251676000Y-131266000D01*
%TO.N,Net-(J5-Pad3)*%
X248880000Y-131442000D02*
X247613000Y-130175000D01*
X248880000Y-131442000D02*
X250976000Y-129346000D01*
X248920000Y-132080000D02*
X248920000Y-131482000D01*
X250976000Y-129346000D02*
X250976000Y-126156000D01*
X248979000Y-124160000D02*
X245255000Y-124160000D01*
X250976000Y-126156000D02*
X248979000Y-124160000D01*
X248920000Y-131482000D02*
X248880000Y-131442000D01*
X245255000Y-124160000D02*
X243840000Y-122745000D01*
X247613000Y-130175000D02*
X242310000Y-130175000D01*
%TO.N,Net-(J5-Pad4)*%
X241575000Y-125560000D02*
X249389000Y-125560000D01*
X248920000Y-128905000D02*
X248920000Y-129540000D01*
X250231000Y-127594000D02*
X248920000Y-128905000D01*
X242310000Y-128905000D02*
X248920000Y-128905000D01*
X238760000Y-122745000D02*
X241575000Y-125560000D01*
X250231000Y-126402000D02*
X250231000Y-127594000D01*
X249389000Y-125560000D02*
X250231000Y-126402000D01*
%TO.N,Net-(J5-Pad5)*%
X243560000Y-127635000D02*
X244195000Y-127000000D01*
X238570000Y-127635000D02*
X233680000Y-122745000D01*
X242310000Y-127635000D02*
X243560000Y-127635000D01*
X242310000Y-127635000D02*
X238570000Y-127635000D01*
X244195000Y-127000000D02*
X248920000Y-127000000D01*
%TO.N,Net-(J6-Pad1)*%
X205740000Y-137985000D02*
X205740000Y-142240000D01*
%TO.N,Net-(J6-Pad2)*%
X208280000Y-137985000D02*
X208280000Y-142240000D01*
%TO.N,Net-(C22-Pad2)*%
X149352000Y-86093000D02*
X151463000Y-86093000D01*
X149085000Y-86360000D02*
X149352000Y-86093000D01*
X153799000Y-85918000D02*
X153924000Y-86043000D01*
X151638000Y-85918000D02*
X153799000Y-85918000D01*
X151463000Y-86093000D02*
X151638000Y-85918000D01*
X145140000Y-86360000D02*
X149085000Y-86360000D01*
%TO.N,Net-(J7-Pad2)*%
X246380000Y-76200000D02*
X242125000Y-76200000D01*
%TO.N,Net-(J7-Pad4)*%
X242125000Y-73660000D02*
X246380000Y-73660000D01*
%TO.N,Net-(J7-Pad6)*%
X242125000Y-71120000D02*
X246380000Y-71120000D01*
%TO.N,Net-(J7-Pad8)*%
X242125000Y-68580000D02*
X246380000Y-68580000D01*
%TO.N,Net-(J7-Pad10)*%
X242125000Y-66040000D02*
X246380000Y-66040000D01*
%TO.N,Net-(J7-Pad12)*%
X246380000Y-63500000D02*
X242125000Y-63500000D01*
%TO.N,Net-(J7-Pad14)*%
X242125000Y-60960000D02*
X246380000Y-60960000D01*
%TO.N,Net-(J7-Pad16)*%
X246380000Y-58420000D02*
X242125000Y-58420000D01*
%TO.N,Net-(J7-Pad18)*%
X246380000Y-55880000D02*
X242125000Y-55880000D01*
%TO.N,Net-(J7-Pad20)*%
X242125000Y-53340000D02*
X246380000Y-53340000D01*
%TO.N,Net-(J7-Pad22)*%
X246380000Y-50800000D02*
X242125000Y-50800000D01*
%TO.N,Net-(J7-Pad24)*%
X242125000Y-48260000D02*
X246380000Y-48260000D01*
%TO.N,Net-(J7-Pad26)*%
X242125000Y-45720000D02*
X246380000Y-45720000D01*
%TO.N,Net-(J7-Pad28)*%
X246380000Y-43180000D02*
X242125000Y-43180000D01*
%TO.N,RESET*%
X223680000Y-36540000D02*
X223105000Y-37115000D01*
X140895000Y-36964700D02*
X214320000Y-36964700D01*
X89530000Y-92710000D02*
X89530000Y-88329600D01*
X217005000Y-36540000D02*
X217005000Y-37115000D01*
X223105000Y-37115000D02*
X217005000Y-37115000D01*
X224955000Y-36540000D02*
X223680000Y-36540000D01*
X89530000Y-88329600D02*
X140895000Y-36964700D01*
X214790000Y-37115000D02*
X214630000Y-37275000D01*
X217005000Y-37115000D02*
X214790000Y-37115000D01*
X214320000Y-36964700D02*
X214630000Y-37275000D01*
X227250000Y-35560000D02*
X228600000Y-35560000D01*
X224955000Y-36540000D02*
X226270000Y-36540000D01*
X226270000Y-36540000D02*
X227250000Y-35560000D01*
%TO.N,SW_LIMIT_AZ_L*%
X217005000Y-46700000D02*
X224955000Y-46700000D01*
X215730000Y-46700000D02*
X214995000Y-47435000D01*
X126477000Y-93330200D02*
X126477000Y-84091000D01*
X129540000Y-118872000D02*
X127000000Y-116332000D01*
X125730000Y-83344200D02*
X125730000Y-77216000D01*
X217005000Y-46700000D02*
X215730000Y-46700000D01*
X126477000Y-84091000D02*
X125730000Y-83344200D01*
X226270000Y-46700000D02*
X224955000Y-46700000D01*
X227250000Y-45720000D02*
X226270000Y-46700000D01*
X125589000Y-94218000D02*
X126477000Y-93330200D01*
X150490000Y-138430000D02*
X149098000Y-138430000D01*
X214995000Y-47435000D02*
X214630000Y-47435000D01*
X149098000Y-138430000D02*
X129540000Y-118872000D01*
X125730000Y-77216000D02*
X155511000Y-47435000D01*
X155511000Y-47435000D02*
X214630000Y-47435000D01*
X228600000Y-45720000D02*
X227250000Y-45720000D01*
%TO.N,SW_LIMIT_AZ_R*%
X224955000Y-56860000D02*
X226270000Y-56860000D01*
X227250000Y-55880000D02*
X228600000Y-55880000D01*
X214630000Y-57595000D02*
X215365000Y-56860000D01*
X226270000Y-56860000D02*
X227250000Y-55880000D01*
X217005000Y-56860000D02*
X224955000Y-56860000D01*
X215365000Y-56860000D02*
X217005000Y-56860000D01*
%TO.N,SW_LIMIT_EL_B*%
X217005000Y-67020000D02*
X215365000Y-67020000D01*
X215365000Y-67020000D02*
X214630000Y-67755000D01*
X218424000Y-67020000D02*
X218424000Y-67079800D01*
X224955000Y-67020000D02*
X226230000Y-67020000D01*
X226230000Y-67020000D02*
X227210000Y-66040000D01*
X227210000Y-66040000D02*
X228600000Y-66040000D01*
X218424000Y-67020000D02*
X224955000Y-67020000D01*
X217005000Y-67020000D02*
X218424000Y-67020000D01*
%TO.N,SW_LIMIT_EL_T*%
X217005000Y-77180000D02*
X218280000Y-77180000D01*
X223626000Y-77234500D02*
X223680000Y-77180000D01*
X217005000Y-77180000D02*
X215730000Y-77180000D01*
X223680000Y-77180000D02*
X224955000Y-77180000D01*
X227250000Y-76200000D02*
X226270000Y-77180000D01*
X215165000Y-77180000D02*
X214630000Y-76645000D01*
X228600000Y-76200000D02*
X227250000Y-76200000D01*
X218334000Y-77234500D02*
X223626000Y-77234500D01*
X215730000Y-77180000D02*
X215165000Y-77180000D01*
X218280000Y-77180000D02*
X218334000Y-77234500D01*
X214439000Y-76645000D02*
X213360000Y-77724000D01*
X214630000Y-76645000D02*
X214439000Y-76645000D01*
X226270000Y-77180000D02*
X224955000Y-77180000D01*
D46*
%TO.N,5V_ARDUINO*%
X147739000Y-138669000D02*
X143981000Y-134911000D01*
X150490000Y-140970000D02*
X148189000Y-138669000D01*
X125996000Y-134911000D02*
X111748000Y-120662000D01*
X153030000Y-140970000D02*
X150490000Y-140970000D01*
X143981000Y-134911000D02*
X125996000Y-134911000D01*
X148189000Y-138669000D02*
X147739000Y-138669000D01*
D49*
%TO.N,Net-(Q1-Pad3)*%
X145140000Y-85090000D02*
X145140000Y-84180000D01*
X145140000Y-84180000D02*
X139700000Y-78740000D01*
D48*
%TO.N,Net-(R4-Pad1)*%
X84880000Y-67665000D02*
X88430000Y-67665000D01*
X88646000Y-67881000D02*
X88646000Y-69533000D01*
X88430000Y-67665000D02*
X88646000Y-67881000D01*
%TO.N,Net-(R6-Pad1)*%
X76039000Y-61815000D02*
X75946000Y-61722000D01*
D49*
X77628500Y-74263500D02*
X78740000Y-75375000D01*
X77025000Y-73660000D02*
X77628500Y-74263500D01*
D48*
X78486000Y-73406000D02*
X77628500Y-74263500D01*
X77680000Y-61815000D02*
X76039000Y-61815000D01*
D49*
%TO.N,Net-(R7-Pad1)*%
X81280000Y-75375000D02*
X82995000Y-73660000D01*
X82995000Y-73660000D02*
X82995000Y-72707000D01*
X79741000Y-64415000D02*
X81026000Y-65700000D01*
X81026000Y-65700000D02*
X81026000Y-65786000D01*
X82995000Y-72707000D02*
X83312000Y-72390000D01*
D50*
X79005300Y-64415000D02*
X77680000Y-64415000D01*
D49*
X79005300Y-64415000D02*
X79741000Y-64415000D01*
%TO.N,USB_UART_TX*%
X122086000Y-137290100D02*
X78803000Y-94007100D01*
X78803000Y-94007100D02*
X78803000Y-78994000D01*
X120010000Y-140970000D02*
X122086000Y-138894000D01*
X122086000Y-138894000D02*
X122086000Y-137290100D01*
X78740000Y-78931000D02*
X78803000Y-78994000D01*
X78740000Y-77025000D02*
X78740000Y-78931000D01*
%TO.N,USB_UART_RX*%
X122786000Y-140358000D02*
X120650000Y-142494000D01*
X83682600Y-79517800D02*
X83682600Y-78453100D01*
X84328000Y-80163200D02*
X84328000Y-88311300D01*
X83682600Y-79517800D02*
X84328000Y-80163200D01*
X82254500Y-77025000D02*
X81280000Y-77025000D01*
X82153000Y-90486300D02*
X82153000Y-96366900D01*
X118994000Y-142494000D02*
X117470000Y-140970000D01*
X83233100Y-79967300D02*
X83682600Y-79517800D01*
X83682600Y-78453100D02*
X82254500Y-77025000D01*
X82153000Y-96366900D02*
X122786000Y-136999900D01*
X120650000Y-142494000D02*
X118994000Y-142494000D01*
X82127300Y-79967300D02*
X83233100Y-79967300D01*
X122786000Y-136999900D02*
X122786000Y-140358000D01*
X84328000Y-88311300D02*
X82153000Y-90486300D01*
X81154000Y-78994000D02*
X82127300Y-79967300D01*
%TO.N,Net-(D25-Pad1)*%
X183705000Y-106680000D02*
X186460000Y-106680000D01*
%TO.N,Net-(J7-Pad30)*%
X242125000Y-40640000D02*
X246380000Y-40640000D01*
%TO.N,LCD_CO*%
X143886000Y-94234000D02*
X129286000Y-94234000D01*
X128236000Y-93184000D02*
X128236000Y-85569000D01*
X145410000Y-92710000D02*
X143886000Y-94234000D01*
X128236000Y-85569000D02*
X129477000Y-84328000D01*
X129286000Y-94234000D02*
X128236000Y-93184000D01*
%TO.N,LCD_BL*%
X148590000Y-92710000D02*
X153607000Y-87693000D01*
X147950000Y-92710000D02*
X148590000Y-92710000D01*
X153607000Y-87693000D02*
X153924000Y-87693000D01*
%TO.N,MOTOR1_A+*%
X214796000Y-104814000D02*
X224995000Y-94615000D01*
X184220000Y-110529000D02*
X191985000Y-110529000D01*
X197700000Y-104814000D02*
X214796000Y-104814000D01*
X191985000Y-110529000D02*
X197700000Y-104814000D01*
X224995000Y-94615000D02*
X235210000Y-94615000D01*
%TO.N,MOTOR1_B+*%
X216662000Y-106426000D02*
X198120000Y-106426000D01*
X179616000Y-111479000D02*
X179570000Y-111433000D01*
X235210000Y-95885000D02*
X227203000Y-95885000D01*
X179616000Y-111479000D02*
X179570000Y-111433000D01*
X193067000Y-111479000D02*
X179616000Y-111479000D01*
X198120000Y-106426000D02*
X193067000Y-111479000D01*
X179570000Y-111433000D02*
X179616000Y-111479000D01*
X227203000Y-95885000D02*
X216662000Y-106426000D01*
%TO.N,MOTOR1_A-*%
X148432000Y-94175800D02*
X147002000Y-94175800D01*
X231037000Y-88753500D02*
X153562000Y-88753500D01*
X149352000Y-93255300D02*
X148432000Y-94175800D01*
X149352000Y-92964000D02*
X149352000Y-93255300D01*
X235210000Y-97155000D02*
X236460000Y-97155000D01*
X236460000Y-94176900D02*
X231037000Y-88753500D01*
X236460000Y-97155000D02*
X236460000Y-94176900D01*
X153562000Y-88753500D02*
X149352000Y-92964000D01*
%TO.N,MOTOR1_B-*%
X227457000Y-98425000D02*
X235210000Y-98425000D01*
X178934000Y-112383000D02*
X194449000Y-112383000D01*
X194449000Y-112383000D02*
X199136000Y-107696000D01*
X178083000Y-111532000D02*
X178934000Y-112383000D01*
X218186000Y-107696000D02*
X227457000Y-98425000D01*
X199136000Y-107696000D02*
X218186000Y-107696000D01*
%TO.N,MOTOR2_A+*%
X148612205Y-97304199D02*
X149440204Y-96476200D01*
X146602700Y-99314000D02*
X147410036Y-98506664D01*
X163860000Y-128300000D02*
X182669503Y-128300000D01*
X183334503Y-127635000D02*
X235210000Y-127635000D01*
X146050000Y-99314000D02*
X146602700Y-99314000D01*
X149440204Y-96476200D02*
X154079984Y-96476200D01*
X147410036Y-98506664D02*
X148612205Y-97304199D01*
X182669503Y-128300000D02*
X183334503Y-127635000D01*
X157668000Y-100064216D02*
X157668000Y-122108000D01*
X154079984Y-96476200D02*
X157668000Y-100064216D01*
X157668000Y-122108000D02*
X163860000Y-128300000D01*
%TO.N,MOTOR2_B+*%
X153030000Y-123190000D02*
X155607000Y-123190000D01*
X161497000Y-129080000D02*
X233785000Y-129080000D01*
X233960000Y-128905000D02*
X235210000Y-128905000D01*
X233785000Y-129080000D02*
X233960000Y-128905000D01*
X155607000Y-123190000D02*
X161497000Y-129080000D01*
%TO.N,MOTOR2_A-*%
X236728000Y-127254000D02*
X236728000Y-129794000D01*
X142489000Y-120650000D02*
X150490000Y-120650000D01*
X236359000Y-126885000D02*
X236728000Y-127254000D01*
X182372000Y-127254000D02*
X182741000Y-126885000D01*
X182741000Y-126885000D02*
X236359000Y-126885000D01*
X236347000Y-130175000D02*
X235210000Y-130175000D01*
X236728000Y-129794000D02*
X236347000Y-130175000D01*
%TO.N,MOTOR2_B-*%
X155145000Y-124309000D02*
X160616000Y-129780000D01*
X211177000Y-129780000D02*
X212842000Y-131445000D01*
X160616000Y-129780000D02*
X211177000Y-129780000D01*
X212842000Y-131445000D02*
X235210000Y-131445000D01*
%TO.N,LCD_D4*%
X138559000Y-101983000D02*
X138430000Y-101854000D01*
X149126000Y-102870000D02*
X148240000Y-101983000D01*
X148240000Y-101983000D02*
X138559000Y-101983000D01*
X150490000Y-102870000D02*
X149126000Y-102870000D01*
%TO.N,LCD_D5*%
X153030000Y-102870000D02*
X156718000Y-102870000D01*
%TO.N,LCD_D6*%
X150490000Y-100330000D02*
X134825000Y-100330000D01*
%TO.N,LCD_D7*%
X103564000Y-76775900D02*
X101600000Y-78740000D01*
X123698000Y-76708000D02*
X123630100Y-76775900D01*
X123630100Y-76775900D02*
X103564000Y-76775900D01*
D46*
%TO.N,+3.3V*%
X94628000Y-95268000D02*
X92070000Y-92710000D01*
X156393000Y-95660900D02*
X160512000Y-99780100D01*
X134348000Y-95268000D02*
X94628000Y-95268000D01*
X225026000Y-86722400D02*
X238089000Y-73660000D01*
X161922000Y-98370200D02*
X167289800Y-98370200D01*
D49*
X151931000Y-95076200D02*
X153924000Y-95076200D01*
D46*
X167289800Y-98370200D02*
X169140000Y-96520000D01*
X134390200Y-95225800D02*
X134348000Y-95268000D01*
X203488000Y-86722400D02*
X225026000Y-86722400D01*
X163228000Y-120731000D02*
X162306000Y-121653000D01*
X160512000Y-99780100D02*
X161922000Y-98370200D01*
X164579000Y-119380000D02*
X163228000Y-120731000D01*
X173736000Y-121290000D02*
X171813000Y-121290000D01*
X165100000Y-119380000D02*
X164579000Y-119380000D01*
X160512000Y-118015000D02*
X163228000Y-120731000D01*
X148439000Y-94976100D02*
X148189300Y-95225800D01*
X154178000Y-94976200D02*
X154178000Y-94976100D01*
D49*
X151831000Y-94976200D02*
X151931000Y-95076200D01*
D46*
X167640000Y-119380000D02*
X165100000Y-119380000D01*
X148189300Y-95225800D02*
X134390200Y-95225800D01*
X171704000Y-121399000D02*
X169659000Y-121399000D01*
X154178000Y-94976100D02*
X154702000Y-94976100D01*
X151831000Y-94976100D02*
X148439000Y-94976100D01*
X169659000Y-121399000D02*
X167640000Y-119380000D01*
X154702000Y-94976100D02*
X155386000Y-95660900D01*
X151831000Y-94976200D02*
X151831000Y-94976100D01*
X238089000Y-73660000D02*
X240475000Y-73660000D01*
X171813000Y-121290000D02*
X171704000Y-121399000D01*
X160512000Y-99780100D02*
X160512000Y-118015000D01*
X155386000Y-95660900D02*
X156393000Y-95660900D01*
D49*
%TO.N,Net-(C21-Pad2)*%
X129540000Y-78740000D02*
X129540000Y-82741000D01*
X131127000Y-84328000D02*
X131127000Y-86297000D01*
X129540000Y-82741000D02*
X131127000Y-84328000D01*
X131127000Y-86297000D02*
X131064000Y-86360000D01*
X131064000Y-88458000D02*
X131252000Y-88646000D01*
X131064000Y-86360000D02*
X131064000Y-88458000D01*
D47*
%TO.N,/USB_D_R+*%
X70606000Y-71443000D02*
X70167000Y-71882000D01*
X81849300Y-72332000D02*
X76267600Y-72332000D01*
X84880000Y-70265000D02*
X83916300Y-70265000D01*
X76267600Y-72332000D02*
X75378600Y-71443000D01*
X75378600Y-71443000D02*
X70606000Y-71443000D01*
X83916300Y-70265000D02*
X81849300Y-72332000D01*
%TO.N,/USB_D_R-*%
X81476500Y-71432000D02*
X76640400Y-71432000D01*
X83293500Y-69615000D02*
X81476500Y-71432000D01*
X84880000Y-69615000D02*
X83293500Y-69615000D01*
X70606000Y-70543000D02*
X70167000Y-70104000D01*
X75751400Y-70543000D02*
X70606000Y-70543000D01*
X76640400Y-71432000D02*
X75751400Y-70543000D01*
D49*
%TO.N,SW_START*%
X119700000Y-145148497D02*
X119700000Y-146370000D01*
X121158000Y-144526000D02*
X120322497Y-144526000D01*
X224981000Y-147066000D02*
X228600000Y-150685000D01*
X119700000Y-146370000D02*
X120396000Y-147066000D01*
X241220000Y-149860000D02*
X240240000Y-150840000D01*
X120322497Y-144526000D02*
X119700000Y-145148497D01*
X242570000Y-149860000D02*
X241220000Y-149860000D01*
X228600000Y-150685000D02*
X228755000Y-150840000D01*
X238695000Y-150840000D02*
X230745000Y-150840000D01*
X149126000Y-133350000D02*
X139945000Y-124169000D01*
X121920000Y-144780000D02*
X121862000Y-144722000D01*
X121920000Y-144780000D02*
X121412000Y-144780000D01*
X139945000Y-124169000D02*
X136716000Y-124169000D01*
X120396000Y-147066000D02*
X224981000Y-147066000D01*
X240240000Y-150840000D02*
X238695000Y-150840000D01*
X121412000Y-144780000D02*
X121158000Y-144526000D01*
X228755000Y-150840000D02*
X230745000Y-150840000D01*
X150490000Y-133350000D02*
X149126000Y-133350000D01*
%TO.N,JOY_SW*%
X215900000Y-142240000D02*
X215900000Y-137985000D01*
%TO.N,JOY_Y*%
X213360000Y-142240000D02*
X213360000Y-137985000D01*
%TO.N,JOY_X*%
X210820000Y-142240000D02*
X210820000Y-137985000D01*
%TO.N,/JOY_AZ*%
X127254000Y-138938000D02*
X126570000Y-139622000D01*
X131318000Y-112522000D02*
X142494000Y-123698000D01*
X209993000Y-132842000D02*
X194350000Y-132842000D01*
X194350000Y-132842000D02*
X183171000Y-144020000D01*
X140505000Y-144020000D02*
X138888000Y-142404000D01*
X124658000Y-142404000D02*
X123739000Y-141486000D01*
X126570000Y-139622000D02*
X124534000Y-139622000D01*
X123739000Y-141486000D02*
X123739000Y-140416000D01*
X213360000Y-136335000D02*
X213360000Y-136209000D01*
X123698000Y-112522000D02*
X131318000Y-112522000D01*
X138888000Y-142404000D02*
X124658000Y-142404000D01*
X183171000Y-144020000D02*
X140505000Y-144020000D01*
X213360000Y-136209000D02*
X209993000Y-132842000D01*
X123739000Y-140416000D02*
X124534000Y-139622000D01*
%TO.N,/JOY_EL*%
X185106000Y-145889000D02*
X185011000Y-145984000D01*
X209731000Y-133570000D02*
X197425000Y-133570000D01*
X185011000Y-145984000D02*
X121092000Y-145984000D01*
X210820000Y-134659000D02*
X209731000Y-133570000D01*
X197425000Y-133570000D02*
X185106000Y-145889000D01*
X121092000Y-145984000D02*
X120650000Y-145542000D01*
X210820000Y-136335000D02*
X210820000Y-134659000D01*
%TO.N,/JOY_START*%
X111030000Y-94069900D02*
X108865000Y-94069900D01*
X215900000Y-136335000D02*
X211707000Y-132142000D01*
X192724000Y-132142000D02*
X182626000Y-142240000D01*
X112390000Y-92710000D02*
X111030000Y-94069900D01*
X211707000Y-132142000D02*
X192724000Y-132142000D01*
%TO.N,Net-(R64-Pad2)*%
X124460000Y-78740000D02*
X124460000Y-83757000D01*
X124460000Y-83757000D02*
X124968000Y-84265000D01*
%TO.N,Net-(R65-Pad1)*%
X137160000Y-78740000D02*
X137160000Y-82995000D01*
X137160000Y-82995000D02*
X139700000Y-85535000D01*
%TD*%
%TA.AperFunction,Conductor*%
%TO.N,/USB_Shield*%
G36*
X57525142Y-58685805D02*
G01*
X57551262Y-58697985D01*
X57554033Y-58699319D01*
X57626814Y-58735447D01*
X57633435Y-58737098D01*
X57636563Y-58738249D01*
X57636957Y-58738413D01*
X57637361Y-58738532D01*
X57640524Y-58739609D01*
X57646704Y-58742490D01*
X57725950Y-58760204D01*
X57728909Y-58760903D01*
X57807801Y-58780573D01*
X57814623Y-58780763D01*
X57817933Y-58781217D01*
X57818798Y-58781373D01*
X57823697Y-58782053D01*
X57828740Y-58783180D01*
X57834463Y-58783500D01*
X57910829Y-58783500D01*
X57914347Y-58783549D01*
X57987437Y-58785591D01*
X57987442Y-58785591D01*
X57994257Y-58785781D01*
X58000958Y-58784503D01*
X58007762Y-58783955D01*
X58007804Y-58784475D01*
X58018125Y-58783500D01*
X68200000Y-58783500D01*
X68268121Y-58803502D01*
X68314614Y-58857158D01*
X68326000Y-58909500D01*
X68326000Y-59641500D01*
X68305998Y-59709621D01*
X68252342Y-59756114D01*
X68200000Y-59767500D01*
X67560600Y-59767500D01*
X67557354Y-59767837D01*
X67557350Y-59767837D01*
X67461692Y-59777762D01*
X67461688Y-59777763D01*
X67454834Y-59778474D01*
X67448298Y-59780655D01*
X67448296Y-59780655D01*
X67316194Y-59824728D01*
X67287054Y-59834450D01*
X67136652Y-59927522D01*
X67011695Y-60052697D01*
X66918885Y-60203262D01*
X66863203Y-60371139D01*
X66852500Y-60475600D01*
X66852500Y-63476400D01*
X66863474Y-63582166D01*
X66919450Y-63749946D01*
X67012522Y-63900348D01*
X67137697Y-64025305D01*
X67288262Y-64118115D01*
X67368005Y-64144564D01*
X67449611Y-64171632D01*
X67449613Y-64171632D01*
X67456139Y-64173797D01*
X67462975Y-64174497D01*
X67462978Y-64174498D01*
X67506031Y-64178909D01*
X67560600Y-64184500D01*
X68200000Y-64184500D01*
X68268121Y-64204502D01*
X68314614Y-64258158D01*
X68326000Y-64310500D01*
X68326000Y-68999516D01*
X68305998Y-69067637D01*
X68252342Y-69114130D01*
X68211527Y-69124988D01*
X68186938Y-69127247D01*
X68084026Y-69159498D01*
X68038599Y-69173734D01*
X68000920Y-69179500D01*
X67412002Y-69179500D01*
X67343881Y-69159498D01*
X67297388Y-69105842D01*
X67287284Y-69035568D01*
X67316778Y-68970988D01*
X67322907Y-68964405D01*
X67378869Y-68908443D01*
X67388176Y-68896574D01*
X67469079Y-68762988D01*
X67475285Y-68749243D01*
X67522256Y-68599356D01*
X67524869Y-68586306D01*
X67529913Y-68531414D01*
X67526525Y-68519876D01*
X67525135Y-68518671D01*
X67517452Y-68517000D01*
X65583116Y-68517000D01*
X65567877Y-68521475D01*
X65566672Y-68522865D01*
X65565709Y-68527294D01*
X65571132Y-68586315D01*
X65573743Y-68599351D01*
X65620715Y-68749243D01*
X65626921Y-68762988D01*
X65707824Y-68896574D01*
X65717131Y-68908443D01*
X65807239Y-68998551D01*
X65841265Y-69060863D01*
X65836200Y-69131678D01*
X65807239Y-69176741D01*
X65711361Y-69272619D01*
X65622528Y-69419301D01*
X65620257Y-69426548D01*
X65620256Y-69426550D01*
X65597809Y-69498179D01*
X65558351Y-69557201D01*
X65493248Y-69585521D01*
X65477575Y-69586500D01*
X62219371Y-69586500D01*
X62151250Y-69566498D01*
X62104757Y-69512842D01*
X62094653Y-69442568D01*
X62124147Y-69377988D01*
X62130276Y-69371405D01*
X62396851Y-69104830D01*
X62442852Y-69075524D01*
X62541351Y-69039674D01*
X62541354Y-69039672D01*
X62547768Y-69037338D01*
X62705259Y-68937391D01*
X62709532Y-68933570D01*
X63648516Y-67994586D01*
X65566087Y-67994586D01*
X65569475Y-68006124D01*
X65570865Y-68007329D01*
X65578548Y-68009000D01*
X66275885Y-68009000D01*
X66291124Y-68004525D01*
X66292329Y-68003135D01*
X66294000Y-67995452D01*
X66294000Y-67990885D01*
X66802000Y-67990885D01*
X66806475Y-68006124D01*
X66807865Y-68007329D01*
X66815548Y-68009000D01*
X67512884Y-68009000D01*
X67528123Y-68004525D01*
X67529328Y-68003135D01*
X67530291Y-67998706D01*
X67524868Y-67939685D01*
X67522257Y-67926649D01*
X67475285Y-67776757D01*
X67469079Y-67763012D01*
X67388176Y-67629426D01*
X67378869Y-67617557D01*
X67268443Y-67507131D01*
X67256574Y-67497824D01*
X67122988Y-67416921D01*
X67109243Y-67410715D01*
X66959356Y-67363744D01*
X66946306Y-67361131D01*
X66882479Y-67355266D01*
X66876691Y-67355000D01*
X66820115Y-67355000D01*
X66804876Y-67359475D01*
X66803671Y-67360865D01*
X66802000Y-67368548D01*
X66802000Y-67990885D01*
X66294000Y-67990885D01*
X66294000Y-67373116D01*
X66289525Y-67357877D01*
X66288135Y-67356672D01*
X66280452Y-67355001D01*
X66219295Y-67355001D01*
X66213546Y-67355264D01*
X66149685Y-67361132D01*
X66136649Y-67363743D01*
X65986757Y-67410715D01*
X65973012Y-67416921D01*
X65839426Y-67497824D01*
X65827557Y-67507131D01*
X65717131Y-67617557D01*
X65707824Y-67629426D01*
X65626921Y-67763012D01*
X65620715Y-67776757D01*
X65573744Y-67926644D01*
X65571131Y-67939694D01*
X65566087Y-67994586D01*
X63648516Y-67994586D01*
X64226276Y-67416826D01*
X64234043Y-67409683D01*
X64268654Y-67380434D01*
X64273867Y-67376029D01*
X64283260Y-67363744D01*
X64323210Y-67311492D01*
X64325109Y-67309071D01*
X64371732Y-67251082D01*
X64371733Y-67251080D01*
X64376009Y-67245762D01*
X64379043Y-67239650D01*
X64380830Y-67236856D01*
X64381082Y-67236496D01*
X64381285Y-67236127D01*
X64383017Y-67233266D01*
X64387160Y-67227848D01*
X64421493Y-67154221D01*
X64422827Y-67151449D01*
X64455914Y-67084796D01*
X64458947Y-67078686D01*
X64460598Y-67072065D01*
X64461749Y-67068937D01*
X64461913Y-67068544D01*
X64462032Y-67068139D01*
X64463109Y-67064975D01*
X64465990Y-67058796D01*
X64483715Y-66979498D01*
X64484424Y-66976502D01*
X64502421Y-66904321D01*
X64502421Y-66904320D01*
X64504072Y-66897699D01*
X64504263Y-66890878D01*
X64504715Y-66887575D01*
X64504874Y-66886691D01*
X64505552Y-66881808D01*
X64506680Y-66876760D01*
X64507000Y-66871037D01*
X64507000Y-66794656D01*
X64507049Y-66791137D01*
X64509090Y-66718063D01*
X64509281Y-66711243D01*
X64508002Y-66704539D01*
X64507455Y-66697738D01*
X64507975Y-66697696D01*
X64507000Y-66687375D01*
X64507000Y-64004828D01*
X64527002Y-63936707D01*
X64543826Y-63915811D01*
X64555133Y-63904484D01*
X64560305Y-63899303D01*
X64653115Y-63748738D01*
X64708797Y-63580861D01*
X64719500Y-63476400D01*
X64719500Y-60475600D01*
X64708526Y-60369834D01*
X64652550Y-60202054D01*
X64559478Y-60051652D01*
X64434303Y-59926695D01*
X64428072Y-59922854D01*
X64289968Y-59837725D01*
X64289966Y-59837724D01*
X64283738Y-59833885D01*
X64123254Y-59780655D01*
X64122389Y-59780368D01*
X64122387Y-59780368D01*
X64115861Y-59778203D01*
X64109025Y-59777503D01*
X64109022Y-59777502D01*
X64065969Y-59773091D01*
X64011400Y-59767500D01*
X63285600Y-59767500D01*
X63282354Y-59767837D01*
X63282350Y-59767837D01*
X63186692Y-59777762D01*
X63186688Y-59777763D01*
X63179834Y-59778474D01*
X63173298Y-59780655D01*
X63173296Y-59780655D01*
X63041194Y-59824728D01*
X63012054Y-59834450D01*
X62861652Y-59927522D01*
X62736695Y-60052697D01*
X62643885Y-60203262D01*
X62588203Y-60371139D01*
X62577500Y-60475600D01*
X62577500Y-63476400D01*
X62588474Y-63582166D01*
X62644450Y-63749946D01*
X62737522Y-63900348D01*
X62742704Y-63905521D01*
X62753018Y-63915817D01*
X62787097Y-63978099D01*
X62790000Y-64004990D01*
X62790000Y-66372708D01*
X62769998Y-66440829D01*
X62753095Y-66461803D01*
X61738500Y-67476397D01*
X61732095Y-67482802D01*
X61669783Y-67516828D01*
X61598967Y-67511763D01*
X61542132Y-67469216D01*
X61517321Y-67402696D01*
X61517000Y-67393707D01*
X61517000Y-66992115D01*
X61512525Y-66976876D01*
X61511135Y-66975671D01*
X61503452Y-66974000D01*
X60031115Y-66974000D01*
X60015876Y-66978475D01*
X60014671Y-66979865D01*
X60013000Y-66987548D01*
X60013000Y-68209884D01*
X60017475Y-68225123D01*
X60018865Y-68226328D01*
X60026548Y-68227999D01*
X60824130Y-68227999D01*
X60892251Y-68248001D01*
X60938744Y-68301657D01*
X60948848Y-68371931D01*
X60919354Y-68436511D01*
X60913225Y-68443094D01*
X60631724Y-68724595D01*
X60569412Y-68758621D01*
X60542629Y-68761500D01*
X58460866Y-68761500D01*
X58398684Y-68768255D01*
X58391288Y-68771027D01*
X58391282Y-68771029D01*
X58266759Y-68817711D01*
X58195952Y-68822894D01*
X58133583Y-68788973D01*
X58099454Y-68726718D01*
X58097953Y-68718608D01*
X58092175Y-68680401D01*
X58089972Y-68674415D01*
X58089971Y-68674409D01*
X58027140Y-68503640D01*
X58027138Y-68503635D01*
X58024937Y-68497654D01*
X57922326Y-68332160D01*
X57823827Y-68227999D01*
X57792919Y-68195315D01*
X57788534Y-68190678D01*
X57629025Y-68078989D01*
X57581013Y-68058212D01*
X57456175Y-68004190D01*
X57456171Y-68004189D01*
X57450316Y-68001655D01*
X57444069Y-68000350D01*
X57444066Y-68000349D01*
X57264443Y-67962824D01*
X57264438Y-67962823D01*
X57259707Y-67961835D01*
X57253315Y-67961500D01*
X57110337Y-67961500D01*
X57082634Y-67964314D01*
X56971622Y-67975590D01*
X56971621Y-67975590D01*
X56965273Y-67976235D01*
X56918524Y-67990885D01*
X56785549Y-68032556D01*
X56785544Y-68032558D01*
X56779459Y-68034465D01*
X56705027Y-68075724D01*
X56614729Y-68125777D01*
X56614726Y-68125779D01*
X56609150Y-68128870D01*
X56604309Y-68133019D01*
X56604305Y-68133022D01*
X56493494Y-68227999D01*
X56461302Y-68255591D01*
X56341954Y-68409453D01*
X56339138Y-68415176D01*
X56339136Y-68415179D01*
X56295608Y-68503640D01*
X56255982Y-68584171D01*
X56254373Y-68590349D01*
X56254372Y-68590351D01*
X56209404Y-68762988D01*
X56206898Y-68772607D01*
X56196707Y-68967064D01*
X56225825Y-69159599D01*
X56228028Y-69165585D01*
X56228029Y-69165591D01*
X56290860Y-69336360D01*
X56290862Y-69336365D01*
X56293063Y-69342346D01*
X56395674Y-69507840D01*
X56529466Y-69649322D01*
X56688975Y-69761011D01*
X56694838Y-69763548D01*
X56861825Y-69835810D01*
X56861829Y-69835811D01*
X56867684Y-69838345D01*
X56873931Y-69839650D01*
X56873934Y-69839651D01*
X57053557Y-69877176D01*
X57053562Y-69877177D01*
X57058293Y-69878165D01*
X57064685Y-69878500D01*
X57207663Y-69878500D01*
X57276951Y-69871462D01*
X57346378Y-69864410D01*
X57346379Y-69864410D01*
X57352727Y-69863765D01*
X57433843Y-69838345D01*
X57532451Y-69807444D01*
X57532456Y-69807442D01*
X57538541Y-69805535D01*
X57665608Y-69735100D01*
X57703271Y-69714223D01*
X57703274Y-69714221D01*
X57708850Y-69711130D01*
X57713694Y-69706978D01*
X57713700Y-69706974D01*
X57792503Y-69639432D01*
X57857242Y-69610288D01*
X57927460Y-69620771D01*
X57980864Y-69667552D01*
X58000500Y-69735100D01*
X58000500Y-69818134D01*
X58007255Y-69880316D01*
X58010029Y-69887715D01*
X58010775Y-69890854D01*
X58010775Y-69949146D01*
X58010029Y-69952285D01*
X58007255Y-69959684D01*
X58000500Y-70021866D01*
X58000500Y-70618134D01*
X58007255Y-70680316D01*
X58010029Y-70687715D01*
X58010775Y-70690854D01*
X58010775Y-70749146D01*
X58010029Y-70752285D01*
X58007255Y-70759684D01*
X58000500Y-70821866D01*
X58000500Y-71418134D01*
X58007255Y-71480316D01*
X58010029Y-71487715D01*
X58010775Y-71490854D01*
X58010775Y-71549146D01*
X58010029Y-71552285D01*
X58007255Y-71559684D01*
X58000500Y-71621866D01*
X58000500Y-72218134D01*
X58007255Y-72280316D01*
X58010029Y-72287715D01*
X58010775Y-72290854D01*
X58010775Y-72349146D01*
X58010029Y-72352285D01*
X58007255Y-72359684D01*
X58000500Y-72421866D01*
X58000500Y-72499286D01*
X57980498Y-72567407D01*
X57926842Y-72613900D01*
X57856568Y-72624004D01*
X57792414Y-72594781D01*
X57788534Y-72590678D01*
X57629025Y-72478989D01*
X57581013Y-72458212D01*
X57456175Y-72404190D01*
X57456171Y-72404189D01*
X57450316Y-72401655D01*
X57444069Y-72400350D01*
X57444066Y-72400349D01*
X57264443Y-72362824D01*
X57264438Y-72362823D01*
X57259707Y-72361835D01*
X57253315Y-72361500D01*
X57110337Y-72361500D01*
X57050874Y-72367540D01*
X56971622Y-72375590D01*
X56971621Y-72375590D01*
X56965273Y-72376235D01*
X56908939Y-72393889D01*
X56785549Y-72432556D01*
X56785544Y-72432558D01*
X56779459Y-72434465D01*
X56703713Y-72476452D01*
X56614729Y-72525777D01*
X56614726Y-72525779D01*
X56609150Y-72528870D01*
X56604309Y-72533019D01*
X56604305Y-72533022D01*
X56466145Y-72651440D01*
X56461302Y-72655591D01*
X56457391Y-72660633D01*
X56457390Y-72660634D01*
X56392822Y-72743874D01*
X56341954Y-72809453D01*
X56339138Y-72815176D01*
X56339136Y-72815179D01*
X56326089Y-72841694D01*
X56255982Y-72984171D01*
X56254373Y-72990349D01*
X56254372Y-72990351D01*
X56213911Y-73145685D01*
X56206898Y-73172607D01*
X56206564Y-73178986D01*
X56198479Y-73333261D01*
X56196707Y-73367064D01*
X56225825Y-73559599D01*
X56228028Y-73565585D01*
X56228029Y-73565591D01*
X56290860Y-73736360D01*
X56290862Y-73736365D01*
X56293063Y-73742346D01*
X56296425Y-73747768D01*
X56390109Y-73898864D01*
X56395674Y-73907840D01*
X56400055Y-73912473D01*
X56400056Y-73912474D01*
X56521821Y-74041238D01*
X56529466Y-74049322D01*
X56534696Y-74052984D01*
X56534697Y-74052985D01*
X56605518Y-74102574D01*
X56688975Y-74161011D01*
X56694838Y-74163548D01*
X56861825Y-74235810D01*
X56861829Y-74235811D01*
X56867684Y-74238345D01*
X56873931Y-74239650D01*
X56873934Y-74239651D01*
X57053557Y-74277176D01*
X57053562Y-74277177D01*
X57058293Y-74278165D01*
X57064685Y-74278500D01*
X57207663Y-74278500D01*
X57276951Y-74271462D01*
X57346378Y-74264410D01*
X57346379Y-74264410D01*
X57352727Y-74263765D01*
X57433843Y-74238345D01*
X57532451Y-74207444D01*
X57532456Y-74207442D01*
X57538541Y-74205535D01*
X57661471Y-74137393D01*
X57703271Y-74114223D01*
X57703274Y-74114221D01*
X57708850Y-74111130D01*
X57713691Y-74106981D01*
X57713695Y-74106978D01*
X57851855Y-73988560D01*
X57856698Y-73984409D01*
X57976046Y-73830547D01*
X57994859Y-73792315D01*
X58059200Y-73661556D01*
X58062018Y-73655829D01*
X58065863Y-73641070D01*
X58100410Y-73508439D01*
X58136937Y-73447560D01*
X58200579Y-73416093D01*
X58266571Y-73422218D01*
X58398684Y-73471745D01*
X58460866Y-73478500D01*
X62820739Y-73478500D01*
X62888860Y-73498502D01*
X62935353Y-73552158D01*
X62940262Y-73564623D01*
X62961375Y-73627905D01*
X62963692Y-73634849D01*
X63052929Y-73779055D01*
X63172947Y-73898864D01*
X63179177Y-73902704D01*
X63179178Y-73902705D01*
X63210514Y-73922020D01*
X63317308Y-73987849D01*
X63324256Y-73990154D01*
X63324257Y-73990154D01*
X63471738Y-74039072D01*
X63471740Y-74039072D01*
X63478269Y-74041238D01*
X63492656Y-74042712D01*
X63558383Y-74069554D01*
X63599164Y-74127669D01*
X63602052Y-74198607D01*
X63566130Y-74259845D01*
X63502802Y-74291941D01*
X63492814Y-74293383D01*
X63483876Y-74294310D01*
X63483872Y-74294311D01*
X63477018Y-74295022D01*
X63316151Y-74348692D01*
X63171945Y-74437929D01*
X63052136Y-74557947D01*
X62963151Y-74702308D01*
X62960846Y-74709256D01*
X62960846Y-74709257D01*
X62955977Y-74723938D01*
X62909762Y-74863269D01*
X62899500Y-74963428D01*
X62899500Y-75497572D01*
X62910022Y-75598982D01*
X62963692Y-75759849D01*
X63052929Y-75904055D01*
X63058107Y-75909224D01*
X63112518Y-75963540D01*
X63146597Y-76025822D01*
X63149500Y-76052713D01*
X63149500Y-76143770D01*
X63133915Y-76204470D01*
X63083375Y-76296404D01*
X63076567Y-76308787D01*
X63074703Y-76314662D01*
X63074702Y-76314665D01*
X63035732Y-76437515D01*
X63016765Y-76497306D01*
X62994719Y-76693851D01*
X63011268Y-76890934D01*
X63012967Y-76896858D01*
X63050465Y-77027629D01*
X63065783Y-77081050D01*
X63156187Y-77256956D01*
X63279035Y-77411953D01*
X63429650Y-77540136D01*
X63602294Y-77636624D01*
X63790392Y-77697740D01*
X63986777Y-77721158D01*
X63992912Y-77720686D01*
X63992914Y-77720686D01*
X64177830Y-77706457D01*
X64177834Y-77706456D01*
X64183972Y-77705984D01*
X64374463Y-77652798D01*
X64379967Y-77650018D01*
X64379969Y-77650017D01*
X64545495Y-77566404D01*
X64545497Y-77566403D01*
X64550996Y-77563625D01*
X64706847Y-77441861D01*
X64836078Y-77292145D01*
X64933769Y-77120179D01*
X64996197Y-76932513D01*
X65020985Y-76736295D01*
X65021380Y-76708000D01*
X65008406Y-76575683D01*
X65021665Y-76505935D01*
X65070528Y-76454428D01*
X65139481Y-76437515D01*
X65148719Y-76438273D01*
X65256777Y-76451158D01*
X65262912Y-76450686D01*
X65262914Y-76450686D01*
X65447830Y-76436457D01*
X65447834Y-76436456D01*
X65453972Y-76435984D01*
X65644463Y-76382798D01*
X65649967Y-76380018D01*
X65649969Y-76380017D01*
X65815495Y-76296404D01*
X65815497Y-76296403D01*
X65820996Y-76293625D01*
X65952146Y-76191160D01*
X65971991Y-76175655D01*
X65976847Y-76171861D01*
X66070489Y-76063376D01*
X66102049Y-76026813D01*
X66102050Y-76026811D01*
X66106078Y-76022145D01*
X66203769Y-75850179D01*
X66266197Y-75662513D01*
X66290985Y-75466295D01*
X66291380Y-75438000D01*
X66272080Y-75241167D01*
X66214916Y-75051831D01*
X66122066Y-74877204D01*
X66051709Y-74790938D01*
X66000960Y-74728713D01*
X66000957Y-74728710D01*
X65997065Y-74723938D01*
X65963386Y-74696076D01*
X65849425Y-74601799D01*
X65849421Y-74601797D01*
X65844675Y-74597870D01*
X65670701Y-74503802D01*
X65481768Y-74445318D01*
X65475644Y-74444674D01*
X65475642Y-74444674D01*
X65455947Y-74442604D01*
X65425426Y-74439397D01*
X65382569Y-74426945D01*
X65374796Y-74423086D01*
X65374795Y-74423086D01*
X65368686Y-74420053D01*
X65362069Y-74418403D01*
X65358933Y-74417249D01*
X65358545Y-74417087D01*
X65358139Y-74416968D01*
X65354975Y-74415891D01*
X65348796Y-74413010D01*
X65269500Y-74395285D01*
X65266502Y-74394576D01*
X65194321Y-74376579D01*
X65194320Y-74376579D01*
X65187699Y-74374928D01*
X65180878Y-74374737D01*
X65177575Y-74374285D01*
X65176691Y-74374126D01*
X65171808Y-74373448D01*
X65166760Y-74372320D01*
X65161037Y-74372000D01*
X65084656Y-74372000D01*
X65081137Y-74371951D01*
X65001243Y-74369719D01*
X64994539Y-74370998D01*
X64987738Y-74371545D01*
X64987696Y-74371025D01*
X64977375Y-74372000D01*
X64773096Y-74372000D01*
X64711776Y-74354619D01*
X64711558Y-74355086D01*
X64708666Y-74353738D01*
X64706979Y-74353259D01*
X64698692Y-74348151D01*
X64691743Y-74345846D01*
X64544262Y-74296928D01*
X64544260Y-74296928D01*
X64537731Y-74294762D01*
X64523344Y-74293288D01*
X64457617Y-74266446D01*
X64416836Y-74208331D01*
X64413948Y-74137393D01*
X64449870Y-74076155D01*
X64513198Y-74044059D01*
X64523186Y-74042617D01*
X64532124Y-74041690D01*
X64532128Y-74041689D01*
X64538982Y-74040978D01*
X64699849Y-73987308D01*
X64844055Y-73898071D01*
X64963864Y-73778053D01*
X64991454Y-73733294D01*
X65565709Y-73733294D01*
X65571132Y-73792315D01*
X65573743Y-73805351D01*
X65620715Y-73955243D01*
X65626921Y-73968988D01*
X65707824Y-74102574D01*
X65717131Y-74114443D01*
X65827557Y-74224869D01*
X65839426Y-74234176D01*
X65973012Y-74315079D01*
X65986757Y-74321285D01*
X66136644Y-74368256D01*
X66149694Y-74370869D01*
X66213521Y-74376734D01*
X66219309Y-74377000D01*
X66275885Y-74377000D01*
X66291124Y-74372525D01*
X66292329Y-74371135D01*
X66294000Y-74363452D01*
X66294000Y-74358884D01*
X66802000Y-74358884D01*
X66806475Y-74374123D01*
X66807865Y-74375328D01*
X66815548Y-74376999D01*
X66876705Y-74376999D01*
X66882454Y-74376736D01*
X66946315Y-74370868D01*
X66959351Y-74368257D01*
X67109243Y-74321285D01*
X67122988Y-74315079D01*
X67256574Y-74234176D01*
X67268443Y-74224869D01*
X67378869Y-74114443D01*
X67388176Y-74102574D01*
X67469079Y-73968988D01*
X67475285Y-73955243D01*
X67522256Y-73805356D01*
X67524869Y-73792306D01*
X67529913Y-73737414D01*
X67526525Y-73725876D01*
X67525135Y-73724671D01*
X67517452Y-73723000D01*
X66820115Y-73723000D01*
X66804876Y-73727475D01*
X66803671Y-73728865D01*
X66802000Y-73736548D01*
X66802000Y-74358884D01*
X66294000Y-74358884D01*
X66294000Y-73741115D01*
X66289525Y-73725876D01*
X66288135Y-73724671D01*
X66280452Y-73723000D01*
X65583116Y-73723000D01*
X65567877Y-73727475D01*
X65566672Y-73728865D01*
X65565709Y-73733294D01*
X64991454Y-73733294D01*
X65052849Y-73633692D01*
X65055154Y-73626743D01*
X65104072Y-73479262D01*
X65104072Y-73479260D01*
X65106238Y-73472731D01*
X65116500Y-73372572D01*
X65116500Y-72838428D01*
X65105978Y-72737018D01*
X65052308Y-72576151D01*
X64963071Y-72431945D01*
X64949572Y-72418469D01*
X64848233Y-72317307D01*
X64843053Y-72312136D01*
X64698692Y-72223151D01*
X64691743Y-72220846D01*
X64544262Y-72171928D01*
X64544260Y-72171928D01*
X64537731Y-72169762D01*
X64437572Y-72159500D01*
X64180596Y-72159500D01*
X64112475Y-72139498D01*
X64099016Y-72129525D01*
X64051795Y-72089407D01*
X64051792Y-72089405D01*
X64046215Y-72084667D01*
X64043152Y-72083103D01*
X63998602Y-72029890D01*
X63989692Y-71959454D01*
X64020277Y-71895383D01*
X64080646Y-71858019D01*
X64114087Y-71853500D01*
X65438501Y-71853500D01*
X65506622Y-71873502D01*
X65553115Y-71927158D01*
X65564501Y-71979500D01*
X65564501Y-72075634D01*
X65564764Y-72078492D01*
X65564764Y-72078501D01*
X65565331Y-72084667D01*
X65571247Y-72149062D01*
X65573246Y-72155440D01*
X65573246Y-72155441D01*
X65612380Y-72280316D01*
X65622528Y-72312699D01*
X65711361Y-72459381D01*
X65807239Y-72555259D01*
X65841265Y-72617571D01*
X65836200Y-72688386D01*
X65807239Y-72733449D01*
X65717131Y-72823557D01*
X65707824Y-72835426D01*
X65626921Y-72969012D01*
X65620715Y-72982757D01*
X65573744Y-73132644D01*
X65571131Y-73145694D01*
X65566087Y-73200586D01*
X65569475Y-73212124D01*
X65570865Y-73213329D01*
X65578548Y-73215000D01*
X67512884Y-73215000D01*
X67528123Y-73210525D01*
X67529328Y-73209135D01*
X67530291Y-73204706D01*
X67524868Y-73145685D01*
X67522257Y-73132649D01*
X67475285Y-72982757D01*
X67469079Y-72969012D01*
X67388176Y-72835426D01*
X67378869Y-72823557D01*
X67322907Y-72767595D01*
X67288881Y-72705283D01*
X67293946Y-72634468D01*
X67336493Y-72577632D01*
X67403013Y-72552821D01*
X67412002Y-72552500D01*
X67660012Y-72552500D01*
X67728133Y-72572502D01*
X67755237Y-72597176D01*
X67755361Y-72597381D01*
X67876619Y-72718639D01*
X68023301Y-72807472D01*
X68030548Y-72809743D01*
X68030550Y-72809744D01*
X68074628Y-72823557D01*
X68186938Y-72858753D01*
X68200966Y-72860042D01*
X68211531Y-72861013D01*
X68277536Y-72887165D01*
X68318923Y-72944851D01*
X68326000Y-72986484D01*
X68326000Y-86234000D01*
X68305998Y-86302121D01*
X68252342Y-86348614D01*
X68200000Y-86360000D01*
X50926000Y-86360000D01*
X50857879Y-86339998D01*
X50811386Y-86286342D01*
X50800000Y-86234000D01*
X50800000Y-85418705D01*
X55402001Y-85418705D01*
X55402264Y-85424454D01*
X55408132Y-85488315D01*
X55410743Y-85501351D01*
X55457715Y-85651243D01*
X55463921Y-85664988D01*
X55544824Y-85798574D01*
X55554131Y-85810443D01*
X55664557Y-85920869D01*
X55676426Y-85930176D01*
X55810012Y-86011079D01*
X55823757Y-86017285D01*
X55973644Y-86064256D01*
X55986694Y-86066869D01*
X56041586Y-86071913D01*
X56053124Y-86068525D01*
X56054329Y-86067135D01*
X56056000Y-86059452D01*
X56056000Y-86054884D01*
X56564000Y-86054884D01*
X56568475Y-86070123D01*
X56569865Y-86071328D01*
X56574294Y-86072291D01*
X56633315Y-86066868D01*
X56646351Y-86064257D01*
X56796243Y-86017285D01*
X56809988Y-86011079D01*
X56943574Y-85930176D01*
X56955443Y-85920869D01*
X57045551Y-85830761D01*
X57107863Y-85796735D01*
X57178678Y-85801800D01*
X57223741Y-85830761D01*
X57319619Y-85926639D01*
X57466301Y-86015472D01*
X57473548Y-86017743D01*
X57473550Y-86017744D01*
X57519096Y-86032017D01*
X57629938Y-86066753D01*
X57703365Y-86073500D01*
X57706263Y-86073500D01*
X57960665Y-86073499D01*
X58216634Y-86073499D01*
X58219492Y-86073236D01*
X58219501Y-86073236D01*
X58255004Y-86069974D01*
X58290062Y-86066753D01*
X58298030Y-86064256D01*
X58446450Y-86017744D01*
X58446452Y-86017743D01*
X58453699Y-86015472D01*
X58534193Y-85966724D01*
X58599463Y-85948500D01*
X58872002Y-85948500D01*
X58933473Y-85964512D01*
X59024916Y-86015619D01*
X59024922Y-86015621D01*
X59030294Y-86018624D01*
X59218392Y-86079740D01*
X59414777Y-86103158D01*
X59420912Y-86102686D01*
X59420914Y-86102686D01*
X59605830Y-86088457D01*
X59605834Y-86088456D01*
X59611972Y-86087984D01*
X59802463Y-86034798D01*
X59807967Y-86032018D01*
X59807969Y-86032017D01*
X59973495Y-85948404D01*
X59973497Y-85948403D01*
X59978996Y-85945625D01*
X60134847Y-85823861D01*
X60264078Y-85674145D01*
X60361769Y-85502179D01*
X60424197Y-85314513D01*
X60448985Y-85118295D01*
X60449380Y-85090000D01*
X60430080Y-84893167D01*
X60411050Y-84830135D01*
X60406162Y-84813947D01*
X60372916Y-84703831D01*
X60280066Y-84529204D01*
X60161041Y-84383265D01*
X60158960Y-84380713D01*
X60158957Y-84380710D01*
X60155065Y-84375938D01*
X60147352Y-84369557D01*
X60007425Y-84253799D01*
X60007421Y-84253797D01*
X60002675Y-84249870D01*
X59828701Y-84155802D01*
X59639768Y-84097318D01*
X59633643Y-84096674D01*
X59633642Y-84096674D01*
X59449204Y-84077289D01*
X59449202Y-84077289D01*
X59443075Y-84076645D01*
X59360576Y-84084153D01*
X59252251Y-84094011D01*
X59252248Y-84094012D01*
X59246112Y-84094570D01*
X59240206Y-84096308D01*
X59240202Y-84096309D01*
X59157845Y-84120548D01*
X59056381Y-84150410D01*
X59050923Y-84153263D01*
X59050919Y-84153265D01*
X58928697Y-84217162D01*
X58870321Y-84231500D01*
X58599463Y-84231500D01*
X58534192Y-84213276D01*
X58453699Y-84164528D01*
X58446452Y-84162257D01*
X58446450Y-84162256D01*
X58380164Y-84141483D01*
X58290062Y-84113247D01*
X58216635Y-84106500D01*
X58213737Y-84106500D01*
X57959335Y-84106501D01*
X57703366Y-84106501D01*
X57700508Y-84106764D01*
X57700499Y-84106764D01*
X57666619Y-84109877D01*
X57629938Y-84113247D01*
X57623560Y-84115246D01*
X57623559Y-84115246D01*
X57473550Y-84162256D01*
X57473548Y-84162257D01*
X57466301Y-84164528D01*
X57319619Y-84253361D01*
X57223741Y-84349239D01*
X57161429Y-84383265D01*
X57090614Y-84378200D01*
X57045551Y-84349239D01*
X56955443Y-84259131D01*
X56943574Y-84249824D01*
X56809988Y-84168921D01*
X56796243Y-84162715D01*
X56646356Y-84115744D01*
X56633306Y-84113131D01*
X56578414Y-84108087D01*
X56566876Y-84111475D01*
X56565671Y-84112865D01*
X56564000Y-84120548D01*
X56564000Y-86054884D01*
X56056000Y-86054884D01*
X56056000Y-85362115D01*
X56051525Y-85346876D01*
X56050135Y-85345671D01*
X56042452Y-85344000D01*
X55420116Y-85344000D01*
X55404877Y-85348475D01*
X55403672Y-85349865D01*
X55402001Y-85357548D01*
X55402001Y-85418705D01*
X50800000Y-85418705D01*
X50800000Y-84817885D01*
X55402000Y-84817885D01*
X55406475Y-84833124D01*
X55407865Y-84834329D01*
X55415548Y-84836000D01*
X56037885Y-84836000D01*
X56053124Y-84831525D01*
X56054329Y-84830135D01*
X56056000Y-84822452D01*
X56056000Y-84125116D01*
X56051525Y-84109877D01*
X56050135Y-84108672D01*
X56045706Y-84107709D01*
X55986685Y-84113132D01*
X55973649Y-84115743D01*
X55823757Y-84162715D01*
X55810012Y-84168921D01*
X55676426Y-84249824D01*
X55664557Y-84259131D01*
X55554131Y-84369557D01*
X55544824Y-84381426D01*
X55463921Y-84515012D01*
X55457715Y-84528757D01*
X55410744Y-84678644D01*
X55408131Y-84691694D01*
X55402266Y-84755521D01*
X55402000Y-84761309D01*
X55402000Y-84817885D01*
X50800000Y-84817885D01*
X50800000Y-82845438D01*
X55417000Y-82845438D01*
X55417337Y-82851953D01*
X55426894Y-82944057D01*
X55429788Y-82957456D01*
X55479381Y-83106107D01*
X55485555Y-83119286D01*
X55567788Y-83252173D01*
X55576824Y-83263574D01*
X55687429Y-83373986D01*
X55698840Y-83382998D01*
X55831880Y-83465004D01*
X55845061Y-83471151D01*
X55993814Y-83520491D01*
X56007190Y-83523358D01*
X56098097Y-83532672D01*
X56103126Y-83532929D01*
X56118124Y-83528525D01*
X56119329Y-83527135D01*
X56121000Y-83519452D01*
X56121000Y-83514885D01*
X56629000Y-83514885D01*
X56633475Y-83530124D01*
X56634865Y-83531329D01*
X56642548Y-83533000D01*
X56645438Y-83533000D01*
X56651953Y-83532663D01*
X56744057Y-83523106D01*
X56757456Y-83520212D01*
X56906107Y-83470619D01*
X56919286Y-83464445D01*
X57052173Y-83382212D01*
X57069311Y-83368629D01*
X57070841Y-83370559D01*
X57122880Y-83342097D01*
X57193699Y-83347113D01*
X57230617Y-83370799D01*
X57231372Y-83369843D01*
X57237118Y-83374381D01*
X57242298Y-83379552D01*
X57248528Y-83383392D01*
X57248529Y-83383393D01*
X57380020Y-83464445D01*
X57387899Y-83469302D01*
X57550243Y-83523149D01*
X57557080Y-83523849D01*
X57557082Y-83523850D01*
X57598401Y-83528083D01*
X57651268Y-83533500D01*
X58198732Y-83533500D01*
X58201978Y-83533163D01*
X58201982Y-83533163D01*
X58236083Y-83529625D01*
X58301019Y-83522887D01*
X58380239Y-83496457D01*
X58456324Y-83471073D01*
X58456326Y-83471072D01*
X58463268Y-83468756D01*
X58530173Y-83427354D01*
X58596473Y-83408500D01*
X58872002Y-83408500D01*
X58933473Y-83424512D01*
X59024916Y-83475619D01*
X59024922Y-83475621D01*
X59030294Y-83478624D01*
X59218392Y-83539740D01*
X59414777Y-83563158D01*
X59420912Y-83562686D01*
X59420914Y-83562686D01*
X59605830Y-83548457D01*
X59605834Y-83548456D01*
X59611972Y-83547984D01*
X59802463Y-83494798D01*
X59807967Y-83492018D01*
X59807969Y-83492017D01*
X59973495Y-83408404D01*
X59973497Y-83408403D01*
X59978996Y-83405625D01*
X60134847Y-83283861D01*
X60264078Y-83134145D01*
X60361769Y-82962179D01*
X60424197Y-82774513D01*
X60448985Y-82578295D01*
X60449380Y-82550000D01*
X60430080Y-82353167D01*
X60411050Y-82290135D01*
X60374697Y-82169731D01*
X60372916Y-82163831D01*
X60280066Y-81989204D01*
X60165588Y-81848840D01*
X60158960Y-81840713D01*
X60158957Y-81840710D01*
X60155065Y-81835938D01*
X60054680Y-81752892D01*
X60007425Y-81713799D01*
X60007421Y-81713797D01*
X60002675Y-81709870D01*
X59828701Y-81615802D01*
X59639768Y-81557318D01*
X59633643Y-81556674D01*
X59633642Y-81556674D01*
X59449204Y-81537289D01*
X59449202Y-81537289D01*
X59443075Y-81536645D01*
X59360576Y-81544153D01*
X59252251Y-81554011D01*
X59252248Y-81554012D01*
X59246112Y-81554570D01*
X59240206Y-81556308D01*
X59240202Y-81556309D01*
X59170406Y-81576851D01*
X59056381Y-81610410D01*
X59050923Y-81613263D01*
X59050919Y-81613265D01*
X58928697Y-81677162D01*
X58870321Y-81691500D01*
X58596454Y-81691500D01*
X58530338Y-81672760D01*
X58468331Y-81634538D01*
X58468329Y-81634537D01*
X58462101Y-81630698D01*
X58299757Y-81576851D01*
X58292920Y-81576151D01*
X58292918Y-81576150D01*
X58251599Y-81571917D01*
X58198732Y-81566500D01*
X57651268Y-81566500D01*
X57648022Y-81566837D01*
X57648018Y-81566837D01*
X57618730Y-81569876D01*
X57548981Y-81577113D01*
X57540963Y-81579788D01*
X57393676Y-81628927D01*
X57393674Y-81628928D01*
X57386732Y-81631244D01*
X57241287Y-81721248D01*
X57236114Y-81726430D01*
X57230377Y-81730977D01*
X57228945Y-81729170D01*
X57176425Y-81757902D01*
X57105605Y-81752892D01*
X57069147Y-81729501D01*
X57068317Y-81730552D01*
X57051160Y-81717002D01*
X56918120Y-81634996D01*
X56904939Y-81628849D01*
X56756186Y-81579509D01*
X56742810Y-81576642D01*
X56651903Y-81567328D01*
X56646874Y-81567071D01*
X56631876Y-81571475D01*
X56630671Y-81572865D01*
X56629000Y-81580548D01*
X56629000Y-83514885D01*
X56121000Y-83514885D01*
X56121000Y-82822115D01*
X56116525Y-82806876D01*
X56115135Y-82805671D01*
X56107452Y-82804000D01*
X55435115Y-82804000D01*
X55419876Y-82808475D01*
X55418671Y-82809865D01*
X55417000Y-82817548D01*
X55417000Y-82845438D01*
X50800000Y-82845438D01*
X50800000Y-82277885D01*
X55417000Y-82277885D01*
X55421475Y-82293124D01*
X55422865Y-82294329D01*
X55430548Y-82296000D01*
X56102885Y-82296000D01*
X56118124Y-82291525D01*
X56119329Y-82290135D01*
X56121000Y-82282452D01*
X56121000Y-81585115D01*
X56116525Y-81569876D01*
X56115135Y-81568671D01*
X56107452Y-81567000D01*
X56104562Y-81567000D01*
X56098047Y-81567337D01*
X56005943Y-81576894D01*
X55992544Y-81579788D01*
X55843893Y-81629381D01*
X55830714Y-81635555D01*
X55697827Y-81717788D01*
X55686426Y-81726824D01*
X55576014Y-81837429D01*
X55567002Y-81848840D01*
X55484996Y-81981880D01*
X55478849Y-81995061D01*
X55429509Y-82143814D01*
X55426642Y-82157190D01*
X55417328Y-82248097D01*
X55417000Y-82254514D01*
X55417000Y-82277885D01*
X50800000Y-82277885D01*
X50800000Y-80305438D01*
X55417000Y-80305438D01*
X55417337Y-80311953D01*
X55426894Y-80404057D01*
X55429788Y-80417456D01*
X55479381Y-80566107D01*
X55485555Y-80579286D01*
X55567788Y-80712173D01*
X55576824Y-80723574D01*
X55687429Y-80833986D01*
X55698840Y-80842998D01*
X55831880Y-80925004D01*
X55845061Y-80931151D01*
X55993814Y-80980491D01*
X56007190Y-80983358D01*
X56098097Y-80992672D01*
X56103126Y-80992929D01*
X56118124Y-80988525D01*
X56119329Y-80987135D01*
X56121000Y-80979452D01*
X56121000Y-80974885D01*
X56629000Y-80974885D01*
X56633475Y-80990124D01*
X56634865Y-80991329D01*
X56642548Y-80993000D01*
X56645438Y-80993000D01*
X56651953Y-80992663D01*
X56744057Y-80983106D01*
X56757456Y-80980212D01*
X56906107Y-80930619D01*
X56919286Y-80924445D01*
X57052173Y-80842212D01*
X57069311Y-80828629D01*
X57070841Y-80830559D01*
X57122880Y-80802097D01*
X57193699Y-80807113D01*
X57230617Y-80830799D01*
X57231372Y-80829843D01*
X57237118Y-80834381D01*
X57242298Y-80839552D01*
X57248528Y-80843392D01*
X57248529Y-80843393D01*
X57380020Y-80924445D01*
X57387899Y-80929302D01*
X57550243Y-80983149D01*
X57557080Y-80983849D01*
X57557082Y-80983850D01*
X57598401Y-80988083D01*
X57651268Y-80993500D01*
X58198732Y-80993500D01*
X58201978Y-80993163D01*
X58201982Y-80993163D01*
X58236083Y-80989625D01*
X58301019Y-80982887D01*
X58380239Y-80956457D01*
X58456324Y-80931073D01*
X58456326Y-80931072D01*
X58463268Y-80928756D01*
X58530173Y-80887354D01*
X58596473Y-80868500D01*
X58872002Y-80868500D01*
X58933473Y-80884512D01*
X59024916Y-80935619D01*
X59024922Y-80935621D01*
X59030294Y-80938624D01*
X59218392Y-80999740D01*
X59414777Y-81023158D01*
X59420912Y-81022686D01*
X59420914Y-81022686D01*
X59605830Y-81008457D01*
X59605834Y-81008456D01*
X59611972Y-81007984D01*
X59802463Y-80954798D01*
X59807967Y-80952018D01*
X59807969Y-80952017D01*
X59973495Y-80868404D01*
X59973497Y-80868403D01*
X59978996Y-80865625D01*
X60134847Y-80743861D01*
X60264078Y-80594145D01*
X60361769Y-80422179D01*
X60424197Y-80234513D01*
X60448985Y-80038295D01*
X60449380Y-80010000D01*
X60430080Y-79813167D01*
X60411050Y-79750135D01*
X60374697Y-79629731D01*
X60372916Y-79623831D01*
X60280066Y-79449204D01*
X60165588Y-79308840D01*
X60158960Y-79300713D01*
X60158957Y-79300710D01*
X60155065Y-79295938D01*
X60054680Y-79212892D01*
X60007425Y-79173799D01*
X60007421Y-79173797D01*
X60002675Y-79169870D01*
X59828701Y-79075802D01*
X59639768Y-79017318D01*
X59633643Y-79016674D01*
X59633642Y-79016674D01*
X59449204Y-78997289D01*
X59449202Y-78997289D01*
X59443075Y-78996645D01*
X59360576Y-79004153D01*
X59252251Y-79014011D01*
X59252248Y-79014012D01*
X59246112Y-79014570D01*
X59240206Y-79016308D01*
X59240202Y-79016309D01*
X59170406Y-79036851D01*
X59056381Y-79070410D01*
X59050923Y-79073263D01*
X59050919Y-79073265D01*
X58928697Y-79137162D01*
X58870321Y-79151500D01*
X58596454Y-79151500D01*
X58530338Y-79132760D01*
X58468331Y-79094538D01*
X58468329Y-79094537D01*
X58462101Y-79090698D01*
X58299757Y-79036851D01*
X58292920Y-79036151D01*
X58292918Y-79036150D01*
X58251599Y-79031917D01*
X58198732Y-79026500D01*
X57651268Y-79026500D01*
X57648022Y-79026837D01*
X57648018Y-79026837D01*
X57618730Y-79029876D01*
X57548981Y-79037113D01*
X57540963Y-79039788D01*
X57393676Y-79088927D01*
X57393674Y-79088928D01*
X57386732Y-79091244D01*
X57241287Y-79181248D01*
X57236114Y-79186430D01*
X57230377Y-79190977D01*
X57228945Y-79189170D01*
X57176425Y-79217902D01*
X57105605Y-79212892D01*
X57069147Y-79189501D01*
X57068317Y-79190552D01*
X57051160Y-79177002D01*
X56918120Y-79094996D01*
X56904939Y-79088849D01*
X56756186Y-79039509D01*
X56742810Y-79036642D01*
X56651903Y-79027328D01*
X56646874Y-79027071D01*
X56631876Y-79031475D01*
X56630671Y-79032865D01*
X56629000Y-79040548D01*
X56629000Y-80974885D01*
X56121000Y-80974885D01*
X56121000Y-80282115D01*
X56116525Y-80266876D01*
X56115135Y-80265671D01*
X56107452Y-80264000D01*
X55435115Y-80264000D01*
X55419876Y-80268475D01*
X55418671Y-80269865D01*
X55417000Y-80277548D01*
X55417000Y-80305438D01*
X50800000Y-80305438D01*
X50800000Y-79737885D01*
X55417000Y-79737885D01*
X55421475Y-79753124D01*
X55422865Y-79754329D01*
X55430548Y-79756000D01*
X56102885Y-79756000D01*
X56118124Y-79751525D01*
X56119329Y-79750135D01*
X56121000Y-79742452D01*
X56121000Y-79045115D01*
X56116525Y-79029876D01*
X56115135Y-79028671D01*
X56107452Y-79027000D01*
X56104562Y-79027000D01*
X56098047Y-79027337D01*
X56005943Y-79036894D01*
X55992544Y-79039788D01*
X55843893Y-79089381D01*
X55830714Y-79095555D01*
X55697827Y-79177788D01*
X55686426Y-79186824D01*
X55576014Y-79297429D01*
X55567002Y-79308840D01*
X55484996Y-79441880D01*
X55478849Y-79455061D01*
X55429509Y-79603814D01*
X55426642Y-79617190D01*
X55417328Y-79708097D01*
X55417000Y-79714514D01*
X55417000Y-79737885D01*
X50800000Y-79737885D01*
X50800000Y-76564669D01*
X52501001Y-76564669D01*
X52501371Y-76571490D01*
X52506895Y-76622352D01*
X52510521Y-76637604D01*
X52555676Y-76758054D01*
X52564214Y-76773649D01*
X52640715Y-76875724D01*
X52653276Y-76888285D01*
X52755351Y-76964786D01*
X52770946Y-76973324D01*
X52891394Y-77018478D01*
X52906649Y-77022105D01*
X52957514Y-77027631D01*
X52964328Y-77028000D01*
X53986885Y-77028000D01*
X54002124Y-77023525D01*
X54003329Y-77022135D01*
X54005000Y-77014452D01*
X54005000Y-77009884D01*
X54513000Y-77009884D01*
X54517475Y-77025123D01*
X54518865Y-77026328D01*
X54526548Y-77027999D01*
X55553669Y-77027999D01*
X55560490Y-77027629D01*
X55611352Y-77022105D01*
X55626604Y-77018479D01*
X55747054Y-76973324D01*
X55762649Y-76964786D01*
X55864724Y-76888285D01*
X55877285Y-76875724D01*
X55953786Y-76773649D01*
X55962324Y-76758054D01*
X56007478Y-76637606D01*
X56011105Y-76622351D01*
X56016631Y-76571486D01*
X56017000Y-76564672D01*
X56017000Y-76564669D01*
X58001001Y-76564669D01*
X58001371Y-76571490D01*
X58006895Y-76622352D01*
X58010521Y-76637604D01*
X58055676Y-76758054D01*
X58064214Y-76773649D01*
X58140715Y-76875724D01*
X58153276Y-76888285D01*
X58255351Y-76964786D01*
X58270946Y-76973324D01*
X58391394Y-77018478D01*
X58406649Y-77022105D01*
X58457514Y-77027631D01*
X58464328Y-77028000D01*
X59486885Y-77028000D01*
X59502124Y-77023525D01*
X59503329Y-77022135D01*
X59505000Y-77014452D01*
X59505000Y-77009884D01*
X60013000Y-77009884D01*
X60017475Y-77025123D01*
X60018865Y-77026328D01*
X60026548Y-77027999D01*
X61053669Y-77027999D01*
X61060490Y-77027629D01*
X61111352Y-77022105D01*
X61126604Y-77018479D01*
X61247054Y-76973324D01*
X61262649Y-76964786D01*
X61364724Y-76888285D01*
X61377285Y-76875724D01*
X61453786Y-76773649D01*
X61462324Y-76758054D01*
X61507478Y-76637606D01*
X61511105Y-76622351D01*
X61516631Y-76571486D01*
X61517000Y-76564672D01*
X61517000Y-75792115D01*
X61512525Y-75776876D01*
X61511135Y-75775671D01*
X61503452Y-75774000D01*
X60031115Y-75774000D01*
X60015876Y-75778475D01*
X60014671Y-75779865D01*
X60013000Y-75787548D01*
X60013000Y-77009884D01*
X59505000Y-77009884D01*
X59505000Y-75792115D01*
X59500525Y-75776876D01*
X59499135Y-75775671D01*
X59491452Y-75774000D01*
X58019116Y-75774000D01*
X58003877Y-75778475D01*
X58002672Y-75779865D01*
X58001001Y-75787548D01*
X58001001Y-76564669D01*
X56017000Y-76564669D01*
X56017000Y-75792115D01*
X56012525Y-75776876D01*
X56011135Y-75775671D01*
X56003452Y-75774000D01*
X54531115Y-75774000D01*
X54515876Y-75778475D01*
X54514671Y-75779865D01*
X54513000Y-75787548D01*
X54513000Y-77009884D01*
X54005000Y-77009884D01*
X54005000Y-75792115D01*
X54000525Y-75776876D01*
X53999135Y-75775671D01*
X53991452Y-75774000D01*
X52519116Y-75774000D01*
X52503877Y-75778475D01*
X52502672Y-75779865D01*
X52501001Y-75787548D01*
X52501001Y-76564669D01*
X50800000Y-76564669D01*
X50800000Y-75247885D01*
X52501000Y-75247885D01*
X52505475Y-75263124D01*
X52506865Y-75264329D01*
X52514548Y-75266000D01*
X53986885Y-75266000D01*
X54002124Y-75261525D01*
X54003329Y-75260135D01*
X54005000Y-75252452D01*
X54005000Y-75247885D01*
X54513000Y-75247885D01*
X54517475Y-75263124D01*
X54518865Y-75264329D01*
X54526548Y-75266000D01*
X55998884Y-75266000D01*
X56014123Y-75261525D01*
X56015328Y-75260135D01*
X56016999Y-75252452D01*
X56016999Y-75247885D01*
X58001000Y-75247885D01*
X58005475Y-75263124D01*
X58006865Y-75264329D01*
X58014548Y-75266000D01*
X59486885Y-75266000D01*
X59502124Y-75261525D01*
X59503329Y-75260135D01*
X59505000Y-75252452D01*
X59505000Y-75247885D01*
X60013000Y-75247885D01*
X60017475Y-75263124D01*
X60018865Y-75264329D01*
X60026548Y-75266000D01*
X61498884Y-75266000D01*
X61514123Y-75261525D01*
X61515328Y-75260135D01*
X61516999Y-75252452D01*
X61516999Y-74475331D01*
X61516629Y-74468510D01*
X61511105Y-74417648D01*
X61507479Y-74402396D01*
X61462324Y-74281946D01*
X61453786Y-74266351D01*
X61377285Y-74164276D01*
X61364724Y-74151715D01*
X61262649Y-74075214D01*
X61247054Y-74066676D01*
X61126606Y-74021522D01*
X61111351Y-74017895D01*
X61060486Y-74012369D01*
X61053672Y-74012000D01*
X60031115Y-74012000D01*
X60015876Y-74016475D01*
X60014671Y-74017865D01*
X60013000Y-74025548D01*
X60013000Y-75247885D01*
X59505000Y-75247885D01*
X59505000Y-74030116D01*
X59500525Y-74014877D01*
X59499135Y-74013672D01*
X59491452Y-74012001D01*
X58464331Y-74012001D01*
X58457510Y-74012371D01*
X58406648Y-74017895D01*
X58391396Y-74021521D01*
X58270946Y-74066676D01*
X58255351Y-74075214D01*
X58153276Y-74151715D01*
X58140715Y-74164276D01*
X58064214Y-74266351D01*
X58055676Y-74281946D01*
X58010522Y-74402394D01*
X58006895Y-74417649D01*
X58001369Y-74468514D01*
X58001000Y-74475328D01*
X58001000Y-75247885D01*
X56016999Y-75247885D01*
X56016999Y-74475331D01*
X56016629Y-74468510D01*
X56011105Y-74417648D01*
X56007479Y-74402396D01*
X55962324Y-74281946D01*
X55953786Y-74266351D01*
X55877285Y-74164276D01*
X55864724Y-74151715D01*
X55762649Y-74075214D01*
X55747054Y-74066676D01*
X55626606Y-74021522D01*
X55611351Y-74017895D01*
X55560486Y-74012369D01*
X55553672Y-74012000D01*
X54531115Y-74012000D01*
X54515876Y-74016475D01*
X54514671Y-74017865D01*
X54513000Y-74025548D01*
X54513000Y-75247885D01*
X54005000Y-75247885D01*
X54005000Y-74030116D01*
X54000525Y-74014877D01*
X53999135Y-74013672D01*
X53991452Y-74012001D01*
X52964331Y-74012001D01*
X52957510Y-74012371D01*
X52906648Y-74017895D01*
X52891396Y-74021521D01*
X52770946Y-74066676D01*
X52755351Y-74075214D01*
X52653276Y-74151715D01*
X52640715Y-74164276D01*
X52564214Y-74266351D01*
X52555676Y-74281946D01*
X52510522Y-74402394D01*
X52506895Y-74417649D01*
X52501369Y-74468514D01*
X52501000Y-74475328D01*
X52501000Y-75247885D01*
X50800000Y-75247885D01*
X50800000Y-67764669D01*
X52501001Y-67764669D01*
X52501371Y-67771490D01*
X52506895Y-67822352D01*
X52510521Y-67837604D01*
X52555676Y-67958054D01*
X52564214Y-67973649D01*
X52640715Y-68075724D01*
X52653276Y-68088285D01*
X52755351Y-68164786D01*
X52770946Y-68173324D01*
X52891394Y-68218478D01*
X52906649Y-68222105D01*
X52957514Y-68227631D01*
X52964328Y-68228000D01*
X53986885Y-68228000D01*
X54002124Y-68223525D01*
X54003329Y-68222135D01*
X54005000Y-68214452D01*
X54005000Y-68209884D01*
X54513000Y-68209884D01*
X54517475Y-68225123D01*
X54518865Y-68226328D01*
X54526548Y-68227999D01*
X55553669Y-68227999D01*
X55560490Y-68227629D01*
X55611352Y-68222105D01*
X55626604Y-68218479D01*
X55747054Y-68173324D01*
X55762649Y-68164786D01*
X55864724Y-68088285D01*
X55877285Y-68075724D01*
X55953786Y-67973649D01*
X55962324Y-67958054D01*
X56007478Y-67837606D01*
X56011105Y-67822351D01*
X56016631Y-67771486D01*
X56017000Y-67764672D01*
X56017000Y-67764669D01*
X58001001Y-67764669D01*
X58001371Y-67771490D01*
X58006895Y-67822352D01*
X58010521Y-67837604D01*
X58055676Y-67958054D01*
X58064214Y-67973649D01*
X58140715Y-68075724D01*
X58153276Y-68088285D01*
X58255351Y-68164786D01*
X58270946Y-68173324D01*
X58391394Y-68218478D01*
X58406649Y-68222105D01*
X58457514Y-68227631D01*
X58464328Y-68228000D01*
X59486885Y-68228000D01*
X59502124Y-68223525D01*
X59503329Y-68222135D01*
X59505000Y-68214452D01*
X59505000Y-66992115D01*
X59500525Y-66976876D01*
X59499135Y-66975671D01*
X59491452Y-66974000D01*
X58019116Y-66974000D01*
X58003877Y-66978475D01*
X58002672Y-66979865D01*
X58001001Y-66987548D01*
X58001001Y-67764669D01*
X56017000Y-67764669D01*
X56017000Y-66992115D01*
X56012525Y-66976876D01*
X56011135Y-66975671D01*
X56003452Y-66974000D01*
X54531115Y-66974000D01*
X54515876Y-66978475D01*
X54514671Y-66979865D01*
X54513000Y-66987548D01*
X54513000Y-68209884D01*
X54005000Y-68209884D01*
X54005000Y-66992115D01*
X54000525Y-66976876D01*
X53999135Y-66975671D01*
X53991452Y-66974000D01*
X52519116Y-66974000D01*
X52503877Y-66978475D01*
X52502672Y-66979865D01*
X52501001Y-66987548D01*
X52501001Y-67764669D01*
X50800000Y-67764669D01*
X50800000Y-66447885D01*
X52501000Y-66447885D01*
X52505475Y-66463124D01*
X52506865Y-66464329D01*
X52514548Y-66466000D01*
X53986885Y-66466000D01*
X54002124Y-66461525D01*
X54003329Y-66460135D01*
X54005000Y-66452452D01*
X54005000Y-66447885D01*
X54513000Y-66447885D01*
X54517475Y-66463124D01*
X54518865Y-66464329D01*
X54526548Y-66466000D01*
X55998884Y-66466000D01*
X56014123Y-66461525D01*
X56015328Y-66460135D01*
X56016999Y-66452452D01*
X56016999Y-66447885D01*
X58001000Y-66447885D01*
X58005475Y-66463124D01*
X58006865Y-66464329D01*
X58014548Y-66466000D01*
X59486885Y-66466000D01*
X59502124Y-66461525D01*
X59503329Y-66460135D01*
X59505000Y-66452452D01*
X59505000Y-66447885D01*
X60013000Y-66447885D01*
X60017475Y-66463124D01*
X60018865Y-66464329D01*
X60026548Y-66466000D01*
X61498884Y-66466000D01*
X61514123Y-66461525D01*
X61515328Y-66460135D01*
X61516999Y-66452452D01*
X61516999Y-65675331D01*
X61516629Y-65668510D01*
X61511105Y-65617648D01*
X61507479Y-65602396D01*
X61462324Y-65481946D01*
X61453786Y-65466351D01*
X61377285Y-65364276D01*
X61364724Y-65351715D01*
X61262649Y-65275214D01*
X61247054Y-65266676D01*
X61126606Y-65221522D01*
X61111351Y-65217895D01*
X61060486Y-65212369D01*
X61053672Y-65212000D01*
X60031115Y-65212000D01*
X60015876Y-65216475D01*
X60014671Y-65217865D01*
X60013000Y-65225548D01*
X60013000Y-66447885D01*
X59505000Y-66447885D01*
X59505000Y-65230116D01*
X59500525Y-65214877D01*
X59499135Y-65213672D01*
X59491452Y-65212001D01*
X58464331Y-65212001D01*
X58457510Y-65212371D01*
X58406648Y-65217895D01*
X58391396Y-65221521D01*
X58270946Y-65266676D01*
X58255351Y-65275214D01*
X58153276Y-65351715D01*
X58140715Y-65364276D01*
X58064214Y-65466351D01*
X58055676Y-65481946D01*
X58010522Y-65602394D01*
X58006895Y-65617649D01*
X58001369Y-65668514D01*
X58001000Y-65675328D01*
X58001000Y-66447885D01*
X56016999Y-66447885D01*
X56016999Y-65675331D01*
X56016629Y-65668510D01*
X56011105Y-65617648D01*
X56007479Y-65602396D01*
X55962324Y-65481946D01*
X55953786Y-65466351D01*
X55877285Y-65364276D01*
X55864724Y-65351715D01*
X55762649Y-65275214D01*
X55747054Y-65266676D01*
X55626606Y-65221522D01*
X55611351Y-65217895D01*
X55560486Y-65212369D01*
X55553672Y-65212000D01*
X54531115Y-65212000D01*
X54515876Y-65216475D01*
X54514671Y-65217865D01*
X54513000Y-65225548D01*
X54513000Y-66447885D01*
X54005000Y-66447885D01*
X54005000Y-65230116D01*
X54000525Y-65214877D01*
X53999135Y-65213672D01*
X53991452Y-65212001D01*
X52964331Y-65212001D01*
X52957510Y-65212371D01*
X52906648Y-65217895D01*
X52891396Y-65221521D01*
X52770946Y-65266676D01*
X52755351Y-65275214D01*
X52653276Y-65351715D01*
X52640715Y-65364276D01*
X52564214Y-65466351D01*
X52555676Y-65481946D01*
X52510522Y-65602394D01*
X52506895Y-65617649D01*
X52501369Y-65668514D01*
X52501000Y-65675328D01*
X52501000Y-66447885D01*
X50800000Y-66447885D01*
X50800000Y-58800000D01*
X50820002Y-58731879D01*
X50873658Y-58685386D01*
X50926000Y-58674000D01*
X57471892Y-58674000D01*
X57525142Y-58685805D01*
G37*
%TD.AperFunction*%
%TD*%
M02*
