%TF.GenerationSoftware,KiCad,Pcbnew,(7.0.0)*%
%TF.CreationDate,2023-02-21T15:07:21+01:00*%
%TF.ProjectId,MagicGame,4d616769-6347-4616-9d65-2e6b69636164,1.1*%
%TF.SameCoordinates,Original*%
%TF.FileFunction,Soldermask,Top*%
%TF.FilePolarity,Negative*%
%FSLAX46Y46*%
G04 Gerber Fmt 4.6, Leading zero omitted, Abs format (unit mm)*
G04 Created by KiCad (PCBNEW (7.0.0)) date 2023-02-21 15:07:21*
%MOMM*%
%LPD*%
G01*
G04 APERTURE LIST*
G04 Aperture macros list*
%AMRoundRect*
0 Rectangle with rounded corners*
0 $1 Rounding radius*
0 $2 $3 $4 $5 $6 $7 $8 $9 X,Y pos of 4 corners*
0 Add a 4 corners polygon primitive as box body*
4,1,4,$2,$3,$4,$5,$6,$7,$8,$9,$2,$3,0*
0 Add four circle primitives for the rounded corners*
1,1,$1+$1,$2,$3*
1,1,$1+$1,$4,$5*
1,1,$1+$1,$6,$7*
1,1,$1+$1,$8,$9*
0 Add four rect primitives between the rounded corners*
20,1,$1+$1,$2,$3,$4,$5,0*
20,1,$1+$1,$4,$5,$6,$7,0*
20,1,$1+$1,$6,$7,$8,$9,0*
20,1,$1+$1,$8,$9,$2,$3,0*%
G04 Aperture macros list end*
%ADD10C,3.200000*%
%ADD11O,1.727200X1.727200*%
%ADD12R,1.727200X1.727200*%
%ADD13R,2.600000X1.500000*%
%ADD14RoundRect,0.225000X0.250000X-0.225000X0.250000X0.225000X-0.250000X0.225000X-0.250000X-0.225000X0*%
%ADD15R,1.700000X1.700000*%
%ADD16O,1.700000X1.700000*%
%ADD17R,1.500000X2.600000*%
%ADD18RoundRect,0.250000X-0.312500X-1.450000X0.312500X-1.450000X0.312500X1.450000X-0.312500X1.450000X0*%
%ADD19RoundRect,0.200000X-0.200000X-0.275000X0.200000X-0.275000X0.200000X0.275000X-0.200000X0.275000X0*%
%ADD20RoundRect,0.200000X-0.275000X0.200000X-0.275000X-0.200000X0.275000X-0.200000X0.275000X0.200000X0*%
%ADD21RoundRect,0.250000X0.475000X-0.250000X0.475000X0.250000X-0.475000X0.250000X-0.475000X-0.250000X0*%
%ADD22R,1.550000X1.300000*%
%ADD23RoundRect,0.200000X0.275000X-0.200000X0.275000X0.200000X-0.275000X0.200000X-0.275000X-0.200000X0*%
%ADD24RoundRect,0.200000X0.200000X0.275000X-0.200000X0.275000X-0.200000X-0.275000X0.200000X-0.275000X0*%
%ADD25RoundRect,0.225000X0.225000X0.250000X-0.225000X0.250000X-0.225000X-0.250000X0.225000X-0.250000X0*%
%ADD26R,1.500000X1.050000*%
%ADD27O,1.500000X1.050000*%
%ADD28C,0.900000*%
%ADD29R,2.500000X0.500000*%
%ADD30R,2.500000X2.000000*%
%ADD31RoundRect,0.225000X-0.250000X0.225000X-0.250000X-0.225000X0.250000X-0.225000X0.250000X0.225000X0*%
%ADD32RoundRect,0.250000X-0.475000X0.250000X-0.475000X-0.250000X0.475000X-0.250000X0.475000X0.250000X0*%
%ADD33RoundRect,0.218750X-0.381250X0.218750X-0.381250X-0.218750X0.381250X-0.218750X0.381250X0.218750X0*%
%ADD34RoundRect,0.250000X-0.250000X-0.475000X0.250000X-0.475000X0.250000X0.475000X-0.250000X0.475000X0*%
%ADD35R,1.750000X0.450000*%
%ADD36RoundRect,0.225000X-0.225000X-0.250000X0.225000X-0.250000X0.225000X0.250000X-0.225000X0.250000X0*%
%ADD37R,1.500000X0.600000*%
%ADD38RoundRect,0.218750X0.381250X-0.218750X0.381250X0.218750X-0.381250X0.218750X-0.381250X-0.218750X0*%
%ADD39RoundRect,0.250000X0.250000X0.475000X-0.250000X0.475000X-0.250000X-0.475000X0.250000X-0.475000X0*%
%ADD40C,6.500000*%
%ADD41R,1.500000X3.000000*%
%ADD42O,1.500000X3.000000*%
%ADD43R,2.000000X2.000000*%
G04 APERTURE END LIST*
D10*
%TO.C,XA1*%
X70480000Y-92710000D03*
X122550000Y-97790000D03*
X71750000Y-140970000D03*
X153030000Y-92710000D03*
X122550000Y-125730000D03*
X146680000Y-140970000D03*
D11*
X84449999Y-92709999D03*
X92069999Y-92709999D03*
X94609999Y-92709999D03*
X122676999Y-120649999D03*
X150489999Y-140969999D03*
X153029999Y-140969999D03*
X107309999Y-92709999D03*
X109849999Y-92709999D03*
X112389999Y-92709999D03*
X114929999Y-92709999D03*
X117469999Y-92709999D03*
X120009999Y-92709999D03*
X122549999Y-92709999D03*
X125089999Y-92709999D03*
X130169999Y-92709999D03*
X132709999Y-92709999D03*
X135249999Y-92709999D03*
X137789999Y-92709999D03*
X140329999Y-92709999D03*
X142869999Y-92709999D03*
X145409999Y-92709999D03*
X147949999Y-92709999D03*
X80385999Y-140969999D03*
X120009999Y-140969999D03*
X117469999Y-140969999D03*
X114929999Y-140969999D03*
X112389999Y-140969999D03*
X109849999Y-140969999D03*
X107309999Y-140969999D03*
X104769999Y-140969999D03*
X102229999Y-140969999D03*
X98165999Y-140969999D03*
X95625999Y-140969999D03*
X93085999Y-140969999D03*
X90545999Y-140969999D03*
X88005999Y-140969999D03*
X85465999Y-140969999D03*
X125089999Y-140969999D03*
X127629999Y-140969999D03*
X130169999Y-140969999D03*
X132709999Y-140969999D03*
X135249999Y-140969999D03*
X137789999Y-140969999D03*
X140329999Y-140969999D03*
X142869999Y-140969999D03*
X150489999Y-138429999D03*
X153029999Y-138429999D03*
X150489999Y-135889999D03*
X153029999Y-135889999D03*
X150489999Y-133349999D03*
X153029999Y-133349999D03*
X150489999Y-130809999D03*
X153029999Y-130809999D03*
X150489999Y-128269999D03*
X153029999Y-128269999D03*
X150489999Y-125729999D03*
X153029999Y-125729999D03*
X150489999Y-123189999D03*
X153029999Y-123189999D03*
X150489999Y-120649999D03*
X153029999Y-120649999D03*
X150489999Y-118109999D03*
X153029999Y-118109999D03*
X150489999Y-115569999D03*
X153029999Y-115569999D03*
X150489999Y-113029999D03*
X153029999Y-113029999D03*
X150489999Y-110489999D03*
X153029999Y-110489999D03*
X150489999Y-107949999D03*
X153029999Y-107949999D03*
X150489999Y-105409999D03*
X153029999Y-105409999D03*
X150489999Y-102869999D03*
X153029999Y-102869999D03*
X150489999Y-100329999D03*
X153029999Y-100329999D03*
D12*
X82925999Y-140969999D03*
X97149999Y-92709999D03*
X99689999Y-92709999D03*
X122676999Y-115569999D03*
X150489999Y-97789999D03*
X153029999Y-97789999D03*
D11*
X86989999Y-92709999D03*
X120136999Y-120649999D03*
X122676999Y-118109999D03*
X89529999Y-92709999D03*
X120136999Y-115569999D03*
X120136999Y-118109999D03*
X75305999Y-140969999D03*
X77845999Y-140969999D03*
X102229999Y-92709999D03*
%TD*%
D13*
%TO.C,D8*%
X238759999Y-118339999D03*
X238759999Y-115339999D03*
%TD*%
D14*
%TO.C,C4*%
X86360000Y-77229000D03*
X86360000Y-75679000D03*
%TD*%
D15*
%TO.C,J2*%
X167639999Y-134619999D03*
D16*
X167639999Y-137159999D03*
X167639999Y-139699999D03*
X167639999Y-142239999D03*
%TD*%
D17*
%TO.C,D21*%
X186459999Y-86359999D03*
X189459999Y-86359999D03*
%TD*%
D13*
%TO.C,D7*%
X233679999Y-118339999D03*
X233679999Y-115339999D03*
%TD*%
D18*
%TO.C,F1*%
X63648500Y-61976000D03*
X67923500Y-61976000D03*
%TD*%
D10*
%TO.C,JOY_H2*%
X220715000Y-139700000D03*
%TD*%
D15*
%TO.C,J9*%
X242569999Y-147319999D03*
D16*
X242569999Y-149859999D03*
%TD*%
D19*
%TO.C,R36*%
X182055000Y-124460000D03*
X183705000Y-124460000D03*
%TD*%
D20*
%TO.C,R34*%
X218440000Y-90615000D03*
X218440000Y-92265000D03*
%TD*%
D13*
%TO.C,D5*%
X243839999Y-85319999D03*
X243839999Y-82319999D03*
%TD*%
D21*
%TO.C,C3*%
X88392000Y-77404000D03*
X88392000Y-75504000D03*
%TD*%
D15*
%TO.C,J11*%
X228599999Y-53339999D03*
D16*
X228599999Y-55879999D03*
%TD*%
D22*
%TO.C,SW6*%
X217004999Y-72679999D03*
X224954999Y-72679999D03*
X217004999Y-77179999D03*
X224954999Y-77179999D03*
%TD*%
D23*
%TO.C,R4*%
X88646000Y-67881000D03*
X88646000Y-66231000D03*
%TD*%
%TO.C,R21*%
X248920000Y-89725000D03*
X248920000Y-88075000D03*
%TD*%
D15*
%TO.C,J12*%
X228599999Y-63499999D03*
D16*
X228599999Y-66039999D03*
%TD*%
D17*
%TO.C,D25*%
X186459999Y-106679999D03*
X189459999Y-106679999D03*
%TD*%
D21*
%TO.C,C24*%
X151638000Y-87818000D03*
X151638000Y-85918000D03*
%TD*%
D23*
%TO.C,R18*%
X233680000Y-89725000D03*
X233680000Y-88075000D03*
%TD*%
D24*
%TO.C,R51*%
X242125000Y-55880000D03*
X240475000Y-55880000D03*
%TD*%
D25*
%TO.C,C20*%
X134887000Y-84328000D03*
X133337000Y-84328000D03*
%TD*%
D21*
%TO.C,C13*%
X89154000Y-54036000D03*
X89154000Y-52136000D03*
%TD*%
D13*
%TO.C,D17*%
X218439999Y-95019999D03*
X218439999Y-98019999D03*
%TD*%
D26*
%TO.C,Q1*%
X145139999Y-87629999D03*
D27*
X145139999Y-86359999D03*
X145139999Y-85089999D03*
%TD*%
D19*
%TO.C,R42*%
X182055000Y-106680000D03*
X183705000Y-106680000D03*
%TD*%
D10*
%TO.C,H1*%
X53340000Y-149860000D03*
%TD*%
D24*
%TO.C,R53*%
X242125000Y-50800000D03*
X240475000Y-50800000D03*
%TD*%
%TO.C,R43*%
X242125000Y-76200000D03*
X240475000Y-76200000D03*
%TD*%
D10*
%TO.C,H4*%
X251460000Y-30480000D03*
%TD*%
D19*
%TO.C,R40*%
X182055000Y-96520000D03*
X183705000Y-96520000D03*
%TD*%
D24*
%TO.C,R48*%
X242125000Y-63500000D03*
X240475000Y-63500000D03*
%TD*%
D15*
%TO.C,J8*%
X228599999Y-33019999D03*
D16*
X228599999Y-35559999D03*
%TD*%
D21*
%TO.C,C9*%
X173736000Y-123190000D03*
X173736000Y-121290000D03*
%TD*%
D24*
%TO.C,R69*%
X131127000Y-84328000D03*
X129477000Y-84328000D03*
%TD*%
D10*
%TO.C,JOY_H4*%
X200915000Y-113700000D03*
%TD*%
D17*
%TO.C,D24*%
X186459999Y-101599999D03*
X189459999Y-101599999D03*
%TD*%
D23*
%TO.C,R59*%
X228600000Y-150685000D03*
X228600000Y-149035000D03*
%TD*%
D13*
%TO.C,D4*%
X238759999Y-85319999D03*
X238759999Y-82319999D03*
%TD*%
D28*
%TO.C,J1*%
X55880000Y-68920000D03*
X55880000Y-73320000D03*
D29*
X58479999Y-69519999D03*
X58479999Y-70319999D03*
X58479999Y-71119999D03*
X58479999Y-71919999D03*
X58479999Y-72719999D03*
D30*
X58479999Y-66719999D03*
X52979999Y-66719999D03*
X58479999Y-75519999D03*
X52979999Y-75519999D03*
%TD*%
D31*
%TO.C,C29*%
X165354000Y-109715000D03*
X165354000Y-111265000D03*
%TD*%
D17*
%TO.C,D18*%
X186459999Y-132079999D03*
X189459999Y-132079999D03*
%TD*%
D24*
%TO.C,R56*%
X242125000Y-43180000D03*
X240475000Y-43180000D03*
%TD*%
D17*
%TO.C,D12*%
X166139999Y-96519999D03*
X169139999Y-96519999D03*
%TD*%
D20*
%TO.C,R65*%
X137160000Y-86551000D03*
X137160000Y-88201000D03*
%TD*%
D23*
%TO.C,R66*%
X137160000Y-84645000D03*
X137160000Y-82995000D03*
%TD*%
D32*
%TO.C,C26*%
X170434000Y-109540000D03*
X170434000Y-111440000D03*
%TD*%
D13*
%TO.C,D6*%
X248919999Y-85319999D03*
X248919999Y-82319999D03*
%TD*%
D10*
%TO.C,JOY_H3*%
X220715000Y-113700000D03*
%TD*%
D24*
%TO.C,R14*%
X163385000Y-137160000D03*
X161735000Y-137160000D03*
%TD*%
D15*
%TO.C,J13*%
X228599999Y-73659999D03*
D16*
X228599999Y-76199999D03*
%TD*%
D23*
%TO.C,R16*%
X210820000Y-137985000D03*
X210820000Y-136335000D03*
%TD*%
D33*
%TO.C,L1*%
X64008000Y-73105500D03*
X64008000Y-75230500D03*
%TD*%
D24*
%TO.C,R13*%
X163385000Y-139700000D03*
X161735000Y-139700000D03*
%TD*%
D23*
%TO.C,R19*%
X238760000Y-89725000D03*
X238760000Y-88075000D03*
%TD*%
D15*
%TO.C,J16*%
X165099999Y-114299999D03*
D16*
X167639999Y-114299999D03*
%TD*%
D34*
%TO.C,C25*%
X74234000Y-56134000D03*
X76134000Y-56134000D03*
%TD*%
D35*
%TO.C,U1*%
X77679999Y-61814999D03*
X77679999Y-62464999D03*
X77679999Y-63114999D03*
X77679999Y-63764999D03*
X77679999Y-64414999D03*
X77679999Y-65064999D03*
X77679999Y-65714999D03*
X77679999Y-66364999D03*
X77679999Y-67014999D03*
X77679999Y-67664999D03*
X77679999Y-68314999D03*
X77679999Y-68964999D03*
X77679999Y-69614999D03*
X77679999Y-70264999D03*
X84879999Y-70264999D03*
X84879999Y-69614999D03*
X84879999Y-68964999D03*
X84879999Y-68314999D03*
X84879999Y-67664999D03*
X84879999Y-67014999D03*
X84879999Y-66364999D03*
X84879999Y-65714999D03*
X84879999Y-65064999D03*
X84879999Y-64414999D03*
X84879999Y-63764999D03*
X84879999Y-63114999D03*
X84879999Y-62464999D03*
X84879999Y-61814999D03*
%TD*%
D23*
%TO.C,RV1*%
X66548000Y-69913000D03*
X66548000Y-68263000D03*
%TD*%
D24*
%TO.C,R50*%
X242125000Y-58420000D03*
X240475000Y-58420000D03*
%TD*%
D17*
%TO.C,D19*%
X186459999Y-124459999D03*
X189459999Y-124459999D03*
%TD*%
D20*
%TO.C,R8*%
X78740000Y-75375000D03*
X78740000Y-77025000D03*
%TD*%
D34*
%TO.C,C15*%
X237810000Y-109220000D03*
X239710000Y-109220000D03*
%TD*%
D23*
%TO.C,R27*%
X205740000Y-137985000D03*
X205740000Y-136335000D03*
%TD*%
D36*
%TO.C,C8*%
X73393000Y-64008000D03*
X74943000Y-64008000D03*
%TD*%
D22*
%TO.C,SW3*%
X217004999Y-42199999D03*
X224954999Y-42199999D03*
X217004999Y-46699999D03*
X224954999Y-46699999D03*
%TD*%
D23*
%TO.C,R15*%
X213360000Y-137985000D03*
X213360000Y-136335000D03*
%TD*%
D32*
%TO.C,C5*%
X72136000Y-56200000D03*
X72136000Y-58100000D03*
%TD*%
D36*
%TO.C,C21*%
X129514000Y-86360000D03*
X131064000Y-86360000D03*
%TD*%
D37*
%TO.C,U2*%
X235209999Y-94614999D03*
X235209999Y-95884999D03*
X235209999Y-97154999D03*
X235209999Y-98424999D03*
X235209999Y-99694999D03*
X235209999Y-100964999D03*
X235209999Y-102234999D03*
X235209999Y-103504999D03*
X242309999Y-103504999D03*
X242309999Y-102234999D03*
X242309999Y-100964999D03*
X242309999Y-99694999D03*
X242309999Y-98424999D03*
X242309999Y-97154999D03*
X242309999Y-95884999D03*
X242309999Y-94614999D03*
%TD*%
D31*
%TO.C,C6*%
X69598000Y-56375000D03*
X69598000Y-57925000D03*
%TD*%
D34*
%TO.C,C23*%
X129352000Y-88646000D03*
X131252000Y-88646000D03*
%TD*%
D17*
%TO.C,D11*%
X166139999Y-91439999D03*
X169139999Y-91439999D03*
%TD*%
D20*
%TO.C,R9*%
X81280000Y-75375000D03*
X81280000Y-77025000D03*
%TD*%
D10*
%TO.C,H5*%
X152400000Y-30480000D03*
%TD*%
D13*
%TO.C,D3*%
X233679999Y-85394999D03*
X233679999Y-82394999D03*
%TD*%
D23*
%TO.C,R26*%
X208280000Y-137985000D03*
X208280000Y-136335000D03*
%TD*%
D19*
%TO.C,R1*%
X56310000Y-85090000D03*
X57960000Y-85090000D03*
%TD*%
D20*
%TO.C,R67*%
X139954000Y-86551000D03*
X139954000Y-88201000D03*
%TD*%
D13*
%TO.C,D15*%
X203199999Y-95019999D03*
X203199999Y-98019999D03*
%TD*%
D19*
%TO.C,R38*%
X182055000Y-86360000D03*
X183705000Y-86360000D03*
%TD*%
D36*
%TO.C,C14*%
X237985000Y-106680000D03*
X239535000Y-106680000D03*
%TD*%
D19*
%TO.C,R39*%
X182055000Y-91440000D03*
X183705000Y-91440000D03*
%TD*%
D15*
%TO.C,J14*%
X165099999Y-124459999D03*
D16*
X167639999Y-124459999D03*
X165099999Y-126999999D03*
X167639999Y-126999999D03*
%TD*%
D19*
%TO.C,R31*%
X161735000Y-106680000D03*
X163385000Y-106680000D03*
%TD*%
D23*
%TO.C,R25*%
X248920000Y-122745000D03*
X248920000Y-121095000D03*
%TD*%
%TO.C,R23*%
X238760000Y-122745000D03*
X238760000Y-121095000D03*
%TD*%
D36*
%TO.C,C16*%
X237985000Y-139700000D03*
X239535000Y-139700000D03*
%TD*%
D24*
%TO.C,R10*%
X78803000Y-78994000D03*
X77153000Y-78994000D03*
%TD*%
D10*
%TO.C,H2*%
X152400000Y-149860000D03*
%TD*%
D17*
%TO.C,D2*%
X82827999Y-82041999D03*
X85827999Y-82041999D03*
%TD*%
D20*
%TO.C,R63*%
X214630000Y-76645000D03*
X214630000Y-78295000D03*
%TD*%
D10*
%TO.C,JOY_H1*%
X200915000Y-139700000D03*
%TD*%
D13*
%TO.C,D9*%
X243839999Y-118339999D03*
X243839999Y-115339999D03*
%TD*%
D20*
%TO.C,R33*%
X210820000Y-90615000D03*
X210820000Y-92265000D03*
%TD*%
D13*
%TO.C,D16*%
X210819999Y-95019999D03*
X210819999Y-98019999D03*
%TD*%
D15*
%TO.C,J7*%
X248919999Y-76199999D03*
D16*
X246379999Y-76199999D03*
X248919999Y-73659999D03*
X246379999Y-73659999D03*
X248919999Y-71119999D03*
X246379999Y-71119999D03*
X248919999Y-68579999D03*
X246379999Y-68579999D03*
X248919999Y-66039999D03*
X246379999Y-66039999D03*
X248919999Y-63499999D03*
X246379999Y-63499999D03*
X248919999Y-60959999D03*
X246379999Y-60959999D03*
X248919999Y-58419999D03*
X246379999Y-58419999D03*
X248919999Y-55879999D03*
X246379999Y-55879999D03*
X248919999Y-53339999D03*
X246379999Y-53339999D03*
X248919999Y-50799999D03*
X246379999Y-50799999D03*
X248919999Y-48259999D03*
X246379999Y-48259999D03*
X248919999Y-45719999D03*
X246379999Y-45719999D03*
X248919999Y-43179999D03*
X246379999Y-43179999D03*
X248919999Y-40639999D03*
X246379999Y-40639999D03*
%TD*%
D17*
%TO.C,D23*%
X186459999Y-96519999D03*
X189459999Y-96519999D03*
%TD*%
D36*
%TO.C,C27*%
X74409000Y-58420000D03*
X75959000Y-58420000D03*
%TD*%
%TO.C,C2*%
X56375000Y-82550000D03*
X57925000Y-82550000D03*
%TD*%
D20*
%TO.C,R60*%
X214630000Y-47435000D03*
X214630000Y-49085000D03*
%TD*%
D17*
%TO.C,D20*%
X186459999Y-116839999D03*
X189459999Y-116839999D03*
%TD*%
D23*
%TO.C,R68*%
X139954000Y-84645000D03*
X139954000Y-82995000D03*
%TD*%
D19*
%TO.C,R29*%
X161735000Y-96520000D03*
X163385000Y-96520000D03*
%TD*%
D23*
%TO.C,R22*%
X233680000Y-122745000D03*
X233680000Y-121095000D03*
%TD*%
D24*
%TO.C,R49*%
X242125000Y-60960000D03*
X240475000Y-60960000D03*
%TD*%
D22*
%TO.C,SW1*%
X217004999Y-32039999D03*
X224954999Y-32039999D03*
X217004999Y-36539999D03*
X224954999Y-36539999D03*
%TD*%
D34*
%TO.C,C17*%
X237810000Y-142240000D03*
X239710000Y-142240000D03*
%TD*%
D14*
%TO.C,C12*%
X86868000Y-53848000D03*
X86868000Y-52298000D03*
%TD*%
D13*
%TO.C,D10*%
X248919999Y-118339999D03*
X248919999Y-115339999D03*
%TD*%
D19*
%TO.C,R2*%
X68517000Y-71882000D03*
X70167000Y-71882000D03*
%TD*%
D23*
%TO.C,R24*%
X243840000Y-122745000D03*
X243840000Y-121095000D03*
%TD*%
D20*
%TO.C,R58*%
X214630000Y-37275000D03*
X214630000Y-38925000D03*
%TD*%
D24*
%TO.C,R57*%
X242125000Y-40640000D03*
X240475000Y-40640000D03*
%TD*%
D15*
%TO.C,J4*%
X248919999Y-104139999D03*
D16*
X248919999Y-101599999D03*
X248919999Y-99059999D03*
X248919999Y-96519999D03*
X248919999Y-93979999D03*
%TD*%
D38*
%TO.C,L2*%
X71934000Y-62022500D03*
X71934000Y-59897500D03*
%TD*%
D15*
%TO.C,J17*%
X165099999Y-119379999D03*
D16*
X167639999Y-119379999D03*
%TD*%
D17*
%TO.C,D22*%
X186459999Y-91439999D03*
X189459999Y-91439999D03*
%TD*%
D14*
%TO.C,C10*%
X171704000Y-122949000D03*
X171704000Y-121399000D03*
%TD*%
D24*
%TO.C,R47*%
X242125000Y-66040000D03*
X240475000Y-66040000D03*
%TD*%
%TO.C,R52*%
X242125000Y-53340000D03*
X240475000Y-53340000D03*
%TD*%
D19*
%TO.C,R37*%
X182055000Y-116840000D03*
X183705000Y-116840000D03*
%TD*%
D24*
%TO.C,R45*%
X242125000Y-71120000D03*
X240475000Y-71120000D03*
%TD*%
D15*
%TO.C,J3*%
X81279999Y-50799999D03*
D16*
X83819999Y-50799999D03*
X81279999Y-53339999D03*
X83819999Y-53339999D03*
X81279999Y-55879999D03*
X83819999Y-55879999D03*
%TD*%
D20*
%TO.C,R32*%
X203200000Y-90615000D03*
X203200000Y-92265000D03*
%TD*%
D17*
%TO.C,D1*%
X77191999Y-82041999D03*
X74191999Y-82041999D03*
%TD*%
D24*
%TO.C,R55*%
X242125000Y-45720000D03*
X240475000Y-45720000D03*
%TD*%
D20*
%TO.C,R70*%
X153924000Y-86043000D03*
X153924000Y-87693000D03*
%TD*%
%TO.C,R62*%
X214630000Y-67755000D03*
X214630000Y-69405000D03*
%TD*%
D19*
%TO.C,R11*%
X81154000Y-78994000D03*
X82804000Y-78994000D03*
%TD*%
D20*
%TO.C,R61*%
X214630000Y-57595000D03*
X214630000Y-59245000D03*
%TD*%
D15*
%TO.C,J15*%
X53339999Y-40639999D03*
D16*
X55879999Y-40639999D03*
X53339999Y-43179999D03*
X55879999Y-43179999D03*
%TD*%
D24*
%TO.C,R44*%
X242125000Y-73660000D03*
X240475000Y-73660000D03*
%TD*%
D23*
%TO.C,R20*%
X243840000Y-89725000D03*
X243840000Y-88075000D03*
%TD*%
D20*
%TO.C,RV2*%
X66548000Y-71819000D03*
X66548000Y-73469000D03*
%TD*%
D22*
%TO.C,SW5*%
X217004999Y-62519999D03*
X224954999Y-62519999D03*
X217004999Y-67019999D03*
X224954999Y-67019999D03*
%TD*%
D36*
%TO.C,C1*%
X56375000Y-80010000D03*
X57925000Y-80010000D03*
%TD*%
D14*
%TO.C,C11*%
X162306000Y-123203000D03*
X162306000Y-121653000D03*
%TD*%
D24*
%TO.C,R46*%
X242125000Y-68580000D03*
X240475000Y-68580000D03*
%TD*%
D19*
%TO.C,R41*%
X182055000Y-101600000D03*
X183705000Y-101600000D03*
%TD*%
%TO.C,R30*%
X161735000Y-101600000D03*
X163385000Y-101600000D03*
%TD*%
D37*
%TO.C,U3*%
X235209999Y-127634999D03*
X235209999Y-128904999D03*
X235209999Y-130174999D03*
X235209999Y-131444999D03*
X235209999Y-132714999D03*
X235209999Y-133984999D03*
X235209999Y-135254999D03*
X235209999Y-136524999D03*
X242309999Y-136524999D03*
X242309999Y-135254999D03*
X242309999Y-133984999D03*
X242309999Y-132714999D03*
X242309999Y-131444999D03*
X242309999Y-130174999D03*
X242309999Y-128904999D03*
X242309999Y-127634999D03*
%TD*%
D39*
%TO.C,C19*%
X135062000Y-86614000D03*
X133162000Y-86614000D03*
%TD*%
D17*
%TO.C,D14*%
X166139999Y-106679999D03*
X169139999Y-106679999D03*
%TD*%
D40*
%TO.C,U4*%
X209120000Y-77740000D03*
X209120000Y-40740000D03*
X94120000Y-77740000D03*
X94120000Y-40740000D03*
D41*
X134619999Y-78739999D03*
D42*
X132079999Y-78739999D03*
X129539999Y-78739999D03*
X126999999Y-78739999D03*
X124459999Y-78739999D03*
X121919999Y-78739999D03*
X119379999Y-78739999D03*
X116839999Y-78739999D03*
X114299999Y-78739999D03*
X111759999Y-78739999D03*
X109219999Y-78739999D03*
X106679999Y-78739999D03*
X104139999Y-78739999D03*
X101599999Y-78739999D03*
X137159999Y-78739999D03*
X139699999Y-78739999D03*
D43*
X210119999Y-64739999D03*
X210119999Y-53739999D03*
X210119999Y-60739999D03*
X210119999Y-49739999D03*
%TD*%
D24*
%TO.C,R12*%
X163385000Y-142240000D03*
X161735000Y-142240000D03*
%TD*%
D36*
%TO.C,C18*%
X206235000Y-134620000D03*
X207785000Y-134620000D03*
%TD*%
D34*
%TO.C,C7*%
X72964000Y-66040000D03*
X74864000Y-66040000D03*
%TD*%
D24*
%TO.C,R54*%
X242125000Y-48260000D03*
X240475000Y-48260000D03*
%TD*%
%TO.C,R6*%
X77025000Y-73660000D03*
X75375000Y-73660000D03*
%TD*%
D15*
%TO.C,JP1*%
X55879999Y-55879999D03*
D16*
X55879999Y-53339999D03*
X55879999Y-50799999D03*
%TD*%
D19*
%TO.C,R35*%
X182055000Y-132080000D03*
X183705000Y-132080000D03*
%TD*%
%TO.C,R28*%
X161735000Y-91440000D03*
X163385000Y-91440000D03*
%TD*%
D10*
%TO.C,H6*%
X53340000Y-30480000D03*
%TD*%
D17*
%TO.C,D13*%
X166139999Y-101599999D03*
X169139999Y-101599999D03*
%TD*%
D22*
%TO.C,SW4*%
X217004999Y-52359999D03*
X224954999Y-52359999D03*
X217004999Y-56859999D03*
X224954999Y-56859999D03*
%TD*%
%TO.C,SW2*%
X230744999Y-146339999D03*
X238694999Y-146339999D03*
X230744999Y-150839999D03*
X238694999Y-150839999D03*
%TD*%
D15*
%TO.C,J5*%
X248919999Y-137159999D03*
D16*
X248919999Y-134619999D03*
X248919999Y-132079999D03*
X248919999Y-129539999D03*
X248919999Y-126999999D03*
%TD*%
D14*
%TO.C,C22*%
X149352000Y-87643000D03*
X149352000Y-86093000D03*
%TD*%
D19*
%TO.C,R7*%
X82995000Y-73660000D03*
X84645000Y-73660000D03*
%TD*%
%TO.C,R3*%
X68517000Y-70104000D03*
X70167000Y-70104000D03*
%TD*%
D15*
%TO.C,J10*%
X228599999Y-43179999D03*
D16*
X228599999Y-45719999D03*
%TD*%
D23*
%TO.C,R5*%
X88646000Y-71183000D03*
X88646000Y-69533000D03*
%TD*%
D15*
%TO.C,J6*%
X205739999Y-142239999D03*
D16*
X208279999Y-142239999D03*
X210819999Y-142239999D03*
X213359999Y-142239999D03*
X215899999Y-142239999D03*
%TD*%
D31*
%TO.C,C28*%
X167386000Y-109715000D03*
X167386000Y-111265000D03*
%TD*%
D23*
%TO.C,R17*%
X215900000Y-137985000D03*
X215900000Y-136335000D03*
%TD*%
D10*
%TO.C,H3*%
X251460000Y-149860000D03*
%TD*%
D23*
%TO.C,R64*%
X124968000Y-85915000D03*
X124968000Y-84265000D03*
%TD*%
M02*
