%TF.GenerationSoftware,KiCad,Pcbnew,(7.0.0)*%
%TF.CreationDate,2023-02-21T15:07:21+01:00*%
%TF.ProjectId,MagicGame,4d616769-6347-4616-9d65-2e6b69636164,1.1*%
%TF.SameCoordinates,Original*%
%TF.FileFunction,Legend,Bot*%
%TF.FilePolarity,Positive*%
%FSLAX46Y46*%
G04 Gerber Fmt 4.6, Leading zero omitted, Abs format (unit mm)*
G04 Created by KiCad (PCBNEW (7.0.0)) date 2023-02-21 15:07:21*
%MOMM*%
%LPD*%
G01*
G04 APERTURE LIST*
%ADD10C,0.150000*%
%ADD11C,0.075000*%
G04 APERTURE END LIST*
D10*
%TO.C,XA1*%
X118993999Y-122446142D02*
X118946380Y-122493761D01*
X118946380Y-122493761D02*
X118993999Y-122541380D01*
X118993999Y-122541380D02*
X119041618Y-122493761D01*
X119041618Y-122493761D02*
X118993999Y-122446142D01*
X118993999Y-122446142D02*
X118993999Y-122541380D01*
D11*
X119640952Y-138881309D02*
X119640952Y-139381309D01*
X119640952Y-139381309D02*
X119760000Y-139381309D01*
X119760000Y-139381309D02*
X119831428Y-139357500D01*
X119831428Y-139357500D02*
X119879047Y-139309880D01*
X119879047Y-139309880D02*
X119902857Y-139262261D01*
X119902857Y-139262261D02*
X119926666Y-139167023D01*
X119926666Y-139167023D02*
X119926666Y-139095595D01*
X119926666Y-139095595D02*
X119902857Y-139000357D01*
X119902857Y-139000357D02*
X119879047Y-138952738D01*
X119879047Y-138952738D02*
X119831428Y-138905119D01*
X119831428Y-138905119D02*
X119760000Y-138881309D01*
X119760000Y-138881309D02*
X119640952Y-138881309D01*
X120236190Y-139381309D02*
X120283809Y-139381309D01*
X120283809Y-139381309D02*
X120331428Y-139357500D01*
X120331428Y-139357500D02*
X120355238Y-139333690D01*
X120355238Y-139333690D02*
X120379047Y-139286071D01*
X120379047Y-139286071D02*
X120402857Y-139190833D01*
X120402857Y-139190833D02*
X120402857Y-139071785D01*
X120402857Y-139071785D02*
X120379047Y-138976547D01*
X120379047Y-138976547D02*
X120355238Y-138928928D01*
X120355238Y-138928928D02*
X120331428Y-138905119D01*
X120331428Y-138905119D02*
X120283809Y-138881309D01*
X120283809Y-138881309D02*
X120236190Y-138881309D01*
X120236190Y-138881309D02*
X120188571Y-138905119D01*
X120188571Y-138905119D02*
X120164762Y-138928928D01*
X120164762Y-138928928D02*
X120140952Y-138976547D01*
X120140952Y-138976547D02*
X120117143Y-139071785D01*
X120117143Y-139071785D02*
X120117143Y-139190833D01*
X120117143Y-139190833D02*
X120140952Y-139286071D01*
X120140952Y-139286071D02*
X120164762Y-139333690D01*
X120164762Y-139333690D02*
X120188571Y-139357500D01*
X120188571Y-139357500D02*
X120236190Y-139381309D01*
%TD*%
M02*
