%TF.GenerationSoftware,KiCad,Pcbnew,(6.0.10)*%
%TF.CreationDate,2023-01-27T16:31:28+01:00*%
%TF.ProjectId,MagicGame,4d616769-6347-4616-9d65-2e6b69636164,1.0*%
%TF.SameCoordinates,Original*%
%TF.FileFunction,Soldermask,Top*%
%TF.FilePolarity,Negative*%
%FSLAX46Y46*%
G04 Gerber Fmt 4.6, Leading zero omitted, Abs format (unit mm)*
G04 Created by KiCad (PCBNEW (6.0.10)) date 2023-01-27 16:31:28*
%MOMM*%
%LPD*%
G01*
G04 APERTURE LIST*
G04 Aperture macros list*
%AMRoundRect*
0 Rectangle with rounded corners*
0 $1 Rounding radius*
0 $2 $3 $4 $5 $6 $7 $8 $9 X,Y pos of 4 corners*
0 Add a 4 corners polygon primitive as box body*
4,1,4,$2,$3,$4,$5,$6,$7,$8,$9,$2,$3,0*
0 Add four circle primitives for the rounded corners*
1,1,$1+$1,$2,$3*
1,1,$1+$1,$4,$5*
1,1,$1+$1,$6,$7*
1,1,$1+$1,$8,$9*
0 Add four rect primitives between the rounded corners*
20,1,$1+$1,$2,$3,$4,$5,0*
20,1,$1+$1,$4,$5,$6,$7,0*
20,1,$1+$1,$6,$7,$8,$9,0*
20,1,$1+$1,$8,$9,$2,$3,0*%
G04 Aperture macros list end*
%ADD10R,2.600000X1.500000*%
%ADD11RoundRect,0.225000X0.250000X-0.225000X0.250000X0.225000X-0.250000X0.225000X-0.250000X-0.225000X0*%
%ADD12R,1.700000X1.700000*%
%ADD13O,1.700000X1.700000*%
%ADD14R,1.500000X2.600000*%
%ADD15RoundRect,0.250000X-0.312500X-1.450000X0.312500X-1.450000X0.312500X1.450000X-0.312500X1.450000X0*%
%ADD16C,3.200000*%
%ADD17RoundRect,0.200000X-0.200000X-0.275000X0.200000X-0.275000X0.200000X0.275000X-0.200000X0.275000X0*%
%ADD18RoundRect,0.200000X-0.275000X0.200000X-0.275000X-0.200000X0.275000X-0.200000X0.275000X0.200000X0*%
%ADD19RoundRect,0.250000X0.475000X-0.250000X0.475000X0.250000X-0.475000X0.250000X-0.475000X-0.250000X0*%
%ADD20R,1.550000X1.300000*%
%ADD21RoundRect,0.200000X0.275000X-0.200000X0.275000X0.200000X-0.275000X0.200000X-0.275000X-0.200000X0*%
%ADD22RoundRect,0.200000X0.200000X0.275000X-0.200000X0.275000X-0.200000X-0.275000X0.200000X-0.275000X0*%
%ADD23RoundRect,0.225000X0.225000X0.250000X-0.225000X0.250000X-0.225000X-0.250000X0.225000X-0.250000X0*%
%ADD24R,1.500000X1.050000*%
%ADD25O,1.500000X1.050000*%
%ADD26C,0.900000*%
%ADD27R,2.500000X0.500000*%
%ADD28R,2.500000X2.000000*%
%ADD29RoundRect,0.225000X-0.250000X0.225000X-0.250000X-0.225000X0.250000X-0.225000X0.250000X0.225000X0*%
%ADD30RoundRect,0.250000X-0.475000X0.250000X-0.475000X-0.250000X0.475000X-0.250000X0.475000X0.250000X0*%
%ADD31RoundRect,0.218750X-0.381250X0.218750X-0.381250X-0.218750X0.381250X-0.218750X0.381250X0.218750X0*%
%ADD32RoundRect,0.250000X-0.250000X-0.475000X0.250000X-0.475000X0.250000X0.475000X-0.250000X0.475000X0*%
%ADD33R,1.750000X0.450000*%
%ADD34RoundRect,0.225000X-0.225000X-0.250000X0.225000X-0.250000X0.225000X0.250000X-0.225000X0.250000X0*%
%ADD35R,1.500000X0.600000*%
%ADD36RoundRect,0.218750X0.381250X-0.218750X0.381250X0.218750X-0.381250X0.218750X-0.381250X-0.218750X0*%
%ADD37RoundRect,0.250000X0.250000X0.475000X-0.250000X0.475000X-0.250000X-0.475000X0.250000X-0.475000X0*%
%ADD38C,6.500000*%
%ADD39R,1.500000X3.000000*%
%ADD40O,1.500000X3.000000*%
%ADD41R,2.000000X2.000000*%
%ADD42O,1.727200X1.727200*%
%ADD43R,1.727200X1.727200*%
G04 APERTURE END LIST*
D10*
%TO.C,D8*%
X238760000Y-118340000D03*
X238760000Y-115340000D03*
%TD*%
D11*
%TO.C,C4*%
X86360000Y-77229000D03*
X86360000Y-75679000D03*
%TD*%
D12*
%TO.C,J2*%
X167640000Y-134620000D03*
D13*
X167640000Y-137160000D03*
X167640000Y-139700000D03*
X167640000Y-142240000D03*
%TD*%
D14*
%TO.C,D21*%
X186460000Y-86360000D03*
X189460000Y-86360000D03*
%TD*%
D10*
%TO.C,D7*%
X233680000Y-118340000D03*
X233680000Y-115340000D03*
%TD*%
D15*
%TO.C,F1*%
X63648500Y-61976000D03*
X67923500Y-61976000D03*
%TD*%
D16*
%TO.C,JOY_H2*%
X220715000Y-139700000D03*
%TD*%
D12*
%TO.C,J9*%
X242570000Y-147320000D03*
D13*
X242570000Y-149860000D03*
%TD*%
D17*
%TO.C,R36*%
X182055000Y-124460000D03*
X183705000Y-124460000D03*
%TD*%
D18*
%TO.C,R34*%
X218440000Y-90615000D03*
X218440000Y-92265000D03*
%TD*%
D10*
%TO.C,D5*%
X243840000Y-85320000D03*
X243840000Y-82320000D03*
%TD*%
D19*
%TO.C,C3*%
X88392000Y-77404000D03*
X88392000Y-75504000D03*
%TD*%
D12*
%TO.C,J11*%
X228600000Y-53340000D03*
D13*
X228600000Y-55880000D03*
%TD*%
D20*
%TO.C,SW6*%
X224955000Y-72680000D03*
X217005000Y-72680000D03*
X217005000Y-77180000D03*
X224955000Y-77180000D03*
%TD*%
D21*
%TO.C,R4*%
X88646000Y-67881000D03*
X88646000Y-66231000D03*
%TD*%
%TO.C,R21*%
X248920000Y-89725000D03*
X248920000Y-88075000D03*
%TD*%
D12*
%TO.C,J12*%
X228600000Y-63500000D03*
D13*
X228600000Y-66040000D03*
%TD*%
D14*
%TO.C,D25*%
X186460000Y-106680000D03*
X189460000Y-106680000D03*
%TD*%
D19*
%TO.C,C24*%
X151638000Y-87818000D03*
X151638000Y-85918000D03*
%TD*%
D21*
%TO.C,R18*%
X233680000Y-89725000D03*
X233680000Y-88075000D03*
%TD*%
D22*
%TO.C,R51*%
X242125000Y-55880000D03*
X240475000Y-55880000D03*
%TD*%
D23*
%TO.C,C20*%
X134887000Y-84328000D03*
X133337000Y-84328000D03*
%TD*%
D19*
%TO.C,C13*%
X89154000Y-54036000D03*
X89154000Y-52136000D03*
%TD*%
D10*
%TO.C,D17*%
X218440000Y-95020000D03*
X218440000Y-98020000D03*
%TD*%
D24*
%TO.C,Q1*%
X145140000Y-87630000D03*
D25*
X145140000Y-86360000D03*
X145140000Y-85090000D03*
%TD*%
D17*
%TO.C,R42*%
X182055000Y-106680000D03*
X183705000Y-106680000D03*
%TD*%
D16*
%TO.C,H1*%
X53340000Y-149860000D03*
%TD*%
D22*
%TO.C,R53*%
X242125000Y-50800000D03*
X240475000Y-50800000D03*
%TD*%
%TO.C,R43*%
X242125000Y-76200000D03*
X240475000Y-76200000D03*
%TD*%
D16*
%TO.C,H4*%
X251460000Y-30480000D03*
%TD*%
D17*
%TO.C,R40*%
X182055000Y-96520000D03*
X183705000Y-96520000D03*
%TD*%
D22*
%TO.C,R48*%
X242125000Y-63500000D03*
X240475000Y-63500000D03*
%TD*%
D12*
%TO.C,J8*%
X228600000Y-33020000D03*
D13*
X228600000Y-35560000D03*
%TD*%
D19*
%TO.C,C9*%
X173736000Y-123190000D03*
X173736000Y-121290000D03*
%TD*%
D22*
%TO.C,R66*%
X131127000Y-84328000D03*
X129477000Y-84328000D03*
%TD*%
D16*
%TO.C,JOY_H4*%
X200915000Y-113700000D03*
%TD*%
D14*
%TO.C,D24*%
X186460000Y-101600000D03*
X189460000Y-101600000D03*
%TD*%
D21*
%TO.C,R59*%
X228600000Y-150685000D03*
X228600000Y-149035000D03*
%TD*%
D10*
%TO.C,D4*%
X238760000Y-85320000D03*
X238760000Y-82320000D03*
%TD*%
D26*
%TO.C,J1*%
X57159000Y-73320000D03*
X57159000Y-68920000D03*
D27*
X59759000Y-69520000D03*
X59759000Y-70320000D03*
X59759000Y-71120000D03*
X59759000Y-71920000D03*
X59759000Y-72720000D03*
D28*
X59759000Y-66720000D03*
X54259000Y-75520000D03*
X54259000Y-66720000D03*
X59759000Y-75520000D03*
%TD*%
D29*
%TO.C,C29*%
X165354000Y-109715000D03*
X165354000Y-111265000D03*
%TD*%
D14*
%TO.C,D18*%
X186460000Y-132080000D03*
X189460000Y-132080000D03*
%TD*%
D22*
%TO.C,R56*%
X242125000Y-43180000D03*
X240475000Y-43180000D03*
%TD*%
D14*
%TO.C,D12*%
X166140000Y-96520000D03*
X169140000Y-96520000D03*
%TD*%
D18*
%TO.C,R65*%
X139700000Y-85535000D03*
X139700000Y-87185000D03*
%TD*%
D30*
%TO.C,C26*%
X170434000Y-109540000D03*
X170434000Y-111440000D03*
%TD*%
D10*
%TO.C,D6*%
X248920000Y-85320000D03*
X248920000Y-82320000D03*
%TD*%
D16*
%TO.C,JOY_H3*%
X220715000Y-113700000D03*
%TD*%
D22*
%TO.C,R14*%
X163385000Y-137160000D03*
X161735000Y-137160000D03*
%TD*%
D12*
%TO.C,J13*%
X228600000Y-73660000D03*
D13*
X228600000Y-76200000D03*
%TD*%
D21*
%TO.C,R16*%
X210820000Y-137985000D03*
X210820000Y-136335000D03*
%TD*%
D31*
%TO.C,L1*%
X64008000Y-73105500D03*
X64008000Y-75230500D03*
%TD*%
D22*
%TO.C,R13*%
X163385000Y-139700000D03*
X161735000Y-139700000D03*
%TD*%
D21*
%TO.C,R19*%
X238760000Y-89725000D03*
X238760000Y-88075000D03*
%TD*%
D12*
%TO.C,J16*%
X165100000Y-114300000D03*
D13*
X167640000Y-114300000D03*
%TD*%
D32*
%TO.C,C25*%
X74234000Y-56134000D03*
X76134000Y-56134000D03*
%TD*%
D33*
%TO.C,U1*%
X77680000Y-61815000D03*
X77680000Y-62465000D03*
X77680000Y-63115000D03*
X77680000Y-63765000D03*
X77680000Y-64415000D03*
X77680000Y-65065000D03*
X77680000Y-65715000D03*
X77680000Y-66365000D03*
X77680000Y-67015000D03*
X77680000Y-67665000D03*
X77680000Y-68315000D03*
X77680000Y-68965000D03*
X77680000Y-69615000D03*
X77680000Y-70265000D03*
X84880000Y-70265000D03*
X84880000Y-69615000D03*
X84880000Y-68965000D03*
X84880000Y-68315000D03*
X84880000Y-67665000D03*
X84880000Y-67015000D03*
X84880000Y-66365000D03*
X84880000Y-65715000D03*
X84880000Y-65065000D03*
X84880000Y-64415000D03*
X84880000Y-63765000D03*
X84880000Y-63115000D03*
X84880000Y-62465000D03*
X84880000Y-61815000D03*
%TD*%
D21*
%TO.C,RV1*%
X66548000Y-69913000D03*
X66548000Y-68263000D03*
%TD*%
D22*
%TO.C,R50*%
X242125000Y-58420000D03*
X240475000Y-58420000D03*
%TD*%
D14*
%TO.C,D19*%
X186460000Y-124460000D03*
X189460000Y-124460000D03*
%TD*%
D18*
%TO.C,R8*%
X78740000Y-75375000D03*
X78740000Y-77025000D03*
%TD*%
D32*
%TO.C,C15*%
X237810000Y-109220000D03*
X239710000Y-109220000D03*
%TD*%
D21*
%TO.C,R27*%
X205740000Y-137985000D03*
X205740000Y-136335000D03*
%TD*%
D34*
%TO.C,C8*%
X73393000Y-64008000D03*
X74943000Y-64008000D03*
%TD*%
D20*
%TO.C,SW3*%
X224955000Y-42200000D03*
X217005000Y-42200000D03*
X217005000Y-46700000D03*
X224955000Y-46700000D03*
%TD*%
D21*
%TO.C,R15*%
X213360000Y-137985000D03*
X213360000Y-136335000D03*
%TD*%
D30*
%TO.C,C5*%
X72136000Y-56200000D03*
X72136000Y-58100000D03*
%TD*%
D34*
%TO.C,C21*%
X129514000Y-86360000D03*
X131064000Y-86360000D03*
%TD*%
D35*
%TO.C,U2*%
X235210000Y-94615000D03*
X235210000Y-95885000D03*
X235210000Y-97155000D03*
X235210000Y-98425000D03*
X235210000Y-99695000D03*
X235210000Y-100965000D03*
X235210000Y-102235000D03*
X235210000Y-103505000D03*
X242310000Y-103505000D03*
X242310000Y-102235000D03*
X242310000Y-100965000D03*
X242310000Y-99695000D03*
X242310000Y-98425000D03*
X242310000Y-97155000D03*
X242310000Y-95885000D03*
X242310000Y-94615000D03*
%TD*%
D29*
%TO.C,C6*%
X69598000Y-56375000D03*
X69598000Y-57925000D03*
%TD*%
D32*
%TO.C,C23*%
X129352000Y-88646000D03*
X131252000Y-88646000D03*
%TD*%
D14*
%TO.C,D11*%
X166140000Y-91440000D03*
X169140000Y-91440000D03*
%TD*%
D18*
%TO.C,R9*%
X81280000Y-75375000D03*
X81280000Y-77025000D03*
%TD*%
D16*
%TO.C,H5*%
X152400000Y-30480000D03*
%TD*%
D10*
%TO.C,D3*%
X233680000Y-85395000D03*
X233680000Y-82395000D03*
%TD*%
D21*
%TO.C,R26*%
X208280000Y-137985000D03*
X208280000Y-136335000D03*
%TD*%
D17*
%TO.C,R1*%
X56310000Y-85090000D03*
X57960000Y-85090000D03*
%TD*%
D10*
%TO.C,D15*%
X203200000Y-95020000D03*
X203200000Y-98020000D03*
%TD*%
D17*
%TO.C,R38*%
X182055000Y-86360000D03*
X183705000Y-86360000D03*
%TD*%
D34*
%TO.C,C14*%
X237985000Y-106680000D03*
X239535000Y-106680000D03*
%TD*%
D17*
%TO.C,R39*%
X182055000Y-91440000D03*
X183705000Y-91440000D03*
%TD*%
D12*
%TO.C,J14*%
X165100000Y-124460000D03*
D13*
X167640000Y-124460000D03*
X165100000Y-127000000D03*
X167640000Y-127000000D03*
%TD*%
D17*
%TO.C,R31*%
X161735000Y-106680000D03*
X163385000Y-106680000D03*
%TD*%
D21*
%TO.C,R25*%
X248920000Y-122745000D03*
X248920000Y-121095000D03*
%TD*%
%TO.C,R23*%
X238760000Y-122745000D03*
X238760000Y-121095000D03*
%TD*%
D34*
%TO.C,C16*%
X237985000Y-139700000D03*
X239535000Y-139700000D03*
%TD*%
D22*
%TO.C,R10*%
X78803000Y-78994000D03*
X77153000Y-78994000D03*
%TD*%
D16*
%TO.C,H2*%
X152400000Y-149860000D03*
%TD*%
D14*
%TO.C,D2*%
X82828000Y-82042000D03*
X85828000Y-82042000D03*
%TD*%
D18*
%TO.C,R63*%
X214630000Y-76645000D03*
X214630000Y-78295000D03*
%TD*%
D16*
%TO.C,JOY_H1*%
X200915000Y-139700000D03*
%TD*%
D10*
%TO.C,D9*%
X243840000Y-118340000D03*
X243840000Y-115340000D03*
%TD*%
D18*
%TO.C,R33*%
X210820000Y-90615000D03*
X210820000Y-92265000D03*
%TD*%
D10*
%TO.C,D16*%
X210820000Y-95020000D03*
X210820000Y-98020000D03*
%TD*%
D12*
%TO.C,J7*%
X248920000Y-76200000D03*
D13*
X246380000Y-76200000D03*
X248920000Y-73660000D03*
X246380000Y-73660000D03*
X248920000Y-71120000D03*
X246380000Y-71120000D03*
X248920000Y-68580000D03*
X246380000Y-68580000D03*
X248920000Y-66040000D03*
X246380000Y-66040000D03*
X248920000Y-63500000D03*
X246380000Y-63500000D03*
X248920000Y-60960000D03*
X246380000Y-60960000D03*
X248920000Y-58420000D03*
X246380000Y-58420000D03*
X248920000Y-55880000D03*
X246380000Y-55880000D03*
X248920000Y-53340000D03*
X246380000Y-53340000D03*
X248920000Y-50800000D03*
X246380000Y-50800000D03*
X248920000Y-48260000D03*
X246380000Y-48260000D03*
X248920000Y-45720000D03*
X246380000Y-45720000D03*
X248920000Y-43180000D03*
X246380000Y-43180000D03*
X248920000Y-40640000D03*
X246380000Y-40640000D03*
%TD*%
D14*
%TO.C,D23*%
X186460000Y-96520000D03*
X189460000Y-96520000D03*
%TD*%
D34*
%TO.C,C27*%
X74409000Y-58420000D03*
X75959000Y-58420000D03*
%TD*%
%TO.C,C2*%
X56375000Y-82550000D03*
X57925000Y-82550000D03*
%TD*%
D18*
%TO.C,R60*%
X214630000Y-47435000D03*
X214630000Y-49085000D03*
%TD*%
D14*
%TO.C,D20*%
X186460000Y-116840000D03*
X189460000Y-116840000D03*
%TD*%
D17*
%TO.C,R29*%
X161735000Y-96520000D03*
X163385000Y-96520000D03*
%TD*%
D21*
%TO.C,R22*%
X233680000Y-122745000D03*
X233680000Y-121095000D03*
%TD*%
D22*
%TO.C,R49*%
X242125000Y-60960000D03*
X240475000Y-60960000D03*
%TD*%
D20*
%TO.C,SW1*%
X224955000Y-32040000D03*
X217005000Y-32040000D03*
X224955000Y-36540000D03*
X217005000Y-36540000D03*
%TD*%
D32*
%TO.C,C17*%
X237810000Y-142240000D03*
X239710000Y-142240000D03*
%TD*%
D11*
%TO.C,C12*%
X86868000Y-53848000D03*
X86868000Y-52298000D03*
%TD*%
D10*
%TO.C,D10*%
X248920000Y-118340000D03*
X248920000Y-115340000D03*
%TD*%
D17*
%TO.C,R2*%
X68517000Y-71882000D03*
X70167000Y-71882000D03*
%TD*%
D21*
%TO.C,R24*%
X243840000Y-122745000D03*
X243840000Y-121095000D03*
%TD*%
D18*
%TO.C,R58*%
X214630000Y-37275000D03*
X214630000Y-38925000D03*
%TD*%
D22*
%TO.C,R57*%
X242125000Y-40640000D03*
X240475000Y-40640000D03*
%TD*%
D12*
%TO.C,J4*%
X248920000Y-104140000D03*
D13*
X248920000Y-101600000D03*
X248920000Y-99060000D03*
X248920000Y-96520000D03*
X248920000Y-93980000D03*
%TD*%
D36*
%TO.C,L2*%
X71934000Y-62022500D03*
X71934000Y-59897500D03*
%TD*%
D12*
%TO.C,J17*%
X165100000Y-119380000D03*
D13*
X167640000Y-119380000D03*
%TD*%
D14*
%TO.C,D22*%
X186460000Y-91440000D03*
X189460000Y-91440000D03*
%TD*%
D11*
%TO.C,C10*%
X171704000Y-122949000D03*
X171704000Y-121399000D03*
%TD*%
D22*
%TO.C,R47*%
X242125000Y-66040000D03*
X240475000Y-66040000D03*
%TD*%
%TO.C,R52*%
X242125000Y-53340000D03*
X240475000Y-53340000D03*
%TD*%
D17*
%TO.C,R37*%
X182055000Y-116840000D03*
X183705000Y-116840000D03*
%TD*%
D22*
%TO.C,R45*%
X242125000Y-71120000D03*
X240475000Y-71120000D03*
%TD*%
D12*
%TO.C,J3*%
X81280000Y-50800000D03*
D13*
X83820000Y-50800000D03*
X81280000Y-53340000D03*
X83820000Y-53340000D03*
X81280000Y-55880000D03*
X83820000Y-55880000D03*
%TD*%
D18*
%TO.C,R32*%
X203200000Y-90615000D03*
X203200000Y-92265000D03*
%TD*%
D14*
%TO.C,D1*%
X77192000Y-82042000D03*
X74192000Y-82042000D03*
%TD*%
D22*
%TO.C,R55*%
X242125000Y-45720000D03*
X240475000Y-45720000D03*
%TD*%
D18*
%TO.C,R67*%
X153924000Y-86043000D03*
X153924000Y-87693000D03*
%TD*%
%TO.C,R62*%
X214630000Y-67755000D03*
X214630000Y-69405000D03*
%TD*%
D17*
%TO.C,R11*%
X81154000Y-78994000D03*
X82804000Y-78994000D03*
%TD*%
D18*
%TO.C,R61*%
X214630000Y-57595000D03*
X214630000Y-59245000D03*
%TD*%
D12*
%TO.C,J15*%
X53340000Y-40640000D03*
D13*
X55880000Y-40640000D03*
X53340000Y-43180000D03*
X55880000Y-43180000D03*
%TD*%
D22*
%TO.C,R44*%
X242125000Y-73660000D03*
X240475000Y-73660000D03*
%TD*%
D21*
%TO.C,R20*%
X243840000Y-89725000D03*
X243840000Y-88075000D03*
%TD*%
D18*
%TO.C,RV2*%
X66548000Y-71819000D03*
X66548000Y-73469000D03*
%TD*%
D20*
%TO.C,SW5*%
X217005000Y-62520000D03*
X224955000Y-62520000D03*
X224955000Y-67020000D03*
X217005000Y-67020000D03*
%TD*%
D34*
%TO.C,C1*%
X56375000Y-80010000D03*
X57925000Y-80010000D03*
%TD*%
D11*
%TO.C,C11*%
X162306000Y-123203000D03*
X162306000Y-121653000D03*
%TD*%
D22*
%TO.C,R46*%
X242125000Y-68580000D03*
X240475000Y-68580000D03*
%TD*%
D17*
%TO.C,R41*%
X182055000Y-101600000D03*
X183705000Y-101600000D03*
%TD*%
%TO.C,R30*%
X161735000Y-101600000D03*
X163385000Y-101600000D03*
%TD*%
D35*
%TO.C,U3*%
X235210000Y-127635000D03*
X235210000Y-128905000D03*
X235210000Y-130175000D03*
X235210000Y-131445000D03*
X235210000Y-132715000D03*
X235210000Y-133985000D03*
X235210000Y-135255000D03*
X235210000Y-136525000D03*
X242310000Y-136525000D03*
X242310000Y-135255000D03*
X242310000Y-133985000D03*
X242310000Y-132715000D03*
X242310000Y-131445000D03*
X242310000Y-130175000D03*
X242310000Y-128905000D03*
X242310000Y-127635000D03*
%TD*%
D37*
%TO.C,C19*%
X135062000Y-86614000D03*
X133162000Y-86614000D03*
%TD*%
D14*
%TO.C,D14*%
X166140000Y-106680000D03*
X169140000Y-106680000D03*
%TD*%
D38*
%TO.C,U4*%
X209120000Y-40740000D03*
X94120000Y-40740000D03*
X209120000Y-77740000D03*
X94120000Y-77740000D03*
D39*
X134620000Y-78740000D03*
D40*
X132080000Y-78740000D03*
X129540000Y-78740000D03*
X127000000Y-78740000D03*
X124460000Y-78740000D03*
X121920000Y-78740000D03*
X119380000Y-78740000D03*
X116840000Y-78740000D03*
X114300000Y-78740000D03*
X111760000Y-78740000D03*
X109220000Y-78740000D03*
X106680000Y-78740000D03*
X104140000Y-78740000D03*
X101600000Y-78740000D03*
X137160000Y-78740000D03*
X139700000Y-78740000D03*
D41*
X210120000Y-64740000D03*
X210120000Y-53740000D03*
X210120000Y-60740000D03*
X210120000Y-49740000D03*
%TD*%
D22*
%TO.C,R12*%
X163385000Y-142240000D03*
X161735000Y-142240000D03*
%TD*%
D34*
%TO.C,C18*%
X206235000Y-134620000D03*
X207785000Y-134620000D03*
%TD*%
D32*
%TO.C,C7*%
X72964000Y-66040000D03*
X74864000Y-66040000D03*
%TD*%
D22*
%TO.C,R54*%
X242125000Y-48260000D03*
X240475000Y-48260000D03*
%TD*%
%TO.C,R6*%
X77025000Y-73660000D03*
X75375000Y-73660000D03*
%TD*%
D12*
%TO.C,JP1*%
X55880000Y-55880000D03*
D13*
X55880000Y-53340000D03*
X55880000Y-50800000D03*
%TD*%
D17*
%TO.C,R35*%
X182055000Y-132080000D03*
X183705000Y-132080000D03*
%TD*%
%TO.C,R28*%
X161735000Y-91440000D03*
X163385000Y-91440000D03*
%TD*%
D16*
%TO.C,H6*%
X53340000Y-30480000D03*
%TD*%
D14*
%TO.C,D13*%
X166140000Y-101600000D03*
X169140000Y-101600000D03*
%TD*%
D20*
%TO.C,SW4*%
X224955000Y-52360000D03*
X217005000Y-52360000D03*
X217005000Y-56860000D03*
X224955000Y-56860000D03*
%TD*%
%TO.C,SW2*%
X238695000Y-146340000D03*
X230745000Y-146340000D03*
X230745000Y-150840000D03*
X238695000Y-150840000D03*
%TD*%
D12*
%TO.C,J5*%
X248920000Y-137160000D03*
D13*
X248920000Y-134620000D03*
X248920000Y-132080000D03*
X248920000Y-129540000D03*
X248920000Y-127000000D03*
%TD*%
D11*
%TO.C,C22*%
X149352000Y-87643000D03*
X149352000Y-86093000D03*
%TD*%
D17*
%TO.C,R7*%
X82995000Y-73660000D03*
X84645000Y-73660000D03*
%TD*%
%TO.C,R3*%
X68517000Y-70104000D03*
X70167000Y-70104000D03*
%TD*%
D12*
%TO.C,J10*%
X228600000Y-43180000D03*
D13*
X228600000Y-45720000D03*
%TD*%
D21*
%TO.C,R5*%
X88646000Y-71183000D03*
X88646000Y-69533000D03*
%TD*%
D12*
%TO.C,J6*%
X205740000Y-142240000D03*
D13*
X208280000Y-142240000D03*
X210820000Y-142240000D03*
X213360000Y-142240000D03*
X215900000Y-142240000D03*
%TD*%
D29*
%TO.C,C28*%
X167386000Y-109715000D03*
X167386000Y-111265000D03*
%TD*%
D21*
%TO.C,R17*%
X215900000Y-137985000D03*
X215900000Y-136335000D03*
%TD*%
D16*
%TO.C,H3*%
X251460000Y-149860000D03*
%TD*%
D21*
%TO.C,R64*%
X124968000Y-85915000D03*
X124968000Y-84265000D03*
%TD*%
D16*
%TO.C,XA1*%
X71750000Y-140970000D03*
X70480000Y-92710000D03*
X122550000Y-97790000D03*
X153030000Y-92710000D03*
D42*
X84450000Y-92710000D03*
D16*
X146680000Y-140970000D03*
X122550000Y-125730000D03*
D42*
X92070000Y-92710000D03*
X94610000Y-92710000D03*
X122677000Y-120650000D03*
X150490000Y-140970000D03*
X153030000Y-140970000D03*
X107310000Y-92710000D03*
X109850000Y-92710000D03*
X112390000Y-92710000D03*
X114930000Y-92710000D03*
X117470000Y-92710000D03*
X120010000Y-92710000D03*
X122550000Y-92710000D03*
X125090000Y-92710000D03*
X130170000Y-92710000D03*
X132710000Y-92710000D03*
X135250000Y-92710000D03*
X137790000Y-92710000D03*
X140330000Y-92710000D03*
X142870000Y-92710000D03*
X145410000Y-92710000D03*
X147950000Y-92710000D03*
X80386000Y-140970000D03*
X120010000Y-140970000D03*
X117470000Y-140970000D03*
X114930000Y-140970000D03*
X112390000Y-140970000D03*
X109850000Y-140970000D03*
X107310000Y-140970000D03*
X104770000Y-140970000D03*
X102230000Y-140970000D03*
X98166000Y-140970000D03*
X95626000Y-140970000D03*
X93086000Y-140970000D03*
X90546000Y-140970000D03*
X88006000Y-140970000D03*
X85466000Y-140970000D03*
X125090000Y-140970000D03*
X127630000Y-140970000D03*
X130170000Y-140970000D03*
X132710000Y-140970000D03*
X135250000Y-140970000D03*
X137790000Y-140970000D03*
X140330000Y-140970000D03*
X142870000Y-140970000D03*
X150490000Y-138430000D03*
X153030000Y-138430000D03*
X150490000Y-135890000D03*
X153030000Y-135890000D03*
X150490000Y-133350000D03*
X153030000Y-133350000D03*
X150490000Y-130810000D03*
X153030000Y-130810000D03*
X150490000Y-128270000D03*
X153030000Y-128270000D03*
X150490000Y-125730000D03*
X153030000Y-125730000D03*
X150490000Y-123190000D03*
X153030000Y-123190000D03*
X150490000Y-120650000D03*
X153030000Y-120650000D03*
X150490000Y-118110000D03*
X153030000Y-118110000D03*
X150490000Y-115570000D03*
X153030000Y-115570000D03*
X150490000Y-113030000D03*
X153030000Y-113030000D03*
X150490000Y-110490000D03*
X153030000Y-110490000D03*
X150490000Y-107950000D03*
X153030000Y-107950000D03*
X150490000Y-105410000D03*
X153030000Y-105410000D03*
X150490000Y-102870000D03*
X153030000Y-102870000D03*
X150490000Y-100330000D03*
X153030000Y-100330000D03*
D43*
X82926000Y-140970000D03*
X97150000Y-92710000D03*
X99690000Y-92710000D03*
X122677000Y-115570000D03*
X150490000Y-97790000D03*
X153030000Y-97790000D03*
D42*
X86990000Y-92710000D03*
X120137000Y-120650000D03*
X122677000Y-118110000D03*
X89530000Y-92710000D03*
X120137000Y-115570000D03*
X120137000Y-118110000D03*
X75306000Y-140970000D03*
X77846000Y-140970000D03*
X102230000Y-92710000D03*
%TD*%
M02*
