%TF.GenerationSoftware,KiCad,Pcbnew,(6.0.10)*%
%TF.CreationDate,2023-01-25T18:59:45+01:00*%
%TF.ProjectId,MagicGame,4d616769-6347-4616-9d65-2e6b69636164,1.0*%
%TF.SameCoordinates,Original*%
%TF.FileFunction,Soldermask,Bot*%
%TF.FilePolarity,Negative*%
%FSLAX46Y46*%
G04 Gerber Fmt 4.6, Leading zero omitted, Abs format (unit mm)*
G04 Created by KiCad (PCBNEW (6.0.10)) date 2023-01-25 18:59:45*
%MOMM*%
%LPD*%
G01*
G04 APERTURE LIST*
%ADD10R,1.700000X1.700000*%
%ADD11O,1.700000X1.700000*%
%ADD12C,3.200000*%
%ADD13R,1.500000X1.050000*%
%ADD14O,1.500000X1.050000*%
%ADD15C,0.900000*%
%ADD16C,6.500000*%
%ADD17R,1.500000X3.000000*%
%ADD18O,1.500000X3.000000*%
%ADD19R,2.000000X2.000000*%
%ADD20O,1.727200X1.727200*%
%ADD21R,1.727200X1.727200*%
G04 APERTURE END LIST*
D10*
%TO.C,J2*%
X167640000Y-134620000D03*
D11*
X167640000Y-137160000D03*
X167640000Y-139700000D03*
X167640000Y-142240000D03*
%TD*%
D12*
%TO.C,JOY_H2*%
X220715000Y-139700000D03*
%TD*%
D10*
%TO.C,J9*%
X242570000Y-147320000D03*
D11*
X242570000Y-149860000D03*
%TD*%
D10*
%TO.C,J11*%
X228600000Y-53340000D03*
D11*
X228600000Y-55880000D03*
%TD*%
D10*
%TO.C,J12*%
X228600000Y-63500000D03*
D11*
X228600000Y-66040000D03*
%TD*%
D13*
%TO.C,Q1*%
X145140000Y-87630000D03*
D14*
X145140000Y-86360000D03*
X145140000Y-85090000D03*
%TD*%
D12*
%TO.C,H1*%
X53340000Y-149860000D03*
%TD*%
%TO.C,H4*%
X251460000Y-30480000D03*
%TD*%
D10*
%TO.C,J8*%
X228600000Y-33020000D03*
D11*
X228600000Y-35560000D03*
%TD*%
D12*
%TO.C,JOY_H4*%
X200915000Y-113700000D03*
%TD*%
D15*
%TO.C,J1*%
X57159000Y-73320000D03*
X57159000Y-68920000D03*
%TD*%
D12*
%TO.C,JOY_H3*%
X220715000Y-113700000D03*
%TD*%
D10*
%TO.C,J13*%
X228600000Y-73660000D03*
D11*
X228600000Y-76200000D03*
%TD*%
D10*
%TO.C,J16*%
X165100000Y-114300000D03*
D11*
X167640000Y-114300000D03*
%TD*%
D12*
%TO.C,H5*%
X152400000Y-30480000D03*
%TD*%
D10*
%TO.C,J14*%
X165100000Y-124460000D03*
D11*
X167640000Y-124460000D03*
X165100000Y-127000000D03*
X167640000Y-127000000D03*
%TD*%
D12*
%TO.C,H2*%
X152400000Y-149860000D03*
%TD*%
%TO.C,JOY_H1*%
X200915000Y-139700000D03*
%TD*%
D10*
%TO.C,J7*%
X248920000Y-76200000D03*
D11*
X246380000Y-76200000D03*
X248920000Y-73660000D03*
X246380000Y-73660000D03*
X248920000Y-71120000D03*
X246380000Y-71120000D03*
X248920000Y-68580000D03*
X246380000Y-68580000D03*
X248920000Y-66040000D03*
X246380000Y-66040000D03*
X248920000Y-63500000D03*
X246380000Y-63500000D03*
X248920000Y-60960000D03*
X246380000Y-60960000D03*
X248920000Y-58420000D03*
X246380000Y-58420000D03*
X248920000Y-55880000D03*
X246380000Y-55880000D03*
X248920000Y-53340000D03*
X246380000Y-53340000D03*
X248920000Y-50800000D03*
X246380000Y-50800000D03*
X248920000Y-48260000D03*
X246380000Y-48260000D03*
X248920000Y-45720000D03*
X246380000Y-45720000D03*
X248920000Y-43180000D03*
X246380000Y-43180000D03*
X248920000Y-40640000D03*
X246380000Y-40640000D03*
%TD*%
D10*
%TO.C,J4*%
X248920000Y-104140000D03*
D11*
X248920000Y-101600000D03*
X248920000Y-99060000D03*
X248920000Y-96520000D03*
X248920000Y-93980000D03*
%TD*%
D10*
%TO.C,J17*%
X165100000Y-119380000D03*
D11*
X167640000Y-119380000D03*
%TD*%
D10*
%TO.C,J3*%
X81280000Y-50800000D03*
D11*
X83820000Y-50800000D03*
X81280000Y-53340000D03*
X83820000Y-53340000D03*
X81280000Y-55880000D03*
X83820000Y-55880000D03*
%TD*%
D10*
%TO.C,J15*%
X53340000Y-40640000D03*
D11*
X55880000Y-40640000D03*
X53340000Y-43180000D03*
X55880000Y-43180000D03*
%TD*%
D16*
%TO.C,U4*%
X209120000Y-40740000D03*
X94120000Y-40740000D03*
X209120000Y-77740000D03*
X94120000Y-77740000D03*
D17*
X134620000Y-78740000D03*
D18*
X132080000Y-78740000D03*
X129540000Y-78740000D03*
X127000000Y-78740000D03*
X124460000Y-78740000D03*
X121920000Y-78740000D03*
X119380000Y-78740000D03*
X116840000Y-78740000D03*
X114300000Y-78740000D03*
X111760000Y-78740000D03*
X109220000Y-78740000D03*
X106680000Y-78740000D03*
X104140000Y-78740000D03*
X101600000Y-78740000D03*
X137160000Y-78740000D03*
X139700000Y-78740000D03*
D19*
X210120000Y-64740000D03*
X210120000Y-53740000D03*
X210120000Y-60740000D03*
X210120000Y-49740000D03*
%TD*%
D10*
%TO.C,JP1*%
X55880000Y-55880000D03*
D11*
X55880000Y-53340000D03*
X55880000Y-50800000D03*
%TD*%
D12*
%TO.C,H6*%
X53340000Y-30480000D03*
%TD*%
D10*
%TO.C,J5*%
X248920000Y-137160000D03*
D11*
X248920000Y-134620000D03*
X248920000Y-132080000D03*
X248920000Y-129540000D03*
X248920000Y-127000000D03*
%TD*%
D10*
%TO.C,J10*%
X228600000Y-43180000D03*
D11*
X228600000Y-45720000D03*
%TD*%
D10*
%TO.C,J6*%
X205740000Y-142240000D03*
D11*
X208280000Y-142240000D03*
X210820000Y-142240000D03*
X213360000Y-142240000D03*
X215900000Y-142240000D03*
%TD*%
D12*
%TO.C,H3*%
X251460000Y-149860000D03*
%TD*%
%TO.C,XA1*%
X71750000Y-140970000D03*
X70480000Y-92710000D03*
X122550000Y-97790000D03*
X153030000Y-92710000D03*
D20*
X84450000Y-92710000D03*
D12*
X146680000Y-140970000D03*
X122550000Y-125730000D03*
D20*
X92070000Y-92710000D03*
X94610000Y-92710000D03*
X122677000Y-120650000D03*
X150490000Y-140970000D03*
X153030000Y-140970000D03*
X107310000Y-92710000D03*
X109850000Y-92710000D03*
X112390000Y-92710000D03*
X114930000Y-92710000D03*
X117470000Y-92710000D03*
X120010000Y-92710000D03*
X122550000Y-92710000D03*
X125090000Y-92710000D03*
X130170000Y-92710000D03*
X132710000Y-92710000D03*
X135250000Y-92710000D03*
X137790000Y-92710000D03*
X140330000Y-92710000D03*
X142870000Y-92710000D03*
X145410000Y-92710000D03*
X147950000Y-92710000D03*
X80386000Y-140970000D03*
X120010000Y-140970000D03*
X117470000Y-140970000D03*
X114930000Y-140970000D03*
X112390000Y-140970000D03*
X109850000Y-140970000D03*
X107310000Y-140970000D03*
X104770000Y-140970000D03*
X102230000Y-140970000D03*
X98166000Y-140970000D03*
X95626000Y-140970000D03*
X93086000Y-140970000D03*
X90546000Y-140970000D03*
X88006000Y-140970000D03*
X85466000Y-140970000D03*
X125090000Y-140970000D03*
X127630000Y-140970000D03*
X130170000Y-140970000D03*
X132710000Y-140970000D03*
X135250000Y-140970000D03*
X137790000Y-140970000D03*
X140330000Y-140970000D03*
X142870000Y-140970000D03*
X150490000Y-138430000D03*
X153030000Y-138430000D03*
X150490000Y-135890000D03*
X153030000Y-135890000D03*
X150490000Y-133350000D03*
X153030000Y-133350000D03*
X150490000Y-130810000D03*
X153030000Y-130810000D03*
X150490000Y-128270000D03*
X153030000Y-128270000D03*
X150490000Y-125730000D03*
X153030000Y-125730000D03*
X150490000Y-123190000D03*
X153030000Y-123190000D03*
X150490000Y-120650000D03*
X153030000Y-120650000D03*
X150490000Y-118110000D03*
X153030000Y-118110000D03*
X150490000Y-115570000D03*
X153030000Y-115570000D03*
X150490000Y-113030000D03*
X153030000Y-113030000D03*
X150490000Y-110490000D03*
X153030000Y-110490000D03*
X150490000Y-107950000D03*
X153030000Y-107950000D03*
X150490000Y-105410000D03*
X153030000Y-105410000D03*
X150490000Y-102870000D03*
X153030000Y-102870000D03*
X150490000Y-100330000D03*
X153030000Y-100330000D03*
D21*
X82926000Y-140970000D03*
X97150000Y-92710000D03*
X99690000Y-92710000D03*
X122677000Y-115570000D03*
X150490000Y-97790000D03*
X153030000Y-97790000D03*
D20*
X86990000Y-92710000D03*
X120137000Y-120650000D03*
X122677000Y-118110000D03*
X89530000Y-92710000D03*
X120137000Y-115570000D03*
X120137000Y-118110000D03*
X75306000Y-140970000D03*
X77846000Y-140970000D03*
X102230000Y-92710000D03*
%TD*%
M02*
