%TF.GenerationSoftware,KiCad,Pcbnew,(7.0.0)*%
%TF.CreationDate,2023-02-21T15:07:21+01:00*%
%TF.ProjectId,MagicGame,4d616769-6347-4616-9d65-2e6b69636164,1.1*%
%TF.SameCoordinates,Original*%
%TF.FileFunction,Soldermask,Bot*%
%TF.FilePolarity,Negative*%
%FSLAX46Y46*%
G04 Gerber Fmt 4.6, Leading zero omitted, Abs format (unit mm)*
G04 Created by KiCad (PCBNEW (7.0.0)) date 2023-02-21 15:07:21*
%MOMM*%
%LPD*%
G01*
G04 APERTURE LIST*
%ADD10C,3.200000*%
%ADD11O,1.727200X1.727200*%
%ADD12R,1.727200X1.727200*%
%ADD13R,1.700000X1.700000*%
%ADD14O,1.700000X1.700000*%
%ADD15R,1.500000X1.050000*%
%ADD16O,1.500000X1.050000*%
%ADD17C,0.900000*%
%ADD18C,6.500000*%
%ADD19R,1.500000X3.000000*%
%ADD20O,1.500000X3.000000*%
%ADD21R,2.000000X2.000000*%
G04 APERTURE END LIST*
D10*
%TO.C,XA1*%
X70480000Y-92710000D03*
X122550000Y-97790000D03*
X71750000Y-140970000D03*
X153030000Y-92710000D03*
X122550000Y-125730000D03*
X146680000Y-140970000D03*
D11*
X84449999Y-92709999D03*
X92069999Y-92709999D03*
X94609999Y-92709999D03*
X122676999Y-120649999D03*
X150489999Y-140969999D03*
X153029999Y-140969999D03*
X107309999Y-92709999D03*
X109849999Y-92709999D03*
X112389999Y-92709999D03*
X114929999Y-92709999D03*
X117469999Y-92709999D03*
X120009999Y-92709999D03*
X122549999Y-92709999D03*
X125089999Y-92709999D03*
X130169999Y-92709999D03*
X132709999Y-92709999D03*
X135249999Y-92709999D03*
X137789999Y-92709999D03*
X140329999Y-92709999D03*
X142869999Y-92709999D03*
X145409999Y-92709999D03*
X147949999Y-92709999D03*
X80385999Y-140969999D03*
X120009999Y-140969999D03*
X117469999Y-140969999D03*
X114929999Y-140969999D03*
X112389999Y-140969999D03*
X109849999Y-140969999D03*
X107309999Y-140969999D03*
X104769999Y-140969999D03*
X102229999Y-140969999D03*
X98165999Y-140969999D03*
X95625999Y-140969999D03*
X93085999Y-140969999D03*
X90545999Y-140969999D03*
X88005999Y-140969999D03*
X85465999Y-140969999D03*
X125089999Y-140969999D03*
X127629999Y-140969999D03*
X130169999Y-140969999D03*
X132709999Y-140969999D03*
X135249999Y-140969999D03*
X137789999Y-140969999D03*
X140329999Y-140969999D03*
X142869999Y-140969999D03*
X150489999Y-138429999D03*
X153029999Y-138429999D03*
X150489999Y-135889999D03*
X153029999Y-135889999D03*
X150489999Y-133349999D03*
X153029999Y-133349999D03*
X150489999Y-130809999D03*
X153029999Y-130809999D03*
X150489999Y-128269999D03*
X153029999Y-128269999D03*
X150489999Y-125729999D03*
X153029999Y-125729999D03*
X150489999Y-123189999D03*
X153029999Y-123189999D03*
X150489999Y-120649999D03*
X153029999Y-120649999D03*
X150489999Y-118109999D03*
X153029999Y-118109999D03*
X150489999Y-115569999D03*
X153029999Y-115569999D03*
X150489999Y-113029999D03*
X153029999Y-113029999D03*
X150489999Y-110489999D03*
X153029999Y-110489999D03*
X150489999Y-107949999D03*
X153029999Y-107949999D03*
X150489999Y-105409999D03*
X153029999Y-105409999D03*
X150489999Y-102869999D03*
X153029999Y-102869999D03*
X150489999Y-100329999D03*
X153029999Y-100329999D03*
D12*
X82925999Y-140969999D03*
X97149999Y-92709999D03*
X99689999Y-92709999D03*
X122676999Y-115569999D03*
X150489999Y-97789999D03*
X153029999Y-97789999D03*
D11*
X86989999Y-92709999D03*
X120136999Y-120649999D03*
X122676999Y-118109999D03*
X89529999Y-92709999D03*
X120136999Y-115569999D03*
X120136999Y-118109999D03*
X75305999Y-140969999D03*
X77845999Y-140969999D03*
X102229999Y-92709999D03*
%TD*%
D13*
%TO.C,J2*%
X167639999Y-134619999D03*
D14*
X167639999Y-137159999D03*
X167639999Y-139699999D03*
X167639999Y-142239999D03*
%TD*%
D10*
%TO.C,JOY_H2*%
X220715000Y-139700000D03*
%TD*%
D13*
%TO.C,J9*%
X242569999Y-147319999D03*
D14*
X242569999Y-149859999D03*
%TD*%
D13*
%TO.C,J11*%
X228599999Y-53339999D03*
D14*
X228599999Y-55879999D03*
%TD*%
D13*
%TO.C,J12*%
X228599999Y-63499999D03*
D14*
X228599999Y-66039999D03*
%TD*%
D15*
%TO.C,Q1*%
X145139999Y-87629999D03*
D16*
X145139999Y-86359999D03*
X145139999Y-85089999D03*
%TD*%
D10*
%TO.C,H1*%
X53340000Y-149860000D03*
%TD*%
%TO.C,H4*%
X251460000Y-30480000D03*
%TD*%
D13*
%TO.C,J8*%
X228599999Y-33019999D03*
D14*
X228599999Y-35559999D03*
%TD*%
D10*
%TO.C,JOY_H4*%
X200915000Y-113700000D03*
%TD*%
D17*
%TO.C,J1*%
X55880000Y-68920000D03*
X55880000Y-73320000D03*
%TD*%
D10*
%TO.C,JOY_H3*%
X220715000Y-113700000D03*
%TD*%
D13*
%TO.C,J13*%
X228599999Y-73659999D03*
D14*
X228599999Y-76199999D03*
%TD*%
D13*
%TO.C,J16*%
X165099999Y-114299999D03*
D14*
X167639999Y-114299999D03*
%TD*%
D10*
%TO.C,H5*%
X152400000Y-30480000D03*
%TD*%
D13*
%TO.C,J14*%
X165099999Y-124459999D03*
D14*
X167639999Y-124459999D03*
X165099999Y-126999999D03*
X167639999Y-126999999D03*
%TD*%
D10*
%TO.C,H2*%
X152400000Y-149860000D03*
%TD*%
%TO.C,JOY_H1*%
X200915000Y-139700000D03*
%TD*%
D13*
%TO.C,J7*%
X248919999Y-76199999D03*
D14*
X246379999Y-76199999D03*
X248919999Y-73659999D03*
X246379999Y-73659999D03*
X248919999Y-71119999D03*
X246379999Y-71119999D03*
X248919999Y-68579999D03*
X246379999Y-68579999D03*
X248919999Y-66039999D03*
X246379999Y-66039999D03*
X248919999Y-63499999D03*
X246379999Y-63499999D03*
X248919999Y-60959999D03*
X246379999Y-60959999D03*
X248919999Y-58419999D03*
X246379999Y-58419999D03*
X248919999Y-55879999D03*
X246379999Y-55879999D03*
X248919999Y-53339999D03*
X246379999Y-53339999D03*
X248919999Y-50799999D03*
X246379999Y-50799999D03*
X248919999Y-48259999D03*
X246379999Y-48259999D03*
X248919999Y-45719999D03*
X246379999Y-45719999D03*
X248919999Y-43179999D03*
X246379999Y-43179999D03*
X248919999Y-40639999D03*
X246379999Y-40639999D03*
%TD*%
D13*
%TO.C,J4*%
X248919999Y-104139999D03*
D14*
X248919999Y-101599999D03*
X248919999Y-99059999D03*
X248919999Y-96519999D03*
X248919999Y-93979999D03*
%TD*%
D13*
%TO.C,J17*%
X165099999Y-119379999D03*
D14*
X167639999Y-119379999D03*
%TD*%
D13*
%TO.C,J3*%
X81279999Y-50799999D03*
D14*
X83819999Y-50799999D03*
X81279999Y-53339999D03*
X83819999Y-53339999D03*
X81279999Y-55879999D03*
X83819999Y-55879999D03*
%TD*%
D13*
%TO.C,J15*%
X53339999Y-40639999D03*
D14*
X55879999Y-40639999D03*
X53339999Y-43179999D03*
X55879999Y-43179999D03*
%TD*%
D18*
%TO.C,U4*%
X209120000Y-77740000D03*
X209120000Y-40740000D03*
X94120000Y-77740000D03*
X94120000Y-40740000D03*
D19*
X134619999Y-78739999D03*
D20*
X132079999Y-78739999D03*
X129539999Y-78739999D03*
X126999999Y-78739999D03*
X124459999Y-78739999D03*
X121919999Y-78739999D03*
X119379999Y-78739999D03*
X116839999Y-78739999D03*
X114299999Y-78739999D03*
X111759999Y-78739999D03*
X109219999Y-78739999D03*
X106679999Y-78739999D03*
X104139999Y-78739999D03*
X101599999Y-78739999D03*
X137159999Y-78739999D03*
X139699999Y-78739999D03*
D21*
X210119999Y-64739999D03*
X210119999Y-53739999D03*
X210119999Y-60739999D03*
X210119999Y-49739999D03*
%TD*%
D13*
%TO.C,JP1*%
X55879999Y-55879999D03*
D14*
X55879999Y-53339999D03*
X55879999Y-50799999D03*
%TD*%
D10*
%TO.C,H6*%
X53340000Y-30480000D03*
%TD*%
D13*
%TO.C,J5*%
X248919999Y-137159999D03*
D14*
X248919999Y-134619999D03*
X248919999Y-132079999D03*
X248919999Y-129539999D03*
X248919999Y-126999999D03*
%TD*%
D13*
%TO.C,J10*%
X228599999Y-43179999D03*
D14*
X228599999Y-45719999D03*
%TD*%
D13*
%TO.C,J6*%
X205739999Y-142239999D03*
D14*
X208279999Y-142239999D03*
X210819999Y-142239999D03*
X213359999Y-142239999D03*
X215899999Y-142239999D03*
%TD*%
D10*
%TO.C,H3*%
X251460000Y-149860000D03*
%TD*%
M02*
